%TF.GenerationSoftware,KiCad,Pcbnew,(6.0.1)*%
%TF.CreationDate,2022-11-28T18:30:33+03:00*%
%TF.ProjectId,WS2812Controller,57533238-3132-4436-9f6e-74726f6c6c65,0.6*%
%TF.SameCoordinates,PX81390e0PY53ec600*%
%TF.FileFunction,Paste,Top*%
%TF.FilePolarity,Positive*%
%FSLAX46Y46*%
G04 Gerber Fmt 4.6, Leading zero omitted, Abs format (unit mm)*
G04 Created by KiCad (PCBNEW (6.0.1)) date 2022-11-28 18:30:33*
%MOMM*%
%LPD*%
G01*
G04 APERTURE LIST*
G04 Aperture macros list*
%AMRoundRect*
0 Rectangle with rounded corners*
0 $1 Rounding radius*
0 $2 $3 $4 $5 $6 $7 $8 $9 X,Y pos of 4 corners*
0 Add a 4 corners polygon primitive as box body*
4,1,4,$2,$3,$4,$5,$6,$7,$8,$9,$2,$3,0*
0 Add four circle primitives for the rounded corners*
1,1,$1+$1,$2,$3*
1,1,$1+$1,$4,$5*
1,1,$1+$1,$6,$7*
1,1,$1+$1,$8,$9*
0 Add four rect primitives between the rounded corners*
20,1,$1+$1,$2,$3,$4,$5,0*
20,1,$1+$1,$4,$5,$6,$7,0*
20,1,$1+$1,$6,$7,$8,$9,0*
20,1,$1+$1,$8,$9,$2,$3,0*%
G04 Aperture macros list end*
%ADD10R,2.000000X1.500000*%
%ADD11R,2.000000X3.800000*%
%ADD12R,1.000000X2.500000*%
%ADD13R,1.800000X1.000000*%
%ADD14RoundRect,0.250000X0.450000X-0.262500X0.450000X0.262500X-0.450000X0.262500X-0.450000X-0.262500X0*%
%ADD15RoundRect,0.250000X-0.450000X0.262500X-0.450000X-0.262500X0.450000X-0.262500X0.450000X0.262500X0*%
%ADD16RoundRect,0.250000X-0.475000X0.250000X-0.475000X-0.250000X0.475000X-0.250000X0.475000X0.250000X0*%
%ADD17R,1.000000X0.900000*%
%ADD18RoundRect,0.090000X-0.210000X0.895000X-0.210000X-0.895000X0.210000X-0.895000X0.210000X0.895000X0*%
%ADD19RoundRect,0.250000X0.475000X-0.250000X0.475000X0.250000X-0.475000X0.250000X-0.475000X-0.250000X0*%
G04 APERTURE END LIST*
D10*
%TO.C,U1*%
X11060140Y14668960D03*
D11*
X17360140Y12368960D03*
D10*
X11060140Y12368960D03*
X11060140Y10068960D03*
%TD*%
D12*
%TO.C,U2*%
X16003260Y6122880D03*
X14003260Y6122880D03*
X12003260Y6122880D03*
X10003260Y6122880D03*
X8003260Y6122880D03*
X6003260Y6122880D03*
X4003260Y6122880D03*
X2003260Y6122880D03*
D13*
X503260Y3522880D03*
X503260Y1522880D03*
X503260Y-477120D03*
X503260Y-2477120D03*
X503260Y-4477120D03*
X503260Y-6477120D03*
D12*
X2003260Y-9077120D03*
X4003260Y-9077120D03*
X6003260Y-9077120D03*
X8003260Y-9077120D03*
X10003260Y-9077120D03*
X12003260Y-9077120D03*
X14003260Y-9077120D03*
X16003260Y-9077120D03*
%TD*%
D14*
%TO.C,R5*%
X2168000Y-14918900D03*
X2168000Y-13093900D03*
%TD*%
D15*
%TO.C,R1*%
X19772740Y15168680D03*
X19772740Y13343680D03*
%TD*%
%TO.C,R6*%
X-5756800Y13677700D03*
X-5756800Y11852700D03*
%TD*%
%TO.C,R2*%
X-2160160Y-13093900D03*
X-2160160Y-14918900D03*
%TD*%
D16*
%TO.C,C1*%
X8241140Y11413960D03*
X8241140Y9513960D03*
%TD*%
D15*
%TO.C,R3*%
X19775280Y11252000D03*
X19775280Y9427000D03*
%TD*%
D17*
%TO.C,SW1*%
X-4159040Y5211460D03*
X-4159040Y1111460D03*
X-2559040Y1111460D03*
X-2559040Y5211460D03*
%TD*%
D14*
%TO.C,R4*%
X3920Y-14918900D03*
X3920Y-13093900D03*
%TD*%
D18*
%TO.C,U3*%
X4210000Y15189400D03*
X2940000Y15189400D03*
X1670000Y15189400D03*
X400000Y15189400D03*
X-870000Y15189400D03*
X-2140000Y15189400D03*
X-3410000Y15189400D03*
X-3410000Y10239400D03*
X-2140000Y10239400D03*
X-870000Y10239400D03*
X400000Y10239400D03*
X1670000Y10239400D03*
X2940000Y10239400D03*
X4210000Y10239400D03*
%TD*%
D17*
%TO.C,SW2*%
X-2561580Y-9018060D03*
X-2561580Y-4918060D03*
X-4161580Y-9018060D03*
X-4161580Y-4918060D03*
%TD*%
D19*
%TO.C,C2*%
X8241140Y13323960D03*
X8241140Y15223960D03*
%TD*%
M02*
