%TF.GenerationSoftware,KiCad,Pcbnew,(6.0.1)*%
%TF.CreationDate,2022-11-28T18:30:33+03:00*%
%TF.ProjectId,WS2812Controller,57533238-3132-4436-9f6e-74726f6c6c65,0.6*%
%TF.SameCoordinates,PX81390e0PY53ec600*%
%TF.FileFunction,Legend,Top*%
%TF.FilePolarity,Positive*%
%FSLAX46Y46*%
G04 Gerber Fmt 4.6, Leading zero omitted, Abs format (unit mm)*
G04 Created by KiCad (PCBNEW (6.0.1)) date 2022-11-28 18:30:33*
%MOMM*%
%LPD*%
G01*
G04 APERTURE LIST*
%ADD10C,0.150000*%
%ADD11C,0.300000*%
%ADD12C,0.375000*%
%ADD13C,0.120000*%
%ADD14C,0.010000*%
%ADD15C,0.254000*%
%ADD16C,0.127000*%
%ADD17C,0.200000*%
G04 APERTURE END LIST*
D10*
X-4745620Y7391581D02*
X-5221810Y7058248D01*
X-4745620Y6820153D02*
X-5745620Y6820153D01*
X-5745620Y7201105D01*
X-5698000Y7296343D01*
X-5650381Y7343962D01*
X-5555143Y7391581D01*
X-5412286Y7391581D01*
X-5317048Y7343962D01*
X-5269429Y7296343D01*
X-5221810Y7201105D01*
X-5221810Y6820153D01*
X-4793239Y7772534D02*
X-4745620Y7915391D01*
X-4745620Y8153486D01*
X-4793239Y8248724D01*
X-4840858Y8296343D01*
X-4936096Y8343962D01*
X-5031334Y8343962D01*
X-5126572Y8296343D01*
X-5174191Y8248724D01*
X-5221810Y8153486D01*
X-5269429Y7963010D01*
X-5317048Y7867772D01*
X-5364667Y7820153D01*
X-5459905Y7772534D01*
X-5555143Y7772534D01*
X-5650381Y7820153D01*
X-5698000Y7867772D01*
X-5745620Y7963010D01*
X-5745620Y8201105D01*
X-5698000Y8343962D01*
X-5745620Y8629677D02*
X-5745620Y9201105D01*
X-4745620Y8915391D02*
X-5745620Y8915391D01*
X-5269429Y-14528476D02*
X-5269429Y-14861809D01*
X-4745620Y-14861809D02*
X-5745620Y-14861809D01*
X-5745620Y-14385619D01*
X-4745620Y-13528476D02*
X-4745620Y-14004666D01*
X-5745620Y-14004666D01*
X-5031334Y-13242761D02*
X-5031334Y-12766571D01*
X-4745620Y-13338000D02*
X-5745620Y-13004666D01*
X-4745620Y-12671333D01*
X-4793239Y-12385619D02*
X-4745620Y-12242761D01*
X-4745620Y-12004666D01*
X-4793239Y-11909428D01*
X-4840858Y-11861809D01*
X-4936096Y-11814190D01*
X-5031334Y-11814190D01*
X-5126572Y-11861809D01*
X-5174191Y-11909428D01*
X-5221810Y-12004666D01*
X-5269429Y-12195142D01*
X-5317048Y-12290380D01*
X-5364667Y-12338000D01*
X-5459905Y-12385619D01*
X-5555143Y-12385619D01*
X-5650381Y-12338000D01*
X-5698000Y-12290380D01*
X-5745620Y-12195142D01*
X-5745620Y-11957047D01*
X-5698000Y-11814190D01*
X-4745620Y-11385619D02*
X-5745620Y-11385619D01*
X-5269429Y-11385619D02*
X-5269429Y-10814190D01*
X-4745620Y-10814190D02*
X-5745620Y-10814190D01*
X-7285620Y8501658D02*
X-7285620Y7930229D01*
X-7285620Y8215943D02*
X-8285620Y8215943D01*
X-8142762Y8120705D01*
X-8047524Y8025467D01*
X-7999905Y7930229D01*
X-8285620Y9120705D02*
X-8285620Y9215943D01*
X-8238000Y9311181D01*
X-8190381Y9358800D01*
X-8095143Y9406420D01*
X-7904667Y9454039D01*
X-7666572Y9454039D01*
X-7476096Y9406420D01*
X-7380858Y9358800D01*
X-7333239Y9311181D01*
X-7285620Y9215943D01*
X-7285620Y9120705D01*
X-7333239Y9025467D01*
X-7380858Y8977848D01*
X-7476096Y8930229D01*
X-7666572Y8882610D01*
X-7904667Y8882610D01*
X-8095143Y8930229D01*
X-8190381Y8977848D01*
X-8238000Y9025467D01*
X-8285620Y9120705D01*
X-8285620Y10073086D02*
X-8285620Y10168324D01*
X-8238000Y10263562D01*
X-8190381Y10311181D01*
X-8095143Y10358800D01*
X-7904667Y10406420D01*
X-7666572Y10406420D01*
X-7476096Y10358800D01*
X-7380858Y10311181D01*
X-7333239Y10263562D01*
X-7285620Y10168324D01*
X-7285620Y10073086D01*
X-7333239Y9977848D01*
X-7380858Y9930229D01*
X-7476096Y9882610D01*
X-7666572Y9834991D01*
X-7904667Y9834991D01*
X-8095143Y9882610D01*
X-8190381Y9930229D01*
X-8238000Y9977848D01*
X-8285620Y10073086D01*
X-8285620Y11025467D02*
X-8285620Y11120705D01*
X-8238000Y11215943D01*
X-8190381Y11263562D01*
X-8095143Y11311181D01*
X-7904667Y11358800D01*
X-7666572Y11358800D01*
X-7476096Y11311181D01*
X-7380858Y11263562D01*
X-7333239Y11215943D01*
X-7285620Y11120705D01*
X-7285620Y11025467D01*
X-7333239Y10930229D01*
X-7380858Y10882610D01*
X-7476096Y10834991D01*
X-7666572Y10787372D01*
X-7904667Y10787372D01*
X-8095143Y10834991D01*
X-8190381Y10882610D01*
X-8238000Y10930229D01*
X-8285620Y11025467D01*
X-7952286Y11787372D02*
X-6952286Y11787372D01*
X-7428477Y12263562D02*
X-7333239Y12311181D01*
X-7285620Y12406420D01*
X-7428477Y11787372D02*
X-7333239Y11834991D01*
X-7285620Y11930229D01*
X-7285620Y12120705D01*
X-7333239Y12215943D01*
X-7428477Y12263562D01*
X-7952286Y12263562D01*
X-7809429Y13168324D02*
X-7809429Y12834991D01*
X-7285620Y12834991D02*
X-8285620Y12834991D01*
X-8285620Y13311181D01*
X-7285620Y14977848D02*
X-7285620Y14406420D01*
X-7285620Y14692134D02*
X-8285620Y14692134D01*
X-8142762Y14596896D01*
X-8047524Y14501658D01*
X-7999905Y14406420D01*
X-8285620Y15596896D02*
X-8285620Y15692134D01*
X-8238000Y15787372D01*
X-8190381Y15834991D01*
X-8095143Y15882610D01*
X-7904667Y15930229D01*
X-7666572Y15930229D01*
X-7476096Y15882610D01*
X-7380858Y15834991D01*
X-7333239Y15787372D01*
X-7285620Y15692134D01*
X-7285620Y15596896D01*
X-7333239Y15501658D01*
X-7380858Y15454039D01*
X-7476096Y15406420D01*
X-7666572Y15358800D01*
X-7904667Y15358800D01*
X-8095143Y15406420D01*
X-8190381Y15454039D01*
X-8238000Y15501658D01*
X-8285620Y15596896D01*
X-8285620Y16215943D02*
X-7285620Y16549277D01*
X-8285620Y16882610D01*
X-23351640Y-915306D02*
X-23318307Y-848640D01*
X-23318307Y-748640D01*
X-23351640Y-648640D01*
X-23418307Y-581973D01*
X-23484974Y-548640D01*
X-23618307Y-515306D01*
X-23718307Y-515306D01*
X-23851640Y-548640D01*
X-23918307Y-581973D01*
X-23984974Y-648640D01*
X-24018307Y-748640D01*
X-24018307Y-815306D01*
X-23984974Y-915306D01*
X-23951640Y-948640D01*
X-23718307Y-948640D01*
X-23718307Y-815306D01*
X-24018307Y-1248640D02*
X-23318307Y-1248640D01*
X-24018307Y-1648640D01*
X-23318307Y-1648640D01*
X-24018307Y-1981973D02*
X-23318307Y-1981973D01*
X-23318307Y-2148640D01*
X-23351640Y-2248640D01*
X-23418307Y-2315306D01*
X-23484974Y-2348640D01*
X-23618307Y-2381973D01*
X-23718307Y-2381973D01*
X-23851640Y-2348640D01*
X-23918307Y-2315306D01*
X-23984974Y-2248640D01*
X-24018307Y-2148640D01*
X-24018307Y-1981973D01*
X-23318307Y4907694D02*
X-23318307Y5241027D01*
X-23651640Y5274360D01*
X-23618307Y5241027D01*
X-23584974Y5174360D01*
X-23584974Y5007694D01*
X-23618307Y4941027D01*
X-23651640Y4907694D01*
X-23718307Y4874360D01*
X-23884974Y4874360D01*
X-23951640Y4907694D01*
X-23984974Y4941027D01*
X-24018307Y5007694D01*
X-24018307Y5174360D01*
X-23984974Y5241027D01*
X-23951640Y5274360D01*
X-23318307Y4674360D02*
X-24018307Y4441027D01*
X-23318307Y4207694D01*
D11*
X-15163429Y-8565600D02*
X-15163429Y-9279885D01*
X-14449143Y-9351314D01*
X-14520572Y-9279885D01*
X-14592000Y-9137028D01*
X-14592000Y-8779885D01*
X-14520572Y-8637028D01*
X-14449143Y-8565600D01*
X-14306286Y-8494171D01*
X-13949143Y-8494171D01*
X-13806286Y-8565600D01*
X-13734858Y-8637028D01*
X-13663429Y-8779885D01*
X-13663429Y-9137028D01*
X-13734858Y-9279885D01*
X-13806286Y-9351314D01*
X-14092000Y-7922742D02*
X-14092000Y-7208457D01*
X-13663429Y-8065600D02*
X-15163429Y-7565600D01*
X-13663429Y-7065600D01*
X-13663429Y-5422742D02*
X-14663429Y-5422742D01*
X-14520572Y-5422742D02*
X-14592000Y-5351314D01*
X-14663429Y-5208457D01*
X-14663429Y-4994171D01*
X-14592000Y-4851314D01*
X-14449143Y-4779885D01*
X-13663429Y-4779885D01*
X-14449143Y-4779885D02*
X-14592000Y-4708457D01*
X-14663429Y-4565600D01*
X-14663429Y-4351314D01*
X-14592000Y-4208457D01*
X-14449143Y-4137028D01*
X-13663429Y-4137028D01*
X-13663429Y-2779885D02*
X-14449143Y-2779885D01*
X-14592000Y-2851314D01*
X-14663429Y-2994171D01*
X-14663429Y-3279885D01*
X-14592000Y-3422742D01*
X-13734858Y-2779885D02*
X-13663429Y-2922742D01*
X-13663429Y-3279885D01*
X-13734858Y-3422742D01*
X-13877715Y-3494171D01*
X-14020572Y-3494171D01*
X-14163429Y-3422742D01*
X-14234858Y-3279885D01*
X-14234858Y-2922742D01*
X-14306286Y-2779885D01*
X-13663429Y-2208457D02*
X-14663429Y-1422742D01*
X-14663429Y-2208457D02*
X-13663429Y-1422742D01*
X-13806286Y-851314D02*
X-13734858Y-779885D01*
X-13663429Y-851314D01*
X-13734858Y-922742D01*
X-13806286Y-851314D01*
X-13663429Y-851314D01*
D10*
X-24018307Y2743027D02*
X-23318307Y2743027D01*
X-23318307Y2576360D01*
X-23351640Y2476360D01*
X-23418307Y2409694D01*
X-23484974Y2376360D01*
X-23618307Y2343027D01*
X-23718307Y2343027D01*
X-23851640Y2376360D01*
X-23918307Y2409694D01*
X-23984974Y2476360D01*
X-24018307Y2576360D01*
X-24018307Y2743027D01*
X-24018307Y1743027D02*
X-23651640Y1743027D01*
X-23584974Y1776360D01*
X-23551640Y1843027D01*
X-23551640Y1976360D01*
X-23584974Y2043027D01*
X-23984974Y1743027D02*
X-24018307Y1809694D01*
X-24018307Y1976360D01*
X-23984974Y2043027D01*
X-23918307Y2076360D01*
X-23851640Y2076360D01*
X-23784974Y2043027D01*
X-23751640Y1976360D01*
X-23751640Y1809694D01*
X-23718307Y1743027D01*
X-23551640Y1509694D02*
X-23551640Y1243027D01*
X-23318307Y1409694D02*
X-23918307Y1409694D01*
X-23984974Y1376360D01*
X-24018307Y1309694D01*
X-24018307Y1243027D01*
X-24018307Y709694D02*
X-23651640Y709694D01*
X-23584974Y743027D01*
X-23551640Y809694D01*
X-23551640Y943027D01*
X-23584974Y1009694D01*
X-23984974Y709694D02*
X-24018307Y776360D01*
X-24018307Y943027D01*
X-23984974Y1009694D01*
X-23918307Y1043027D01*
X-23851640Y1043027D01*
X-23784974Y1009694D01*
X-23751640Y943027D01*
X-23751640Y776360D01*
X-23718307Y709694D01*
D12*
X9729117Y-6161234D02*
X9729117Y-5661234D01*
X10514831Y-5446948D02*
X10514831Y-6161234D01*
X9014831Y-6161234D01*
X9014831Y-5446948D01*
X10443402Y-4875520D02*
X10514831Y-4661234D01*
X10514831Y-4304091D01*
X10443402Y-4161234D01*
X10371974Y-4089805D01*
X10229117Y-4018377D01*
X10086260Y-4018377D01*
X9943402Y-4089805D01*
X9871974Y-4161234D01*
X9800545Y-4304091D01*
X9729117Y-4589805D01*
X9657688Y-4732662D01*
X9586260Y-4804091D01*
X9443402Y-4875520D01*
X9300545Y-4875520D01*
X9157688Y-4804091D01*
X9086260Y-4732662D01*
X9014831Y-4589805D01*
X9014831Y-4232662D01*
X9086260Y-4018377D01*
X10514831Y-3375520D02*
X9014831Y-3375520D01*
X9014831Y-2804091D01*
X9086260Y-2661234D01*
X9157688Y-2589805D01*
X9300545Y-2518377D01*
X9514831Y-2518377D01*
X9657688Y-2589805D01*
X9729117Y-2661234D01*
X9800545Y-2804091D01*
X9800545Y-3375520D01*
X9943402Y-1875520D02*
X9943402Y-732662D01*
X10514831Y767338D02*
X10514831Y-89805D01*
X10514831Y338766D02*
X9014831Y338766D01*
X9229117Y195909D01*
X9371974Y53052D01*
X9443402Y-89805D01*
X9157688Y1338766D02*
X9086260Y1410195D01*
X9014831Y1553052D01*
X9014831Y1910195D01*
X9086260Y2053052D01*
X9157688Y2124480D01*
X9300545Y2195909D01*
X9443402Y2195909D01*
X9657688Y2124480D01*
X10514831Y1267338D01*
X10514831Y2195909D01*
X9729117Y3338766D02*
X9729117Y2838766D01*
X10514831Y2838766D02*
X9014831Y2838766D01*
X9014831Y3553052D01*
D10*
X14862986Y-16750220D02*
X14796320Y-16716886D01*
X14696320Y-16716886D01*
X14596320Y-16750220D01*
X14529653Y-16816886D01*
X14496320Y-16883553D01*
X14462986Y-17016886D01*
X14462986Y-17116886D01*
X14496320Y-17250220D01*
X14529653Y-17316886D01*
X14596320Y-17383553D01*
X14696320Y-17416886D01*
X14762986Y-17416886D01*
X14862986Y-17383553D01*
X14896320Y-17350220D01*
X14896320Y-17116886D01*
X14762986Y-17116886D01*
X15196320Y-17416886D02*
X15196320Y-16716886D01*
X15596320Y-17416886D01*
X15596320Y-16716886D01*
X15929653Y-17416886D02*
X15929653Y-16716886D01*
X16096320Y-16716886D01*
X16196320Y-16750220D01*
X16262986Y-16816886D01*
X16296320Y-16883553D01*
X16329653Y-17016886D01*
X16329653Y-17116886D01*
X16296320Y-17250220D01*
X16262986Y-17316886D01*
X16196320Y-17383553D01*
X16096320Y-17416886D01*
X15929653Y-17416886D01*
X12156320Y-17416886D02*
X12156320Y-16716886D01*
X12622986Y-16716886D02*
X12756320Y-16716886D01*
X12822986Y-16750220D01*
X12889653Y-16816886D01*
X12922986Y-16950220D01*
X12922986Y-17183553D01*
X12889653Y-17316886D01*
X12822986Y-17383553D01*
X12756320Y-17416886D01*
X12622986Y-17416886D01*
X12556320Y-17383553D01*
X12489653Y-17316886D01*
X12456320Y-17183553D01*
X12456320Y-16950220D01*
X12489653Y-16816886D01*
X12556320Y-16750220D01*
X12622986Y-16716886D01*
X13356320Y-16716886D02*
X13422986Y-16716886D01*
X13489653Y-16750220D01*
X13522986Y-16783553D01*
X13556320Y-16850220D01*
X13589653Y-16983553D01*
X13589653Y-17150220D01*
X13556320Y-17283553D01*
X13522986Y-17350220D01*
X13489653Y-17383553D01*
X13422986Y-17416886D01*
X13356320Y-17416886D01*
X13289653Y-17383553D01*
X13256320Y-17350220D01*
X13222986Y-17283553D01*
X13189653Y-17150220D01*
X13189653Y-16983553D01*
X13222986Y-16850220D01*
X13256320Y-16783553D01*
X13289653Y-16750220D01*
X13356320Y-16716886D01*
X9782986Y-16716886D02*
X10182986Y-16716886D01*
X9982986Y-17416886D02*
X9982986Y-16716886D01*
X10349653Y-16716886D02*
X10816320Y-17416886D01*
X10816320Y-16716886D02*
X10349653Y-17416886D01*
X7659653Y-17416886D02*
X7426320Y-17083553D01*
X7259653Y-17416886D02*
X7259653Y-16716886D01*
X7526320Y-16716886D01*
X7592986Y-16750220D01*
X7626320Y-16783553D01*
X7659653Y-16850220D01*
X7659653Y-16950220D01*
X7626320Y-17016886D01*
X7592986Y-17050220D01*
X7526320Y-17083553D01*
X7259653Y-17083553D01*
X7892986Y-16716886D02*
X8359653Y-17416886D01*
X8359653Y-16716886D02*
X7892986Y-17416886D01*
X4369653Y-16716886D02*
X4802986Y-16716886D01*
X4569653Y-16983553D01*
X4669653Y-16983553D01*
X4736320Y-17016886D01*
X4769653Y-17050220D01*
X4802986Y-17116886D01*
X4802986Y-17283553D01*
X4769653Y-17350220D01*
X4736320Y-17383553D01*
X4669653Y-17416886D01*
X4469653Y-17416886D01*
X4402986Y-17383553D01*
X4369653Y-17350220D01*
X5002986Y-16716886D02*
X5236320Y-17416886D01*
X5469653Y-16716886D01*
X5636320Y-16716886D02*
X6069653Y-16716886D01*
X5836320Y-16983553D01*
X5936320Y-16983553D01*
X6002986Y-17016886D01*
X6036320Y-17050220D01*
X6069653Y-17116886D01*
X6069653Y-17283553D01*
X6036320Y-17350220D01*
X6002986Y-17383553D01*
X5936320Y-17416886D01*
X5736320Y-17416886D01*
X5669653Y-17383553D01*
X5636320Y-17350220D01*
X-21206172Y-16052714D02*
X-20968077Y-16719380D01*
X-20729981Y-16052714D01*
X-20158553Y-15719380D02*
X-20063315Y-15719380D01*
X-19968077Y-15767000D01*
X-19920458Y-15814619D01*
X-19872839Y-15909857D01*
X-19825220Y-16100333D01*
X-19825220Y-16338428D01*
X-19872839Y-16528904D01*
X-19920458Y-16624142D01*
X-19968077Y-16671761D01*
X-20063315Y-16719380D01*
X-20158553Y-16719380D01*
X-20253791Y-16671761D01*
X-20301410Y-16624142D01*
X-20349029Y-16528904D01*
X-20396648Y-16338428D01*
X-20396648Y-16100333D01*
X-20349029Y-15909857D01*
X-20301410Y-15814619D01*
X-20253791Y-15767000D01*
X-20158553Y-15719380D01*
X-19396648Y-16624142D02*
X-19349029Y-16671761D01*
X-19396648Y-16719380D01*
X-19444267Y-16671761D01*
X-19396648Y-16624142D01*
X-19396648Y-16719380D01*
X-18491886Y-15719380D02*
X-18682362Y-15719380D01*
X-18777600Y-15767000D01*
X-18825220Y-15814619D01*
X-18920458Y-15957476D01*
X-18968077Y-16147952D01*
X-18968077Y-16528904D01*
X-18920458Y-16624142D01*
X-18872839Y-16671761D01*
X-18777600Y-16719380D01*
X-18587124Y-16719380D01*
X-18491886Y-16671761D01*
X-18444267Y-16624142D01*
X-18396648Y-16528904D01*
X-18396648Y-16290809D01*
X-18444267Y-16195571D01*
X-18491886Y-16147952D01*
X-18587124Y-16100333D01*
X-18777600Y-16100333D01*
X-18872839Y-16147952D01*
X-18920458Y-16195571D01*
X-18968077Y-16290809D01*
X-23141581Y-11479123D02*
X-23141581Y-11002933D01*
X-23617772Y-10955314D01*
X-23570153Y-11002933D01*
X-23522534Y-11098171D01*
X-23522534Y-11336266D01*
X-23570153Y-11431504D01*
X-23617772Y-11479123D01*
X-23713010Y-11526742D01*
X-23951105Y-11526742D01*
X-24046343Y-11479123D01*
X-24093962Y-11431504D01*
X-24141581Y-11336266D01*
X-24141581Y-11098171D01*
X-24093962Y-11002933D01*
X-24046343Y-10955314D01*
X-23141581Y-11812457D02*
X-24141581Y-12145790D01*
X-23141581Y-12479123D01*
X-23189200Y-5827695D02*
X-23141581Y-5732457D01*
X-23141581Y-5589600D01*
X-23189200Y-5446742D01*
X-23284439Y-5351504D01*
X-23379677Y-5303885D01*
X-23570153Y-5256266D01*
X-23713010Y-5256266D01*
X-23903486Y-5303885D01*
X-23998724Y-5351504D01*
X-24093962Y-5446742D01*
X-24141581Y-5589600D01*
X-24141581Y-5684838D01*
X-24093962Y-5827695D01*
X-24046343Y-5875314D01*
X-23713010Y-5875314D01*
X-23713010Y-5684838D01*
X-24141581Y-6303885D02*
X-23141581Y-6303885D01*
X-24141581Y-6875314D01*
X-23141581Y-6875314D01*
X-24141581Y-7351504D02*
X-23141581Y-7351504D01*
X-23141581Y-7589600D01*
X-23189200Y-7732457D01*
X-23284439Y-7827695D01*
X-23379677Y-7875314D01*
X-23570153Y-7922933D01*
X-23713010Y-7922933D01*
X-23903486Y-7875314D01*
X-23998724Y-7827695D01*
X-24093962Y-7732457D01*
X-24141581Y-7589600D01*
X-24141581Y-7351504D01*
X31022780Y-4850326D02*
X31022780Y-4231279D01*
X31403733Y-4564612D01*
X31403733Y-4421755D01*
X31451352Y-4326517D01*
X31498971Y-4278898D01*
X31594209Y-4231279D01*
X31832304Y-4231279D01*
X31927542Y-4278898D01*
X31975161Y-4326517D01*
X32022780Y-4421755D01*
X32022780Y-4707469D01*
X31975161Y-4802707D01*
X31927542Y-4850326D01*
X31022780Y-3326517D02*
X31022780Y-3802707D01*
X31498971Y-3850326D01*
X31451352Y-3802707D01*
X31403733Y-3707469D01*
X31403733Y-3469374D01*
X31451352Y-3374136D01*
X31498971Y-3326517D01*
X31594209Y-3278898D01*
X31832304Y-3278898D01*
X31927542Y-3326517D01*
X31975161Y-3374136D01*
X32022780Y-3469374D01*
X32022780Y-3707469D01*
X31975161Y-3802707D01*
X31927542Y-3850326D01*
X31927542Y-2850326D02*
X31975161Y-2802707D01*
X32022780Y-2850326D01*
X31975161Y-2897945D01*
X31927542Y-2850326D01*
X32022780Y-2850326D01*
X31022780Y-2469374D02*
X31022780Y-1802707D01*
X32022780Y-2231279D01*
X31022780Y-1516993D02*
X31022780Y-850326D01*
X32022780Y-1278898D01*
X31022780Y-564612D02*
X31022780Y54436D01*
X31403733Y-278898D01*
X31403733Y-136040D01*
X31451352Y-40802D01*
X31498971Y6817D01*
X31594209Y54436D01*
X31832304Y54436D01*
X31927542Y6817D01*
X31975161Y-40802D01*
X32022780Y-136040D01*
X32022780Y-421755D01*
X31975161Y-516993D01*
X31927542Y-564612D01*
X31118019Y435388D02*
X31070400Y483007D01*
X31022780Y578245D01*
X31022780Y816340D01*
X31070400Y911579D01*
X31118019Y959198D01*
X31213257Y1006817D01*
X31308495Y1006817D01*
X31451352Y959198D01*
X32022780Y387769D01*
X32022780Y1006817D01*
X32022780Y2197293D02*
X31356114Y2197293D01*
X31451352Y2197293D02*
X31403733Y2244912D01*
X31356114Y2340150D01*
X31356114Y2483007D01*
X31403733Y2578245D01*
X31498971Y2625864D01*
X32022780Y2625864D01*
X31498971Y2625864D02*
X31403733Y2673483D01*
X31356114Y2768721D01*
X31356114Y2911579D01*
X31403733Y3006817D01*
X31498971Y3054436D01*
X32022780Y3054436D01*
X32022780Y3530626D02*
X31356114Y3530626D01*
X31451352Y3530626D02*
X31403733Y3578245D01*
X31356114Y3673483D01*
X31356114Y3816340D01*
X31403733Y3911579D01*
X31498971Y3959198D01*
X32022780Y3959198D01*
X31498971Y3959198D02*
X31403733Y4006817D01*
X31356114Y4102055D01*
X31356114Y4244912D01*
X31403733Y4340150D01*
X31498971Y4387769D01*
X32022780Y4387769D01*
D13*
X27660000Y-18070280D02*
X33306820Y-18070280D01*
X27660000Y17702960D02*
X33306820Y17702960D01*
X32720400Y-18070280D02*
X32720400Y17702960D01*
X32720400Y-18070280D02*
X32720400Y17702960D01*
X32720400Y-18070280D02*
X33306821Y-16943776D01*
X32720400Y-18070280D02*
X32133979Y-16943776D01*
X32720400Y17702960D02*
X32133979Y16576456D01*
X32720400Y17702960D02*
X33306821Y16576456D01*
D10*
X-4183238Y26164286D02*
X-4183238Y25497620D01*
X-4421333Y26545239D02*
X-4659428Y25830953D01*
X-4040380Y25830953D01*
X-3611809Y25497620D02*
X-3421333Y25497620D01*
X-3326095Y25545239D01*
X-3278476Y25592858D01*
X-3183238Y25735715D01*
X-3135619Y25926191D01*
X-3135619Y26307143D01*
X-3183238Y26402381D01*
X-3230857Y26450000D01*
X-3326095Y26497620D01*
X-3516571Y26497620D01*
X-3611809Y26450000D01*
X-3659428Y26402381D01*
X-3707047Y26307143D01*
X-3707047Y26069048D01*
X-3659428Y25973810D01*
X-3611809Y25926191D01*
X-3516571Y25878572D01*
X-3326095Y25878572D01*
X-3230857Y25926191D01*
X-3183238Y25973810D01*
X-3135619Y26069048D01*
X-2707047Y25592858D02*
X-2659428Y25545239D01*
X-2707047Y25497620D01*
X-2754666Y25545239D01*
X-2707047Y25592858D01*
X-2707047Y25497620D01*
X-1802285Y26164286D02*
X-1802285Y25497620D01*
X-2040380Y26545239D02*
X-2278476Y25830953D01*
X-1659428Y25830953D01*
X-1088000Y26497620D02*
X-992761Y26497620D01*
X-897523Y26450000D01*
X-849904Y26402381D01*
X-802285Y26307143D01*
X-754666Y26116667D01*
X-754666Y25878572D01*
X-802285Y25688096D01*
X-849904Y25592858D01*
X-897523Y25545239D01*
X-992761Y25497620D01*
X-1088000Y25497620D01*
X-1183238Y25545239D01*
X-1230857Y25592858D01*
X-1278476Y25688096D01*
X-1326095Y25878572D01*
X-1326095Y26116667D01*
X-1278476Y26307143D01*
X-1230857Y26402381D01*
X-1183238Y26450000D01*
X-1088000Y26497620D01*
X-135619Y26497620D02*
X-40380Y26497620D01*
X54858Y26450000D01*
X102477Y26402381D01*
X150096Y26307143D01*
X197715Y26116667D01*
X197715Y25878572D01*
X150096Y25688096D01*
X102477Y25592858D01*
X54858Y25545239D01*
X-40380Y25497620D01*
X-135619Y25497620D01*
X-230857Y25545239D01*
X-278476Y25592858D01*
X-326095Y25688096D01*
X-373714Y25878572D01*
X-373714Y26116667D01*
X-326095Y26307143D01*
X-278476Y26402381D01*
X-230857Y26450000D01*
X-135619Y26497620D01*
X769143Y26069048D02*
X673905Y26116667D01*
X626286Y26164286D01*
X578667Y26259524D01*
X578667Y26307143D01*
X626286Y26402381D01*
X673905Y26450000D01*
X769143Y26497620D01*
X959620Y26497620D01*
X1054858Y26450000D01*
X1102477Y26402381D01*
X1150096Y26307143D01*
X1150096Y26259524D01*
X1102477Y26164286D01*
X1054858Y26116667D01*
X959620Y26069048D01*
X769143Y26069048D01*
X673905Y26021429D01*
X626286Y25973810D01*
X578667Y25878572D01*
X578667Y25688096D01*
X626286Y25592858D01*
X673905Y25545239D01*
X769143Y25497620D01*
X959620Y25497620D01*
X1054858Y25545239D01*
X1102477Y25592858D01*
X1150096Y25688096D01*
X1150096Y25878572D01*
X1102477Y25973810D01*
X1054858Y26021429D01*
X959620Y26069048D01*
X2340572Y25497620D02*
X2340572Y26164286D01*
X2340572Y26069048D02*
X2388191Y26116667D01*
X2483429Y26164286D01*
X2626286Y26164286D01*
X2721524Y26116667D01*
X2769143Y26021429D01*
X2769143Y25497620D01*
X2769143Y26021429D02*
X2816762Y26116667D01*
X2912000Y26164286D01*
X3054858Y26164286D01*
X3150096Y26116667D01*
X3197715Y26021429D01*
X3197715Y25497620D01*
X3673905Y25497620D02*
X3673905Y26164286D01*
X3673905Y26069048D02*
X3721524Y26116667D01*
X3816762Y26164286D01*
X3959620Y26164286D01*
X4054858Y26116667D01*
X4102477Y26021429D01*
X4102477Y25497620D01*
X4102477Y26021429D02*
X4150096Y26116667D01*
X4245334Y26164286D01*
X4388191Y26164286D01*
X4483429Y26116667D01*
X4531048Y26021429D01*
X4531048Y25497620D01*
X24660000Y20702960D02*
X24660000Y25386420D01*
X-24740760Y20702960D02*
X-24740760Y25386420D01*
X24660000Y24800000D02*
X-24740760Y24800000D01*
X24660000Y24800000D02*
X-24740760Y24800000D01*
X24660000Y24800000D02*
X23533496Y25386421D01*
X24660000Y24800000D02*
X23533496Y24213579D01*
X-24740760Y24800000D02*
X-23614256Y24213579D01*
X-24740760Y24800000D02*
X-23614256Y25386421D01*
%TO.C,U1*%
X14015580Y13171696D02*
X14825104Y13171696D01*
X14920342Y13219315D01*
X14967961Y13266934D01*
X15015580Y13362172D01*
X15015580Y13552648D01*
X14967961Y13647886D01*
X14920342Y13695505D01*
X14825104Y13743124D01*
X14015580Y13743124D01*
X15015580Y14743124D02*
X15015580Y14171696D01*
X15015580Y14457410D02*
X14015580Y14457410D01*
X14158438Y14362172D01*
X14253676Y14266934D01*
X14301295Y14171696D01*
%TO.C,J3*%
X-18255120Y1215227D02*
X-17540834Y1215227D01*
X-17397977Y1167608D01*
X-17302739Y1072370D01*
X-17255120Y929513D01*
X-17255120Y834275D01*
X-18255120Y1596180D02*
X-18255120Y2215227D01*
X-17874167Y1881894D01*
X-17874167Y2024751D01*
X-17826548Y2119989D01*
X-17778929Y2167608D01*
X-17683691Y2215227D01*
X-17445596Y2215227D01*
X-17350358Y2167608D01*
X-17302739Y2119989D01*
X-17255120Y2024751D01*
X-17255120Y1739037D01*
X-17302739Y1643799D01*
X-17350358Y1596180D01*
%TO.C,J1*%
X-18255120Y-9462933D02*
X-17540834Y-9462933D01*
X-17397977Y-9510552D01*
X-17302739Y-9605790D01*
X-17255120Y-9748647D01*
X-17255120Y-9843885D01*
X-17255120Y-8462933D02*
X-17255120Y-9034361D01*
X-17255120Y-8748647D02*
X-18255120Y-8748647D01*
X-18112262Y-8843885D01*
X-18017024Y-8939123D01*
X-17969405Y-9034361D01*
%TO.C,U2*%
X12694780Y-2218704D02*
X13504304Y-2218704D01*
X13599542Y-2171085D01*
X13647161Y-2123466D01*
X13694780Y-2028228D01*
X13694780Y-1837752D01*
X13647161Y-1742514D01*
X13599542Y-1694895D01*
X13504304Y-1647276D01*
X12694780Y-1647276D01*
X12790019Y-1218704D02*
X12742400Y-1171085D01*
X12694780Y-1075847D01*
X12694780Y-837752D01*
X12742400Y-742514D01*
X12790019Y-694895D01*
X12885257Y-647276D01*
X12980495Y-647276D01*
X13123352Y-694895D01*
X13694780Y-1266323D01*
X13694780Y-647276D01*
%TO.C,R5*%
X2033333Y-17252380D02*
X1700000Y-16776190D01*
X1461904Y-17252380D02*
X1461904Y-16252380D01*
X1842857Y-16252380D01*
X1938095Y-16300000D01*
X1985714Y-16347619D01*
X2033333Y-16442857D01*
X2033333Y-16585714D01*
X1985714Y-16680952D01*
X1938095Y-16728571D01*
X1842857Y-16776190D01*
X1461904Y-16776190D01*
X2938095Y-16252380D02*
X2461904Y-16252380D01*
X2414285Y-16728571D01*
X2461904Y-16680952D01*
X2557142Y-16633333D01*
X2795238Y-16633333D01*
X2890476Y-16680952D01*
X2938095Y-16728571D01*
X2985714Y-16823809D01*
X2985714Y-17061904D01*
X2938095Y-17157142D01*
X2890476Y-17204761D01*
X2795238Y-17252380D01*
X2557142Y-17252380D01*
X2461904Y-17204761D01*
X2414285Y-17157142D01*
%TO.C,R1*%
X21875120Y14089514D02*
X21398930Y13756180D01*
X21875120Y13518085D02*
X20875120Y13518085D01*
X20875120Y13899038D01*
X20922740Y13994276D01*
X20970359Y14041895D01*
X21065597Y14089514D01*
X21208454Y14089514D01*
X21303692Y14041895D01*
X21351311Y13994276D01*
X21398930Y13899038D01*
X21398930Y13518085D01*
X21875120Y15041895D02*
X21875120Y14470466D01*
X21875120Y14756180D02*
X20875120Y14756180D01*
X21017978Y14660942D01*
X21113216Y14565704D01*
X21160835Y14470466D01*
%TO.C,R6*%
X-5247620Y15433334D02*
X-5723810Y15100000D01*
X-5247620Y14861905D02*
X-6247620Y14861905D01*
X-6247620Y15242858D01*
X-6200000Y15338096D01*
X-6152381Y15385715D01*
X-6057143Y15433334D01*
X-5914286Y15433334D01*
X-5819048Y15385715D01*
X-5771429Y15338096D01*
X-5723810Y15242858D01*
X-5723810Y14861905D01*
X-6247620Y16290477D02*
X-6247620Y16100000D01*
X-6200000Y16004762D01*
X-6152381Y15957143D01*
X-6009524Y15861905D01*
X-5819048Y15814286D01*
X-5438096Y15814286D01*
X-5342858Y15861905D01*
X-5295239Y15909524D01*
X-5247620Y16004762D01*
X-5247620Y16195239D01*
X-5295239Y16290477D01*
X-5342858Y16338096D01*
X-5438096Y16385715D01*
X-5676191Y16385715D01*
X-5771429Y16338096D01*
X-5819048Y16290477D01*
X-5866667Y16195239D01*
X-5866667Y16004762D01*
X-5819048Y15909524D01*
X-5771429Y15861905D01*
X-5676191Y15814286D01*
%TO.C,R2*%
X-2326667Y-17232380D02*
X-2660000Y-16756190D01*
X-2898096Y-17232380D02*
X-2898096Y-16232380D01*
X-2517143Y-16232380D01*
X-2421905Y-16280000D01*
X-2374286Y-16327619D01*
X-2326667Y-16422857D01*
X-2326667Y-16565714D01*
X-2374286Y-16660952D01*
X-2421905Y-16708571D01*
X-2517143Y-16756190D01*
X-2898096Y-16756190D01*
X-1945715Y-16327619D02*
X-1898096Y-16280000D01*
X-1802858Y-16232380D01*
X-1564762Y-16232380D01*
X-1469524Y-16280000D01*
X-1421905Y-16327619D01*
X-1374286Y-16422857D01*
X-1374286Y-16518095D01*
X-1421905Y-16660952D01*
X-1993334Y-17232380D01*
X-1374286Y-17232380D01*
%TO.C,F1*%
X-7421429Y-5435595D02*
X-7421429Y-5768928D01*
X-6897620Y-5768928D02*
X-7897620Y-5768928D01*
X-7897620Y-5292738D01*
X-6897620Y-4387976D02*
X-6897620Y-4959404D01*
X-6897620Y-4673690D02*
X-7897620Y-4673690D01*
X-7754762Y-4768928D01*
X-7659524Y-4864166D01*
X-7611905Y-4959404D01*
%TO.C,C1*%
X6957142Y10297294D02*
X7004761Y10249675D01*
X7052380Y10106818D01*
X7052380Y10011580D01*
X7004761Y9868722D01*
X6909523Y9773484D01*
X6814285Y9725865D01*
X6623809Y9678246D01*
X6480952Y9678246D01*
X6290476Y9725865D01*
X6195238Y9773484D01*
X6100000Y9868722D01*
X6052380Y10011580D01*
X6052380Y10106818D01*
X6100000Y10249675D01*
X6147619Y10297294D01*
X7052380Y11249675D02*
X7052380Y10678246D01*
X7052380Y10963960D02*
X6052380Y10963960D01*
X6195238Y10868722D01*
X6290476Y10773484D01*
X6338095Y10678246D01*
%TO.C,R3*%
X21877660Y10172834D02*
X21401470Y9839500D01*
X21877660Y9601405D02*
X20877660Y9601405D01*
X20877660Y9982358D01*
X20925280Y10077596D01*
X20972899Y10125215D01*
X21068137Y10172834D01*
X21210994Y10172834D01*
X21306232Y10125215D01*
X21353851Y10077596D01*
X21401470Y9982358D01*
X21401470Y9601405D01*
X20877660Y10506167D02*
X20877660Y11125215D01*
X21258613Y10791881D01*
X21258613Y10934739D01*
X21306232Y11029977D01*
X21353851Y11077596D01*
X21449089Y11125215D01*
X21687184Y11125215D01*
X21782422Y11077596D01*
X21830041Y11029977D01*
X21877660Y10934739D01*
X21877660Y10649024D01*
X21830041Y10553786D01*
X21782422Y10506167D01*
%TO.C,SW1*%
X-2995239Y1828127D02*
X-2947620Y1970984D01*
X-2947620Y2209080D01*
X-2995239Y2304318D01*
X-3042858Y2351937D01*
X-3138096Y2399556D01*
X-3233334Y2399556D01*
X-3328572Y2351937D01*
X-3376191Y2304318D01*
X-3423810Y2209080D01*
X-3471429Y2018603D01*
X-3519048Y1923365D01*
X-3566667Y1875746D01*
X-3661905Y1828127D01*
X-3757143Y1828127D01*
X-3852381Y1875746D01*
X-3900000Y1923365D01*
X-3947620Y2018603D01*
X-3947620Y2256699D01*
X-3900000Y2399556D01*
X-3947620Y2732889D02*
X-2947620Y2970984D01*
X-3661905Y3161460D01*
X-2947620Y3351937D01*
X-3947620Y3590032D01*
X-2947620Y4494794D02*
X-2947620Y3923365D01*
X-2947620Y4209080D02*
X-3947620Y4209080D01*
X-3804762Y4113841D01*
X-3709524Y4018603D01*
X-3661905Y3923365D01*
%TO.C,R4*%
X-166667Y-17252380D02*
X-500000Y-16776190D01*
X-738096Y-17252380D02*
X-738096Y-16252380D01*
X-357143Y-16252380D01*
X-261905Y-16300000D01*
X-214286Y-16347619D01*
X-166667Y-16442857D01*
X-166667Y-16585714D01*
X-214286Y-16680952D01*
X-261905Y-16728571D01*
X-357143Y-16776190D01*
X-738096Y-16776190D01*
X690476Y-16585714D02*
X690476Y-17252380D01*
X452380Y-16204761D02*
X214285Y-16919047D01*
X833333Y-16919047D01*
%TO.C,U3*%
X-361905Y13262020D02*
X-361905Y12452496D01*
X-314286Y12357258D01*
X-266667Y12309639D01*
X-171429Y12262020D01*
X19047Y12262020D01*
X114285Y12309639D01*
X161904Y12357258D01*
X209523Y12452496D01*
X209523Y13262020D01*
X590476Y13262020D02*
X1209523Y13262020D01*
X876190Y12881067D01*
X1019047Y12881067D01*
X1114285Y12833448D01*
X1161904Y12785829D01*
X1209523Y12690591D01*
X1209523Y12452496D01*
X1161904Y12357258D01*
X1114285Y12309639D01*
X1019047Y12262020D01*
X733333Y12262020D01*
X638095Y12309639D01*
X590476Y12357258D01*
%TO.C,SW2*%
X-2918399Y-8301393D02*
X-2870780Y-8158536D01*
X-2870780Y-7920440D01*
X-2918399Y-7825202D01*
X-2966018Y-7777583D01*
X-3061256Y-7729964D01*
X-3156494Y-7729964D01*
X-3251732Y-7777583D01*
X-3299351Y-7825202D01*
X-3346970Y-7920440D01*
X-3394589Y-8110917D01*
X-3442208Y-8206155D01*
X-3489827Y-8253774D01*
X-3585065Y-8301393D01*
X-3680303Y-8301393D01*
X-3775541Y-8253774D01*
X-3823160Y-8206155D01*
X-3870780Y-8110917D01*
X-3870780Y-7872821D01*
X-3823160Y-7729964D01*
X-3870780Y-7396631D02*
X-2870780Y-7158536D01*
X-3585065Y-6968060D01*
X-2870780Y-6777583D01*
X-3870780Y-6539488D01*
X-3775541Y-6206155D02*
X-3823160Y-6158536D01*
X-3870780Y-6063298D01*
X-3870780Y-5825202D01*
X-3823160Y-5729964D01*
X-3775541Y-5682345D01*
X-3680303Y-5634726D01*
X-3585065Y-5634726D01*
X-3442208Y-5682345D01*
X-2870780Y-6253774D01*
X-2870780Y-5634726D01*
%TO.C,C2*%
X6918282Y14107294D02*
X6965901Y14059675D01*
X7013520Y13916818D01*
X7013520Y13821580D01*
X6965901Y13678722D01*
X6870663Y13583484D01*
X6775425Y13535865D01*
X6584949Y13488246D01*
X6442092Y13488246D01*
X6251616Y13535865D01*
X6156378Y13583484D01*
X6061140Y13678722D01*
X6013520Y13821580D01*
X6013520Y13916818D01*
X6061140Y14059675D01*
X6108759Y14107294D01*
X6108759Y14488246D02*
X6061140Y14535865D01*
X6013520Y14631103D01*
X6013520Y14869199D01*
X6061140Y14964437D01*
X6108759Y15012056D01*
X6203997Y15059675D01*
X6299235Y15059675D01*
X6442092Y15012056D01*
X7013520Y14440627D01*
X7013520Y15059675D01*
%TO.C,C3*%
X-15566667Y11022858D02*
X-15614286Y10975239D01*
X-15757143Y10927620D01*
X-15852381Y10927620D01*
X-15995239Y10975239D01*
X-16090477Y11070477D01*
X-16138096Y11165715D01*
X-16185715Y11356191D01*
X-16185715Y11499048D01*
X-16138096Y11689524D01*
X-16090477Y11784762D01*
X-15995239Y11880000D01*
X-15852381Y11927620D01*
X-15757143Y11927620D01*
X-15614286Y11880000D01*
X-15566667Y11832381D01*
X-15233334Y11927620D02*
X-14614286Y11927620D01*
X-14947620Y11546667D01*
X-14804762Y11546667D01*
X-14709524Y11499048D01*
X-14661905Y11451429D01*
X-14614286Y11356191D01*
X-14614286Y11118096D01*
X-14661905Y11022858D01*
X-14709524Y10975239D01*
X-14804762Y10927620D01*
X-15090477Y10927620D01*
X-15185715Y10975239D01*
X-15233334Y11022858D01*
D13*
%TO.C,U1*%
X12360140Y8958960D02*
X16120140Y8958960D01*
X10110140Y15778960D02*
X16120140Y15778960D01*
X16120140Y15778960D02*
X16120140Y14518960D01*
X16120140Y8958960D02*
X16120140Y10218960D01*
%TO.C,J3*%
X-22336000Y5878400D02*
X-23076000Y5878400D01*
X-22276000Y748400D02*
X-22276000Y-211600D01*
X-22276000Y5638400D02*
X-22276000Y4868400D01*
X-16516000Y5638400D02*
X-22836000Y5638400D01*
X-22836000Y3288400D02*
X-22836000Y2328400D01*
X-16976000Y5638400D02*
X-16976000Y-2561600D01*
X-22836000Y748400D02*
X-22836000Y-211600D01*
X-22276000Y-1791600D02*
X-22276000Y-2561600D01*
X-16516000Y5638400D02*
X-16516000Y-2561600D01*
X-22836000Y5638400D02*
X-22836000Y4868400D01*
X-16516000Y-2561600D02*
X-22836000Y-2561600D01*
X-22276000Y3288400D02*
X-22276000Y2328400D01*
X-22836000Y-1791600D02*
X-22836000Y-2561600D01*
X-23076000Y5878400D02*
X-23076000Y5378400D01*
%TO.C,J1*%
X-22836000Y-3759600D02*
X-22836000Y-14499600D01*
X-16516000Y-14499600D02*
X-22836000Y-14499600D01*
X-16516000Y-3759600D02*
X-16516000Y-14499600D01*
X-22276000Y-3759600D02*
X-22276000Y-14499600D01*
X-16516000Y-3759600D02*
X-22836000Y-3759600D01*
X-16976000Y-3759600D02*
X-16976000Y-14499600D01*
X-23076000Y-3519600D02*
X-23076000Y-4019600D01*
X-22336000Y-3519600D02*
X-23076000Y-3519600D01*
%TO.C,U2*%
X24623260Y6642880D02*
X24623260Y-9597120D01*
X17003260Y6642880D02*
X24623260Y6642880D01*
X17003260Y6642880D02*
X17003260Y7252880D01*
X1003260Y-9597120D02*
X383260Y-9597120D01*
X24623260Y-9597120D02*
X17003260Y-9597120D01*
X383260Y-9597120D02*
X383260Y-7477120D01*
X383260Y4522880D02*
X383260Y6642880D01*
X383260Y6642880D02*
X1003260Y6642880D01*
%TO.C,J2*%
X15396320Y-13256460D02*
X16726320Y-13256460D01*
X16726320Y-13256460D02*
X16726320Y-14586460D01*
X14126320Y-13256460D02*
X3906320Y-13256460D01*
X3906320Y-13256460D02*
X3906320Y-15916460D01*
X14126320Y-13256460D02*
X14126320Y-15916460D01*
X14126320Y-15916460D02*
X3906320Y-15916460D01*
D14*
%TO.C,REF\u002A\u002A*%
X-17242378Y10322022D02*
X-17242378Y6801229D01*
X-17242378Y6801229D02*
X-18110002Y6801229D01*
X-18110002Y6801229D02*
X-18110002Y10322022D01*
X-18110002Y10322022D02*
X-17242378Y10322022D01*
X-17242378Y10322022D02*
X-17242378Y10322022D01*
G36*
X-17242378Y6801229D02*
G01*
X-18110002Y6801229D01*
X-18110002Y10322022D01*
X-17242378Y10322022D01*
X-17242378Y6801229D01*
G37*
X-17242378Y6801229D02*
X-18110002Y6801229D01*
X-18110002Y10322022D01*
X-17242378Y10322022D01*
X-17242378Y6801229D01*
X-23195352Y10698630D02*
X-23108269Y10698011D01*
X-23108269Y10698011D02*
X-22649309Y10246286D01*
X-22649309Y10246286D02*
X-22190348Y9794561D01*
X-22190348Y9794561D02*
X-21979729Y9794232D01*
X-21979729Y9794232D02*
X-21769111Y9793903D01*
X-21769111Y9793903D02*
X-21769111Y9518810D01*
X-21769111Y9518810D02*
X-21715670Y9511722D01*
X-21715670Y9511722D02*
X-21691312Y9509038D01*
X-21691312Y9509038D02*
X-21645441Y9504513D01*
X-21645441Y9504513D02*
X-21580795Y9498391D01*
X-21580795Y9498391D02*
X-21500109Y9490912D01*
X-21500109Y9490912D02*
X-21406119Y9482319D01*
X-21406119Y9482319D02*
X-21301563Y9472854D01*
X-21301563Y9472854D02*
X-21189175Y9462758D01*
X-21189175Y9462758D02*
X-21071693Y9452274D01*
X-21071693Y9452274D02*
X-20951852Y9441644D01*
X-20951852Y9441644D02*
X-20832389Y9431109D01*
X-20832389Y9431109D02*
X-20716041Y9420913D01*
X-20716041Y9420913D02*
X-20605543Y9411295D01*
X-20605543Y9411295D02*
X-20503631Y9402500D01*
X-20503631Y9402500D02*
X-20413042Y9394768D01*
X-20413042Y9394768D02*
X-20336513Y9388342D01*
X-20336513Y9388342D02*
X-20276779Y9383463D01*
X-20276779Y9383463D02*
X-20236576Y9380375D01*
X-20236576Y9380375D02*
X-20218641Y9379317D01*
X-20218641Y9379317D02*
X-20218556Y9379318D01*
X-20218556Y9379318D02*
X-20204165Y9387027D01*
X-20204165Y9387027D02*
X-20174452Y9410181D01*
X-20174452Y9410181D02*
X-20129069Y9449095D01*
X-20129069Y9449095D02*
X-20067671Y9504084D01*
X-20067671Y9504084D02*
X-19989912Y9575464D01*
X-19989912Y9575464D02*
X-19895446Y9663549D01*
X-19895446Y9663549D02*
X-19783928Y9768654D01*
X-19783928Y9768654D02*
X-19655012Y9891095D01*
X-19655012Y9891095D02*
X-19618913Y9925510D01*
X-19618913Y9925510D02*
X-19046784Y10471337D01*
X-19046784Y10471337D02*
X-18958764Y10383081D01*
X-18958764Y10383081D02*
X-19036442Y10311685D01*
X-19036442Y10311685D02*
X-19064514Y10285566D01*
X-19064514Y10285566D02*
X-19107926Y10244766D01*
X-19107926Y10244766D02*
X-19163834Y10191977D01*
X-19163834Y10191977D02*
X-19229392Y10129891D01*
X-19229392Y10129891D02*
X-19301759Y10061200D01*
X-19301759Y10061200D02*
X-19378088Y9988596D01*
X-19378088Y9988596D02*
X-19423676Y9945160D01*
X-19423676Y9945160D02*
X-19509081Y9863616D01*
X-19509081Y9863616D02*
X-19577490Y9797704D01*
X-19577490Y9797704D02*
X-19630147Y9745744D01*
X-19630147Y9745744D02*
X-19668295Y9706055D01*
X-19668295Y9706055D02*
X-19693180Y9676957D01*
X-19693180Y9676957D02*
X-19706044Y9656769D01*
X-19706044Y9656769D02*
X-19708132Y9643810D01*
X-19708132Y9643810D02*
X-19700687Y9636400D01*
X-19700687Y9636400D02*
X-19684954Y9632858D01*
X-19684954Y9632858D02*
X-19662177Y9631503D01*
X-19662177Y9631503D02*
X-19655961Y9631321D01*
X-19655961Y9631321D02*
X-19613139Y9621903D01*
X-19613139Y9621903D02*
X-19561381Y9598697D01*
X-19561381Y9598697D02*
X-19508872Y9566336D01*
X-19508872Y9566336D02*
X-19463797Y9529452D01*
X-19463797Y9529452D02*
X-19449872Y9514693D01*
X-19449872Y9514693D02*
X-19401153Y9438967D01*
X-19401153Y9438967D02*
X-19373894Y9350508D01*
X-19373894Y9350508D02*
X-19367427Y9272300D01*
X-19367427Y9272300D02*
X-19379624Y9183668D01*
X-19379624Y9183668D02*
X-19415387Y9101812D01*
X-19415387Y9101812D02*
X-19473478Y9029364D01*
X-19473478Y9029364D02*
X-19487938Y9015997D01*
X-19487938Y9015997D02*
X-19543467Y8967118D01*
X-19543467Y8967118D02*
X-19543467Y8121526D01*
X-19543467Y8121526D02*
X-19367427Y8121526D01*
X-19367427Y8121526D02*
X-19367427Y7895190D01*
X-19367427Y7895190D02*
X-19449669Y7895190D01*
X-19449669Y7895190D02*
X-19505814Y7892350D01*
X-19505814Y7892350D02*
X-19544784Y7882807D01*
X-19544784Y7882807D02*
X-19565981Y7871209D01*
X-19565981Y7871209D02*
X-19581148Y7862923D01*
X-19581148Y7862923D02*
X-19603138Y7855827D01*
X-19603138Y7855827D02*
X-19635213Y7849452D01*
X-19635213Y7849452D02*
X-19680631Y7843328D01*
X-19680631Y7843328D02*
X-19742652Y7836984D01*
X-19742652Y7836984D02*
X-19824538Y7829950D01*
X-19824538Y7829950D02*
X-19885454Y7825134D01*
X-19885454Y7825134D02*
X-20170857Y7803039D01*
X-20170857Y7803039D02*
X-19621395Y7260635D01*
X-19621395Y7260635D02*
X-19521972Y7162563D01*
X-19521972Y7162563D02*
X-19426385Y7068416D01*
X-19426385Y7068416D02*
X-19336390Y6979915D01*
X-19336390Y6979915D02*
X-19253743Y6898780D01*
X-19253743Y6898780D02*
X-19180199Y6826731D01*
X-19180199Y6826731D02*
X-19117516Y6765488D01*
X-19117516Y6765488D02*
X-19067448Y6716773D01*
X-19067448Y6716773D02*
X-19031752Y6682304D01*
X-19031752Y6682304D02*
X-19012205Y6663821D01*
X-19012205Y6663821D02*
X-18981256Y6633457D01*
X-18981256Y6633457D02*
X-18959670Y6608129D01*
X-18959670Y6608129D02*
X-18952477Y6594505D01*
X-18952477Y6594505D02*
X-18960903Y6577105D01*
X-18960903Y6577105D02*
X-18981955Y6551740D01*
X-18981955Y6551740D02*
X-18990529Y6543142D01*
X-18990529Y6543142D02*
X-19028580Y6506686D01*
X-19028580Y6506686D02*
X-19232542Y6707398D01*
X-19232542Y6707398D02*
X-19284501Y6758604D01*
X-19284501Y6758604D02*
X-19351380Y6824631D01*
X-19351380Y6824631D02*
X-19430250Y6902582D01*
X-19430250Y6902582D02*
X-19518186Y6989562D01*
X-19518186Y6989562D02*
X-19612259Y7082674D01*
X-19612259Y7082674D02*
X-19709542Y7179021D01*
X-19709542Y7179021D02*
X-19807107Y7275708D01*
X-19807107Y7275708D02*
X-19877055Y7345066D01*
X-19877055Y7345066D02*
X-19983650Y7450497D01*
X-19983650Y7450497D02*
X-20073893Y7539071D01*
X-20073893Y7539071D02*
X-20149008Y7611919D01*
X-20149008Y7611919D02*
X-20210214Y7670177D01*
X-20210214Y7670177D02*
X-20258734Y7714975D01*
X-20258734Y7714975D02*
X-20284071Y7737179D01*
X-20284071Y7737179D02*
X-20284071Y7915476D01*
X-20284071Y7915476D02*
X-19998645Y7937799D01*
X-19998645Y7937799D02*
X-19914981Y7944531D01*
X-19914981Y7944531D02*
X-19838473Y7951043D01*
X-19838473Y7951043D02*
X-19773119Y7956966D01*
X-19773119Y7956966D02*
X-19722919Y7961932D01*
X-19722919Y7961932D02*
X-19691871Y7965571D01*
X-19691871Y7965571D02*
X-19684927Y7966742D01*
X-19684927Y7966742D02*
X-19656635Y7973362D01*
X-19656635Y7973362D02*
X-19656635Y8922836D01*
X-19656635Y8922836D02*
X-19735594Y8929174D01*
X-19735594Y8929174D02*
X-19828885Y8948310D01*
X-19828885Y8948310D02*
X-19911409Y8988354D01*
X-19911409Y8988354D02*
X-19980162Y9046782D01*
X-19980162Y9046782D02*
X-20032137Y9121071D01*
X-20032137Y9121071D02*
X-20063337Y9204452D01*
X-20063337Y9204452D02*
X-20077972Y9231502D01*
X-20077972Y9231502D02*
X-20109381Y9245044D01*
X-20109381Y9245044D02*
X-20110766Y9245328D01*
X-20110766Y9245328D02*
X-20124026Y9246953D01*
X-20124026Y9246953D02*
X-20137605Y9244944D01*
X-20137605Y9244944D02*
X-20154019Y9237342D01*
X-20154019Y9237342D02*
X-20175789Y9222184D01*
X-20175789Y9222184D02*
X-20205433Y9197512D01*
X-20205433Y9197512D02*
X-20245468Y9161364D01*
X-20245468Y9161364D02*
X-20298415Y9111780D01*
X-20298415Y9111780D02*
X-20366791Y9046799D01*
X-20366791Y9046799D02*
X-20371195Y9042601D01*
X-20371195Y9042601D02*
X-20444589Y8972707D01*
X-20444589Y8972707D02*
X-20522763Y8898400D01*
X-20522763Y8898400D02*
X-20600336Y8824786D01*
X-20600336Y8824786D02*
X-20671925Y8756971D01*
X-20671925Y8756971D02*
X-20732149Y8700060D01*
X-20732149Y8700060D02*
X-20745613Y8687368D01*
X-20745613Y8687368D02*
X-20796380Y8638713D01*
X-20796380Y8638713D02*
X-20839825Y8595491D01*
X-20839825Y8595491D02*
X-20872959Y8560805D01*
X-20872959Y8560805D02*
X-20892795Y8537756D01*
X-20892795Y8537756D02*
X-20897154Y8530018D01*
X-20897154Y8530018D02*
X-20888030Y8518478D01*
X-20888030Y8518478D02*
X-20863000Y8491490D01*
X-20863000Y8491490D02*
X-20824148Y8451179D01*
X-20824148Y8451179D02*
X-20773557Y8399671D01*
X-20773557Y8399671D02*
X-20713312Y8339091D01*
X-20713312Y8339091D02*
X-20645496Y8271564D01*
X-20645496Y8271564D02*
X-20589635Y8216374D01*
X-20589635Y8216374D02*
X-20284071Y7915476D01*
X-20284071Y7915476D02*
X-20284071Y7737179D01*
X-20284071Y7737179D02*
X-20295789Y7747449D01*
X-20295789Y7747449D02*
X-20322601Y7768729D01*
X-20322601Y7768729D02*
X-20340392Y7779949D01*
X-20340392Y7779949D02*
X-20348630Y7782446D01*
X-20348630Y7782446D02*
X-20366610Y7781500D01*
X-20366610Y7781500D02*
X-20407308Y7778627D01*
X-20407308Y7778627D02*
X-20468381Y7774013D01*
X-20468381Y7774013D02*
X-20547487Y7767842D01*
X-20547487Y7767842D02*
X-20642286Y7760302D01*
X-20642286Y7760302D02*
X-20750433Y7751579D01*
X-20750433Y7751579D02*
X-20869588Y7741857D01*
X-20869588Y7741857D02*
X-20997409Y7731324D01*
X-20997409Y7731324D02*
X-21099565Y7722835D01*
X-21099565Y7722835D02*
X-21675526Y7674804D01*
X-21675526Y7674804D02*
X-21675526Y7798395D01*
X-21675526Y7798395D02*
X-21663096Y7798927D01*
X-21663096Y7798927D02*
X-21628090Y7801431D01*
X-21628090Y7801431D02*
X-21572985Y7805704D01*
X-21572985Y7805704D02*
X-21500257Y7811547D01*
X-21500257Y7811547D02*
X-21412386Y7818757D01*
X-21412386Y7818757D02*
X-21311849Y7827134D01*
X-21311849Y7827134D02*
X-21201123Y7836477D01*
X-21201123Y7836477D02*
X-21095995Y7845442D01*
X-21095995Y7845442D02*
X-20976717Y7855598D01*
X-20976717Y7855598D02*
X-20864120Y7865058D01*
X-20864120Y7865058D02*
X-20760895Y7873604D01*
X-20760895Y7873604D02*
X-20669727Y7881021D01*
X-20669727Y7881021D02*
X-20593305Y7887092D01*
X-20593305Y7887092D02*
X-20534317Y7891599D01*
X-20534317Y7891599D02*
X-20495451Y7894327D01*
X-20495451Y7894327D02*
X-20480356Y7895084D01*
X-20480356Y7895084D02*
X-20470962Y7896265D01*
X-20470962Y7896265D02*
X-20467234Y7900944D01*
X-20467234Y7900944D02*
X-20470729Y7910924D01*
X-20470729Y7910924D02*
X-20483001Y7928010D01*
X-20483001Y7928010D02*
X-20505606Y7954004D01*
X-20505606Y7954004D02*
X-20540100Y7990710D01*
X-20540100Y7990710D02*
X-20588038Y8039933D01*
X-20588038Y8039933D02*
X-20650976Y8103474D01*
X-20650976Y8103474D02*
X-20718232Y8170895D01*
X-20718232Y8170895D02*
X-20993723Y8446599D01*
X-20993723Y8446599D02*
X-20995794Y8444667D01*
X-20995794Y8444667D02*
X-20995794Y8626910D01*
X-20995794Y8626910D02*
X-20984420Y8635216D01*
X-20984420Y8635216D02*
X-20957637Y8658467D01*
X-20957637Y8658467D02*
X-20917908Y8694335D01*
X-20917908Y8694335D02*
X-20867693Y8740487D01*
X-20867693Y8740487D02*
X-20809454Y8794594D01*
X-20809454Y8794594D02*
X-20745653Y8854326D01*
X-20745653Y8854326D02*
X-20678751Y8917352D01*
X-20678751Y8917352D02*
X-20611210Y8981342D01*
X-20611210Y8981342D02*
X-20545490Y9043964D01*
X-20545490Y9043964D02*
X-20484054Y9102890D01*
X-20484054Y9102890D02*
X-20429363Y9155788D01*
X-20429363Y9155788D02*
X-20383878Y9200328D01*
X-20383878Y9200328D02*
X-20350062Y9234180D01*
X-20350062Y9234180D02*
X-20330374Y9255012D01*
X-20330374Y9255012D02*
X-20326363Y9260694D01*
X-20326363Y9260694D02*
X-20339309Y9262566D01*
X-20339309Y9262566D02*
X-20375066Y9266454D01*
X-20375066Y9266454D02*
X-20431396Y9272143D01*
X-20431396Y9272143D02*
X-20506060Y9279419D01*
X-20506060Y9279419D02*
X-20596820Y9288069D01*
X-20596820Y9288069D02*
X-20701438Y9297878D01*
X-20701438Y9297878D02*
X-20817674Y9308634D01*
X-20817674Y9308634D02*
X-20943292Y9320121D01*
X-20943292Y9320121D02*
X-21044582Y9329293D01*
X-21044582Y9329293D02*
X-21175921Y9341026D01*
X-21175921Y9341026D02*
X-21299648Y9351865D01*
X-21299648Y9351865D02*
X-21413519Y9361630D01*
X-21413519Y9361630D02*
X-21515289Y9370137D01*
X-21515289Y9370137D02*
X-21602713Y9377205D01*
X-21602713Y9377205D02*
X-21673547Y9382651D01*
X-21673547Y9382651D02*
X-21725547Y9386292D01*
X-21725547Y9386292D02*
X-21756468Y9387947D01*
X-21756468Y9387947D02*
X-21764497Y9387758D01*
X-21764497Y9387758D02*
X-21757346Y9377866D01*
X-21757346Y9377866D02*
X-21734359Y9352676D01*
X-21734359Y9352676D02*
X-21697761Y9314390D01*
X-21697761Y9314390D02*
X-21649778Y9265211D01*
X-21649778Y9265211D02*
X-21592634Y9207339D01*
X-21592634Y9207339D02*
X-21528553Y9142978D01*
X-21528553Y9142978D02*
X-21459762Y9074329D01*
X-21459762Y9074329D02*
X-21388484Y9003595D01*
X-21388484Y9003595D02*
X-21316945Y8932978D01*
X-21316945Y8932978D02*
X-21247370Y8864680D01*
X-21247370Y8864680D02*
X-21181983Y8800904D01*
X-21181983Y8800904D02*
X-21123009Y8743850D01*
X-21123009Y8743850D02*
X-21072673Y8695722D01*
X-21072673Y8695722D02*
X-21033201Y8658722D01*
X-21033201Y8658722D02*
X-21006817Y8635052D01*
X-21006817Y8635052D02*
X-20995794Y8626910D01*
X-20995794Y8626910D02*
X-20995794Y8444667D01*
X-20995794Y8444667D02*
X-21103905Y8343791D01*
X-21103905Y8343791D02*
X-21159823Y8291432D01*
X-21159823Y8291432D02*
X-21222252Y8232665D01*
X-21222252Y8232665D02*
X-21288757Y8169815D01*
X-21288757Y8169815D02*
X-21356902Y8105205D01*
X-21356902Y8105205D02*
X-21424252Y8041158D01*
X-21424252Y8041158D02*
X-21488372Y7979997D01*
X-21488372Y7979997D02*
X-21546828Y7924047D01*
X-21546828Y7924047D02*
X-21597182Y7875630D01*
X-21597182Y7875630D02*
X-21637002Y7837070D01*
X-21637002Y7837070D02*
X-21663850Y7810691D01*
X-21663850Y7810691D02*
X-21675292Y7798816D01*
X-21675292Y7798816D02*
X-21675526Y7798395D01*
X-21675526Y7798395D02*
X-21675526Y7674804D01*
X-21675526Y7674804D02*
X-21819474Y7662799D01*
X-21819474Y7662799D02*
X-22451042Y7062262D01*
X-22451042Y7062262D02*
X-23082611Y6461725D01*
X-23082611Y6461725D02*
X-23170885Y6462166D01*
X-23170885Y6462166D02*
X-23259160Y6462608D01*
X-23259160Y6462608D02*
X-23155534Y6559617D01*
X-23155534Y6559617D02*
X-23097737Y6613909D01*
X-23097737Y6613909D02*
X-23029832Y6678008D01*
X-23029832Y6678008D02*
X-22953628Y6750184D01*
X-22953628Y6750184D02*
X-22870931Y6828708D01*
X-22870931Y6828708D02*
X-22783547Y6911851D01*
X-22783547Y6911851D02*
X-22693285Y6997881D01*
X-22693285Y6997881D02*
X-22601950Y7085070D01*
X-22601950Y7085070D02*
X-22511351Y7171687D01*
X-22511351Y7171687D02*
X-22423293Y7256003D01*
X-22423293Y7256003D02*
X-22339585Y7336288D01*
X-22339585Y7336288D02*
X-22262033Y7410813D01*
X-22262033Y7410813D02*
X-22192443Y7477846D01*
X-22192443Y7477846D02*
X-22132624Y7535659D01*
X-22132624Y7535659D02*
X-22084382Y7582521D01*
X-22084382Y7582521D02*
X-22049524Y7616704D01*
X-22049524Y7616704D02*
X-22029857Y7636476D01*
X-22029857Y7636476D02*
X-22026084Y7640810D01*
X-22026084Y7640810D02*
X-22039208Y7641108D01*
X-22039208Y7641108D02*
X-22072811Y7639469D01*
X-22072811Y7639469D02*
X-22122320Y7636177D01*
X-22122320Y7636177D02*
X-22183163Y7631518D01*
X-22183163Y7631518D02*
X-22207468Y7629518D01*
X-22207468Y7629518D02*
X-22385249Y7614623D01*
X-22385249Y7614623D02*
X-22385249Y7731245D01*
X-22385249Y7731245D02*
X-22356957Y7737266D01*
X-22356957Y7737266D02*
X-22334582Y7740337D01*
X-22334582Y7740337D02*
X-22292483Y7744652D01*
X-22292483Y7744652D02*
X-22236022Y7749712D01*
X-22236022Y7749712D02*
X-22170565Y7755019D01*
X-22170565Y7755019D02*
X-22146338Y7756856D01*
X-22146338Y7756856D02*
X-22076779Y7762273D01*
X-22076779Y7762273D02*
X-22012182Y7767741D01*
X-22012182Y7767741D02*
X-21958652Y7772712D01*
X-21958652Y7772712D02*
X-21922290Y7776639D01*
X-21922290Y7776639D02*
X-21915691Y7777525D01*
X-21915691Y7777525D02*
X-21902144Y7780866D01*
X-21902144Y7780866D02*
X-21886286Y7788099D01*
X-21886286Y7788099D02*
X-21866339Y7800760D01*
X-21866339Y7800760D02*
X-21840527Y7820389D01*
X-21840527Y7820389D02*
X-21807071Y7848522D01*
X-21807071Y7848522D02*
X-21764193Y7886698D01*
X-21764193Y7886698D02*
X-21710117Y7936454D01*
X-21710117Y7936454D02*
X-21643064Y7999329D01*
X-21643064Y7999329D02*
X-21561257Y8076859D01*
X-21561257Y8076859D02*
X-21478250Y8155949D01*
X-21478250Y8155949D02*
X-21396106Y8234636D01*
X-21396106Y8234636D02*
X-21320031Y8308088D01*
X-21320031Y8308088D02*
X-21251875Y8374476D01*
X-21251875Y8374476D02*
X-21193488Y8431973D01*
X-21193488Y8431973D02*
X-21146719Y8478749D01*
X-21146719Y8478749D02*
X-21113418Y8512976D01*
X-21113418Y8512976D02*
X-21095433Y8532827D01*
X-21095433Y8532827D02*
X-21092758Y8537060D01*
X-21092758Y8537060D02*
X-21102459Y8548197D01*
X-21102459Y8548197D02*
X-21127759Y8574229D01*
X-21127759Y8574229D02*
X-21166118Y8612630D01*
X-21166118Y8612630D02*
X-21215000Y8660872D01*
X-21215000Y8660872D02*
X-21271866Y8716430D01*
X-21271866Y8716430D02*
X-21313294Y8756608D01*
X-21313294Y8756608D02*
X-21530200Y8966369D01*
X-21530200Y8966369D02*
X-21530200Y8347863D01*
X-21530200Y8347863D02*
X-21769111Y8347863D01*
X-21769111Y8347863D02*
X-21769111Y9102319D01*
X-21769111Y9102319D02*
X-21662658Y9102319D01*
X-21662658Y9102319D02*
X-21800546Y9240635D01*
X-21800546Y9240635D02*
X-21898360Y9338753D01*
X-21898360Y9338753D02*
X-21898360Y9529843D01*
X-21898360Y9529843D02*
X-21882930Y9531671D01*
X-21882930Y9531671D02*
X-21874333Y9540923D01*
X-21874333Y9540923D02*
X-21870587Y9563250D01*
X-21870587Y9563250D02*
X-21869711Y9604305D01*
X-21869711Y9604305D02*
X-21869705Y9611576D01*
X-21869705Y9611576D02*
X-21869705Y9693309D01*
X-21869705Y9693309D02*
X-22089028Y9693309D01*
X-22089028Y9693309D02*
X-22008021Y9611576D01*
X-22008021Y9611576D02*
X-21958772Y9565470D01*
X-21958772Y9565470D02*
X-21921041Y9537894D01*
X-21921041Y9537894D02*
X-21898360Y9529843D01*
X-21898360Y9529843D02*
X-21898360Y9338753D01*
X-21898360Y9338753D02*
X-21938434Y9378952D01*
X-21938434Y9378952D02*
X-22061248Y9378952D01*
X-22061248Y9378952D02*
X-22117750Y9379337D01*
X-22117750Y9379337D02*
X-22153695Y9381100D01*
X-22153695Y9381100D02*
X-22173670Y9385150D01*
X-22173670Y9385150D02*
X-22182263Y9392399D01*
X-22182263Y9392399D02*
X-22184061Y9403330D01*
X-22184061Y9403330D02*
X-22186702Y9415488D01*
X-22186702Y9415488D02*
X-22197288Y9424473D01*
X-22197288Y9424473D02*
X-22219819Y9431374D01*
X-22219819Y9431374D02*
X-22258291Y9437276D01*
X-22258291Y9437276D02*
X-22316702Y9443265D01*
X-22316702Y9443265D02*
X-22338096Y9445187D01*
X-22338096Y9445187D02*
X-22385249Y9449348D01*
X-22385249Y9449348D02*
X-22385249Y7731245D01*
X-22385249Y7731245D02*
X-22385249Y7614623D01*
X-22385249Y7614623D02*
X-22385249Y7455091D01*
X-22385249Y7455091D02*
X-22498418Y7455091D01*
X-22498418Y7455091D02*
X-22498418Y7522886D01*
X-22498418Y7522886D02*
X-22499504Y7562538D01*
X-22499504Y7562538D02*
X-22504746Y7584084D01*
X-22504746Y7584084D02*
X-22507866Y7586720D01*
X-22507866Y7586720D02*
X-22507866Y7725584D01*
X-22507866Y7725584D02*
X-22500738Y7732892D01*
X-22500738Y7732892D02*
X-22498538Y7758207D01*
X-22498538Y7758207D02*
X-22498418Y7775292D01*
X-22498418Y7775292D02*
X-22498418Y7832319D01*
X-22498418Y7832319D02*
X-22498418Y8044979D01*
X-22498418Y8044979D02*
X-22498418Y9459502D01*
X-22498418Y9459502D02*
X-22547414Y9411658D01*
X-22547414Y9411658D02*
X-22607876Y9337350D01*
X-22607876Y9337350D02*
X-22654509Y9245384D01*
X-22654509Y9245384D02*
X-22687951Y9134202D01*
X-22687951Y9134202D02*
X-22706447Y9023729D01*
X-22706447Y9023729D02*
X-22715078Y8951427D01*
X-22715078Y8951427D02*
X-22624160Y8951427D01*
X-22624160Y8951427D02*
X-22624160Y8373012D01*
X-22624160Y8373012D02*
X-22727307Y8373012D01*
X-22727307Y8373012D02*
X-22718704Y8288135D01*
X-22718704Y8288135D02*
X-22711444Y8228832D01*
X-22711444Y8228832D02*
X-22701821Y8165649D01*
X-22701821Y8165649D02*
X-22694948Y8127814D01*
X-22694948Y8127814D02*
X-22679793Y8052368D01*
X-22679793Y8052368D02*
X-22589105Y8048674D01*
X-22589105Y8048674D02*
X-22498418Y8044979D01*
X-22498418Y8044979D02*
X-22498418Y7832319D01*
X-22498418Y7832319D02*
X-22548715Y7832319D01*
X-22548715Y7832319D02*
X-22580224Y7830656D01*
X-22580224Y7830656D02*
X-22597737Y7826503D01*
X-22597737Y7826503D02*
X-22599012Y7824829D01*
X-22599012Y7824829D02*
X-22590946Y7806213D01*
X-22590946Y7806213D02*
X-22571380Y7779017D01*
X-22571380Y7779017D02*
X-22547256Y7751752D01*
X-22547256Y7751752D02*
X-22525518Y7732933D01*
X-22525518Y7732933D02*
X-22522692Y7731257D01*
X-22522692Y7731257D02*
X-22507866Y7725584D01*
X-22507866Y7725584D02*
X-22507866Y7586720D01*
X-22507866Y7586720D02*
X-22517119Y7594538D01*
X-22517119Y7594538D02*
X-22530596Y7598758D01*
X-22530596Y7598758D02*
X-22565573Y7615981D01*
X-22565573Y7615981D02*
X-22607621Y7649062D01*
X-22607621Y7649062D02*
X-22650844Y7692307D01*
X-22650844Y7692307D02*
X-22689346Y7740026D01*
X-22689346Y7740026D02*
X-22709399Y7771370D01*
X-22709399Y7771370D02*
X-22731349Y7807077D01*
X-22731349Y7807077D02*
X-22749789Y7825381D01*
X-22749789Y7825381D02*
X-22771532Y7831812D01*
X-22771532Y7831812D02*
X-22784482Y7832306D01*
X-22784482Y7832306D02*
X-22787625Y7832306D01*
X-22787625Y7832306D02*
X-22787625Y8473606D01*
X-22787625Y8473606D02*
X-22724754Y8473606D01*
X-22724754Y8473606D02*
X-22724754Y8850833D01*
X-22724754Y8850833D02*
X-22787625Y8850833D01*
X-22787625Y8850833D02*
X-22787625Y8473606D01*
X-22787625Y8473606D02*
X-22787625Y7832306D01*
X-22787625Y7832306D02*
X-22825348Y7832319D01*
X-22825348Y7832319D02*
X-22825348Y7938152D01*
X-22825348Y7938152D02*
X-22824171Y7986845D01*
X-22824171Y7986845D02*
X-22821035Y8024795D01*
X-22821035Y8024795D02*
X-22816529Y8045892D01*
X-22816529Y8045892D02*
X-22814705Y8048177D01*
X-22814705Y8048177D02*
X-22811905Y8061559D01*
X-22811905Y8061559D02*
X-22813052Y8094126D01*
X-22813052Y8094126D02*
X-22817807Y8140284D01*
X-22817807Y8140284D02*
X-22822197Y8171824D01*
X-22822197Y8171824D02*
X-22830822Y8229012D01*
X-22830822Y8229012D02*
X-22838609Y8281314D01*
X-22838609Y8281314D02*
X-22844353Y8320618D01*
X-22844353Y8320618D02*
X-22845985Y8332145D01*
X-22845985Y8332145D02*
X-22855312Y8362263D01*
X-22855312Y8362263D02*
X-22869928Y8373012D01*
X-22869928Y8373012D02*
X-22875880Y8376280D01*
X-22875880Y8376280D02*
X-22880422Y8387970D01*
X-22880422Y8387970D02*
X-22883730Y8410912D01*
X-22883730Y8410912D02*
X-22885985Y8447935D01*
X-22885985Y8447935D02*
X-22887366Y8501868D01*
X-22887366Y8501868D02*
X-22888050Y8575540D01*
X-22888050Y8575540D02*
X-22888220Y8662220D01*
X-22888220Y8662220D02*
X-22888123Y8754729D01*
X-22888123Y8754729D02*
X-22887670Y8825106D01*
X-22887670Y8825106D02*
X-22886610Y8876364D01*
X-22886610Y8876364D02*
X-22884697Y8911520D01*
X-22884697Y8911520D02*
X-22881681Y8933589D01*
X-22881681Y8933589D02*
X-22877315Y8945585D01*
X-22877315Y8945585D02*
X-22871351Y8950524D01*
X-22871351Y8950524D02*
X-22864416Y8951427D01*
X-22864416Y8951427D02*
X-22842405Y8959121D01*
X-22842405Y8959121D02*
X-22829879Y8984321D01*
X-22829879Y8984321D02*
X-22825412Y9030209D01*
X-22825412Y9030209D02*
X-22825348Y9038464D01*
X-22825348Y9038464D02*
X-22817332Y9116173D01*
X-22817332Y9116173D02*
X-22795264Y9204433D01*
X-22795264Y9204433D02*
X-22762116Y9295285D01*
X-22762116Y9295285D02*
X-22720861Y9380770D01*
X-22720861Y9380770D02*
X-22674469Y9452926D01*
X-22674469Y9452926D02*
X-22667118Y9462272D01*
X-22667118Y9462272D02*
X-22643202Y9492733D01*
X-22643202Y9492733D02*
X-22633624Y9510772D01*
X-22633624Y9510772D02*
X-22636720Y9523369D01*
X-22636720Y9523369D02*
X-22649496Y9536300D01*
X-22649496Y9536300D02*
X-22674522Y9574493D01*
X-22674522Y9574493D02*
X-22684129Y9624198D01*
X-22684129Y9624198D02*
X-22679133Y9677724D01*
X-22679133Y9677724D02*
X-22660349Y9727378D01*
X-22660349Y9727378D02*
X-22628594Y9765467D01*
X-22628594Y9765467D02*
X-22624903Y9768225D01*
X-22624903Y9768225D02*
X-22565625Y9796726D01*
X-22565625Y9796726D02*
X-22504266Y9802028D01*
X-22504266Y9802028D02*
X-22445773Y9784718D01*
X-22445773Y9784718D02*
X-22395096Y9745380D01*
X-22395096Y9745380D02*
X-22390911Y9740570D01*
X-22390911Y9740570D02*
X-22371033Y9712640D01*
X-22371033Y9712640D02*
X-22362279Y9684302D01*
X-22362279Y9684302D02*
X-22361647Y9644463D01*
X-22361647Y9644463D02*
X-22362208Y9634511D01*
X-22362208Y9634511D02*
X-22363638Y9595532D01*
X-22363638Y9595532D02*
X-22360361Y9575454D01*
X-22360361Y9575454D02*
X-22350472Y9568185D01*
X-22350472Y9568185D02*
X-22341239Y9567440D01*
X-22341239Y9567440D02*
X-22314456Y9565916D01*
X-22314456Y9565916D02*
X-22274175Y9562135D01*
X-22274175Y9562135D02*
X-22250076Y9559418D01*
X-22250076Y9559418D02*
X-22211799Y9555477D01*
X-22211799Y9555477D02*
X-22192204Y9557116D01*
X-22192204Y9557116D02*
X-22185042Y9566621D01*
X-22185042Y9566621D02*
X-22184061Y9583551D01*
X-22184061Y9583551D02*
X-22187299Y9593592D01*
X-22187299Y9593592D02*
X-22197780Y9609790D01*
X-22197780Y9609790D02*
X-22216652Y9633345D01*
X-22216652Y9633345D02*
X-22245065Y9665457D01*
X-22245065Y9665457D02*
X-22284165Y9707328D01*
X-22284165Y9707328D02*
X-22335103Y9760157D01*
X-22335103Y9760157D02*
X-22399027Y9825145D01*
X-22399027Y9825145D02*
X-22477086Y9903491D01*
X-22477086Y9903491D02*
X-22570428Y9996397D01*
X-22570428Y9996397D02*
X-22680202Y10105063D01*
X-22680202Y10105063D02*
X-22733248Y10157431D01*
X-22733248Y10157431D02*
X-23282433Y10699249D01*
X-23282433Y10699249D02*
X-23195352Y10698630D01*
X-23195352Y10698630D02*
X-23195352Y10698630D01*
G36*
X-22498418Y7455091D02*
G01*
X-22498418Y7522886D01*
X-22499504Y7562538D01*
X-22504746Y7584084D01*
X-22507866Y7586720D01*
X-22517119Y7594538D01*
X-22530596Y7598758D01*
X-22565573Y7615981D01*
X-22607621Y7649062D01*
X-22650844Y7692307D01*
X-22689346Y7740026D01*
X-22709399Y7771370D01*
X-22731349Y7807077D01*
X-22749233Y7824829D01*
X-22599012Y7824829D01*
X-22590946Y7806213D01*
X-22571380Y7779017D01*
X-22547256Y7751752D01*
X-22525518Y7732933D01*
X-22522692Y7731257D01*
X-22507866Y7725584D01*
X-22502344Y7731245D01*
X-22385249Y7731245D01*
X-22356957Y7737266D01*
X-22334582Y7740337D01*
X-22292483Y7744652D01*
X-22236022Y7749712D01*
X-22170565Y7755019D01*
X-22146338Y7756856D01*
X-22076779Y7762273D01*
X-22012182Y7767741D01*
X-21958652Y7772712D01*
X-21922290Y7776639D01*
X-21915691Y7777525D01*
X-21902144Y7780866D01*
X-21886286Y7788099D01*
X-21870065Y7798395D01*
X-21675526Y7798395D01*
X-21663096Y7798927D01*
X-21628090Y7801431D01*
X-21572985Y7805704D01*
X-21500257Y7811547D01*
X-21412386Y7818757D01*
X-21311849Y7827134D01*
X-21201123Y7836477D01*
X-21095995Y7845442D01*
X-20976717Y7855598D01*
X-20864120Y7865058D01*
X-20760895Y7873604D01*
X-20669727Y7881021D01*
X-20593305Y7887092D01*
X-20534317Y7891599D01*
X-20495451Y7894327D01*
X-20480356Y7895084D01*
X-20470962Y7896265D01*
X-20467234Y7900944D01*
X-20470729Y7910924D01*
X-20483001Y7928010D01*
X-20505606Y7954004D01*
X-20540100Y7990710D01*
X-20588038Y8039933D01*
X-20650976Y8103474D01*
X-20718232Y8170895D01*
X-20993723Y8446599D01*
X-20995794Y8444667D01*
X-21103905Y8343791D01*
X-21159823Y8291432D01*
X-21222252Y8232665D01*
X-21288757Y8169815D01*
X-21356902Y8105205D01*
X-21424252Y8041158D01*
X-21488372Y7979997D01*
X-21546828Y7924047D01*
X-21597182Y7875630D01*
X-21637002Y7837070D01*
X-21663850Y7810691D01*
X-21675292Y7798816D01*
X-21675526Y7798395D01*
X-21870065Y7798395D01*
X-21866339Y7800760D01*
X-21840527Y7820389D01*
X-21807071Y7848522D01*
X-21764193Y7886698D01*
X-21710117Y7936454D01*
X-21643064Y7999329D01*
X-21561257Y8076859D01*
X-21478250Y8155949D01*
X-21396106Y8234636D01*
X-21320031Y8308088D01*
X-21251875Y8374476D01*
X-21193488Y8431973D01*
X-21146719Y8478749D01*
X-21113418Y8512976D01*
X-21097978Y8530018D01*
X-20897154Y8530018D01*
X-20888030Y8518478D01*
X-20863000Y8491490D01*
X-20824148Y8451179D01*
X-20773557Y8399671D01*
X-20713312Y8339091D01*
X-20645496Y8271564D01*
X-20589635Y8216374D01*
X-20284071Y7915476D01*
X-19998645Y7937799D01*
X-19914981Y7944531D01*
X-19838473Y7951043D01*
X-19773119Y7956966D01*
X-19722919Y7961932D01*
X-19691871Y7965571D01*
X-19684927Y7966742D01*
X-19656635Y7973362D01*
X-19656635Y8922836D01*
X-19735594Y8929174D01*
X-19828885Y8948310D01*
X-19911409Y8988354D01*
X-19980162Y9046782D01*
X-20032137Y9121071D01*
X-20063337Y9204452D01*
X-20077972Y9231502D01*
X-20109381Y9245044D01*
X-20110766Y9245328D01*
X-20124026Y9246953D01*
X-20137605Y9244944D01*
X-20154019Y9237342D01*
X-20175789Y9222184D01*
X-20205433Y9197512D01*
X-20245468Y9161364D01*
X-20298415Y9111780D01*
X-20366791Y9046799D01*
X-20371195Y9042601D01*
X-20444589Y8972707D01*
X-20522763Y8898400D01*
X-20600336Y8824786D01*
X-20671925Y8756971D01*
X-20732149Y8700060D01*
X-20745613Y8687368D01*
X-20796380Y8638713D01*
X-20839825Y8595491D01*
X-20872959Y8560805D01*
X-20892795Y8537756D01*
X-20897154Y8530018D01*
X-21097978Y8530018D01*
X-21095433Y8532827D01*
X-21092758Y8537060D01*
X-21102459Y8548197D01*
X-21127759Y8574229D01*
X-21166118Y8612630D01*
X-21215000Y8660872D01*
X-21271866Y8716430D01*
X-21313294Y8756608D01*
X-21530200Y8966369D01*
X-21530200Y8347863D01*
X-21769111Y8347863D01*
X-21769111Y9102319D01*
X-21662658Y9102319D01*
X-21800546Y9240635D01*
X-21898360Y9338753D01*
X-21938434Y9378952D01*
X-22061248Y9378952D01*
X-22117750Y9379337D01*
X-22153695Y9381100D01*
X-22173670Y9385150D01*
X-22176762Y9387758D01*
X-21764497Y9387758D01*
X-21757346Y9377866D01*
X-21734359Y9352676D01*
X-21697761Y9314390D01*
X-21649778Y9265211D01*
X-21592634Y9207339D01*
X-21528553Y9142978D01*
X-21459762Y9074329D01*
X-21388484Y9003595D01*
X-21316945Y8932978D01*
X-21247370Y8864680D01*
X-21181983Y8800904D01*
X-21123009Y8743850D01*
X-21072673Y8695722D01*
X-21033201Y8658722D01*
X-21006817Y8635052D01*
X-20995794Y8626910D01*
X-20984420Y8635216D01*
X-20957637Y8658467D01*
X-20917908Y8694335D01*
X-20867693Y8740487D01*
X-20809454Y8794594D01*
X-20745653Y8854326D01*
X-20678751Y8917352D01*
X-20611210Y8981342D01*
X-20545490Y9043964D01*
X-20484054Y9102890D01*
X-20429363Y9155788D01*
X-20383878Y9200328D01*
X-20350062Y9234180D01*
X-20330374Y9255012D01*
X-20326363Y9260694D01*
X-20339309Y9262566D01*
X-20375066Y9266454D01*
X-20431396Y9272143D01*
X-20506060Y9279419D01*
X-20596820Y9288069D01*
X-20701438Y9297878D01*
X-20817674Y9308634D01*
X-20943292Y9320121D01*
X-21044582Y9329293D01*
X-21175921Y9341026D01*
X-21299648Y9351865D01*
X-21413519Y9361630D01*
X-21515289Y9370137D01*
X-21602713Y9377205D01*
X-21673547Y9382651D01*
X-21725547Y9386292D01*
X-21756468Y9387947D01*
X-21764497Y9387758D01*
X-22176762Y9387758D01*
X-22182263Y9392399D01*
X-22184061Y9403330D01*
X-22186702Y9415488D01*
X-22197288Y9424473D01*
X-22219819Y9431374D01*
X-22258291Y9437276D01*
X-22316702Y9443265D01*
X-22338096Y9445187D01*
X-22385249Y9449348D01*
X-22385249Y7731245D01*
X-22502344Y7731245D01*
X-22500738Y7732892D01*
X-22498538Y7758207D01*
X-22498418Y7775292D01*
X-22498418Y7832319D01*
X-22548715Y7832319D01*
X-22580224Y7830656D01*
X-22597737Y7826503D01*
X-22599012Y7824829D01*
X-22749233Y7824829D01*
X-22749789Y7825381D01*
X-22771532Y7831812D01*
X-22784482Y7832306D01*
X-22787625Y7832306D01*
X-22825348Y7832319D01*
X-22825348Y7938152D01*
X-22824171Y7986845D01*
X-22821035Y8024795D01*
X-22816529Y8045892D01*
X-22814705Y8048177D01*
X-22811905Y8061559D01*
X-22813052Y8094126D01*
X-22817807Y8140284D01*
X-22822197Y8171824D01*
X-22830822Y8229012D01*
X-22838609Y8281314D01*
X-22844353Y8320618D01*
X-22845985Y8332145D01*
X-22855312Y8362263D01*
X-22869928Y8373012D01*
X-22727307Y8373012D01*
X-22718704Y8288135D01*
X-22711444Y8228832D01*
X-22701821Y8165649D01*
X-22694948Y8127814D01*
X-22679793Y8052368D01*
X-22589105Y8048674D01*
X-22498418Y8044979D01*
X-22498418Y9459502D01*
X-22547414Y9411658D01*
X-22607876Y9337350D01*
X-22654509Y9245384D01*
X-22687951Y9134202D01*
X-22706447Y9023729D01*
X-22715078Y8951427D01*
X-22624160Y8951427D01*
X-22624160Y8373012D01*
X-22727307Y8373012D01*
X-22869928Y8373012D01*
X-22875880Y8376280D01*
X-22880422Y8387970D01*
X-22883730Y8410912D01*
X-22885985Y8447935D01*
X-22886642Y8473606D01*
X-22787625Y8473606D01*
X-22724754Y8473606D01*
X-22724754Y8850833D01*
X-22787625Y8850833D01*
X-22787625Y8473606D01*
X-22886642Y8473606D01*
X-22887366Y8501868D01*
X-22888050Y8575540D01*
X-22888220Y8662220D01*
X-22888123Y8754729D01*
X-22887670Y8825106D01*
X-22886610Y8876364D01*
X-22884697Y8911520D01*
X-22881681Y8933589D01*
X-22877315Y8945585D01*
X-22871351Y8950524D01*
X-22864416Y8951427D01*
X-22842405Y8959121D01*
X-22829879Y8984321D01*
X-22825412Y9030209D01*
X-22825348Y9038464D01*
X-22817332Y9116173D01*
X-22795264Y9204433D01*
X-22762116Y9295285D01*
X-22720861Y9380770D01*
X-22674469Y9452926D01*
X-22667118Y9462272D01*
X-22643202Y9492733D01*
X-22633624Y9510772D01*
X-22636720Y9523369D01*
X-22649496Y9536300D01*
X-22674522Y9574493D01*
X-22684129Y9624198D01*
X-22679133Y9677724D01*
X-22660349Y9727378D01*
X-22628594Y9765467D01*
X-22624903Y9768225D01*
X-22565625Y9796726D01*
X-22504266Y9802028D01*
X-22445773Y9784718D01*
X-22395096Y9745380D01*
X-22390911Y9740570D01*
X-22371033Y9712640D01*
X-22362279Y9684302D01*
X-22361647Y9644463D01*
X-22362208Y9634511D01*
X-22363638Y9595532D01*
X-22360361Y9575454D01*
X-22350472Y9568185D01*
X-22341239Y9567440D01*
X-22314456Y9565916D01*
X-22274175Y9562135D01*
X-22250076Y9559418D01*
X-22211799Y9555477D01*
X-22192204Y9557116D01*
X-22185042Y9566621D01*
X-22184061Y9583551D01*
X-22187299Y9593592D01*
X-22197780Y9609790D01*
X-22216652Y9633345D01*
X-22245065Y9665457D01*
X-22271074Y9693309D01*
X-22089028Y9693309D01*
X-22008021Y9611576D01*
X-21958772Y9565470D01*
X-21921041Y9537894D01*
X-21898360Y9529843D01*
X-21882930Y9531671D01*
X-21874333Y9540923D01*
X-21870587Y9563250D01*
X-21869711Y9604305D01*
X-21869705Y9611576D01*
X-21869705Y9693309D01*
X-22089028Y9693309D01*
X-22271074Y9693309D01*
X-22284165Y9707328D01*
X-22335103Y9760157D01*
X-22399027Y9825145D01*
X-22477086Y9903491D01*
X-22570428Y9996397D01*
X-22680202Y10105063D01*
X-22733248Y10157431D01*
X-23282433Y10699249D01*
X-23195352Y10698630D01*
X-23108269Y10698011D01*
X-22649309Y10246286D01*
X-22190348Y9794561D01*
X-21979729Y9794232D01*
X-21769111Y9793903D01*
X-21769111Y9518810D01*
X-21715670Y9511722D01*
X-21691312Y9509038D01*
X-21645441Y9504513D01*
X-21580795Y9498391D01*
X-21500109Y9490912D01*
X-21406119Y9482319D01*
X-21301563Y9472854D01*
X-21189175Y9462758D01*
X-21071693Y9452274D01*
X-20951852Y9441644D01*
X-20832389Y9431109D01*
X-20716041Y9420913D01*
X-20605543Y9411295D01*
X-20503631Y9402500D01*
X-20413042Y9394768D01*
X-20336513Y9388342D01*
X-20276779Y9383463D01*
X-20236576Y9380375D01*
X-20218641Y9379317D01*
X-20218556Y9379318D01*
X-20204165Y9387027D01*
X-20174452Y9410181D01*
X-20129069Y9449095D01*
X-20067671Y9504084D01*
X-19989912Y9575464D01*
X-19895446Y9663549D01*
X-19783928Y9768654D01*
X-19655012Y9891095D01*
X-19618913Y9925510D01*
X-19046784Y10471337D01*
X-18958764Y10383081D01*
X-19036442Y10311685D01*
X-19064514Y10285566D01*
X-19107926Y10244766D01*
X-19163834Y10191977D01*
X-19229392Y10129891D01*
X-19301759Y10061200D01*
X-19378088Y9988596D01*
X-19423676Y9945160D01*
X-19509081Y9863616D01*
X-19577490Y9797704D01*
X-19630147Y9745744D01*
X-19668295Y9706055D01*
X-19693180Y9676957D01*
X-19706044Y9656769D01*
X-19708132Y9643810D01*
X-19700687Y9636400D01*
X-19684954Y9632858D01*
X-19662177Y9631503D01*
X-19655961Y9631321D01*
X-19613139Y9621903D01*
X-19561381Y9598697D01*
X-19508872Y9566336D01*
X-19463797Y9529452D01*
X-19449872Y9514693D01*
X-19401153Y9438967D01*
X-19373894Y9350508D01*
X-19367427Y9272300D01*
X-19379624Y9183668D01*
X-19415387Y9101812D01*
X-19473478Y9029364D01*
X-19487938Y9015997D01*
X-19543467Y8967118D01*
X-19543467Y8121526D01*
X-19367427Y8121526D01*
X-19367427Y7895190D01*
X-19449669Y7895190D01*
X-19505814Y7892350D01*
X-19544784Y7882807D01*
X-19565981Y7871209D01*
X-19581148Y7862923D01*
X-19603138Y7855827D01*
X-19635213Y7849452D01*
X-19680631Y7843328D01*
X-19742652Y7836984D01*
X-19824538Y7829950D01*
X-19885454Y7825134D01*
X-20170857Y7803039D01*
X-19621395Y7260635D01*
X-19521972Y7162563D01*
X-19426385Y7068416D01*
X-19336390Y6979915D01*
X-19253743Y6898780D01*
X-19180199Y6826731D01*
X-19117516Y6765488D01*
X-19067448Y6716773D01*
X-19031752Y6682304D01*
X-19012205Y6663821D01*
X-18981256Y6633457D01*
X-18959670Y6608129D01*
X-18952477Y6594505D01*
X-18960903Y6577105D01*
X-18981955Y6551740D01*
X-18990529Y6543142D01*
X-19028580Y6506686D01*
X-19232542Y6707398D01*
X-19284501Y6758604D01*
X-19351380Y6824631D01*
X-19430250Y6902582D01*
X-19518186Y6989562D01*
X-19612259Y7082674D01*
X-19709542Y7179021D01*
X-19807107Y7275708D01*
X-19877055Y7345066D01*
X-19983650Y7450497D01*
X-20073893Y7539071D01*
X-20149008Y7611919D01*
X-20210214Y7670177D01*
X-20258734Y7714975D01*
X-20284071Y7737179D01*
X-20295789Y7747449D01*
X-20322601Y7768729D01*
X-20340392Y7779949D01*
X-20348630Y7782446D01*
X-20366610Y7781500D01*
X-20407308Y7778627D01*
X-20468381Y7774013D01*
X-20547487Y7767842D01*
X-20642286Y7760302D01*
X-20750433Y7751579D01*
X-20869588Y7741857D01*
X-20997409Y7731324D01*
X-21099565Y7722835D01*
X-21675526Y7674804D01*
X-21819474Y7662799D01*
X-22451042Y7062262D01*
X-23082611Y6461725D01*
X-23170885Y6462166D01*
X-23259160Y6462608D01*
X-23155534Y6559617D01*
X-23097737Y6613909D01*
X-23029832Y6678008D01*
X-22953628Y6750184D01*
X-22870931Y6828708D01*
X-22783547Y6911851D01*
X-22693285Y6997881D01*
X-22601950Y7085070D01*
X-22511351Y7171687D01*
X-22423293Y7256003D01*
X-22339585Y7336288D01*
X-22262033Y7410813D01*
X-22192443Y7477846D01*
X-22132624Y7535659D01*
X-22084382Y7582521D01*
X-22049524Y7616704D01*
X-22029857Y7636476D01*
X-22026084Y7640810D01*
X-22039208Y7641108D01*
X-22072811Y7639469D01*
X-22122320Y7636177D01*
X-22183163Y7631518D01*
X-22207468Y7629518D01*
X-22385249Y7614623D01*
X-22385249Y7455091D01*
X-22498418Y7455091D01*
G37*
X-22498418Y7455091D02*
X-22498418Y7522886D01*
X-22499504Y7562538D01*
X-22504746Y7584084D01*
X-22507866Y7586720D01*
X-22517119Y7594538D01*
X-22530596Y7598758D01*
X-22565573Y7615981D01*
X-22607621Y7649062D01*
X-22650844Y7692307D01*
X-22689346Y7740026D01*
X-22709399Y7771370D01*
X-22731349Y7807077D01*
X-22749233Y7824829D01*
X-22599012Y7824829D01*
X-22590946Y7806213D01*
X-22571380Y7779017D01*
X-22547256Y7751752D01*
X-22525518Y7732933D01*
X-22522692Y7731257D01*
X-22507866Y7725584D01*
X-22502344Y7731245D01*
X-22385249Y7731245D01*
X-22356957Y7737266D01*
X-22334582Y7740337D01*
X-22292483Y7744652D01*
X-22236022Y7749712D01*
X-22170565Y7755019D01*
X-22146338Y7756856D01*
X-22076779Y7762273D01*
X-22012182Y7767741D01*
X-21958652Y7772712D01*
X-21922290Y7776639D01*
X-21915691Y7777525D01*
X-21902144Y7780866D01*
X-21886286Y7788099D01*
X-21870065Y7798395D01*
X-21675526Y7798395D01*
X-21663096Y7798927D01*
X-21628090Y7801431D01*
X-21572985Y7805704D01*
X-21500257Y7811547D01*
X-21412386Y7818757D01*
X-21311849Y7827134D01*
X-21201123Y7836477D01*
X-21095995Y7845442D01*
X-20976717Y7855598D01*
X-20864120Y7865058D01*
X-20760895Y7873604D01*
X-20669727Y7881021D01*
X-20593305Y7887092D01*
X-20534317Y7891599D01*
X-20495451Y7894327D01*
X-20480356Y7895084D01*
X-20470962Y7896265D01*
X-20467234Y7900944D01*
X-20470729Y7910924D01*
X-20483001Y7928010D01*
X-20505606Y7954004D01*
X-20540100Y7990710D01*
X-20588038Y8039933D01*
X-20650976Y8103474D01*
X-20718232Y8170895D01*
X-20993723Y8446599D01*
X-20995794Y8444667D01*
X-21103905Y8343791D01*
X-21159823Y8291432D01*
X-21222252Y8232665D01*
X-21288757Y8169815D01*
X-21356902Y8105205D01*
X-21424252Y8041158D01*
X-21488372Y7979997D01*
X-21546828Y7924047D01*
X-21597182Y7875630D01*
X-21637002Y7837070D01*
X-21663850Y7810691D01*
X-21675292Y7798816D01*
X-21675526Y7798395D01*
X-21870065Y7798395D01*
X-21866339Y7800760D01*
X-21840527Y7820389D01*
X-21807071Y7848522D01*
X-21764193Y7886698D01*
X-21710117Y7936454D01*
X-21643064Y7999329D01*
X-21561257Y8076859D01*
X-21478250Y8155949D01*
X-21396106Y8234636D01*
X-21320031Y8308088D01*
X-21251875Y8374476D01*
X-21193488Y8431973D01*
X-21146719Y8478749D01*
X-21113418Y8512976D01*
X-21097978Y8530018D01*
X-20897154Y8530018D01*
X-20888030Y8518478D01*
X-20863000Y8491490D01*
X-20824148Y8451179D01*
X-20773557Y8399671D01*
X-20713312Y8339091D01*
X-20645496Y8271564D01*
X-20589635Y8216374D01*
X-20284071Y7915476D01*
X-19998645Y7937799D01*
X-19914981Y7944531D01*
X-19838473Y7951043D01*
X-19773119Y7956966D01*
X-19722919Y7961932D01*
X-19691871Y7965571D01*
X-19684927Y7966742D01*
X-19656635Y7973362D01*
X-19656635Y8922836D01*
X-19735594Y8929174D01*
X-19828885Y8948310D01*
X-19911409Y8988354D01*
X-19980162Y9046782D01*
X-20032137Y9121071D01*
X-20063337Y9204452D01*
X-20077972Y9231502D01*
X-20109381Y9245044D01*
X-20110766Y9245328D01*
X-20124026Y9246953D01*
X-20137605Y9244944D01*
X-20154019Y9237342D01*
X-20175789Y9222184D01*
X-20205433Y9197512D01*
X-20245468Y9161364D01*
X-20298415Y9111780D01*
X-20366791Y9046799D01*
X-20371195Y9042601D01*
X-20444589Y8972707D01*
X-20522763Y8898400D01*
X-20600336Y8824786D01*
X-20671925Y8756971D01*
X-20732149Y8700060D01*
X-20745613Y8687368D01*
X-20796380Y8638713D01*
X-20839825Y8595491D01*
X-20872959Y8560805D01*
X-20892795Y8537756D01*
X-20897154Y8530018D01*
X-21097978Y8530018D01*
X-21095433Y8532827D01*
X-21092758Y8537060D01*
X-21102459Y8548197D01*
X-21127759Y8574229D01*
X-21166118Y8612630D01*
X-21215000Y8660872D01*
X-21271866Y8716430D01*
X-21313294Y8756608D01*
X-21530200Y8966369D01*
X-21530200Y8347863D01*
X-21769111Y8347863D01*
X-21769111Y9102319D01*
X-21662658Y9102319D01*
X-21800546Y9240635D01*
X-21898360Y9338753D01*
X-21938434Y9378952D01*
X-22061248Y9378952D01*
X-22117750Y9379337D01*
X-22153695Y9381100D01*
X-22173670Y9385150D01*
X-22176762Y9387758D01*
X-21764497Y9387758D01*
X-21757346Y9377866D01*
X-21734359Y9352676D01*
X-21697761Y9314390D01*
X-21649778Y9265211D01*
X-21592634Y9207339D01*
X-21528553Y9142978D01*
X-21459762Y9074329D01*
X-21388484Y9003595D01*
X-21316945Y8932978D01*
X-21247370Y8864680D01*
X-21181983Y8800904D01*
X-21123009Y8743850D01*
X-21072673Y8695722D01*
X-21033201Y8658722D01*
X-21006817Y8635052D01*
X-20995794Y8626910D01*
X-20984420Y8635216D01*
X-20957637Y8658467D01*
X-20917908Y8694335D01*
X-20867693Y8740487D01*
X-20809454Y8794594D01*
X-20745653Y8854326D01*
X-20678751Y8917352D01*
X-20611210Y8981342D01*
X-20545490Y9043964D01*
X-20484054Y9102890D01*
X-20429363Y9155788D01*
X-20383878Y9200328D01*
X-20350062Y9234180D01*
X-20330374Y9255012D01*
X-20326363Y9260694D01*
X-20339309Y9262566D01*
X-20375066Y9266454D01*
X-20431396Y9272143D01*
X-20506060Y9279419D01*
X-20596820Y9288069D01*
X-20701438Y9297878D01*
X-20817674Y9308634D01*
X-20943292Y9320121D01*
X-21044582Y9329293D01*
X-21175921Y9341026D01*
X-21299648Y9351865D01*
X-21413519Y9361630D01*
X-21515289Y9370137D01*
X-21602713Y9377205D01*
X-21673547Y9382651D01*
X-21725547Y9386292D01*
X-21756468Y9387947D01*
X-21764497Y9387758D01*
X-22176762Y9387758D01*
X-22182263Y9392399D01*
X-22184061Y9403330D01*
X-22186702Y9415488D01*
X-22197288Y9424473D01*
X-22219819Y9431374D01*
X-22258291Y9437276D01*
X-22316702Y9443265D01*
X-22338096Y9445187D01*
X-22385249Y9449348D01*
X-22385249Y7731245D01*
X-22502344Y7731245D01*
X-22500738Y7732892D01*
X-22498538Y7758207D01*
X-22498418Y7775292D01*
X-22498418Y7832319D01*
X-22548715Y7832319D01*
X-22580224Y7830656D01*
X-22597737Y7826503D01*
X-22599012Y7824829D01*
X-22749233Y7824829D01*
X-22749789Y7825381D01*
X-22771532Y7831812D01*
X-22784482Y7832306D01*
X-22787625Y7832306D01*
X-22825348Y7832319D01*
X-22825348Y7938152D01*
X-22824171Y7986845D01*
X-22821035Y8024795D01*
X-22816529Y8045892D01*
X-22814705Y8048177D01*
X-22811905Y8061559D01*
X-22813052Y8094126D01*
X-22817807Y8140284D01*
X-22822197Y8171824D01*
X-22830822Y8229012D01*
X-22838609Y8281314D01*
X-22844353Y8320618D01*
X-22845985Y8332145D01*
X-22855312Y8362263D01*
X-22869928Y8373012D01*
X-22727307Y8373012D01*
X-22718704Y8288135D01*
X-22711444Y8228832D01*
X-22701821Y8165649D01*
X-22694948Y8127814D01*
X-22679793Y8052368D01*
X-22589105Y8048674D01*
X-22498418Y8044979D01*
X-22498418Y9459502D01*
X-22547414Y9411658D01*
X-22607876Y9337350D01*
X-22654509Y9245384D01*
X-22687951Y9134202D01*
X-22706447Y9023729D01*
X-22715078Y8951427D01*
X-22624160Y8951427D01*
X-22624160Y8373012D01*
X-22727307Y8373012D01*
X-22869928Y8373012D01*
X-22875880Y8376280D01*
X-22880422Y8387970D01*
X-22883730Y8410912D01*
X-22885985Y8447935D01*
X-22886642Y8473606D01*
X-22787625Y8473606D01*
X-22724754Y8473606D01*
X-22724754Y8850833D01*
X-22787625Y8850833D01*
X-22787625Y8473606D01*
X-22886642Y8473606D01*
X-22887366Y8501868D01*
X-22888050Y8575540D01*
X-22888220Y8662220D01*
X-22888123Y8754729D01*
X-22887670Y8825106D01*
X-22886610Y8876364D01*
X-22884697Y8911520D01*
X-22881681Y8933589D01*
X-22877315Y8945585D01*
X-22871351Y8950524D01*
X-22864416Y8951427D01*
X-22842405Y8959121D01*
X-22829879Y8984321D01*
X-22825412Y9030209D01*
X-22825348Y9038464D01*
X-22817332Y9116173D01*
X-22795264Y9204433D01*
X-22762116Y9295285D01*
X-22720861Y9380770D01*
X-22674469Y9452926D01*
X-22667118Y9462272D01*
X-22643202Y9492733D01*
X-22633624Y9510772D01*
X-22636720Y9523369D01*
X-22649496Y9536300D01*
X-22674522Y9574493D01*
X-22684129Y9624198D01*
X-22679133Y9677724D01*
X-22660349Y9727378D01*
X-22628594Y9765467D01*
X-22624903Y9768225D01*
X-22565625Y9796726D01*
X-22504266Y9802028D01*
X-22445773Y9784718D01*
X-22395096Y9745380D01*
X-22390911Y9740570D01*
X-22371033Y9712640D01*
X-22362279Y9684302D01*
X-22361647Y9644463D01*
X-22362208Y9634511D01*
X-22363638Y9595532D01*
X-22360361Y9575454D01*
X-22350472Y9568185D01*
X-22341239Y9567440D01*
X-22314456Y9565916D01*
X-22274175Y9562135D01*
X-22250076Y9559418D01*
X-22211799Y9555477D01*
X-22192204Y9557116D01*
X-22185042Y9566621D01*
X-22184061Y9583551D01*
X-22187299Y9593592D01*
X-22197780Y9609790D01*
X-22216652Y9633345D01*
X-22245065Y9665457D01*
X-22271074Y9693309D01*
X-22089028Y9693309D01*
X-22008021Y9611576D01*
X-21958772Y9565470D01*
X-21921041Y9537894D01*
X-21898360Y9529843D01*
X-21882930Y9531671D01*
X-21874333Y9540923D01*
X-21870587Y9563250D01*
X-21869711Y9604305D01*
X-21869705Y9611576D01*
X-21869705Y9693309D01*
X-22089028Y9693309D01*
X-22271074Y9693309D01*
X-22284165Y9707328D01*
X-22335103Y9760157D01*
X-22399027Y9825145D01*
X-22477086Y9903491D01*
X-22570428Y9996397D01*
X-22680202Y10105063D01*
X-22733248Y10157431D01*
X-23282433Y10699249D01*
X-23195352Y10698630D01*
X-23108269Y10698011D01*
X-22649309Y10246286D01*
X-22190348Y9794561D01*
X-21979729Y9794232D01*
X-21769111Y9793903D01*
X-21769111Y9518810D01*
X-21715670Y9511722D01*
X-21691312Y9509038D01*
X-21645441Y9504513D01*
X-21580795Y9498391D01*
X-21500109Y9490912D01*
X-21406119Y9482319D01*
X-21301563Y9472854D01*
X-21189175Y9462758D01*
X-21071693Y9452274D01*
X-20951852Y9441644D01*
X-20832389Y9431109D01*
X-20716041Y9420913D01*
X-20605543Y9411295D01*
X-20503631Y9402500D01*
X-20413042Y9394768D01*
X-20336513Y9388342D01*
X-20276779Y9383463D01*
X-20236576Y9380375D01*
X-20218641Y9379317D01*
X-20218556Y9379318D01*
X-20204165Y9387027D01*
X-20174452Y9410181D01*
X-20129069Y9449095D01*
X-20067671Y9504084D01*
X-19989912Y9575464D01*
X-19895446Y9663549D01*
X-19783928Y9768654D01*
X-19655012Y9891095D01*
X-19618913Y9925510D01*
X-19046784Y10471337D01*
X-18958764Y10383081D01*
X-19036442Y10311685D01*
X-19064514Y10285566D01*
X-19107926Y10244766D01*
X-19163834Y10191977D01*
X-19229392Y10129891D01*
X-19301759Y10061200D01*
X-19378088Y9988596D01*
X-19423676Y9945160D01*
X-19509081Y9863616D01*
X-19577490Y9797704D01*
X-19630147Y9745744D01*
X-19668295Y9706055D01*
X-19693180Y9676957D01*
X-19706044Y9656769D01*
X-19708132Y9643810D01*
X-19700687Y9636400D01*
X-19684954Y9632858D01*
X-19662177Y9631503D01*
X-19655961Y9631321D01*
X-19613139Y9621903D01*
X-19561381Y9598697D01*
X-19508872Y9566336D01*
X-19463797Y9529452D01*
X-19449872Y9514693D01*
X-19401153Y9438967D01*
X-19373894Y9350508D01*
X-19367427Y9272300D01*
X-19379624Y9183668D01*
X-19415387Y9101812D01*
X-19473478Y9029364D01*
X-19487938Y9015997D01*
X-19543467Y8967118D01*
X-19543467Y8121526D01*
X-19367427Y8121526D01*
X-19367427Y7895190D01*
X-19449669Y7895190D01*
X-19505814Y7892350D01*
X-19544784Y7882807D01*
X-19565981Y7871209D01*
X-19581148Y7862923D01*
X-19603138Y7855827D01*
X-19635213Y7849452D01*
X-19680631Y7843328D01*
X-19742652Y7836984D01*
X-19824538Y7829950D01*
X-19885454Y7825134D01*
X-20170857Y7803039D01*
X-19621395Y7260635D01*
X-19521972Y7162563D01*
X-19426385Y7068416D01*
X-19336390Y6979915D01*
X-19253743Y6898780D01*
X-19180199Y6826731D01*
X-19117516Y6765488D01*
X-19067448Y6716773D01*
X-19031752Y6682304D01*
X-19012205Y6663821D01*
X-18981256Y6633457D01*
X-18959670Y6608129D01*
X-18952477Y6594505D01*
X-18960903Y6577105D01*
X-18981955Y6551740D01*
X-18990529Y6543142D01*
X-19028580Y6506686D01*
X-19232542Y6707398D01*
X-19284501Y6758604D01*
X-19351380Y6824631D01*
X-19430250Y6902582D01*
X-19518186Y6989562D01*
X-19612259Y7082674D01*
X-19709542Y7179021D01*
X-19807107Y7275708D01*
X-19877055Y7345066D01*
X-19983650Y7450497D01*
X-20073893Y7539071D01*
X-20149008Y7611919D01*
X-20210214Y7670177D01*
X-20258734Y7714975D01*
X-20284071Y7737179D01*
X-20295789Y7747449D01*
X-20322601Y7768729D01*
X-20340392Y7779949D01*
X-20348630Y7782446D01*
X-20366610Y7781500D01*
X-20407308Y7778627D01*
X-20468381Y7774013D01*
X-20547487Y7767842D01*
X-20642286Y7760302D01*
X-20750433Y7751579D01*
X-20869588Y7741857D01*
X-20997409Y7731324D01*
X-21099565Y7722835D01*
X-21675526Y7674804D01*
X-21819474Y7662799D01*
X-22451042Y7062262D01*
X-23082611Y6461725D01*
X-23170885Y6462166D01*
X-23259160Y6462608D01*
X-23155534Y6559617D01*
X-23097737Y6613909D01*
X-23029832Y6678008D01*
X-22953628Y6750184D01*
X-22870931Y6828708D01*
X-22783547Y6911851D01*
X-22693285Y6997881D01*
X-22601950Y7085070D01*
X-22511351Y7171687D01*
X-22423293Y7256003D01*
X-22339585Y7336288D01*
X-22262033Y7410813D01*
X-22192443Y7477846D01*
X-22132624Y7535659D01*
X-22084382Y7582521D01*
X-22049524Y7616704D01*
X-22029857Y7636476D01*
X-22026084Y7640810D01*
X-22039208Y7641108D01*
X-22072811Y7639469D01*
X-22122320Y7636177D01*
X-22183163Y7631518D01*
X-22207468Y7629518D01*
X-22385249Y7614623D01*
X-22385249Y7455091D01*
X-22498418Y7455091D01*
D13*
%TO.C,R5*%
X2903000Y-14233464D02*
X2903000Y-13779336D01*
X1433000Y-14233464D02*
X1433000Y-13779336D01*
%TO.C,R1*%
X20507740Y14483244D02*
X20507740Y14029116D01*
X19037740Y14483244D02*
X19037740Y14029116D01*
%TO.C,R6*%
X-5021800Y12992264D02*
X-5021800Y12538136D01*
X-6491800Y12992264D02*
X-6491800Y12538136D01*
%TO.C,R2*%
X-1425160Y-13779336D02*
X-1425160Y-14233464D01*
X-2895160Y-13779336D02*
X-2895160Y-14233464D01*
D15*
%TO.C,F1*%
X-15650000Y-16958000D02*
X-15650000Y7442000D01*
X-6250000Y7442000D02*
X-6250000Y-16958000D01*
X-15650000Y7442000D02*
X-6250000Y7442000D01*
X-6250000Y-16958000D02*
X-15650000Y-16958000D01*
D13*
%TO.C,C1*%
X8976140Y10725212D02*
X8976140Y10202708D01*
X7506140Y10725212D02*
X7506140Y10202708D01*
%TO.C,R3*%
X19040280Y10566564D02*
X19040280Y10112436D01*
X20510280Y10566564D02*
X20510280Y10112436D01*
%TO.C,SW1*%
X-3309040Y5361460D02*
X-3409040Y5361460D01*
X-1809040Y961460D02*
X-1809040Y5361460D01*
X-3309040Y961460D02*
X-3409040Y961460D01*
X-4909040Y5361460D02*
X-4909040Y961460D01*
%TO.C,R4*%
X-731080Y-14233464D02*
X-731080Y-13779336D01*
X738920Y-14233464D02*
X738920Y-13779336D01*
D16*
%TO.C,U3*%
X-3925000Y13884400D02*
X-3925000Y11544400D01*
X4725000Y13884400D02*
X4725000Y11544400D01*
D17*
X4300000Y16714400D02*
G75*
G03*
X4300000Y16714400I-100000J0D01*
G01*
D13*
%TO.C,SW2*%
X-4911580Y-4768060D02*
X-4911580Y-9168060D01*
X-3411580Y-9168060D02*
X-3311580Y-9168060D01*
X-1811580Y-9168060D02*
X-1811580Y-4768060D01*
X-3411580Y-4768060D02*
X-3311580Y-4768060D01*
%TO.C,C2*%
X7506140Y14012708D02*
X7506140Y14535212D01*
X8976140Y14012708D02*
X8976140Y14535212D01*
%TO.C,C3*%
X-11980000Y14788349D02*
X-9480000Y14788349D01*
X-17088000Y13067349D02*
X-8952000Y13067349D01*
X-16909000Y13988349D02*
X-14060000Y13988349D01*
X-11980000Y15428349D02*
X-9930000Y15428349D01*
X-15624000Y15908349D02*
X-10416000Y15908349D01*
X-15525000Y15988349D02*
X-10515000Y15988349D01*
X-11980000Y14028349D02*
X-9143000Y14028349D01*
X-16039000Y15508349D02*
X-14060000Y15508349D01*
X-16706000Y14508349D02*
X-14060000Y14508349D01*
X-11980000Y15348349D02*
X-9864000Y15348349D01*
X-16075000Y15468349D02*
X-14060000Y15468349D01*
X-14249000Y16668349D02*
X-11791000Y16668349D01*
X-15307000Y16148349D02*
X-10733000Y16148349D01*
X-11980000Y13748349D02*
X-9063000Y13748349D01*
X-11980000Y13828349D02*
X-9084000Y13828349D01*
X-14473000Y16588349D02*
X-11567000Y16588349D01*
X-14751000Y16468349D02*
X-11289000Y16468349D01*
X-11980000Y15268349D02*
X-9800000Y15268349D01*
X-11980000Y14468349D02*
X-9316000Y14468349D01*
X-16412000Y15028349D02*
X-14060000Y15028349D01*
X-16003000Y15548349D02*
X-10037000Y15548349D01*
X-16582000Y14748349D02*
X-14060000Y14748349D01*
X-15576000Y15948349D02*
X-10464000Y15948349D01*
X-11980000Y15108349D02*
X-9682000Y15108349D01*
X-16537000Y14828349D02*
X-14060000Y14828349D01*
X-16329000Y15148349D02*
X-14060000Y15148349D01*
X-16810000Y14268349D02*
X-14060000Y14268349D01*
X-17057000Y13347349D02*
X-8983000Y13347349D01*
X-11980000Y14708349D02*
X-9436000Y14708349D01*
X-16870000Y14108349D02*
X-14060000Y14108349D01*
X-17014000Y13588349D02*
X-14060000Y13588349D01*
X-17097000Y12907349D02*
X-8943000Y12907349D01*
X-15927000Y15628349D02*
X-10113000Y15628349D01*
X-11980000Y14188349D02*
X-9199000Y14188349D01*
X-16956000Y13828349D02*
X-14060000Y13828349D01*
X-16977000Y13748349D02*
X-14060000Y13748349D01*
X-11980000Y14388349D02*
X-9280000Y14388349D01*
X-16987000Y13708349D02*
X-14060000Y13708349D01*
X-15671000Y15868349D02*
X-10369000Y15868349D01*
X-17068000Y13267349D02*
X-8972000Y13267349D01*
X-15717000Y15828349D02*
X-10323000Y15828349D01*
X-11980000Y15188349D02*
X-9740000Y15188349D01*
X-11980000Y14948349D02*
X-9576000Y14948349D01*
X-16760000Y14388349D02*
X-14060000Y14388349D01*
X-11980000Y15148349D02*
X-9711000Y15148349D01*
X-16626000Y14668349D02*
X-14060000Y14668349D01*
X-17085000Y13107349D02*
X-8955000Y13107349D01*
X-17062000Y13307349D02*
X-8978000Y13307349D01*
X-15804000Y15748349D02*
X-10236000Y15748349D01*
X-16647000Y14628349D02*
X-14060000Y14628349D01*
X-17091000Y13027349D02*
X-8949000Y13027349D01*
X-11980000Y14308349D02*
X-9246000Y14308349D01*
X-11980000Y14148349D02*
X-9185000Y14148349D01*
X-11980000Y13868349D02*
X-9095000Y13868349D01*
X-16209000Y15308349D02*
X-14060000Y15308349D01*
X-17100000Y12787349D02*
X-8940000Y12787349D01*
X-15761000Y15788349D02*
X-10279000Y15788349D01*
X-11980000Y14068349D02*
X-9157000Y14068349D01*
X-11980000Y14228349D02*
X-9215000Y14228349D01*
X-11980000Y13788349D02*
X-9073000Y13788349D01*
X-17081000Y13147349D02*
X-8959000Y13147349D01*
X-16144000Y15388349D02*
X-14060000Y15388349D01*
X-15335000Y8337651D02*
X-15335000Y9137651D01*
X-16240000Y15268349D02*
X-14060000Y15268349D01*
X-11980000Y15308349D02*
X-9831000Y15308349D01*
X-16897000Y14028349D02*
X-14060000Y14028349D01*
X-15248000Y16188349D02*
X-10792000Y16188349D01*
X-16110000Y15428349D02*
X-14060000Y15428349D01*
X-16270000Y15228349D02*
X-14060000Y15228349D01*
X-17050000Y13387349D02*
X-8990000Y13387349D01*
X-11980000Y14828349D02*
X-9503000Y14828349D01*
X-16855000Y14148349D02*
X-14060000Y14148349D01*
X-11980000Y13668349D02*
X-9044000Y13668349D01*
X-16464000Y14948349D02*
X-14060000Y14948349D01*
X-11980000Y14348349D02*
X-9263000Y14348349D01*
X-17022000Y13548349D02*
X-14060000Y13548349D01*
X-11980000Y14548349D02*
X-9354000Y14548349D01*
X-11980000Y15508349D02*
X-10001000Y15508349D01*
X-11980000Y14908349D02*
X-9551000Y14908349D01*
X-11980000Y13508349D02*
X-9010000Y13508349D01*
X-17072000Y13227349D02*
X-8968000Y13227349D01*
X-16922000Y13948349D02*
X-14060000Y13948349D01*
X-14665000Y16508349D02*
X-11375000Y16508349D01*
X-11980000Y13948349D02*
X-9118000Y13948349D01*
X-17096000Y12947349D02*
X-8944000Y12947349D01*
X-16777000Y14348349D02*
X-14060000Y14348349D01*
X-16667000Y14588349D02*
X-14060000Y14588349D01*
X-16794000Y14308349D02*
X-14060000Y14308349D01*
X-11980000Y14428349D02*
X-9298000Y14428349D01*
X-16742000Y14428349D02*
X-14060000Y14428349D01*
X-16967000Y13788349D02*
X-14060000Y13788349D01*
X-16825000Y14228349D02*
X-14060000Y14228349D01*
X-16489000Y14908349D02*
X-14060000Y14908349D01*
X-11980000Y14868349D02*
X-9527000Y14868349D01*
X-17099000Y12867349D02*
X-8941000Y12867349D01*
X-16724000Y14468349D02*
X-14060000Y14468349D01*
X-11980000Y13468349D02*
X-9003000Y13468349D01*
X-15054000Y16308349D02*
X-10986000Y16308349D01*
X-11980000Y13708349D02*
X-9053000Y13708349D01*
X-11980000Y14588349D02*
X-9373000Y14588349D01*
X-15420000Y16068349D02*
X-10620000Y16068349D01*
X-13968000Y16748349D02*
X-12072000Y16748349D01*
X-15186000Y16228349D02*
X-10854000Y16228349D01*
X-15965000Y15588349D02*
X-10075000Y15588349D01*
X-11980000Y15468349D02*
X-9965000Y15468349D01*
X-14118000Y16708349D02*
X-11922000Y16708349D01*
X-13553000Y16828349D02*
X-12487000Y16828349D01*
X-16945000Y13868349D02*
X-14060000Y13868349D01*
X-11980000Y13988349D02*
X-9131000Y13988349D01*
X-11980000Y14108349D02*
X-9170000Y14108349D01*
X-17005000Y13628349D02*
X-14060000Y13628349D01*
X-11980000Y14988349D02*
X-9602000Y14988349D01*
X-17100000Y12827349D02*
X-8940000Y12827349D01*
X-17044000Y13427349D02*
X-8996000Y13427349D01*
X-11980000Y14748349D02*
X-9458000Y14748349D01*
X-13788000Y16788349D02*
X-12252000Y16788349D01*
X-11980000Y13588349D02*
X-9026000Y13588349D01*
X-11980000Y14508349D02*
X-9334000Y14508349D01*
X-16841000Y14188349D02*
X-14060000Y14188349D01*
X-11980000Y13908349D02*
X-9106000Y13908349D01*
X-15122000Y16268349D02*
X-10918000Y16268349D01*
X-11980000Y15228349D02*
X-9770000Y15228349D01*
X-17030000Y13508349D02*
X-14060000Y13508349D01*
X-16996000Y13668349D02*
X-14060000Y13668349D01*
X-16176000Y15348349D02*
X-14060000Y15348349D01*
X-11980000Y13628349D02*
X-9035000Y13628349D01*
X-11980000Y15068349D02*
X-9655000Y15068349D01*
X-17094000Y12987349D02*
X-8946000Y12987349D01*
X-17077000Y13187349D02*
X-8963000Y13187349D01*
X-11980000Y14628349D02*
X-9393000Y14628349D01*
X-15365000Y16108349D02*
X-10675000Y16108349D01*
X-11980000Y14268349D02*
X-9230000Y14268349D01*
X-16438000Y14988349D02*
X-14060000Y14988349D01*
X-16385000Y15068349D02*
X-14060000Y15068349D01*
X-17037000Y13468349D02*
X-14060000Y13468349D01*
X-15735000Y8737651D02*
X-14935000Y8737651D01*
X-16560000Y14788349D02*
X-14060000Y14788349D01*
X-16604000Y14708349D02*
X-14060000Y14708349D01*
X-11980000Y13548349D02*
X-9018000Y13548349D01*
X-14572000Y16548349D02*
X-11468000Y16548349D01*
X-14984000Y16348349D02*
X-11056000Y16348349D01*
X-16686000Y14548349D02*
X-14060000Y14548349D01*
X-16513000Y14868349D02*
X-14060000Y14868349D01*
X-15474000Y16028349D02*
X-10566000Y16028349D01*
X-11980000Y14668349D02*
X-9414000Y14668349D01*
X-16883000Y14068349D02*
X-14060000Y14068349D01*
X-11980000Y15028349D02*
X-9628000Y15028349D01*
X-15887000Y15668349D02*
X-10153000Y15668349D01*
X-14833000Y16428349D02*
X-11207000Y16428349D01*
X-16300000Y15188349D02*
X-14060000Y15188349D01*
X-17100000Y12747349D02*
X-8940000Y12747349D01*
X-11980000Y15388349D02*
X-9896000Y15388349D01*
X-16934000Y13908349D02*
X-14060000Y13908349D01*
X-16358000Y15108349D02*
X-14060000Y15108349D01*
X-14910000Y16388349D02*
X-11130000Y16388349D01*
X-15846000Y15708349D02*
X-10194000Y15708349D01*
X-14366000Y16628349D02*
X-11674000Y16628349D01*
X-8900000Y12747349D02*
G75*
G03*
X-8900000Y12747349I-4120000J0D01*
G01*
%TD*%
M02*
