M48
METRIC,LZ,000.000
;FILE_FORMAT=3:3
;TYPE=PLATED
;Layer: PTH_Through_Via
;EasyEDA v6.5.22, 2023-04-06 23:37:51
;59bfaf2a9afe4f888a6a27d7eff82a53,13d4147aac1444c28c06bf4132869bd4,10
;Gerber Generator version 0.2
;Holesize 1 = 0.305 mm
T01C0.305
;Holesize 2 = 3.501 mm
T02C3.501
%
G05
G90
T01
X022850Y-031890
X022860Y-032842
X031050Y-032120
X030520Y-012120
X030512Y-013059
X031775Y-032845
X019237Y-010831
X019986Y-010831
X024220Y-005420
X024220Y-004712
X017985Y-009320
X017990Y-008143
X013885Y-031465
X021435Y-033725
X020320Y-033707
X013016Y-030596
X023779Y-009763
X022366Y-009815
X020515Y-029760
X020320Y-031328
X003434Y-029240
X003434Y-027681
X003434Y-028474
T02
X003405Y-003530
X036470Y-003405
X036595Y-036470
X003530Y-036600
M30
