G04 Layer: TopSilkscreenLayer*
G04 EasyEDA v6.5.22, 2023-04-06 23:37:51*
G04 59bfaf2a9afe4f888a6a27d7eff82a53,13d4147aac1444c28c06bf4132869bd4,10*
G04 Gerber Generator version 0.2*
G04 Scale: 100 percent, Rotated: No, Reflected: No *
G04 Dimensions in millimeters *
G04 leading zeros omitted , absolute positions ,4 integer and 5 decimal *
%FSLAX45Y45*%
%MOMM*%

%ADD10C,0.4000*%
%ADD11C,0.2032*%
%ADD12C,0.1524*%
%ADD13C,0.2540*%
%ADD14C,0.1300*%
%ADD15C,0.1000*%
%ADD16C,0.0762*%
%ADD17C,0.0111*%

%LPD*%
G36*
X1283716Y-3142234D02*
G01*
X1279347Y-3144215D01*
X1274978Y-3147669D01*
X1270812Y-3152343D01*
X1267002Y-3157931D01*
X1263751Y-3164128D01*
X1261211Y-3170732D01*
X1259535Y-3177336D01*
X1258925Y-3183686D01*
X1259433Y-3190900D01*
X1260805Y-3197860D01*
X1263091Y-3204514D01*
X1266240Y-3210712D01*
X1270152Y-3216402D01*
X1274876Y-3221634D01*
X1280363Y-3226257D01*
X1286560Y-3230168D01*
X1296162Y-3235502D01*
X1394002Y-3235502D01*
X1397406Y-3231286D01*
X1399997Y-3225800D01*
X1400860Y-3218789D01*
X1399946Y-3211677D01*
X1397304Y-3205988D01*
X1393901Y-3201517D01*
X1333957Y-3200298D01*
X1314704Y-3199688D01*
X1308811Y-3199333D01*
X1304747Y-3198774D01*
X1302004Y-3198114D01*
X1300226Y-3197250D01*
X1298905Y-3196132D01*
X1297432Y-3194304D01*
X1296060Y-3191967D01*
X1294942Y-3189478D01*
X1294231Y-3187090D01*
X1293977Y-3183991D01*
X1294638Y-3180994D01*
X1296517Y-3177489D01*
X1302359Y-3169208D01*
X1304493Y-3165602D01*
X1305915Y-3162452D01*
X1306423Y-3160217D01*
X1304137Y-3153206D01*
X1298397Y-3146907D01*
X1291031Y-3142792D01*
G37*
G36*
X1326438Y-3254552D02*
G01*
X1319072Y-3254756D01*
X1312214Y-3255416D01*
X1305712Y-3256534D01*
X1299260Y-3258159D01*
X1292656Y-3260394D01*
X1285748Y-3263239D01*
X1278229Y-3266744D01*
X1272032Y-3270046D01*
X1266037Y-3273704D01*
X1260297Y-3277768D01*
X1254810Y-3282187D01*
X1249578Y-3286912D01*
X1244650Y-3291992D01*
X1240028Y-3297326D01*
X1235710Y-3302965D01*
X1231747Y-3308858D01*
X1228090Y-3315055D01*
X1224838Y-3321405D01*
X1221994Y-3328060D01*
X1219809Y-3334207D01*
X1218031Y-3340811D01*
X1216660Y-3347770D01*
X1215694Y-3355035D01*
X1215065Y-3363417D01*
X1221994Y-3363417D01*
X1222349Y-3355289D01*
X1223670Y-3347974D01*
X1226312Y-3338880D01*
X1228140Y-3333445D01*
X1230223Y-3328111D01*
X1232560Y-3322980D01*
X1237945Y-3313176D01*
X1240942Y-3308502D01*
X1247597Y-3299815D01*
X1251254Y-3295700D01*
X1259128Y-3288131D01*
X1263345Y-3284677D01*
X1267764Y-3281426D01*
X1277112Y-3275584D01*
X1281988Y-3273044D01*
X1287068Y-3270707D01*
X1297686Y-3266744D01*
X1303172Y-3265170D01*
X1309014Y-3263798D01*
X1314805Y-3262782D01*
X1320596Y-3262071D01*
X1326337Y-3261664D01*
X1332077Y-3261563D01*
X1343355Y-3262325D01*
X1348892Y-3263138D01*
X1354328Y-3264204D01*
X1359712Y-3265576D01*
X1364996Y-3267202D01*
X1370177Y-3269081D01*
X1375257Y-3271265D01*
X1385062Y-3276346D01*
X1394256Y-3282442D01*
X1398625Y-3285794D01*
X1406906Y-3293211D01*
X1410766Y-3297275D01*
X1417878Y-3305962D01*
X1424178Y-3315462D01*
X1426972Y-3320440D01*
X1431848Y-3331006D01*
X1433931Y-3336544D01*
X1435709Y-3342233D01*
X1437233Y-3348126D01*
X1438452Y-3354120D01*
X1439164Y-3359302D01*
X1439418Y-3365144D01*
X1439316Y-3371342D01*
X1438859Y-3377895D01*
X1438046Y-3384499D01*
X1436878Y-3391154D01*
X1435404Y-3397605D01*
X1433626Y-3403752D01*
X1431544Y-3409594D01*
X1429156Y-3415233D01*
X1426514Y-3420719D01*
X1423619Y-3426002D01*
X1417015Y-3435908D01*
X1413306Y-3440582D01*
X1409344Y-3445001D01*
X1405178Y-3449218D01*
X1400759Y-3453180D01*
X1396085Y-3456889D01*
X1391208Y-3460394D01*
X1380794Y-3466592D01*
X1375257Y-3469284D01*
X1369517Y-3471773D01*
X1362456Y-3474262D01*
X1355598Y-3475888D01*
X1347673Y-3476955D01*
X1337310Y-3477564D01*
X1328826Y-3477818D01*
X1321206Y-3477666D01*
X1314246Y-3477209D01*
X1307846Y-3476345D01*
X1301800Y-3475075D01*
X1295908Y-3473297D01*
X1289964Y-3471062D01*
X1283868Y-3468319D01*
X1277518Y-3464966D01*
X1271422Y-3461308D01*
X1265631Y-3457295D01*
X1260144Y-3452926D01*
X1254963Y-3448253D01*
X1250086Y-3443274D01*
X1245565Y-3437991D01*
X1241348Y-3432403D01*
X1237488Y-3426510D01*
X1233932Y-3420414D01*
X1230782Y-3414014D01*
X1228039Y-3407359D01*
X1225651Y-3400298D01*
X1224026Y-3393287D01*
X1223010Y-3385108D01*
X1222349Y-3374694D01*
X1221994Y-3363417D01*
X1215065Y-3363417D01*
X1214932Y-3369970D01*
X1215136Y-3377437D01*
X1215745Y-3384905D01*
X1216761Y-3392119D01*
X1218133Y-3399129D01*
X1219962Y-3405733D01*
X1222146Y-3411931D01*
X1224381Y-3417112D01*
X1229461Y-3426917D01*
X1232255Y-3431590D01*
X1238453Y-3440328D01*
X1245260Y-3448304D01*
X1252728Y-3455568D01*
X1260703Y-3462020D01*
X1269136Y-3467709D01*
X1278026Y-3472637D01*
X1287272Y-3476701D01*
X1291996Y-3478479D01*
X1301648Y-3481324D01*
X1311503Y-3483356D01*
X1321511Y-3484575D01*
X1331569Y-3484879D01*
X1336649Y-3484727D01*
X1346708Y-3483711D01*
X1351737Y-3482898D01*
X1361694Y-3480562D01*
X1371498Y-3477310D01*
X1381048Y-3473145D01*
X1385722Y-3470706D01*
X1394815Y-3465118D01*
X1399235Y-3461969D01*
X1407769Y-3454958D01*
X1415440Y-3447287D01*
X1422196Y-3439261D01*
X1428191Y-3430625D01*
X1433372Y-3421481D01*
X1435709Y-3416706D01*
X1439672Y-3406851D01*
X1442821Y-3396640D01*
X1443939Y-3391001D01*
X1444752Y-3384296D01*
X1445260Y-3376929D01*
X1445412Y-3369208D01*
X1445209Y-3361537D01*
X1444701Y-3354222D01*
X1443888Y-3347567D01*
X1442720Y-3341979D01*
X1440840Y-3336036D01*
X1438402Y-3329584D01*
X1435455Y-3322929D01*
X1432204Y-3316274D01*
X1428648Y-3309823D01*
X1424990Y-3303828D01*
X1421282Y-3298444D01*
X1417726Y-3293973D01*
X1409242Y-3285236D01*
X1404772Y-3281273D01*
X1400200Y-3277615D01*
X1395526Y-3274212D01*
X1390650Y-3271062D01*
X1385671Y-3268217D01*
X1380540Y-3265627D01*
X1375308Y-3263290D01*
X1369872Y-3261258D01*
X1364335Y-3259480D01*
X1358646Y-3258007D01*
X1352854Y-3256788D01*
X1346860Y-3255822D01*
X1340764Y-3255162D01*
X1334516Y-3254756D01*
G37*
G36*
X1330147Y-3301746D02*
G01*
X1318971Y-3301847D01*
X1311757Y-3302558D01*
X1306118Y-3304235D01*
X1299667Y-3307384D01*
X1294739Y-3310178D01*
X1290167Y-3313176D01*
X1285849Y-3316478D01*
X1281887Y-3319983D01*
X1278229Y-3323742D01*
X1274927Y-3327755D01*
X1271930Y-3331972D01*
X1269238Y-3336442D01*
X1266952Y-3341166D01*
X1264920Y-3346043D01*
X1263294Y-3351174D01*
X1261973Y-3356508D01*
X1261008Y-3362401D01*
X1260602Y-3368294D01*
X1260703Y-3374186D01*
X1261262Y-3380028D01*
X1262380Y-3385769D01*
X1263904Y-3391408D01*
X1265936Y-3396843D01*
X1268374Y-3402177D01*
X1271219Y-3407257D01*
X1274521Y-3412134D01*
X1278178Y-3416706D01*
X1282242Y-3421024D01*
X1286662Y-3424986D01*
X1291437Y-3428644D01*
X1296517Y-3431895D01*
X1301953Y-3434689D01*
X1307998Y-3437280D01*
X1313688Y-3438702D01*
X1320749Y-3439363D01*
X1331061Y-3439515D01*
X1341729Y-3439363D01*
X1348638Y-3438651D01*
X1354175Y-3436924D01*
X1360576Y-3433775D01*
X1368704Y-3429152D01*
X1374495Y-3425190D01*
X1378712Y-3421227D01*
X1382064Y-3416706D01*
X1383588Y-3413963D01*
X1384198Y-3411677D01*
X1383944Y-3409340D01*
X1382928Y-3406343D01*
X1378966Y-3400094D01*
X1373682Y-3397707D01*
X1366875Y-3399180D01*
X1351584Y-3408832D01*
X1344625Y-3411982D01*
X1337564Y-3413963D01*
X1330502Y-3414725D01*
X1323492Y-3414268D01*
X1316583Y-3412591D01*
X1309928Y-3409746D01*
X1303629Y-3405682D01*
X1299108Y-3401771D01*
X1295298Y-3397453D01*
X1292199Y-3392830D01*
X1289710Y-3387851D01*
X1287932Y-3382721D01*
X1286814Y-3377437D01*
X1286306Y-3372053D01*
X1286510Y-3366617D01*
X1287322Y-3361283D01*
X1288745Y-3356051D01*
X1290828Y-3350971D01*
X1293520Y-3346145D01*
X1296873Y-3341674D01*
X1300784Y-3337560D01*
X1305306Y-3333851D01*
X1310436Y-3330701D01*
X1314500Y-3328924D01*
X1318818Y-3327704D01*
X1323898Y-3327095D01*
X1330147Y-3326892D01*
X1339138Y-3327450D01*
X1346606Y-3329228D01*
X1353261Y-3332530D01*
X1361694Y-3339185D01*
X1366113Y-3341979D01*
X1367942Y-3342741D01*
X1375054Y-3342690D01*
X1380439Y-3338779D01*
X1383131Y-3332429D01*
X1382115Y-3324860D01*
X1378915Y-3320287D01*
X1373225Y-3315157D01*
X1365707Y-3309975D01*
X1357020Y-3305200D01*
X1352600Y-3303473D01*
X1347368Y-3302406D01*
X1340205Y-3301898D01*
G37*
G36*
X1481836Y-3302609D02*
G01*
X1480362Y-3303320D01*
X1472844Y-3308502D01*
X1467307Y-3312668D01*
X1467459Y-3313429D01*
X1469948Y-3317290D01*
X1474470Y-3323539D01*
X1477264Y-3328212D01*
X1480007Y-3333343D01*
X1482344Y-3338423D01*
X1484985Y-3345230D01*
X1486509Y-3351428D01*
X1487170Y-3358997D01*
X1487373Y-3369868D01*
X1487220Y-3377742D01*
X1486712Y-3384854D01*
X1485747Y-3391255D01*
X1484376Y-3397148D01*
X1482445Y-3402736D01*
X1479905Y-3408172D01*
X1476806Y-3413607D01*
X1467002Y-3427577D01*
X1480820Y-3438499D01*
X1485392Y-3433673D01*
X1488998Y-3429304D01*
X1492351Y-3424224D01*
X1495450Y-3418484D01*
X1498295Y-3412236D01*
X1500733Y-3405581D01*
X1502867Y-3398621D01*
X1504645Y-3391458D01*
X1505966Y-3384245D01*
X1506880Y-3377082D01*
X1507236Y-3370072D01*
X1507134Y-3363315D01*
X1506474Y-3357016D01*
X1505458Y-3351326D01*
X1504035Y-3345535D01*
X1502308Y-3339693D01*
X1500276Y-3333902D01*
X1497990Y-3328263D01*
X1495501Y-3322878D01*
X1492859Y-3317900D01*
X1487170Y-3309162D01*
X1482801Y-3303473D01*
G37*
G36*
X1180642Y-3302609D02*
G01*
X1179931Y-3303015D01*
X1177290Y-3305860D01*
X1172362Y-3312718D01*
X1169314Y-3317748D01*
X1166520Y-3322980D01*
X1164031Y-3328415D01*
X1161796Y-3333953D01*
X1159865Y-3339642D01*
X1158290Y-3345383D01*
X1156970Y-3351225D01*
X1155954Y-3357067D01*
X1154887Y-3368751D01*
X1154887Y-3374542D01*
X1155192Y-3380232D01*
X1155801Y-3385820D01*
X1156766Y-3391306D01*
X1158138Y-3396589D01*
X1161643Y-3406749D01*
X1166266Y-3417315D01*
X1171346Y-3426866D01*
X1173784Y-3430828D01*
X1180388Y-3439210D01*
X1194866Y-3427729D01*
X1184960Y-3413302D01*
X1181760Y-3407816D01*
X1179220Y-3402533D01*
X1177340Y-3397199D01*
X1175969Y-3391611D01*
X1175105Y-3385515D01*
X1174648Y-3378606D01*
X1174496Y-3370630D01*
X1174699Y-3359200D01*
X1175359Y-3351479D01*
X1176883Y-3345281D01*
X1179626Y-3338423D01*
X1182014Y-3333394D01*
X1184757Y-3328263D01*
X1187500Y-3323691D01*
X1189888Y-3320237D01*
X1195070Y-3313684D01*
X1185722Y-3306013D01*
X1181557Y-3303066D01*
G37*
G36*
X1457960Y-3320338D02*
G01*
X1443939Y-3331464D01*
X1449273Y-3341624D01*
X1451457Y-3346348D01*
X1453184Y-3351276D01*
X1454505Y-3356406D01*
X1455470Y-3361639D01*
X1455978Y-3366922D01*
X1456080Y-3372256D01*
X1455724Y-3377590D01*
X1455013Y-3382772D01*
X1453896Y-3387801D01*
X1452321Y-3392627D01*
X1450390Y-3397199D01*
X1448054Y-3401415D01*
X1443278Y-3408934D01*
X1451762Y-3415893D01*
X1455978Y-3418535D01*
X1457147Y-3418941D01*
X1459941Y-3416909D01*
X1463598Y-3411626D01*
X1467459Y-3404311D01*
X1470812Y-3396132D01*
X1472184Y-3391560D01*
X1473301Y-3386582D01*
X1474825Y-3376117D01*
X1475181Y-3365906D01*
X1474927Y-3361283D01*
X1474317Y-3357219D01*
X1472336Y-3349193D01*
X1469542Y-3341166D01*
X1466189Y-3333648D01*
X1462430Y-3327146D01*
G37*
G36*
X1204315Y-3322320D02*
G01*
X1201115Y-3324961D01*
X1196949Y-3331768D01*
X1192733Y-3341166D01*
X1189278Y-3351479D01*
X1188008Y-3357067D01*
X1187145Y-3362604D01*
X1186688Y-3368040D01*
X1186688Y-3373526D01*
X1187145Y-3378962D01*
X1188059Y-3384499D01*
X1189380Y-3390036D01*
X1191107Y-3395675D01*
X1194663Y-3404463D01*
X1198422Y-3411880D01*
X1201978Y-3417011D01*
X1204671Y-3418941D01*
X1205941Y-3418535D01*
X1210310Y-3415893D01*
X1218793Y-3408934D01*
X1214120Y-3401517D01*
X1211681Y-3397199D01*
X1209700Y-3392627D01*
X1208074Y-3387801D01*
X1206906Y-3382772D01*
X1206144Y-3377641D01*
X1205839Y-3372408D01*
X1205890Y-3367125D01*
X1206398Y-3361893D01*
X1207312Y-3356711D01*
X1208684Y-3351631D01*
X1210462Y-3346704D01*
X1212646Y-3341979D01*
X1218184Y-3331362D01*
X1209802Y-3325063D01*
X1205585Y-3322675D01*
G37*
G36*
X1315262Y-3356305D02*
G01*
X1310640Y-3361842D01*
X1307287Y-3366719D01*
X1306271Y-3371037D01*
X1307541Y-3375202D01*
X1311198Y-3379724D01*
X1316431Y-3384956D01*
X1376172Y-3384854D01*
X1387856Y-3384397D01*
X1391107Y-3383889D01*
X1393291Y-3383076D01*
X1394917Y-3382010D01*
X1396441Y-3380536D01*
X1399743Y-3375660D01*
X1400860Y-3370173D01*
X1399895Y-3364788D01*
X1396695Y-3360216D01*
X1395222Y-3358946D01*
X1393545Y-3358032D01*
X1391208Y-3357321D01*
X1387754Y-3356864D01*
X1375714Y-3356406D01*
G37*
G36*
X1386535Y-3483356D02*
G01*
X1382217Y-3483559D01*
X1378864Y-3484219D01*
X1376324Y-3485642D01*
X1374546Y-3488080D01*
X1373327Y-3491737D01*
X1372616Y-3496818D01*
X1372209Y-3512413D01*
X1372209Y-3533495D01*
X1289100Y-3533546D01*
X1273149Y-3534003D01*
X1268984Y-3534460D01*
X1266494Y-3535172D01*
X1265072Y-3536137D01*
X1264005Y-3537458D01*
X1261770Y-3543503D01*
X1261160Y-3551224D01*
X1262227Y-3558743D01*
X1264818Y-3563924D01*
X1266139Y-3565042D01*
X1267968Y-3565906D01*
X1270812Y-3566566D01*
X1281887Y-3567277D01*
X1303832Y-3567480D01*
X1372209Y-3567480D01*
X1372362Y-3596487D01*
X1372768Y-3603853D01*
X1373327Y-3609390D01*
X1374038Y-3612337D01*
X1375410Y-3614064D01*
X1377594Y-3615131D01*
X1381150Y-3615690D01*
X1386535Y-3615842D01*
X1391920Y-3615690D01*
X1395425Y-3615131D01*
X1397609Y-3614064D01*
X1398981Y-3612337D01*
X1399387Y-3610559D01*
X1400098Y-3601465D01*
X1400556Y-3585514D01*
X1400810Y-3563365D01*
X1400759Y-3519576D01*
X1400505Y-3506165D01*
X1400098Y-3497122D01*
X1399489Y-3491534D01*
X1398625Y-3488334D01*
X1398066Y-3487369D01*
X1396288Y-3485387D01*
X1394104Y-3484168D01*
X1390954Y-3483559D01*
G37*
G36*
X1386027Y-3621176D02*
G01*
X1381912Y-3621379D01*
X1378661Y-3622090D01*
X1376222Y-3623513D01*
X1374495Y-3626002D01*
X1373327Y-3629660D01*
X1372616Y-3634740D01*
X1372209Y-3650234D01*
X1372209Y-3671315D01*
X1291234Y-3671366D01*
X1275283Y-3671824D01*
X1270812Y-3672230D01*
X1267968Y-3672890D01*
X1266139Y-3673754D01*
X1264818Y-3674872D01*
X1263142Y-3677056D01*
X1262024Y-3679748D01*
X1261414Y-3683304D01*
X1261211Y-3691890D01*
X1261313Y-3695141D01*
X1261770Y-3697782D01*
X1262786Y-3699865D01*
X1264615Y-3701440D01*
X1267510Y-3702659D01*
X1271625Y-3703523D01*
X1277264Y-3704082D01*
X1293876Y-3704640D01*
X1372209Y-3705453D01*
X1372311Y-3735273D01*
X1372666Y-3741877D01*
X1373428Y-3746906D01*
X1374648Y-3750513D01*
X1376476Y-3753002D01*
X1378966Y-3754475D01*
X1382318Y-3755237D01*
X1386535Y-3755440D01*
X1389888Y-3755186D01*
X1392783Y-3754526D01*
X1395272Y-3753408D01*
X1398066Y-3750970D01*
X1398727Y-3749954D01*
X1399743Y-3746601D01*
X1400352Y-3740302D01*
X1400810Y-3712413D01*
X1400759Y-3654348D01*
X1400556Y-3640632D01*
X1400098Y-3632098D01*
X1399387Y-3627323D01*
X1398879Y-3625900D01*
X1397558Y-3624122D01*
X1395628Y-3622903D01*
X1392986Y-3621989D01*
X1389735Y-3621379D01*
G37*
G36*
X1385316Y-3760063D02*
G01*
X1382268Y-3760622D01*
X1378610Y-3761994D01*
X1374190Y-3764178D01*
X1368856Y-3767226D01*
X1354937Y-3776116D01*
X1313535Y-3803751D01*
X1284224Y-3803904D01*
X1276756Y-3804310D01*
X1270965Y-3804970D01*
X1267561Y-3805834D01*
X1264310Y-3808425D01*
X1261973Y-3812387D01*
X1260652Y-3817264D01*
X1260348Y-3822547D01*
X1260957Y-3827729D01*
X1262481Y-3832351D01*
X1264970Y-3835958D01*
X1268425Y-3837940D01*
X1271778Y-3838448D01*
X1285138Y-3839210D01*
X1314043Y-3839514D01*
X1360576Y-3870451D01*
X1370380Y-3876649D01*
X1377746Y-3880815D01*
X1383182Y-3882999D01*
X1387297Y-3883456D01*
X1390599Y-3882237D01*
X1393596Y-3879545D01*
X1396847Y-3875532D01*
X1400200Y-3870655D01*
X1402181Y-3866387D01*
X1402537Y-3862476D01*
X1401216Y-3858666D01*
X1398016Y-3854653D01*
X1392732Y-3850182D01*
X1385316Y-3845001D01*
X1353667Y-3825290D01*
X1349603Y-3822293D01*
X1348994Y-3821582D01*
X1350721Y-3820160D01*
X1362303Y-3812540D01*
X1379677Y-3801719D01*
X1393952Y-3792372D01*
X1397609Y-3789730D01*
X1401419Y-3785209D01*
X1402537Y-3780180D01*
X1400962Y-3774389D01*
X1396695Y-3767632D01*
X1394460Y-3764889D01*
X1392326Y-3762705D01*
X1390243Y-3761130D01*
X1387957Y-3760266D01*
G37*
G36*
X1413357Y-3877106D02*
G01*
X1407617Y-3877614D01*
X1402130Y-3879087D01*
X1397101Y-3881424D01*
X1392580Y-3884574D01*
X1388719Y-3888384D01*
X1385570Y-3892804D01*
X1383284Y-3897782D01*
X1381963Y-3903167D01*
X1381542Y-3907840D01*
X1387043Y-3907840D01*
X1387551Y-3902964D01*
X1389634Y-3896918D01*
X1393240Y-3891787D01*
X1398016Y-3887673D01*
X1403705Y-3884726D01*
X1409954Y-3883101D01*
X1416507Y-3882847D01*
X1422958Y-3884168D01*
X1429004Y-3887063D01*
X1433372Y-3890721D01*
X1436624Y-3895191D01*
X1438859Y-3900271D01*
X1439976Y-3905707D01*
X1439926Y-3911244D01*
X1438808Y-3916679D01*
X1436471Y-3921810D01*
X1432966Y-3926433D01*
X1429258Y-3929684D01*
X1425346Y-3932123D01*
X1421333Y-3933799D01*
X1417167Y-3934764D01*
X1413052Y-3935018D01*
X1408938Y-3934663D01*
X1405026Y-3933647D01*
X1401267Y-3932072D01*
X1397812Y-3929938D01*
X1394714Y-3927297D01*
X1392072Y-3924198D01*
X1389888Y-3920693D01*
X1388262Y-3916730D01*
X1387297Y-3912463D01*
X1387043Y-3907840D01*
X1381542Y-3907840D01*
X1381760Y-3913022D01*
X1382623Y-3917492D01*
X1384046Y-3921658D01*
X1385976Y-3925468D01*
X1388414Y-3928922D01*
X1391208Y-3931970D01*
X1394358Y-3934612D01*
X1397863Y-3936847D01*
X1401572Y-3938625D01*
X1405483Y-3939895D01*
X1409547Y-3940708D01*
X1413713Y-3940962D01*
X1417878Y-3940708D01*
X1422044Y-3939946D01*
X1426159Y-3938524D01*
X1430172Y-3936542D01*
X1433982Y-3933951D01*
X1437538Y-3930700D01*
X1440840Y-3926738D01*
X1443634Y-3920185D01*
X1445107Y-3911142D01*
X1445107Y-3902201D01*
X1443380Y-3895750D01*
X1440332Y-3891229D01*
X1437182Y-3887368D01*
X1433830Y-3884117D01*
X1430274Y-3881526D01*
X1426514Y-3879596D01*
X1422450Y-3878173D01*
X1418082Y-3877360D01*
G37*
G36*
X1413357Y-3896817D02*
G01*
X1403502Y-3896868D01*
X1398168Y-3897325D01*
X1395933Y-3898392D01*
X1395476Y-3900373D01*
X1395730Y-3902151D01*
X1396695Y-3903268D01*
X1398625Y-3903827D01*
X1404467Y-3904132D01*
X1406448Y-3904589D01*
X1407617Y-3905351D01*
X1407968Y-3906316D01*
X1415338Y-3906316D01*
X1415846Y-3904843D01*
X1417218Y-3904132D01*
X1419656Y-3903979D01*
X1422095Y-3904132D01*
X1423416Y-3904843D01*
X1423924Y-3906316D01*
X1423771Y-3908907D01*
X1423314Y-3911142D01*
X1422501Y-3912666D01*
X1421333Y-3913530D01*
X1419656Y-3913784D01*
X1417980Y-3913530D01*
X1416761Y-3912666D01*
X1415948Y-3911142D01*
X1415491Y-3908907D01*
X1415338Y-3906316D01*
X1407968Y-3906316D01*
X1407515Y-3907739D01*
X1406144Y-3909314D01*
X1404162Y-3911041D01*
X1398016Y-3915410D01*
X1395882Y-3918153D01*
X1395476Y-3920642D01*
X1396949Y-3922572D01*
X1397965Y-3922623D01*
X1399692Y-3922166D01*
X1407566Y-3918051D01*
X1409750Y-3917289D01*
X1411427Y-3917696D01*
X1413256Y-3919067D01*
X1417066Y-3921251D01*
X1421333Y-3921760D01*
X1425346Y-3920591D01*
X1428496Y-3917899D01*
X1429562Y-3915664D01*
X1430477Y-3912565D01*
X1431036Y-3909009D01*
X1431290Y-3905351D01*
X1431290Y-3896817D01*
G37*
D10*
X68094Y-955497D02*
G01*
X68094Y-1078179D01*
D11*
X107337Y-1418996D02*
G01*
X11833Y-1418996D01*
X11833Y-1418996D02*
G01*
X11833Y-1473606D01*
X107337Y-1503578D02*
G01*
X11833Y-1503578D01*
X107337Y-1503578D02*
G01*
X107337Y-1562506D01*
X61871Y-1503578D02*
G01*
X61871Y-1539900D01*
X11833Y-1503578D02*
G01*
X11833Y-1562506D01*
X107337Y-1592732D02*
G01*
X11833Y-1592732D01*
X107337Y-1592732D02*
G01*
X107337Y-1624482D01*
X102765Y-1638198D01*
X93875Y-1647088D01*
X84731Y-1651660D01*
X71015Y-1656232D01*
X48409Y-1656232D01*
X34693Y-1651660D01*
X25549Y-1647088D01*
X16405Y-1638198D01*
X11833Y-1624482D01*
X11833Y-1592732D01*
D10*
X140809Y-2037963D02*
G01*
X18127Y-2037963D01*
X79595Y-1976495D02*
G01*
X79595Y-2099177D01*
D11*
X917831Y-2743113D02*
G01*
X917831Y-2697647D01*
X876937Y-2693075D01*
X881509Y-2697647D01*
X886081Y-2711109D01*
X886081Y-2724825D01*
X881509Y-2738541D01*
X872365Y-2747685D01*
X858903Y-2752257D01*
X849759Y-2752257D01*
X836043Y-2747685D01*
X826899Y-2738541D01*
X822327Y-2724825D01*
X822327Y-2711109D01*
X826899Y-2697647D01*
X831471Y-2693075D01*
X840615Y-2688503D01*
X917831Y-2782229D02*
G01*
X822327Y-2818551D01*
X917831Y-2854873D02*
G01*
X822327Y-2818551D01*
X917831Y-2884845D02*
G01*
X913259Y-2889417D01*
X917831Y-2893989D01*
X922403Y-2889417D01*
X917831Y-2884845D01*
X886081Y-2889417D02*
G01*
X822327Y-2889417D01*
X886081Y-2923961D02*
G01*
X822327Y-2923961D01*
X867793Y-2923961D02*
G01*
X881509Y-2937677D01*
X886081Y-2946567D01*
X886081Y-2960283D01*
X881509Y-2969427D01*
X867793Y-2973999D01*
X822327Y-2973999D01*
D12*
X1091813Y-3353993D02*
G01*
X982847Y-3353993D01*
X1091813Y-3353993D02*
G01*
X1091813Y-3421557D01*
X1039997Y-3353993D02*
G01*
X1039997Y-3395649D01*
X1070985Y-3455847D02*
G01*
X1076319Y-3466261D01*
X1091813Y-3481755D01*
X982847Y-3481755D01*
X1142314Y-3036493D02*
G01*
X1033348Y-3036493D01*
X1142314Y-3036493D02*
G01*
X1142314Y-3083229D01*
X1137234Y-3098723D01*
X1131900Y-3104057D01*
X1121486Y-3109137D01*
X1111072Y-3109137D01*
X1100658Y-3104057D01*
X1095578Y-3098723D01*
X1090498Y-3083229D01*
X1090498Y-3036493D01*
X1090498Y-3072815D02*
G01*
X1033348Y-3109137D01*
X1142314Y-3195497D02*
G01*
X1069670Y-3143427D01*
X1069670Y-3221405D01*
X1142314Y-3195497D02*
G01*
X1033348Y-3195497D01*
X1132814Y-2484493D02*
G01*
X1023848Y-2484493D01*
X1132814Y-2484493D02*
G01*
X1132814Y-2531229D01*
X1127734Y-2546723D01*
X1122400Y-2552057D01*
X1111986Y-2557137D01*
X1101572Y-2557137D01*
X1091158Y-2552057D01*
X1086078Y-2546723D01*
X1080998Y-2531229D01*
X1080998Y-2484493D01*
X1080998Y-2520815D02*
G01*
X1023848Y-2557137D01*
X1132814Y-2653911D02*
G01*
X1132814Y-2601841D01*
X1086078Y-2596761D01*
X1091158Y-2601841D01*
X1096492Y-2617589D01*
X1096492Y-2633083D01*
X1091158Y-2648577D01*
X1080998Y-2658991D01*
X1065250Y-2664325D01*
X1054836Y-2664325D01*
X1039342Y-2658991D01*
X1028928Y-2648577D01*
X1023848Y-2633083D01*
X1023848Y-2617589D01*
X1028928Y-2601841D01*
X1034008Y-2596761D01*
X1044422Y-2591427D01*
X141315Y-2669994D02*
G01*
X63337Y-2669994D01*
X47843Y-2675074D01*
X37429Y-2685488D01*
X32349Y-2701236D01*
X32349Y-2711650D01*
X37429Y-2727144D01*
X47843Y-2737558D01*
X63337Y-2742638D01*
X141315Y-2742638D01*
X125821Y-2849826D02*
G01*
X136235Y-2839412D01*
X141315Y-2823664D01*
X141315Y-2803090D01*
X136235Y-2787342D01*
X125821Y-2776928D01*
X115407Y-2776928D01*
X104993Y-2782262D01*
X99659Y-2787342D01*
X94579Y-2797756D01*
X84165Y-2828998D01*
X79085Y-2839412D01*
X73751Y-2844492D01*
X63337Y-2849826D01*
X47843Y-2849826D01*
X37429Y-2839412D01*
X32349Y-2823664D01*
X32349Y-2803090D01*
X37429Y-2787342D01*
X47843Y-2776928D01*
X141315Y-2884116D02*
G01*
X32349Y-2884116D01*
X141315Y-2884116D02*
G01*
X141315Y-2930852D01*
X136235Y-2946346D01*
X130901Y-2951680D01*
X120487Y-2956760D01*
X110073Y-2956760D01*
X99659Y-2951680D01*
X94579Y-2946346D01*
X89499Y-2930852D01*
X89499Y-2884116D02*
G01*
X89499Y-2930852D01*
X84165Y-2946346D01*
X79085Y-2951680D01*
X68671Y-2956760D01*
X52923Y-2956760D01*
X42509Y-2951680D01*
X37429Y-2946346D01*
X32349Y-2930852D01*
X32349Y-2884116D01*
X120487Y-2991050D02*
G01*
X125821Y-3001464D01*
X141315Y-3016958D01*
X32349Y-3016958D01*
X1255369Y-1492859D02*
G01*
X1265783Y-1487779D01*
X1276197Y-1477365D01*
X1281277Y-1466951D01*
X1281277Y-1446123D01*
X1276197Y-1435709D01*
X1265783Y-1425295D01*
X1255369Y-1420215D01*
X1239875Y-1415135D01*
X1213713Y-1415135D01*
X1198219Y-1420215D01*
X1187805Y-1425295D01*
X1177391Y-1435709D01*
X1172311Y-1446123D01*
X1172311Y-1466951D01*
X1177391Y-1477365D01*
X1187805Y-1487779D01*
X1198219Y-1492859D01*
X1281277Y-1527149D02*
G01*
X1172311Y-1527149D01*
X1281277Y-1527149D02*
G01*
X1172311Y-1600047D01*
X1281277Y-1600047D02*
G01*
X1172311Y-1600047D01*
X1260449Y-1634337D02*
G01*
X1265783Y-1644751D01*
X1281277Y-1660245D01*
X1172311Y-1660245D01*
X2375385Y-780214D02*
G01*
X2370051Y-769800D01*
X2359637Y-759386D01*
X2349477Y-754306D01*
X2333729Y-748972D01*
X2307821Y-748972D01*
X2292327Y-754306D01*
X2281913Y-759386D01*
X2271499Y-769800D01*
X2266165Y-780214D01*
X2266165Y-801042D01*
X2271499Y-811456D01*
X2281913Y-821616D01*
X2292327Y-826950D01*
X2307821Y-832030D01*
X2333729Y-832030D01*
X2349477Y-826950D01*
X2359637Y-821616D01*
X2370051Y-811456D01*
X2375385Y-801042D01*
X2375385Y-780214D01*
X2286993Y-795708D02*
G01*
X2255751Y-826950D01*
X2354557Y-866320D02*
G01*
X2359637Y-876734D01*
X2375385Y-892482D01*
X2266165Y-892482D01*
X1712371Y-758517D02*
G01*
X1603151Y-758517D01*
X1712371Y-758517D02*
G01*
X1712371Y-805253D01*
X1707037Y-820747D01*
X1701957Y-826081D01*
X1691543Y-831161D01*
X1681129Y-831161D01*
X1670715Y-826081D01*
X1665635Y-820747D01*
X1660301Y-805253D01*
X1660301Y-758517D01*
X1660301Y-794839D02*
G01*
X1603151Y-831161D01*
X1712371Y-891613D02*
G01*
X1707037Y-875865D01*
X1696623Y-870785D01*
X1686463Y-870785D01*
X1676049Y-875865D01*
X1670715Y-886279D01*
X1665635Y-907107D01*
X1660301Y-922601D01*
X1649887Y-933015D01*
X1639473Y-938349D01*
X1623979Y-938349D01*
X1613565Y-933015D01*
X1608485Y-927935D01*
X1603151Y-912187D01*
X1603151Y-891613D01*
X1608485Y-875865D01*
X1613565Y-870785D01*
X1623979Y-865451D01*
X1639473Y-865451D01*
X1649887Y-870785D01*
X1660301Y-881199D01*
X1665635Y-896693D01*
X1670715Y-917521D01*
X1676049Y-927935D01*
X1686463Y-933015D01*
X1696623Y-933015D01*
X1707037Y-927935D01*
X1712371Y-912187D01*
X1712371Y-891613D01*
X2561813Y-920531D02*
G01*
X2452847Y-920531D01*
X2561813Y-920531D02*
G01*
X2561813Y-967267D01*
X2556733Y-982761D01*
X2551399Y-988095D01*
X2540985Y-993175D01*
X2530571Y-993175D01*
X2520157Y-988095D01*
X2515077Y-982761D01*
X2509997Y-967267D01*
X2509997Y-920531D01*
X2509997Y-956853D02*
G01*
X2452847Y-993175D01*
X2525491Y-1095029D02*
G01*
X2509997Y-1089949D01*
X2499583Y-1079535D01*
X2494249Y-1063787D01*
X2494249Y-1058707D01*
X2499583Y-1043213D01*
X2509997Y-1032799D01*
X2525491Y-1027465D01*
X2530571Y-1027465D01*
X2546319Y-1032799D01*
X2556733Y-1043213D01*
X2561813Y-1058707D01*
X2561813Y-1063787D01*
X2556733Y-1079535D01*
X2546319Y-1089949D01*
X2525491Y-1095029D01*
X2499583Y-1095029D01*
X2473421Y-1089949D01*
X2457927Y-1079535D01*
X2452847Y-1063787D01*
X2452847Y-1053627D01*
X2457927Y-1037879D01*
X2468341Y-1032799D01*
X1741307Y-1109891D02*
G01*
X1632341Y-1109891D01*
X1741307Y-1109891D02*
G01*
X1741307Y-1156881D01*
X1736227Y-1172375D01*
X1730893Y-1177455D01*
X1720479Y-1182789D01*
X1710065Y-1182789D01*
X1699651Y-1177455D01*
X1694571Y-1172375D01*
X1689491Y-1156881D01*
X1689491Y-1109891D01*
X1689491Y-1146467D02*
G01*
X1632341Y-1182789D01*
X1720479Y-1217079D02*
G01*
X1725813Y-1227493D01*
X1741307Y-1242987D01*
X1632341Y-1242987D01*
X1741307Y-1308519D02*
G01*
X1736227Y-1292771D01*
X1720479Y-1282611D01*
X1694571Y-1277277D01*
X1679077Y-1277277D01*
X1652915Y-1282611D01*
X1637421Y-1292771D01*
X1632341Y-1308519D01*
X1632341Y-1318933D01*
X1637421Y-1334427D01*
X1652915Y-1344841D01*
X1679077Y-1349921D01*
X1694571Y-1349921D01*
X1720479Y-1344841D01*
X1736227Y-1334427D01*
X1741307Y-1318933D01*
X1741307Y-1308519D01*
X1849404Y-606976D02*
G01*
X1859818Y-601642D01*
X1870232Y-591228D01*
X1875312Y-581068D01*
X1875312Y-560240D01*
X1870232Y-549826D01*
X1859818Y-539412D01*
X1849404Y-534078D01*
X1833656Y-528998D01*
X1807748Y-528998D01*
X1792254Y-534078D01*
X1781840Y-539412D01*
X1771426Y-549826D01*
X1766346Y-560240D01*
X1766346Y-581068D01*
X1771426Y-591228D01*
X1781840Y-601642D01*
X1792254Y-606976D01*
X1854484Y-641266D02*
G01*
X1859818Y-651680D01*
X1875312Y-667174D01*
X1766346Y-667174D01*
X2055103Y-599480D02*
G01*
X2065517Y-594146D01*
X2075931Y-583732D01*
X2081011Y-573572D01*
X2081011Y-552744D01*
X2075931Y-542330D01*
X2065517Y-531916D01*
X2055103Y-526582D01*
X2039355Y-521502D01*
X2013447Y-521502D01*
X1997953Y-526582D01*
X1987539Y-531916D01*
X1977125Y-542330D01*
X1972045Y-552744D01*
X1972045Y-573572D01*
X1977125Y-583732D01*
X1987539Y-594146D01*
X1997953Y-599480D01*
X2055103Y-638850D02*
G01*
X2060183Y-638850D01*
X2070597Y-644184D01*
X2075931Y-649264D01*
X2081011Y-659678D01*
X2081011Y-680506D01*
X2075931Y-690920D01*
X2070597Y-696000D01*
X2060183Y-701334D01*
X2049769Y-701334D01*
X2039355Y-696000D01*
X2023861Y-685586D01*
X1972045Y-633770D01*
X1972045Y-706414D01*
X2243894Y-599277D02*
G01*
X2254308Y-593943D01*
X2264722Y-583529D01*
X2269802Y-573369D01*
X2269802Y-552541D01*
X2264722Y-542127D01*
X2254308Y-531713D01*
X2243894Y-526379D01*
X2228146Y-521299D01*
X2202238Y-521299D01*
X2186744Y-526379D01*
X2176330Y-531713D01*
X2165916Y-542127D01*
X2160836Y-552541D01*
X2160836Y-573369D01*
X2165916Y-583529D01*
X2176330Y-593943D01*
X2186744Y-599277D01*
X2269802Y-643981D02*
G01*
X2269802Y-701131D01*
X2228146Y-669889D01*
X2228146Y-685383D01*
X2223066Y-695797D01*
X2217986Y-701131D01*
X2202238Y-706211D01*
X2191824Y-706211D01*
X2176330Y-701131D01*
X2165916Y-690717D01*
X2160836Y-674969D01*
X2160836Y-659475D01*
X2165916Y-643981D01*
X2170996Y-638647D01*
X2181410Y-633567D01*
X2452997Y-593877D02*
G01*
X2463411Y-588543D01*
X2473825Y-578129D01*
X2478905Y-567969D01*
X2478905Y-547141D01*
X2473825Y-536727D01*
X2463411Y-526313D01*
X2452997Y-520979D01*
X2437249Y-515899D01*
X2411341Y-515899D01*
X2395847Y-520979D01*
X2385433Y-526313D01*
X2375019Y-536727D01*
X2369939Y-547141D01*
X2369939Y-567969D01*
X2375019Y-578129D01*
X2385433Y-588543D01*
X2395847Y-593877D01*
X2478905Y-679983D02*
G01*
X2406261Y-628167D01*
X2406261Y-706145D01*
X2478905Y-679983D02*
G01*
X2369939Y-679983D01*
X1516895Y-842454D02*
G01*
X1527309Y-837120D01*
X1537723Y-826706D01*
X1542803Y-816546D01*
X1542803Y-795718D01*
X1537723Y-785304D01*
X1527309Y-774890D01*
X1516895Y-769556D01*
X1501147Y-764476D01*
X1475239Y-764476D01*
X1459745Y-769556D01*
X1449331Y-774890D01*
X1438917Y-785304D01*
X1433837Y-795718D01*
X1433837Y-816546D01*
X1438917Y-826706D01*
X1449331Y-837120D01*
X1459745Y-842454D01*
X1542803Y-938974D02*
G01*
X1542803Y-887158D01*
X1496067Y-881824D01*
X1501147Y-887158D01*
X1506481Y-902652D01*
X1506481Y-918146D01*
X1501147Y-933894D01*
X1490987Y-944308D01*
X1475239Y-949388D01*
X1464825Y-949388D01*
X1449331Y-944308D01*
X1438917Y-933894D01*
X1433837Y-918146D01*
X1433837Y-902652D01*
X1438917Y-887158D01*
X1443997Y-881824D01*
X1454411Y-876744D01*
X849906Y-514977D02*
G01*
X860320Y-509643D01*
X870734Y-499229D01*
X875814Y-489069D01*
X875814Y-468241D01*
X870734Y-457827D01*
X860320Y-447413D01*
X849906Y-442079D01*
X834158Y-436999D01*
X808250Y-436999D01*
X792756Y-442079D01*
X782342Y-447413D01*
X771928Y-457827D01*
X766848Y-468241D01*
X766848Y-489069D01*
X771928Y-499229D01*
X782342Y-509643D01*
X792756Y-514977D01*
X875814Y-549267D02*
G01*
X766848Y-549267D01*
X875814Y-549267D02*
G01*
X875814Y-616831D01*
X823998Y-549267D02*
G01*
X823998Y-590669D01*
X766848Y-549267D02*
G01*
X766848Y-616831D01*
X854986Y-651121D02*
G01*
X860320Y-661535D01*
X875814Y-677029D01*
X766848Y-677029D01*
X1666509Y-3071088D02*
G01*
X1557543Y-3071088D01*
X1666509Y-3071088D02*
G01*
X1666509Y-3107410D01*
X1661429Y-3123158D01*
X1651015Y-3133318D01*
X1640601Y-3138652D01*
X1624853Y-3143732D01*
X1598945Y-3143732D01*
X1583451Y-3138652D01*
X1573037Y-3133318D01*
X1562623Y-3123158D01*
X1557543Y-3107410D01*
X1557543Y-3071088D01*
X1645681Y-3178022D02*
G01*
X1651015Y-3188436D01*
X1666509Y-3204184D01*
X1557543Y-3204184D01*
X2489200Y-3351784D02*
G01*
X2489200Y-3460750D01*
X2489200Y-3351784D02*
G01*
X2535936Y-3351784D01*
X2551429Y-3356863D01*
X2556763Y-3362197D01*
X2561843Y-3372612D01*
X2561843Y-3388105D01*
X2556763Y-3398520D01*
X2551429Y-3403600D01*
X2535936Y-3408934D01*
X2489200Y-3408934D01*
X2596134Y-3351784D02*
G01*
X2596134Y-3460750D01*
X2596134Y-3351784D02*
G01*
X2642870Y-3351784D01*
X2658618Y-3356863D01*
X2663697Y-3362197D01*
X2669031Y-3372612D01*
X2669031Y-3383026D01*
X2663697Y-3393439D01*
X2658618Y-3398520D01*
X2642870Y-3403600D01*
X2596134Y-3403600D01*
X2632709Y-3403600D02*
G01*
X2669031Y-3460750D01*
X2734309Y-3351784D02*
G01*
X2724150Y-3356863D01*
X2713736Y-3367278D01*
X2708402Y-3377692D01*
X2703322Y-3393439D01*
X2703322Y-3419347D01*
X2708402Y-3434842D01*
X2713736Y-3445255D01*
X2724150Y-3455670D01*
X2734309Y-3460750D01*
X2755138Y-3460750D01*
X2765552Y-3455670D01*
X2775965Y-3445255D01*
X2781300Y-3434842D01*
X2786379Y-3419347D01*
X2786379Y-3393439D01*
X2781300Y-3377692D01*
X2775965Y-3367278D01*
X2765552Y-3356863D01*
X2755138Y-3351784D01*
X2734309Y-3351784D01*
X2898647Y-3377692D02*
G01*
X2893313Y-3367278D01*
X2882900Y-3356863D01*
X2872740Y-3351784D01*
X2851911Y-3351784D01*
X2841497Y-3356863D01*
X2831084Y-3367278D01*
X2825750Y-3377692D01*
X2820670Y-3393439D01*
X2820670Y-3419347D01*
X2825750Y-3434842D01*
X2831084Y-3445255D01*
X2841497Y-3455670D01*
X2851911Y-3460750D01*
X2872740Y-3460750D01*
X2882900Y-3455670D01*
X2893313Y-3445255D01*
X2898647Y-3434842D01*
X2898647Y-3419347D01*
X2872740Y-3419347D02*
G01*
X2898647Y-3419347D01*
X2932938Y-3351784D02*
G01*
X2932938Y-3460750D01*
X2932938Y-3351784D02*
G01*
X2979674Y-3351784D01*
X2995168Y-3356863D01*
X3000502Y-3362197D01*
X3005581Y-3372612D01*
X3005581Y-3388105D01*
X3000502Y-3398520D01*
X2995168Y-3403600D01*
X2979674Y-3408934D01*
X2932938Y-3408934D01*
X3039872Y-3351784D02*
G01*
X3039872Y-3460750D01*
X3074161Y-3351784D02*
G01*
X3074161Y-3460750D01*
X3074161Y-3351784D02*
G01*
X3147059Y-3460750D01*
X3147059Y-3351784D02*
G01*
X3147059Y-3460750D01*
X3181350Y-3372612D02*
G01*
X3191509Y-3367278D01*
X3207258Y-3351784D01*
X3207258Y-3460750D01*
X3242711Y-1078598D02*
G01*
X3133745Y-1078598D01*
X3242711Y-1078598D02*
G01*
X3242711Y-1125334D01*
X3237631Y-1140828D01*
X3232297Y-1146162D01*
X3221883Y-1151242D01*
X3211469Y-1151242D01*
X3201055Y-1146162D01*
X3195975Y-1140828D01*
X3190895Y-1125334D01*
X3190895Y-1078598D01*
X3190895Y-1114920D02*
G01*
X3133745Y-1151242D01*
X3221883Y-1185532D02*
G01*
X3227217Y-1195946D01*
X3242711Y-1211694D01*
X3133745Y-1211694D01*
X2842011Y-1078598D02*
G01*
X2733045Y-1078598D01*
X2842011Y-1078598D02*
G01*
X2842011Y-1125334D01*
X2836931Y-1140828D01*
X2831597Y-1146162D01*
X2821183Y-1151242D01*
X2810769Y-1151242D01*
X2800355Y-1146162D01*
X2795275Y-1140828D01*
X2790195Y-1125334D01*
X2790195Y-1078598D01*
X2790195Y-1114920D02*
G01*
X2733045Y-1151242D01*
X2816103Y-1190866D02*
G01*
X2821183Y-1190866D01*
X2831597Y-1195946D01*
X2836931Y-1201280D01*
X2842011Y-1211694D01*
X2842011Y-1232268D01*
X2836931Y-1242682D01*
X2831597Y-1248016D01*
X2821183Y-1253096D01*
X2810769Y-1253096D01*
X2800355Y-1248016D01*
X2784861Y-1237602D01*
X2733045Y-1185532D01*
X2733045Y-1258430D01*
X2210815Y-3238500D02*
G01*
X2101850Y-3238500D01*
X2210815Y-3238500D02*
G01*
X2210815Y-3285236D01*
X2205736Y-3300729D01*
X2200402Y-3306063D01*
X2189988Y-3311144D01*
X2179574Y-3311144D01*
X2169159Y-3306063D01*
X2164079Y-3300729D01*
X2159000Y-3285236D01*
X2159000Y-3238500D01*
X2159000Y-3274821D02*
G01*
X2101850Y-3311144D01*
X2210815Y-3355847D02*
G01*
X2210815Y-3412997D01*
X2169159Y-3382010D01*
X2169159Y-3397504D01*
X2164079Y-3407918D01*
X2159000Y-3412997D01*
X2143252Y-3418331D01*
X2132838Y-3418331D01*
X2117343Y-3412997D01*
X2106929Y-3402584D01*
X2101850Y-3387089D01*
X2101850Y-3371595D01*
X2106929Y-3355847D01*
X2112009Y-3350768D01*
X2122424Y-3345434D01*
X2464815Y-3238500D02*
G01*
X2355850Y-3238500D01*
X2464815Y-3238500D02*
G01*
X2464815Y-3285236D01*
X2459736Y-3300729D01*
X2454402Y-3306063D01*
X2443988Y-3311144D01*
X2433574Y-3311144D01*
X2423159Y-3306063D01*
X2418079Y-3300729D01*
X2413000Y-3285236D01*
X2413000Y-3238500D01*
X2413000Y-3274821D02*
G01*
X2355850Y-3311144D01*
X2449322Y-3407918D02*
G01*
X2459736Y-3402584D01*
X2464815Y-3387089D01*
X2464815Y-3376676D01*
X2459736Y-3361181D01*
X2443988Y-3350768D01*
X2418079Y-3345434D01*
X2392172Y-3345434D01*
X2371343Y-3350768D01*
X2360929Y-3361181D01*
X2355850Y-3376676D01*
X2355850Y-3382010D01*
X2360929Y-3397504D01*
X2371343Y-3407918D01*
X2386838Y-3412997D01*
X2392172Y-3412997D01*
X2407665Y-3407918D01*
X2418079Y-3397504D01*
X2423159Y-3382010D01*
X2423159Y-3376676D01*
X2418079Y-3361181D01*
X2407665Y-3350768D01*
X2392172Y-3345434D01*
X1956815Y-3238500D02*
G01*
X1847850Y-3238500D01*
X1956815Y-3238500D02*
G01*
X1956815Y-3285236D01*
X1951736Y-3300729D01*
X1946402Y-3306063D01*
X1935988Y-3311144D01*
X1925573Y-3311144D01*
X1915160Y-3306063D01*
X1910079Y-3300729D01*
X1905000Y-3285236D01*
X1905000Y-3238500D01*
X1905000Y-3274821D02*
G01*
X1847850Y-3311144D01*
X1956815Y-3418331D02*
G01*
X1847850Y-3366262D01*
X1956815Y-3345434D02*
G01*
X1956815Y-3418331D01*
X2974809Y-1157998D02*
G01*
X2896831Y-1157998D01*
X2881337Y-1163078D01*
X2870923Y-1173492D01*
X2865843Y-1189240D01*
X2865843Y-1199654D01*
X2870923Y-1215148D01*
X2881337Y-1225562D01*
X2896831Y-1230642D01*
X2974809Y-1230642D01*
X2953981Y-1264932D02*
G01*
X2959315Y-1275346D01*
X2974809Y-1291094D01*
X2865843Y-1291094D01*
X3078309Y-152999D02*
G01*
X3000331Y-152999D01*
X2984837Y-158079D01*
X2974423Y-168493D01*
X2969343Y-184241D01*
X2969343Y-194655D01*
X2974423Y-210149D01*
X2984837Y-220563D01*
X3000331Y-225643D01*
X3078309Y-225643D01*
X3052401Y-265267D02*
G01*
X3057481Y-265267D01*
X3067895Y-270347D01*
X3073229Y-275681D01*
X3078309Y-286095D01*
X3078309Y-306669D01*
X3073229Y-317083D01*
X3067895Y-322417D01*
X3057481Y-327497D01*
X3047067Y-327497D01*
X3036653Y-322417D01*
X3021159Y-312003D01*
X2969343Y-259933D01*
X2969343Y-332831D01*
G36*
X1486712Y-139192D02*
G01*
X1486712Y-271221D01*
X1506474Y-271221D01*
X1506474Y-139192D01*
G37*
G36*
X1456994Y-195275D02*
G01*
X1456994Y-215087D01*
X1536192Y-215087D01*
X1536192Y-195275D01*
G37*
G36*
X915771Y-195275D02*
G01*
X915771Y-215087D01*
X995019Y-215087D01*
X995019Y-195275D01*
G37*
G36*
X1609496Y-3323996D02*
G01*
X1581556Y-3346856D01*
X1637436Y-3346856D01*
G37*
G36*
X1581556Y-3301136D02*
G01*
X1609496Y-3323996D01*
X1637436Y-3301136D01*
G37*
X897879Y-3510231D02*
G01*
X778868Y-3510231D01*
X1083119Y-3510231D02*
G01*
X1202128Y-3510231D01*
X763628Y-3525471D02*
G01*
X763628Y-3713513D01*
X1217368Y-3525471D02*
G01*
X1217368Y-3713513D01*
X778868Y-3728753D02*
G01*
X897879Y-3728753D01*
X1202128Y-3728753D02*
G01*
X1083119Y-3728753D01*
X910620Y-3184055D02*
G01*
X1006508Y-3184055D01*
X1006508Y-3051934D01*
X910620Y-3051934D01*
X825378Y-3184055D02*
G01*
X729490Y-3184055D01*
X729490Y-3051934D01*
X825378Y-3051934D01*
X901618Y-2634554D02*
G01*
X997506Y-2634554D01*
X997506Y-2502433D01*
X901618Y-2502433D01*
X816376Y-2634554D02*
G01*
X720488Y-2634554D01*
X720488Y-2502433D01*
X816376Y-2502433D01*
D13*
X-80512Y-2402489D02*
G01*
X-80512Y-3284489D01*
X-80512Y-2403495D02*
G01*
X57487Y-2403495D01*
X-80568Y-3284433D02*
G01*
X54549Y-3284433D01*
X428497Y-2403495D02*
G01*
X304487Y-2403495D01*
X433285Y-3283491D02*
G01*
X309293Y-3283491D01*
X170942Y-2135428D02*
G01*
X467944Y-2135428D01*
X467944Y-1929196D01*
X170942Y-1929196D01*
X170942Y-1115799D02*
G01*
X467944Y-1115799D01*
X467944Y-909566D01*
X170942Y-909566D01*
X170942Y-1621985D02*
G01*
X467944Y-1621985D01*
X467944Y-1415752D01*
X170942Y-1415752D01*
X131698Y-759383D02*
G01*
X131698Y-2283383D01*
X1147698Y-759383D02*
G01*
X1147698Y-2283383D01*
X1147698Y-759383D02*
G01*
X131698Y-759383D01*
X1048562Y-757631D02*
G01*
X1048562Y-2281631D01*
X1148689Y-2283383D02*
G01*
X132689Y-2283383D01*
X171195Y-760526D02*
G01*
X171195Y-2284526D01*
D12*
X2064026Y-1134076D02*
G01*
X2209269Y-1134076D01*
X2209269Y-1030914D01*
X2064026Y-828835D02*
G01*
X2209269Y-828835D01*
X2209269Y-931997D01*
X2064026Y-1026995D02*
G01*
X2064026Y-935916D01*
X1863613Y-884097D02*
G01*
X1935416Y-884097D01*
X1935416Y-983818D01*
X1863613Y-983818D01*
X1818370Y-884097D02*
G01*
X1746567Y-884097D01*
X1746567Y-983818D01*
X1818370Y-983818D01*
X2328087Y-996934D02*
G01*
X2328087Y-925131D01*
X2427808Y-925131D01*
X2427808Y-996934D01*
X2328087Y-1042177D02*
G01*
X2328087Y-1113980D01*
X2427808Y-1113980D01*
X2427808Y-1042177D01*
X1867169Y-1033195D02*
G01*
X1938972Y-1033195D01*
X1938972Y-1132916D01*
X1867169Y-1132916D01*
X1821926Y-1033195D02*
G01*
X1750123Y-1033195D01*
X1750123Y-1132916D01*
X1821926Y-1132916D01*
X1905355Y-480120D02*
G01*
X1905355Y-339120D01*
X1724634Y-339120D02*
G01*
X1724634Y-480120D01*
X1739874Y-495360D02*
G01*
X1890115Y-495360D01*
X1905355Y-117881D02*
G01*
X1905355Y-258881D01*
X1724634Y-258881D02*
G01*
X1724634Y-117881D01*
X1739874Y-102641D02*
G01*
X1890115Y-102641D01*
X2108354Y-480120D02*
G01*
X2108354Y-339120D01*
X1927633Y-339120D02*
G01*
X1927633Y-480120D01*
X1942873Y-495360D02*
G01*
X2093114Y-495360D01*
X2108354Y-117881D02*
G01*
X2108354Y-258881D01*
X1927633Y-258881D02*
G01*
X1927633Y-117881D01*
X1942873Y-102641D02*
G01*
X2093114Y-102641D01*
X2309952Y-478020D02*
G01*
X2309952Y-337019D01*
X2129231Y-337019D02*
G01*
X2129231Y-478020D01*
X2144471Y-493260D02*
G01*
X2294712Y-493260D01*
X2309952Y-115780D02*
G01*
X2309952Y-256781D01*
X2129231Y-256781D02*
G01*
X2129231Y-115780D01*
X2144471Y-100540D02*
G01*
X2294712Y-100540D01*
X2512354Y-476120D02*
G01*
X2512354Y-335119D01*
X2331633Y-335119D02*
G01*
X2331633Y-476120D01*
X2346873Y-491360D02*
G01*
X2497114Y-491360D01*
X2512354Y-113880D02*
G01*
X2512354Y-254881D01*
X2331633Y-254881D02*
G01*
X2331633Y-113880D01*
X2346873Y-98640D02*
G01*
X2497114Y-98640D01*
X1632117Y-976137D02*
G01*
X1491117Y-976137D01*
X1491117Y-1156858D02*
G01*
X1632117Y-1156858D01*
X1647357Y-1141618D02*
G01*
X1647357Y-991377D01*
X1269878Y-976137D02*
G01*
X1410878Y-976137D01*
X1410878Y-1156858D02*
G01*
X1269878Y-1156858D01*
X1254638Y-1141618D02*
G01*
X1254638Y-991377D01*
X890435Y-283072D02*
G01*
X888431Y-19433D01*
X1424117Y-19433D01*
X1563563Y-158879D01*
X1562227Y-288419D01*
X889048Y-427769D02*
G01*
X888380Y-694616D01*
X1424000Y-694616D01*
X1563613Y-555002D01*
X1563613Y-425579D01*
D14*
X1659496Y-3258992D02*
G01*
X1659496Y-3388995D01*
X1559496Y-3258992D02*
G01*
X1559496Y-3388995D01*
D15*
X1632356Y-3323993D02*
G01*
X1584096Y-3323993D01*
D13*
X1742252Y-3492500D02*
G01*
X1742252Y-3746500D01*
X1464899Y-3746500D02*
G01*
X3284900Y-3746500D01*
X3284900Y-3492500D02*
G01*
X3284900Y-3746500D01*
X1464899Y-3492500D02*
G01*
X1464899Y-3746500D01*
X1464899Y-3492500D02*
G01*
X3284900Y-3492500D01*
D12*
X3101055Y-1190119D02*
G01*
X3101055Y-1261922D01*
X3001335Y-1261922D01*
X3001335Y-1190119D01*
X3101055Y-1144877D02*
G01*
X3101055Y-1073073D01*
X3001335Y-1073073D01*
X3001335Y-1144877D01*
X2700355Y-1190119D02*
G01*
X2700355Y-1261922D01*
X2600634Y-1261922D01*
X2600634Y-1190119D01*
X2700355Y-1144877D02*
G01*
X2700355Y-1073073D01*
X2600634Y-1073073D01*
X2600634Y-1144877D01*
X1982139Y-3304778D02*
G01*
X1982139Y-3232975D01*
X2081860Y-3232975D01*
X2081860Y-3304778D01*
X1982139Y-3350021D02*
G01*
X1982139Y-3421824D01*
X2081860Y-3421824D01*
X2081860Y-3350021D01*
X2236139Y-3304778D02*
G01*
X2236139Y-3232975D01*
X2335860Y-3232975D01*
X2335860Y-3304778D01*
X2236139Y-3350021D02*
G01*
X2236139Y-3421824D01*
X2335860Y-3421824D01*
X2335860Y-3350021D01*
X1728139Y-3304778D02*
G01*
X1728139Y-3232975D01*
X1827860Y-3232975D01*
X1827860Y-3304778D01*
X1728139Y-3350021D02*
G01*
X1728139Y-3421824D01*
X1827860Y-3421824D01*
X1827860Y-3350021D01*
D13*
X2944174Y-1422400D02*
G01*
X2957946Y-1422400D01*
X2744175Y-1422400D02*
G01*
X2757947Y-1422400D01*
X2544175Y-1422400D02*
G01*
X2557947Y-1422400D01*
X2344176Y-1422400D02*
G01*
X2357948Y-1422400D01*
X2144176Y-1422400D02*
G01*
X2157948Y-1422400D01*
X1944176Y-1422400D02*
G01*
X1957948Y-1422400D01*
X1744177Y-1422400D02*
G01*
X1757949Y-1422400D01*
X1501305Y-1629387D02*
G01*
X1501305Y-1422400D01*
X1557949Y-1422400D01*
X1501305Y-1829183D02*
G01*
X1501305Y-1815614D01*
X1501305Y-2029056D02*
G01*
X1501305Y-2015411D01*
X1501305Y-2229131D02*
G01*
X1501305Y-2215283D01*
X1501305Y-2429055D02*
G01*
X1501305Y-2415359D01*
X1501305Y-2629054D02*
G01*
X1501305Y-2615283D01*
X1557949Y-3022345D02*
G01*
X1501305Y-3022345D01*
X1501305Y-2815282D01*
X1757949Y-3022345D02*
G01*
X1744177Y-3022345D01*
X1957948Y-3022345D02*
G01*
X1944176Y-3022345D01*
X2157948Y-3022345D02*
G01*
X2144176Y-3022345D01*
X2357948Y-3022345D02*
G01*
X2344176Y-3022345D01*
X2557947Y-3022345D02*
G01*
X2544175Y-3022345D01*
X2757947Y-3022345D02*
G01*
X2744175Y-3022345D01*
X2957946Y-3022345D02*
G01*
X2944174Y-3022345D01*
X3144174Y-1422400D02*
G01*
X3901081Y-1422400D01*
X3901081Y-3022345D02*
G01*
X3144174Y-3022345D01*
X3301083Y-2722346D02*
G01*
X3301083Y-1722348D01*
X3801082Y-1722348D01*
X3801082Y-1822348D01*
X3501082Y-1822348D01*
X3501082Y-1922348D01*
X3801082Y-1922348D01*
X3801082Y-2022347D01*
X3501082Y-2022347D01*
X3501082Y-2122347D01*
X3801082Y-2122347D01*
X3801082Y-2222347D01*
X3501082Y-2222347D01*
X3501082Y-2322347D01*
X3801082Y-2322347D01*
X3801082Y-2922346D01*
X3001083Y-1622348D02*
G01*
X1701086Y-1622348D01*
X1701086Y-2822346D01*
X3001083Y-2822346D01*
X3001083Y-1622348D01*
X3201083Y-1522348D02*
G01*
X3201083Y-2922346D01*
X3901081Y-1422349D02*
G01*
X3901081Y-3022345D01*
D12*
X3167636Y-369877D02*
G01*
X3167636Y-1035118D01*
X2873357Y-1035118D01*
X2873357Y-369877D01*
X3167636Y-369877D01*
D16*
G75*
G01*
X990498Y-3619492D02*
G02*
X990498Y-3534997I73176J42247D01*
G75*
G01*
X990498Y-3619492D02*
G02*
X990498Y-3703988I-73175J-42248D01*
D12*
G75*
G01*
X1724635Y-480121D02*
G03*
X1739875Y-495361I15240J0D01*
G75*
G01*
X1890116Y-495361D02*
G03*
X1905356Y-480121I0J15240D01*
G75*
G01*
X1724635Y-117881D02*
G02*
X1739875Y-102641I15240J0D01*
G75*
G01*
X1890116Y-102641D02*
G02*
X1905356Y-117881I0J-15240D01*
G75*
G01*
X1927634Y-480121D02*
G03*
X1942874Y-495361I15240J0D01*
G75*
G01*
X2093115Y-495361D02*
G03*
X2108355Y-480121I0J15240D01*
G75*
G01*
X1927634Y-117881D02*
G02*
X1942874Y-102641I15240J0D01*
G75*
G01*
X2093115Y-102641D02*
G02*
X2108355Y-117881I0J-15240D01*
G75*
G01*
X2129231Y-478020D02*
G03*
X2144471Y-493260I15240J0D01*
G75*
G01*
X2294712Y-493260D02*
G03*
X2309952Y-478020I0J15240D01*
G75*
G01*
X2129231Y-115781D02*
G02*
X2144471Y-100541I15240J0D01*
G75*
G01*
X2294712Y-100541D02*
G02*
X2309952Y-115781I0J-15240D01*
G75*
G01*
X2331634Y-476120D02*
G03*
X2346874Y-491360I15240J0D01*
G75*
G01*
X2497115Y-491360D02*
G03*
X2512355Y-476120I0J15240D01*
G75*
G01*
X2331634Y-113881D02*
G02*
X2346874Y-98641I15240J0D01*
G75*
G01*
X2497115Y-98641D02*
G02*
X2512355Y-113881I0J-15240D01*
G75*
G01*
X1632118Y-1156858D02*
G03*
X1647358Y-1141618I0J15240D01*
G75*
G01*
X1647358Y-991377D02*
G03*
X1632118Y-976137I-15240J0D01*
G75*
G01*
X1269878Y-1156858D02*
G02*
X1254638Y-1141618I0J15240D01*
G75*
G01*
X1254638Y-991377D02*
G02*
X1269878Y-976137I15240J0D01*
D13*
G75*
G01
X3228823Y-1358900D02*
G03X3228823Y-1358900I-28397J0D01*
M02*
