G04 Layer: BottomSilkscreenLayer*
G04 EasyEDA v6.5.22, 2023-04-06 23:37:51*
G04 59bfaf2a9afe4f888a6a27d7eff82a53,13d4147aac1444c28c06bf4132869bd4,10*
G04 Gerber Generator version 0.2*
G04 Scale: 100 percent, Rotated: No, Reflected: No *
G04 Dimensions in millimeters *
G04 leading zeros omitted , absolute positions ,4 integer and 5 decimal *
%FSLAX45Y45*%
%MOMM*%

%ADD10C,0.0001*%

%LPD*%
G36*
X2493264Y-1150823D02*
G01*
X2488488Y-1150874D01*
X2483815Y-1151178D01*
X2479090Y-1151788D01*
X2474468Y-1152652D01*
X2465425Y-1155090D01*
X2461056Y-1156716D01*
X2452573Y-1160678D01*
X2448509Y-1163015D01*
X2440838Y-1168400D01*
X2437231Y-1171397D01*
X2433828Y-1174597D01*
X2430576Y-1178052D01*
X2427528Y-1181709D01*
X2424734Y-1185519D01*
X2422093Y-1189583D01*
X2417622Y-1198168D01*
X2415794Y-1202791D01*
X2414219Y-1207516D01*
X2412949Y-1212494D01*
X2411984Y-1217574D01*
X2411272Y-1222806D01*
X2410917Y-1229715D01*
X2424684Y-1229715D01*
X2425039Y-1224584D01*
X2425750Y-1219657D01*
X2426766Y-1214882D01*
X2428138Y-1210259D01*
X2429814Y-1205839D01*
X2431796Y-1201572D01*
X2434031Y-1197559D01*
X2436571Y-1193698D01*
X2439314Y-1190040D01*
X2445562Y-1183436D01*
X2448966Y-1180490D01*
X2452573Y-1177798D01*
X2456383Y-1175308D01*
X2460294Y-1173124D01*
X2464358Y-1171194D01*
X2468575Y-1169517D01*
X2472893Y-1168146D01*
X2477262Y-1167079D01*
X2481732Y-1166317D01*
X2486253Y-1165809D01*
X2490825Y-1165656D01*
X2495448Y-1165860D01*
X2500071Y-1166368D01*
X2504643Y-1167180D01*
X2509266Y-1168400D01*
X2513787Y-1169924D01*
X2518308Y-1171854D01*
X2522778Y-1174140D01*
X2527096Y-1176832D01*
X2531364Y-1179880D01*
X2535529Y-1183335D01*
X2539542Y-1187196D01*
X2543403Y-1191615D01*
X2546807Y-1196238D01*
X2549702Y-1201166D01*
X2552141Y-1206246D01*
X2554122Y-1211529D01*
X2555595Y-1216914D01*
X2556662Y-1222400D01*
X2557221Y-1227937D01*
X2557322Y-1233474D01*
X2557018Y-1239062D01*
X2556256Y-1244549D01*
X2555036Y-1249934D01*
X2553360Y-1255217D01*
X2551226Y-1260297D01*
X2548737Y-1265224D01*
X2545740Y-1269898D01*
X2542387Y-1274318D01*
X2538577Y-1278432D01*
X2534310Y-1282192D01*
X2529687Y-1285544D01*
X2524760Y-1288491D01*
X2519680Y-1290929D01*
X2514447Y-1292910D01*
X2509164Y-1294434D01*
X2503779Y-1295501D01*
X2498344Y-1296111D01*
X2492857Y-1296314D01*
X2487422Y-1296111D01*
X2482037Y-1295501D01*
X2476703Y-1294536D01*
X2471470Y-1293114D01*
X2466390Y-1291386D01*
X2461463Y-1289304D01*
X2456738Y-1286865D01*
X2452166Y-1284071D01*
X2447899Y-1280972D01*
X2443886Y-1277569D01*
X2440178Y-1273810D01*
X2436825Y-1269847D01*
X2433828Y-1265529D01*
X2431186Y-1261008D01*
X2429002Y-1256182D01*
X2427274Y-1251102D01*
X2426004Y-1245819D01*
X2425192Y-1240332D01*
X2424734Y-1234948D01*
X2424684Y-1229715D01*
X2410917Y-1229715D01*
X2410917Y-1233779D01*
X2411272Y-1239520D01*
X2411984Y-1245362D01*
X2413000Y-1250848D01*
X2414473Y-1256233D01*
X2416302Y-1261414D01*
X2418537Y-1266444D01*
X2421077Y-1271219D01*
X2423972Y-1275842D01*
X2427173Y-1280210D01*
X2430729Y-1284376D01*
X2434539Y-1288237D01*
X2438603Y-1291894D01*
X2442921Y-1295247D01*
X2447493Y-1298295D01*
X2452268Y-1301038D01*
X2457297Y-1303477D01*
X2462479Y-1305560D01*
X2467813Y-1307287D01*
X2473299Y-1308658D01*
X2478938Y-1309674D01*
X2484678Y-1310284D01*
X2490520Y-1310487D01*
X2496515Y-1310335D01*
X2502306Y-1309827D01*
X2507843Y-1308963D01*
X2513228Y-1307795D01*
X2518359Y-1306220D01*
X2523388Y-1304340D01*
X2528163Y-1302054D01*
X2532837Y-1299413D01*
X2537307Y-1296365D01*
X2541676Y-1292961D01*
X2545943Y-1289151D01*
X2550058Y-1284884D01*
X2554071Y-1280261D01*
X2557983Y-1275232D01*
X2561844Y-1269746D01*
X2565603Y-1263853D01*
X2567533Y-1259636D01*
X2568956Y-1254201D01*
X2569870Y-1247800D01*
X2570327Y-1240739D01*
X2570327Y-1233170D01*
X2569921Y-1225397D01*
X2569057Y-1217574D01*
X2567838Y-1209954D01*
X2566212Y-1202842D01*
X2564231Y-1196340D01*
X2561894Y-1190802D01*
X2559253Y-1186383D01*
X2555595Y-1181709D01*
X2551785Y-1177391D01*
X2547823Y-1173429D01*
X2543708Y-1169822D01*
X2539492Y-1166520D01*
X2535123Y-1163523D01*
X2530703Y-1160881D01*
X2521610Y-1156563D01*
X2512263Y-1153464D01*
X2507538Y-1152347D01*
X2498039Y-1151026D01*
G37*
G36*
X2452065Y-1196695D02*
G01*
X2449474Y-1196898D01*
X2447036Y-1199032D01*
X2445816Y-1201623D01*
X2445816Y-1204620D01*
X2446883Y-1207871D01*
X2449017Y-1211275D01*
X2452217Y-1214729D01*
X2456383Y-1218234D01*
X2467559Y-1225651D01*
X2472537Y-1229969D01*
X2475890Y-1233932D01*
X2477109Y-1237081D01*
X2476966Y-1237488D01*
X2495499Y-1237488D01*
X2495854Y-1231087D01*
X2496972Y-1225397D01*
X2499004Y-1221587D01*
X2502001Y-1219454D01*
X2506218Y-1218742D01*
X2510383Y-1219454D01*
X2513431Y-1221587D01*
X2515412Y-1225397D01*
X2516581Y-1231087D01*
X2516886Y-1237488D01*
X2515666Y-1241196D01*
X2512314Y-1242923D01*
X2506218Y-1243380D01*
X2500122Y-1242923D01*
X2496718Y-1241196D01*
X2495499Y-1237488D01*
X2476966Y-1237488D01*
X2476144Y-1239824D01*
X2473198Y-1241806D01*
X2468321Y-1242974D01*
X2453690Y-1243736D01*
X2448864Y-1245108D01*
X2446477Y-1247851D01*
X2445816Y-1252321D01*
X2446020Y-1255115D01*
X2446934Y-1257249D01*
X2448966Y-1258824D01*
X2452522Y-1259941D01*
X2458059Y-1260652D01*
X2465933Y-1261059D01*
X2490520Y-1261262D01*
X2535275Y-1261262D01*
X2535275Y-1239875D01*
X2534767Y-1230680D01*
X2533294Y-1221790D01*
X2531059Y-1214120D01*
X2528316Y-1208582D01*
X2524810Y-1204671D01*
X2520492Y-1201724D01*
X2515666Y-1199794D01*
X2510434Y-1198880D01*
X2505100Y-1198981D01*
X2499817Y-1200099D01*
X2494788Y-1202334D01*
X2485694Y-1209090D01*
X2481478Y-1210005D01*
X2476042Y-1208227D01*
X2461869Y-1200251D01*
X2456383Y-1197914D01*
G37*
G36*
X2422296Y-1294536D02*
G01*
X2418842Y-1294892D01*
X2415133Y-1295704D01*
X2411018Y-1297076D01*
X2406497Y-1298905D01*
X2401468Y-1301242D01*
X2389784Y-1307592D01*
X2375611Y-1316177D01*
X2338171Y-1340561D01*
X2242261Y-1404467D01*
X2180234Y-1405026D01*
X2160168Y-1405686D01*
X2143201Y-1406601D01*
X2131415Y-1407769D01*
X2128113Y-1408430D01*
X2124456Y-1409852D01*
X2121103Y-1412087D01*
X2118156Y-1414932D01*
X2115566Y-1418386D01*
X2113381Y-1422349D01*
X2111502Y-1426718D01*
X2110028Y-1431442D01*
X2108962Y-1436420D01*
X2108250Y-1441602D01*
X2107946Y-1446885D01*
X2107996Y-1452219D01*
X2108403Y-1457502D01*
X2109266Y-1462684D01*
X2110486Y-1467612D01*
X2112060Y-1472285D01*
X2114092Y-1476603D01*
X2116480Y-1480515D01*
X2119274Y-1483868D01*
X2122474Y-1486611D01*
X2126081Y-1488744D01*
X2130958Y-1490167D01*
X2138781Y-1491386D01*
X2148941Y-1492453D01*
X2161082Y-1493266D01*
X2174697Y-1493774D01*
X2241042Y-1493926D01*
X2354275Y-1569466D01*
X2371648Y-1580540D01*
X2386228Y-1589328D01*
X2398369Y-1595831D01*
X2403602Y-1598320D01*
X2408428Y-1600250D01*
X2412796Y-1601673D01*
X2416810Y-1602638D01*
X2420467Y-1603095D01*
X2423820Y-1603095D01*
X2426970Y-1602638D01*
X2429916Y-1601724D01*
X2432710Y-1600403D01*
X2435352Y-1598676D01*
X2437993Y-1596542D01*
X2443226Y-1591056D01*
X2448814Y-1584198D01*
X2453081Y-1578254D01*
X2456637Y-1572666D01*
X2459482Y-1567332D01*
X2461514Y-1562252D01*
X2462834Y-1557426D01*
X2463393Y-1552803D01*
X2463241Y-1548434D01*
X2462326Y-1544218D01*
X2460650Y-1540205D01*
X2458212Y-1536344D01*
X2455113Y-1532636D01*
X2451201Y-1529029D01*
X2445918Y-1525016D01*
X2426309Y-1511808D01*
X2399030Y-1494332D01*
X2369616Y-1476146D01*
X2345537Y-1460804D01*
X2337054Y-1455115D01*
X2330094Y-1449933D01*
X2329637Y-1449324D01*
X2331161Y-1447495D01*
X2335276Y-1444244D01*
X2341321Y-1440027D01*
X2389835Y-1410004D01*
X2420416Y-1390802D01*
X2433421Y-1381912D01*
X2443988Y-1373886D01*
X2448356Y-1370177D01*
X2455367Y-1363218D01*
X2458008Y-1359865D01*
X2460142Y-1356614D01*
X2461768Y-1353413D01*
X2462885Y-1350264D01*
X2463495Y-1347063D01*
X2463647Y-1343914D01*
X2463292Y-1340662D01*
X2462530Y-1337310D01*
X2461310Y-1333906D01*
X2459685Y-1330401D01*
X2455164Y-1322832D01*
X2449220Y-1314500D01*
X2443683Y-1307439D01*
X2438603Y-1301750D01*
X2436114Y-1299514D01*
X2433624Y-1297686D01*
X2431034Y-1296212D01*
X2428290Y-1295196D01*
X2425395Y-1294638D01*
G37*
G36*
X2423414Y-1614728D02*
G01*
X2417876Y-1614830D01*
X2412898Y-1615236D01*
X2408478Y-1615948D01*
X2404567Y-1617065D01*
X2401214Y-1618691D01*
X2398318Y-1620824D01*
X2395829Y-1623568D01*
X2393746Y-1626920D01*
X2392070Y-1631086D01*
X2390698Y-1636014D01*
X2389632Y-1641805D01*
X2388819Y-1648561D01*
X2388260Y-1656283D01*
X2387701Y-1675028D01*
X2387650Y-1739646D01*
X2216658Y-1741322D01*
X2176729Y-1741932D01*
X2161184Y-1742439D01*
X2148281Y-1743252D01*
X2137714Y-1744319D01*
X2129332Y-1745742D01*
X2122830Y-1747672D01*
X2120239Y-1748789D01*
X2118004Y-1750060D01*
X2116124Y-1751482D01*
X2114600Y-1753107D01*
X2113330Y-1754835D01*
X2112314Y-1756765D01*
X2111552Y-1758848D01*
X2110638Y-1763674D01*
X2110232Y-1769313D01*
X2110232Y-1783384D01*
X2110689Y-1795068D01*
X2112213Y-1803907D01*
X2114956Y-1810664D01*
X2119172Y-1816100D01*
X2121357Y-1818030D01*
X2123846Y-1819706D01*
X2127046Y-1821078D01*
X2131415Y-1822196D01*
X2137359Y-1823059D01*
X2145334Y-1823770D01*
X2168804Y-1824583D01*
X2205228Y-1824939D01*
X2387650Y-1825040D01*
X2387701Y-1889201D01*
X2388158Y-1908505D01*
X2389428Y-1923288D01*
X2390444Y-1929180D01*
X2391714Y-1934159D01*
X2393340Y-1938324D01*
X2395321Y-1941728D01*
X2397709Y-1944420D01*
X2400503Y-1946503D01*
X2403805Y-1948078D01*
X2407564Y-1949145D01*
X2411882Y-1949856D01*
X2416759Y-1950212D01*
X2422194Y-1950313D01*
X2431440Y-1949805D01*
X2439568Y-1948332D01*
X2446172Y-1945995D01*
X2451049Y-1942896D01*
X2452827Y-1941017D01*
X2454300Y-1938528D01*
X2455519Y-1935022D01*
X2456535Y-1929993D01*
X2457348Y-1923084D01*
X2458008Y-1913788D01*
X2458821Y-1886407D01*
X2459126Y-1844293D01*
X2459177Y-1735734D01*
X2458923Y-1688795D01*
X2458262Y-1658112D01*
X2457653Y-1647698D01*
X2456891Y-1639874D01*
X2455875Y-1634134D01*
X2454656Y-1630019D01*
X2453132Y-1627073D01*
X2450287Y-1623669D01*
X2445258Y-1619758D01*
X2439111Y-1616964D01*
X2431796Y-1615287D01*
G37*
G36*
X2423414Y-1963724D02*
G01*
X2409952Y-1964080D01*
X2401163Y-1965401D01*
X2395677Y-1968042D01*
X2392273Y-1972360D01*
X2391359Y-1975154D01*
X2390495Y-1979828D01*
X2389682Y-1986076D01*
X2388412Y-2002434D01*
X2387752Y-2022195D01*
X2387650Y-2084527D01*
X2194712Y-2084679D01*
X2161844Y-2085136D01*
X2150160Y-2085543D01*
X2141067Y-2086102D01*
X2134158Y-2086914D01*
X2129078Y-2087880D01*
X2125319Y-2089150D01*
X2122525Y-2090623D01*
X2119172Y-2093468D01*
X2116582Y-2096871D01*
X2114397Y-2101240D01*
X2112619Y-2106472D01*
X2111349Y-2112314D01*
X2110435Y-2118614D01*
X2110028Y-2125167D01*
X2110079Y-2131771D01*
X2110536Y-2138324D01*
X2111502Y-2144522D01*
X2112924Y-2150262D01*
X2114804Y-2155393D01*
X2117191Y-2159609D01*
X2118868Y-2161895D01*
X2120798Y-2163775D01*
X2123389Y-2165350D01*
X2127097Y-2166569D01*
X2132482Y-2167534D01*
X2140000Y-2168296D01*
X2150110Y-2168804D01*
X2179929Y-2169363D01*
X2240178Y-2169566D01*
X2387650Y-2169566D01*
X2387701Y-2233828D01*
X2388158Y-2253234D01*
X2389428Y-2268067D01*
X2390444Y-2273960D01*
X2391765Y-2278938D01*
X2393442Y-2283053D01*
X2395474Y-2286457D01*
X2397912Y-2289098D01*
X2400808Y-2291181D01*
X2404211Y-2292705D01*
X2408123Y-2293721D01*
X2412644Y-2294382D01*
X2417724Y-2294737D01*
X2423414Y-2294839D01*
X2434539Y-2294382D01*
X2442311Y-2292858D01*
X2447848Y-2289810D01*
X2452268Y-2284882D01*
X2453640Y-2282393D01*
X2454859Y-2279040D01*
X2455875Y-2274468D01*
X2456738Y-2268372D01*
X2457958Y-2250389D01*
X2458720Y-2222652D01*
X2459126Y-2182672D01*
X2459228Y-2116582D01*
X2459024Y-2074773D01*
X2458516Y-2039416D01*
X2457805Y-2011019D01*
X2456840Y-1989988D01*
X2456281Y-1982419D01*
X2455621Y-1976831D01*
X2454960Y-1973325D01*
X2454605Y-1972360D01*
X2451150Y-1968042D01*
X2445715Y-1965401D01*
X2436926Y-1964080D01*
G37*
G36*
X2281732Y-2291029D02*
G01*
X2271064Y-2291283D01*
X2260396Y-2291892D01*
X2249830Y-2292908D01*
X2239264Y-2294331D01*
X2228748Y-2296058D01*
X2218334Y-2298242D01*
X2207971Y-2300782D01*
X2197709Y-2303678D01*
X2187600Y-2306929D01*
X2177542Y-2310587D01*
X2167636Y-2314600D01*
X2157882Y-2318969D01*
X2148281Y-2323693D01*
X2138832Y-2328773D01*
X2129586Y-2334209D01*
X2120493Y-2340051D01*
X2111654Y-2346198D01*
X2102967Y-2352700D01*
X2094534Y-2359558D01*
X2086305Y-2366721D01*
X2078329Y-2374290D01*
X2070658Y-2382164D01*
X2063191Y-2390343D01*
X2056028Y-2398928D01*
X2049170Y-2407818D01*
X2042617Y-2417013D01*
X2036368Y-2426563D01*
X2030475Y-2436418D01*
X2024888Y-2446578D01*
X2019655Y-2457094D01*
X2014778Y-2467914D01*
X2010562Y-2478481D01*
X2007006Y-2488946D01*
X2003907Y-2499868D01*
X2001215Y-2511196D01*
X1998980Y-2522931D01*
X1997202Y-2534970D01*
X1995881Y-2547213D01*
X1994966Y-2559608D01*
X1994509Y-2572105D01*
X1994458Y-2584653D01*
X1995073Y-2600350D01*
X2012086Y-2600350D01*
X2012137Y-2588717D01*
X2013407Y-2557018D01*
X2014575Y-2540457D01*
X2016201Y-2526436D01*
X2017166Y-2520086D01*
X2019655Y-2508250D01*
X2022957Y-2496820D01*
X2027224Y-2484831D01*
X2031695Y-2473706D01*
X2036673Y-2462885D01*
X2042007Y-2452268D01*
X2047748Y-2442006D01*
X2053894Y-2431999D01*
X2060448Y-2422296D01*
X2067356Y-2412898D01*
X2074672Y-2403856D01*
X2082342Y-2395118D01*
X2090369Y-2386685D01*
X2098751Y-2378608D01*
X2107488Y-2370937D01*
X2116582Y-2363571D01*
X2125980Y-2356612D01*
X2135682Y-2350008D01*
X2145741Y-2343759D01*
X2156104Y-2337917D01*
X2166721Y-2332532D01*
X2179015Y-2326894D01*
X2190953Y-2322118D01*
X2202738Y-2318105D01*
X2214575Y-2314905D01*
X2226767Y-2312365D01*
X2239518Y-2310587D01*
X2252980Y-2309418D01*
X2267508Y-2308809D01*
X2283206Y-2308809D01*
X2300376Y-2309368D01*
X2318461Y-2310333D01*
X2333396Y-2311654D01*
X2346096Y-2313482D01*
X2357628Y-2316022D01*
X2368905Y-2319426D01*
X2380945Y-2323896D01*
X2392426Y-2328722D01*
X2403602Y-2334006D01*
X2414422Y-2339695D01*
X2424938Y-2345791D01*
X2435098Y-2352294D01*
X2444902Y-2359253D01*
X2454351Y-2366568D01*
X2463444Y-2374239D01*
X2472182Y-2382316D01*
X2480513Y-2390800D01*
X2488438Y-2399588D01*
X2495956Y-2408783D01*
X2503119Y-2418283D01*
X2509824Y-2428138D01*
X2516174Y-2438298D01*
X2522016Y-2448814D01*
X2527503Y-2459634D01*
X2532481Y-2470759D01*
X2537053Y-2482189D01*
X2541168Y-2493924D01*
X2544826Y-2506116D01*
X2547975Y-2518867D01*
X2550617Y-2532024D01*
X2552700Y-2545283D01*
X2554274Y-2558592D01*
X2555290Y-2571648D01*
X2555697Y-2584348D01*
X2555544Y-2596388D01*
X2554732Y-2607716D01*
X2553309Y-2618028D01*
X2550871Y-2630068D01*
X2547975Y-2641854D01*
X2544673Y-2653385D01*
X2540914Y-2664663D01*
X2536748Y-2675686D01*
X2532176Y-2686456D01*
X2527198Y-2696972D01*
X2521813Y-2707182D01*
X2516073Y-2717088D01*
X2509977Y-2726740D01*
X2503474Y-2736088D01*
X2496718Y-2745079D01*
X2489555Y-2753766D01*
X2482138Y-2762148D01*
X2474366Y-2770174D01*
X2466340Y-2777896D01*
X2458008Y-2785211D01*
X2449423Y-2792222D01*
X2440533Y-2798826D01*
X2431440Y-2805074D01*
X2422093Y-2810967D01*
X2412542Y-2816453D01*
X2402738Y-2821533D01*
X2392781Y-2826207D01*
X2382621Y-2830525D01*
X2372258Y-2834386D01*
X2361742Y-2837789D01*
X2351074Y-2840786D01*
X2340254Y-2843377D01*
X2329281Y-2845511D01*
X2318258Y-2847136D01*
X2307082Y-2848356D01*
X2295804Y-2849067D01*
X2284425Y-2849321D01*
X2272995Y-2849067D01*
X2261514Y-2848356D01*
X2249932Y-2847136D01*
X2238349Y-2845358D01*
X2226716Y-2843123D01*
X2215083Y-2840329D01*
X2202586Y-2836773D01*
X2190292Y-2832658D01*
X2178354Y-2828036D01*
X2166721Y-2822905D01*
X2155393Y-2817266D01*
X2144420Y-2811119D01*
X2133752Y-2804566D01*
X2123490Y-2797505D01*
X2113584Y-2789986D01*
X2104034Y-2782062D01*
X2094890Y-2773680D01*
X2086102Y-2764891D01*
X2077770Y-2755696D01*
X2069846Y-2746095D01*
X2062378Y-2736088D01*
X2055317Y-2725674D01*
X2048713Y-2714955D01*
X2042566Y-2703830D01*
X2036927Y-2692400D01*
X2031746Y-2680563D01*
X2027072Y-2668473D01*
X2022856Y-2656027D01*
X2019198Y-2643784D01*
X2016353Y-2633370D01*
X2014321Y-2624074D01*
X2012950Y-2615031D01*
X2012238Y-2605532D01*
X2012086Y-2600350D01*
X1995073Y-2600350D01*
X1995728Y-2609545D01*
X1997049Y-2621788D01*
X1998776Y-2633827D01*
X2000961Y-2645511D01*
X2003552Y-2656840D01*
X2006650Y-2667762D01*
X2010156Y-2678176D01*
X2014321Y-2688742D01*
X2019249Y-2699715D01*
X2024583Y-2710434D01*
X2030323Y-2720898D01*
X2036470Y-2731058D01*
X2043023Y-2740964D01*
X2049932Y-2750616D01*
X2057196Y-2759964D01*
X2064816Y-2768955D01*
X2072792Y-2777642D01*
X2081072Y-2785973D01*
X2089708Y-2793949D01*
X2098598Y-2801569D01*
X2107844Y-2808833D01*
X2117344Y-2815691D01*
X2127148Y-2822143D01*
X2137206Y-2828188D01*
X2147519Y-2833827D01*
X2159152Y-2839567D01*
X2171446Y-2845206D01*
X2183130Y-2850134D01*
X2194306Y-2854350D01*
X2205228Y-2857855D01*
X2215997Y-2860751D01*
X2226767Y-2863088D01*
X2237689Y-2864764D01*
X2248966Y-2865983D01*
X2260752Y-2866644D01*
X2273147Y-2866898D01*
X2286406Y-2866644D01*
X2299665Y-2866085D01*
X2312111Y-2865120D01*
X2324303Y-2863697D01*
X2336292Y-2861818D01*
X2348026Y-2859532D01*
X2359507Y-2856839D01*
X2370785Y-2853690D01*
X2381859Y-2850083D01*
X2392680Y-2846070D01*
X2403297Y-2841599D01*
X2413660Y-2836722D01*
X2423820Y-2831388D01*
X2433777Y-2825597D01*
X2443480Y-2819400D01*
X2452979Y-2812745D01*
X2462276Y-2805684D01*
X2471318Y-2798114D01*
X2480157Y-2790139D01*
X2488793Y-2781757D01*
X2497226Y-2772918D01*
X2504897Y-2764129D01*
X2512161Y-2754579D01*
X2519578Y-2743708D01*
X2526893Y-2731820D01*
X2534107Y-2719120D01*
X2540965Y-2705963D01*
X2547366Y-2692552D01*
X2553157Y-2679293D01*
X2558135Y-2666339D01*
X2562250Y-2654096D01*
X2565146Y-2643073D01*
X2567279Y-2631236D01*
X2568905Y-2617774D01*
X2569972Y-2603195D01*
X2570530Y-2587955D01*
X2570530Y-2572461D01*
X2570073Y-2557170D01*
X2569057Y-2542489D01*
X2567482Y-2528976D01*
X2565400Y-2516936D01*
X2562402Y-2505202D01*
X2558491Y-2492400D01*
X2554071Y-2479852D01*
X2549042Y-2467559D01*
X2543556Y-2455519D01*
X2537561Y-2443784D01*
X2531008Y-2432354D01*
X2523998Y-2421229D01*
X2516530Y-2410460D01*
X2508554Y-2399995D01*
X2500172Y-2389936D01*
X2491282Y-2380284D01*
X2482392Y-2371445D01*
X2473706Y-2363419D01*
X2464765Y-2355799D01*
X2455621Y-2348687D01*
X2446324Y-2341930D01*
X2436825Y-2335631D01*
X2427173Y-2329789D01*
X2417368Y-2324354D01*
X2407462Y-2319324D01*
X2397404Y-2314702D01*
X2387244Y-2310536D01*
X2376932Y-2306777D01*
X2366568Y-2303373D01*
X2356104Y-2300427D01*
X2345588Y-2297887D01*
X2335022Y-2295753D01*
X2324404Y-2294026D01*
X2313787Y-2292654D01*
X2303119Y-2291740D01*
X2292400Y-2291181D01*
G37*
G36*
X2284730Y-2404465D02*
G01*
X2266442Y-2404618D01*
X2252421Y-2405176D01*
X2241296Y-2406446D01*
X2236419Y-2407412D01*
X2231745Y-2408631D01*
X2222449Y-2411882D01*
X2212035Y-2416505D01*
X2201113Y-2422093D01*
X2190699Y-2428341D01*
X2180844Y-2435199D01*
X2171496Y-2442667D01*
X2162708Y-2450693D01*
X2154529Y-2459228D01*
X2146960Y-2468270D01*
X2140000Y-2477770D01*
X2133650Y-2487625D01*
X2128012Y-2497886D01*
X2123033Y-2508453D01*
X2118766Y-2519273D01*
X2115210Y-2530398D01*
X2112365Y-2541727D01*
X2110333Y-2553208D01*
X2109012Y-2564841D01*
X2108555Y-2576576D01*
X2108860Y-2588361D01*
X2110028Y-2600198D01*
X2112060Y-2611983D01*
X2114804Y-2623464D01*
X2118207Y-2634538D01*
X2122220Y-2645206D01*
X2126843Y-2655468D01*
X2132076Y-2665374D01*
X2137968Y-2674823D01*
X2144420Y-2683865D01*
X2151481Y-2692501D01*
X2159152Y-2700680D01*
X2167432Y-2708402D01*
X2176272Y-2715717D01*
X2185670Y-2722524D01*
X2195677Y-2728925D01*
X2206244Y-2734818D01*
X2217521Y-2740456D01*
X2222398Y-2742641D01*
X2227021Y-2744368D01*
X2231644Y-2745790D01*
X2236520Y-2746857D01*
X2241804Y-2747670D01*
X2247747Y-2748229D01*
X2262479Y-2748788D01*
X2282494Y-2748940D01*
X2300173Y-2748788D01*
X2320188Y-2747822D01*
X2330246Y-2746502D01*
X2334615Y-2745638D01*
X2342388Y-2743352D01*
X2349601Y-2740304D01*
X2357120Y-2736545D01*
X2364384Y-2732532D01*
X2378100Y-2724099D01*
X2390190Y-2715361D01*
X2395524Y-2710992D01*
X2400249Y-2706725D01*
X2404364Y-2702509D01*
X2407818Y-2698496D01*
X2410510Y-2694686D01*
X2412390Y-2691130D01*
X2414473Y-2684678D01*
X2415286Y-2678328D01*
X2414981Y-2672181D01*
X2413660Y-2666390D01*
X2411374Y-2661056D01*
X2408275Y-2656281D01*
X2404364Y-2652166D01*
X2399842Y-2648915D01*
X2394712Y-2646578D01*
X2389124Y-2645308D01*
X2383180Y-2645206D01*
X2376982Y-2646426D01*
X2372410Y-2648356D01*
X2367026Y-2651455D01*
X2361387Y-2655316D01*
X2350922Y-2664155D01*
X2345588Y-2668270D01*
X2340254Y-2671927D01*
X2334869Y-2675128D01*
X2329332Y-2677871D01*
X2323642Y-2680157D01*
X2317699Y-2682087D01*
X2311501Y-2683560D01*
X2304897Y-2684678D01*
X2297938Y-2685491D01*
X2290470Y-2685948D01*
X2274214Y-2685948D01*
X2266848Y-2685592D01*
X2260193Y-2684932D01*
X2254148Y-2683967D01*
X2248560Y-2682646D01*
X2243328Y-2681020D01*
X2238248Y-2678988D01*
X2233269Y-2676550D01*
X2227935Y-2673502D01*
X2222906Y-2670302D01*
X2218029Y-2666847D01*
X2213457Y-2663240D01*
X2209088Y-2659430D01*
X2204974Y-2655417D01*
X2201113Y-2651252D01*
X2194102Y-2642463D01*
X2190953Y-2637840D01*
X2188057Y-2633116D01*
X2185416Y-2628290D01*
X2183028Y-2623362D01*
X2179015Y-2613202D01*
X2176018Y-2602738D01*
X2174849Y-2597404D01*
X2173986Y-2592070D01*
X2173020Y-2581300D01*
X2173071Y-2570480D01*
X2174138Y-2559710D01*
X2175052Y-2554376D01*
X2176272Y-2549093D01*
X2177745Y-2543860D01*
X2179472Y-2538679D01*
X2183688Y-2528570D01*
X2186228Y-2523642D01*
X2189022Y-2518816D01*
X2192070Y-2514142D01*
X2195423Y-2509570D01*
X2199030Y-2505151D01*
X2202891Y-2500884D01*
X2207006Y-2496769D01*
X2211476Y-2492806D01*
X2216150Y-2489047D01*
X2221331Y-2485339D01*
X2226614Y-2481935D01*
X2231999Y-2478887D01*
X2237435Y-2476144D01*
X2242972Y-2473756D01*
X2248611Y-2471724D01*
X2254300Y-2470048D01*
X2260041Y-2468626D01*
X2265832Y-2467610D01*
X2271623Y-2466898D01*
X2277516Y-2466543D01*
X2283409Y-2466492D01*
X2289302Y-2466797D01*
X2295194Y-2467406D01*
X2301087Y-2468372D01*
X2306980Y-2469642D01*
X2312873Y-2471318D01*
X2318715Y-2473248D01*
X2324506Y-2475534D01*
X2330297Y-2478176D01*
X2336038Y-2481122D01*
X2341676Y-2484424D01*
X2347264Y-2488031D01*
X2360523Y-2497480D01*
X2367686Y-2501900D01*
X2374341Y-2505303D01*
X2380488Y-2507589D01*
X2386177Y-2508808D01*
X2391359Y-2508961D01*
X2396134Y-2508046D01*
X2400503Y-2506065D01*
X2404516Y-2503017D01*
X2408123Y-2498902D01*
X2411425Y-2493721D01*
X2414422Y-2487422D01*
X2417013Y-2479954D01*
X2417622Y-2474061D01*
X2416048Y-2468372D01*
X2412238Y-2461514D01*
X2406802Y-2453741D01*
X2403856Y-2450185D01*
X2397201Y-2443530D01*
X2393340Y-2440279D01*
X2384247Y-2433726D01*
X2372817Y-2426766D01*
X2358542Y-2418842D01*
X2347366Y-2413101D01*
X2342591Y-2410917D01*
X2338019Y-2409139D01*
X2333498Y-2407716D01*
X2328773Y-2406599D01*
X2323642Y-2405786D01*
X2311400Y-2404821D01*
G37*
G36*
X1908098Y-2405278D02*
G01*
X1894636Y-2421991D01*
X1888591Y-2430932D01*
X1882292Y-2441651D01*
X1875942Y-2453640D01*
X1869744Y-2466441D01*
X1863953Y-2479700D01*
X1858721Y-2492959D01*
X1854250Y-2505710D01*
X1850999Y-2517089D01*
X1848510Y-2527757D01*
X1846630Y-2538730D01*
X1845310Y-2549855D01*
X1844497Y-2561234D01*
X1844243Y-2572715D01*
X1844497Y-2584297D01*
X1845310Y-2595981D01*
X1846580Y-2607665D01*
X1848408Y-2619400D01*
X1850745Y-2631084D01*
X1853539Y-2642717D01*
X1856841Y-2654198D01*
X1860600Y-2665577D01*
X1864868Y-2676753D01*
X1869592Y-2687726D01*
X1874723Y-2698445D01*
X1880362Y-2708910D01*
X1886457Y-2719019D01*
X1892960Y-2728823D01*
X1900326Y-2738678D01*
X1903984Y-2742844D01*
X1906930Y-2745689D01*
X1908708Y-2746705D01*
X1911045Y-2745638D01*
X1915464Y-2742692D01*
X1928063Y-2732938D01*
X1944827Y-2719120D01*
X1928977Y-2698851D01*
X1922424Y-2688590D01*
X1915464Y-2676296D01*
X1909013Y-2663393D01*
X1903475Y-2650998D01*
X1899310Y-2640076D01*
X1897735Y-2634996D01*
X1896465Y-2629916D01*
X1895500Y-2624582D01*
X1894738Y-2618841D01*
X1893824Y-2605278D01*
X1893468Y-2587599D01*
X1893468Y-2568397D01*
X1893925Y-2553157D01*
X1894890Y-2539542D01*
X1896567Y-2527147D01*
X1898904Y-2515717D01*
X1902155Y-2504897D01*
X1906270Y-2494330D01*
X1911502Y-2483764D01*
X1917801Y-2472842D01*
X1925320Y-2461209D01*
X1944319Y-2433980D01*
G37*
G36*
X2659227Y-2407005D02*
G01*
X2624632Y-2434386D01*
X2643632Y-2460904D01*
X2650794Y-2471978D01*
X2656941Y-2482850D01*
X2662021Y-2493670D01*
X2664256Y-2499156D01*
X2668016Y-2510383D01*
X2670962Y-2522118D01*
X2673096Y-2534615D01*
X2674518Y-2548026D01*
X2675331Y-2562656D01*
X2675585Y-2578658D01*
X2675331Y-2597962D01*
X2674670Y-2612796D01*
X2674112Y-2619044D01*
X2673350Y-2624734D01*
X2672384Y-2630068D01*
X2669590Y-2640228D01*
X2667762Y-2645511D01*
X2662986Y-2657246D01*
X2660243Y-2663444D01*
X2653741Y-2676398D01*
X2646781Y-2688844D01*
X2640076Y-2699308D01*
X2632049Y-2709976D01*
X2628138Y-2715666D01*
X2625750Y-2719730D01*
X2625344Y-2721559D01*
X2639263Y-2731973D01*
X2650337Y-2739898D01*
X2658008Y-2744927D01*
X2660396Y-2746248D01*
X2661716Y-2746705D01*
X2664155Y-2744622D01*
X2668778Y-2738882D01*
X2675026Y-2730347D01*
X2685034Y-2715564D01*
X2690571Y-2706116D01*
X2695905Y-2696006D01*
X2700934Y-2685338D01*
X2705608Y-2674213D01*
X2709926Y-2662783D01*
X2713786Y-2651201D01*
X2717241Y-2639466D01*
X2720086Y-2627833D01*
X2722422Y-2616403D01*
X2724150Y-2604973D01*
X2725115Y-2592882D01*
X2725318Y-2580284D01*
X2724759Y-2567228D01*
X2723591Y-2553919D01*
X2721711Y-2540406D01*
X2719171Y-2526893D01*
X2716123Y-2513431D01*
X2712466Y-2500172D01*
X2708300Y-2487218D01*
X2703626Y-2474722D01*
X2698496Y-2462733D01*
X2692958Y-2451506D01*
X2687015Y-2441041D01*
X2680716Y-2431491D01*
X2674061Y-2422956D01*
G37*
G36*
X1968804Y-2455875D02*
G01*
X1966823Y-2456434D01*
X1964537Y-2458110D01*
X1961997Y-2460701D01*
X1959203Y-2464206D01*
X1956257Y-2468524D01*
X1950059Y-2479243D01*
X1946859Y-2485440D01*
X1940661Y-2499207D01*
X1937715Y-2506522D01*
X1932584Y-2521153D01*
X1928723Y-2535174D01*
X1927199Y-2542082D01*
X1925015Y-2555849D01*
X1924304Y-2562656D01*
X1923897Y-2569464D01*
X1923846Y-2583129D01*
X1924253Y-2589936D01*
X1925878Y-2603652D01*
X1927098Y-2610561D01*
X1930349Y-2624531D01*
X1932889Y-2633116D01*
X1935784Y-2641752D01*
X1938934Y-2650286D01*
X1942338Y-2658567D01*
X1949450Y-2673807D01*
X1953056Y-2680411D01*
X1956511Y-2686151D01*
X1959864Y-2690876D01*
X1962912Y-2694482D01*
X1965604Y-2696718D01*
X1967941Y-2697530D01*
X1971039Y-2696616D01*
X1975815Y-2694178D01*
X1981606Y-2690571D01*
X1987804Y-2686202D01*
X2002637Y-2674823D01*
X1988718Y-2648356D01*
X1983232Y-2636520D01*
X1980895Y-2630424D01*
X1978812Y-2624226D01*
X1975408Y-2611526D01*
X1973122Y-2598521D01*
X1971852Y-2585415D01*
X1971649Y-2572258D01*
X1971954Y-2565704D01*
X1973325Y-2552700D01*
X1974392Y-2546299D01*
X1977339Y-2533802D01*
X1979218Y-2527706D01*
X1981352Y-2521712D01*
X1983739Y-2515920D01*
X1986381Y-2510231D01*
X1989277Y-2504744D01*
X1992426Y-2499410D01*
X2004110Y-2480919D01*
X1989124Y-2468422D01*
X1982876Y-2463546D01*
X1976932Y-2459583D01*
X1972056Y-2456891D01*
G37*
G36*
X2599994Y-2455926D02*
G01*
X2596997Y-2456942D01*
X2592324Y-2459583D01*
X2586532Y-2463546D01*
X2580335Y-2468422D01*
X2565349Y-2480919D01*
X2577236Y-2499715D01*
X2580284Y-2504897D01*
X2583078Y-2510282D01*
X2585669Y-2515920D01*
X2590038Y-2527655D01*
X2593390Y-2540000D01*
X2594660Y-2546350D01*
X2596489Y-2559354D01*
X2597251Y-2572562D01*
X2596997Y-2585923D01*
X2596489Y-2592578D01*
X2594711Y-2605786D01*
X2593441Y-2612339D01*
X2591917Y-2618740D01*
X2590088Y-2625090D01*
X2585720Y-2637434D01*
X2583129Y-2643378D01*
X2580284Y-2649169D01*
X2566924Y-2674620D01*
X2601976Y-2702407D01*
X2616403Y-2680360D01*
X2622550Y-2669133D01*
X2628290Y-2656789D01*
X2633472Y-2643733D01*
X2637942Y-2630271D01*
X2641549Y-2616860D01*
X2642971Y-2610256D01*
X2644444Y-2600045D01*
X2645105Y-2588514D01*
X2644952Y-2576017D01*
X2644140Y-2562961D01*
X2642565Y-2549753D01*
X2640380Y-2536748D01*
X2637536Y-2524353D01*
X2634132Y-2512923D01*
X2628798Y-2499207D01*
X2625801Y-2492451D01*
X2619400Y-2479852D01*
X2616149Y-2474163D01*
X2612948Y-2469083D01*
X2609850Y-2464663D01*
X2606954Y-2461056D01*
X2604312Y-2458313D01*
X2601976Y-2456586D01*
G37*
G36*
X2248255Y-2540914D02*
G01*
X2235149Y-2553970D01*
X2229866Y-2559812D01*
X2226005Y-2565247D01*
X2223668Y-2570530D01*
X2222754Y-2575712D01*
X2223312Y-2580995D01*
X2225294Y-2586482D01*
X2228799Y-2592374D01*
X2233676Y-2598724D01*
X2245258Y-2612491D01*
X2396439Y-2612288D01*
X2414016Y-2611882D01*
X2426512Y-2611120D01*
X2431288Y-2610612D01*
X2438400Y-2609189D01*
X2443276Y-2607157D01*
X2447036Y-2604414D01*
X2448864Y-2602788D01*
X2453487Y-2597353D01*
X2456789Y-2591257D01*
X2458720Y-2584653D01*
X2459329Y-2577795D01*
X2458567Y-2570835D01*
X2456484Y-2564079D01*
X2453030Y-2557678D01*
X2448255Y-2551887D01*
X2444445Y-2548280D01*
X2442514Y-2546807D01*
X2440381Y-2545537D01*
X2437942Y-2544470D01*
X2434945Y-2543606D01*
X2431288Y-2542844D01*
X2421331Y-2541828D01*
X2406853Y-2541270D01*
X2386584Y-2540965D01*
G37*
G36*
X2197506Y-2914497D02*
G01*
X2168144Y-2930906D01*
X2158034Y-2937662D01*
X2148738Y-2945180D01*
X2140204Y-2953359D01*
X2132533Y-2962198D01*
X2125726Y-2971596D01*
X2119833Y-2981553D01*
X2114854Y-2992018D01*
X2110790Y-3002940D01*
X2107742Y-3014268D01*
X2106574Y-3020060D01*
X2105660Y-3025952D01*
X2104999Y-3031947D01*
X2104593Y-3037992D01*
X2104491Y-3044088D01*
X2104745Y-3050336D01*
X2105456Y-3056737D01*
X2106574Y-3063240D01*
X2108149Y-3069844D01*
X2110130Y-3076498D01*
X2112416Y-3083102D01*
X2115058Y-3089656D01*
X2118004Y-3096107D01*
X2121204Y-3102406D01*
X2124659Y-3108452D01*
X2128316Y-3114294D01*
X2132177Y-3119831D01*
X2136190Y-3125012D01*
X2140356Y-3129788D01*
X2144623Y-3134156D01*
X2148941Y-3138017D01*
X2153310Y-3141319D01*
X2157679Y-3144062D01*
X2162048Y-3146196D01*
X2166416Y-3147618D01*
X2170734Y-3148279D01*
X2175256Y-3148279D01*
X2179929Y-3147568D01*
X2184654Y-3146247D01*
X2189429Y-3144367D01*
X2194153Y-3141980D01*
X2198776Y-3139186D01*
X2203145Y-3135985D01*
X2207310Y-3132429D01*
X2211120Y-3128619D01*
X2214524Y-3124555D01*
X2217470Y-3120288D01*
X2219858Y-3115970D01*
X2221687Y-3111550D01*
X2222804Y-3107131D01*
X2223211Y-3102711D01*
X2221890Y-3097174D01*
X2218334Y-3089300D01*
X2213051Y-3080258D01*
X2206599Y-3071012D01*
X2201976Y-3064865D01*
X2198370Y-3059531D01*
X2195626Y-3054908D01*
X2193696Y-3050844D01*
X2192528Y-3047034D01*
X2192020Y-3043377D01*
X2192121Y-3039618D01*
X2192731Y-3035604D01*
X2194509Y-3029559D01*
X2197303Y-3023311D01*
X2200706Y-3017520D01*
X2204415Y-3012948D01*
X2207006Y-3010662D01*
X2210206Y-3008782D01*
X2214524Y-3007258D01*
X2220671Y-3005988D01*
X2229154Y-3005023D01*
X2240534Y-3004210D01*
X2255520Y-3003499D01*
X2298446Y-3002330D01*
X2441854Y-2999536D01*
X2450439Y-2988310D01*
X2453132Y-2984195D01*
X2455316Y-2979369D01*
X2456992Y-2974035D01*
X2458212Y-2968345D01*
X2458974Y-2962402D01*
X2459228Y-2956356D01*
X2459024Y-2950311D01*
X2458313Y-2944418D01*
X2457145Y-2938830D01*
X2455468Y-2933649D01*
X2453284Y-2929026D01*
X2450693Y-2925064D01*
X2442108Y-2914497D01*
G37*
M02*
