G04 Layer: TopLayer*
G04 EasyEDA v6.5.22, 2023-04-06 23:37:51*
G04 59bfaf2a9afe4f888a6a27d7eff82a53,13d4147aac1444c28c06bf4132869bd4,10*
G04 Gerber Generator version 0.2*
G04 Scale: 100 percent, Rotated: No, Reflected: No *
G04 Dimensions in millimeters *
G04 leading zeros omitted , absolute positions ,4 integer and 5 decimal *
%FSLAX45Y45*%
%MOMM*%

%AMMACRO1*21,1,$1,$2,0,0,$3*%
%ADD10C,0.6000*%
%ADD11R,1.1901X1.7280*%
%ADD12MACRO1,0.864X0.8065X90.0000*%
%ADD13MACRO1,0.8001X1.4986X-90.0000*%
%ADD14MACRO1,0.7595X1.4986X-90.0000*%
%ADD15MACRO1,0.701X1.4986X-90.0000*%
%ADD16R,1.2500X0.7000*%
%ADD17MACRO1,0.54X0.5656X-90.0000*%
%ADD18MACRO1,0.54X0.5656X0.0000*%
%ADD19R,0.5400X0.5657*%
%ADD20MACRO1,1.35X1.41X0.0000*%
%ADD21R,1.3500X1.4100*%
%ADD22MACRO1,1.35X1.41X90.0000*%
%ADD23R,3.5000X1.2000*%
%ADD24R,0.6000X0.6000*%
%ADD25R,1.4000X2.5000*%
%ADD26R,1.7000X1.4000*%
%ADD27R,2.5000X1.1000*%
%ADD28MACRO1,3.6X2.34X90.0000*%
%ADD29O,1.7999964X1.0999978000000001*%
%ADD30C,2.0000*%
%ADD31R,1.7000X1.7000*%
%ADD32C,1.7000*%
%ADD33C,5.0000*%
%ADD34C,0.6096*%
%ADD35C,0.0191*%

%LPD*%
G36*
X2320442Y-323392D02*
G01*
X2316378Y-322580D01*
X2313025Y-320141D01*
X2310384Y-315214D01*
X2307285Y-310286D01*
X2303221Y-306222D01*
X2299157Y-302666D01*
X2297531Y-298958D01*
X2297531Y-294843D01*
X2299157Y-291134D01*
X2303221Y-287578D01*
X2307285Y-283514D01*
X2310384Y-278587D01*
X2311552Y-275285D01*
X2313686Y-271729D01*
X2317038Y-269341D01*
X2321102Y-268478D01*
X2325166Y-269341D01*
X2328570Y-271729D01*
X2331212Y-276707D01*
X2334310Y-281635D01*
X2338374Y-285699D01*
X2342438Y-289204D01*
X2344013Y-292963D01*
X2344013Y-297027D01*
X2342438Y-300786D01*
X2338374Y-304292D01*
X2334310Y-308406D01*
X2331212Y-313283D01*
X2330043Y-316585D01*
X2327910Y-320141D01*
X2324506Y-322580D01*
G37*

%LPD*%
G36*
X2118410Y-324256D02*
G01*
X2114346Y-323392D01*
X2110994Y-321005D01*
X2105710Y-312369D01*
X2101596Y-308305D01*
X2097582Y-304800D01*
X2095957Y-301040D01*
X2095957Y-296976D01*
X2097582Y-293217D01*
X2101596Y-289712D01*
X2105710Y-285597D01*
X2108758Y-280720D01*
X2109571Y-278434D01*
X2111705Y-274878D01*
X2115108Y-272491D01*
X2119172Y-271627D01*
X2123236Y-272491D01*
X2126589Y-274878D01*
X2131872Y-283514D01*
X2135987Y-287578D01*
X2140051Y-291134D01*
X2141626Y-294843D01*
X2141626Y-298958D01*
X2140051Y-302666D01*
X2135987Y-306222D01*
X2131872Y-310286D01*
X2128824Y-315214D01*
X2128012Y-317449D01*
X2125878Y-321005D01*
X2122474Y-323392D01*
G37*

%LPD*%
G36*
X1916480Y-327304D02*
G01*
X1912416Y-326440D01*
X1909064Y-324053D01*
X1906930Y-320497D01*
X1905762Y-317296D01*
X1902714Y-312369D01*
X1898599Y-308305D01*
X1894535Y-304800D01*
X1892960Y-301040D01*
X1892960Y-296976D01*
X1894535Y-293217D01*
X1898599Y-289712D01*
X1902714Y-285597D01*
X1905762Y-280720D01*
X1906930Y-277520D01*
X1909064Y-273964D01*
X1912416Y-271526D01*
X1916480Y-270713D01*
X1920544Y-271526D01*
X1923948Y-273964D01*
X1926082Y-277520D01*
X1927199Y-280720D01*
X1930298Y-285597D01*
X1934362Y-289712D01*
X1938426Y-293217D01*
X1940052Y-296976D01*
X1940052Y-301040D01*
X1938426Y-304800D01*
X1934362Y-308305D01*
X1930298Y-312369D01*
X1927199Y-317296D01*
X1926082Y-320497D01*
X1923948Y-324053D01*
X1920544Y-326440D01*
G37*

%LPD*%
G36*
X2749042Y-1332687D02*
G01*
X2745282Y-1331061D01*
X2742438Y-1328115D01*
X2741269Y-1326235D01*
X2737154Y-1322120D01*
X2732278Y-1319072D01*
X2726791Y-1317142D01*
X2720492Y-1316431D01*
X2716733Y-1316431D01*
X2712872Y-1315669D01*
X2709570Y-1313484D01*
X2707386Y-1310182D01*
X2706573Y-1306322D01*
X2706420Y-1211173D01*
X2705506Y-1201013D01*
X2703779Y-1194562D01*
X2703423Y-1190294D01*
X2704185Y-1186383D01*
X2706370Y-1183081D01*
X2709672Y-1180896D01*
X2713583Y-1180134D01*
X2988106Y-1180134D01*
X2992526Y-1181100D01*
X2996031Y-1183894D01*
X2998012Y-1187907D01*
X2998063Y-1192428D01*
X2995523Y-1205941D01*
X2995371Y-1210919D01*
X2995320Y-1300276D01*
X2994812Y-1307033D01*
X2993847Y-1310690D01*
X2991612Y-1313738D01*
X2988411Y-1315720D01*
X2984703Y-1316431D01*
X2981655Y-1316431D01*
X2975305Y-1317142D01*
X2969869Y-1319072D01*
X2964942Y-1322120D01*
X2960878Y-1326235D01*
X2959658Y-1328115D01*
X2956864Y-1331061D01*
X2953105Y-1332687D01*
X2949041Y-1332687D01*
X2945282Y-1331061D01*
X2942437Y-1328115D01*
X2941269Y-1326235D01*
X2937154Y-1322120D01*
X2932277Y-1319072D01*
X2926791Y-1317142D01*
X2920492Y-1316431D01*
X2781655Y-1316431D01*
X2775305Y-1317142D01*
X2769870Y-1319072D01*
X2764942Y-1322120D01*
X2760878Y-1326235D01*
X2759659Y-1328115D01*
X2756865Y-1331061D01*
X2753106Y-1332687D01*
G37*

%LPD*%
G36*
X2095093Y-3314750D02*
G01*
X2091182Y-3313988D01*
X2087880Y-3311804D01*
X2085695Y-3308502D01*
X2084882Y-3303015D01*
X2085238Y-3300425D01*
X2087016Y-3293821D01*
X2087930Y-3283661D01*
X2087930Y-3138728D01*
X2088692Y-3134817D01*
X2090877Y-3131515D01*
X2094179Y-3129330D01*
X2098090Y-3128568D01*
X2120493Y-3128568D01*
X2126792Y-3127857D01*
X2132279Y-3125927D01*
X2137156Y-3122879D01*
X2141270Y-3118764D01*
X2142490Y-3116834D01*
X2145284Y-3113887D01*
X2149043Y-3112262D01*
X2153107Y-3112262D01*
X2156866Y-3113887D01*
X2159711Y-3116834D01*
X2160879Y-3118662D01*
X2164943Y-3122777D01*
X2169871Y-3125876D01*
X2175306Y-3127756D01*
X2181606Y-3128467D01*
X2219909Y-3128467D01*
X2223820Y-3129280D01*
X2227122Y-3131464D01*
X2229307Y-3134766D01*
X2230069Y-3138627D01*
X2230069Y-3175609D01*
X2229510Y-3179216D01*
X2228646Y-3189020D01*
X2229154Y-3195066D01*
X2230018Y-3279241D01*
X2229662Y-3284220D01*
X2230526Y-3294024D01*
X2232660Y-3302000D01*
X2232914Y-3305657D01*
X2231898Y-3309213D01*
X2229612Y-3312160D01*
X2226462Y-3314090D01*
X2222855Y-3314750D01*
G37*

%LPD*%
G36*
X2349093Y-3401517D02*
G01*
X2345182Y-3400755D01*
X2341880Y-3398570D01*
X2339695Y-3395268D01*
X2338882Y-3391357D01*
X2339238Y-3386988D01*
X2341016Y-3380384D01*
X2341880Y-3370681D01*
X2341016Y-3360978D01*
X2339238Y-3354374D01*
X2338882Y-3351784D01*
X2338882Y-3342944D01*
X2338171Y-3336645D01*
X2336139Y-3330752D01*
X2335580Y-3327400D01*
X2336139Y-3324047D01*
X2338171Y-3318154D01*
X2338882Y-3311855D01*
X2338882Y-3304997D01*
X2339238Y-3302355D01*
X2341473Y-3294024D01*
X2342337Y-3284220D01*
X2341930Y-3278733D01*
X2341930Y-3123742D01*
X2342845Y-3119475D01*
X2345436Y-3116021D01*
X2349246Y-3113938D01*
X2353564Y-3113684D01*
X2357628Y-3115208D01*
X2364943Y-3122726D01*
X2369870Y-3125774D01*
X2375306Y-3127705D01*
X2381656Y-3128416D01*
X2520492Y-3128416D01*
X2526792Y-3127705D01*
X2532278Y-3125774D01*
X2537155Y-3122726D01*
X2541270Y-3118612D01*
X2542438Y-3116732D01*
X2545232Y-3113786D01*
X2548991Y-3112211D01*
X2553055Y-3112211D01*
X2556814Y-3113786D01*
X2559659Y-3116732D01*
X2560878Y-3118662D01*
X2564942Y-3122777D01*
X2569870Y-3125876D01*
X2575306Y-3127756D01*
X2581656Y-3128467D01*
X2720492Y-3128467D01*
X2726791Y-3127756D01*
X2732278Y-3125876D01*
X2737154Y-3122777D01*
X2741269Y-3118662D01*
X2742488Y-3116783D01*
X2745282Y-3113836D01*
X2749042Y-3112211D01*
X2753106Y-3112211D01*
X2756865Y-3113836D01*
X2759659Y-3116783D01*
X2761335Y-3119424D01*
X2762656Y-3122574D01*
X2762859Y-3125978D01*
X2761894Y-3129280D01*
X2759913Y-3132023D01*
X2551328Y-3340658D01*
X2548026Y-3342843D01*
X2544114Y-3343605D01*
X2458669Y-3343605D01*
X2453589Y-3343859D01*
X2448763Y-3344468D01*
X2443988Y-3345535D01*
X2439365Y-3347008D01*
X2434844Y-3348888D01*
X2430526Y-3351123D01*
X2426411Y-3353765D01*
X2422550Y-3356711D01*
X2418791Y-3360165D01*
X2380386Y-3398570D01*
X2377084Y-3400755D01*
X2373172Y-3401517D01*
G37*

%LPD*%
G36*
X200863Y-3974084D02*
G01*
X182422Y-3973118D01*
X165557Y-3970578D01*
X148996Y-3966413D01*
X132943Y-3960571D01*
X117500Y-3953256D01*
X102870Y-3944416D01*
X89204Y-3934206D01*
X76606Y-3922725D01*
X65125Y-3910025D01*
X55016Y-3896258D01*
X46278Y-3881577D01*
X39014Y-3866134D01*
X33324Y-3850030D01*
X29209Y-3833469D01*
X26771Y-3816553D01*
X25908Y-3799128D01*
X25908Y-200863D01*
X26873Y-182422D01*
X29413Y-165557D01*
X33578Y-148996D01*
X39420Y-132943D01*
X46736Y-117500D01*
X55575Y-102870D01*
X65786Y-89204D01*
X77266Y-76606D01*
X89966Y-65125D01*
X103733Y-55016D01*
X118414Y-46278D01*
X133858Y-39014D01*
X149961Y-33324D01*
X166522Y-29209D01*
X183438Y-26771D01*
X200863Y-25908D01*
X3799128Y-25908D01*
X3817569Y-26873D01*
X3834434Y-29413D01*
X3850995Y-33578D01*
X3867048Y-39420D01*
X3882491Y-46736D01*
X3897122Y-55575D01*
X3910787Y-65786D01*
X3923385Y-77266D01*
X3934866Y-89966D01*
X3944975Y-103733D01*
X3953713Y-118414D01*
X3960977Y-133858D01*
X3966667Y-149961D01*
X3970782Y-166522D01*
X3973220Y-183438D01*
X3974084Y-200863D01*
X3974084Y-1021638D01*
X3973118Y-1040028D01*
X3970578Y-1056944D01*
X3966413Y-1073505D01*
X3960571Y-1089558D01*
X3953256Y-1105001D01*
X3944416Y-1119581D01*
X3934206Y-1133297D01*
X3922725Y-1145895D01*
X3910025Y-1157325D01*
X3896258Y-1167485D01*
X3881577Y-1176223D01*
X3866134Y-1183487D01*
X3850030Y-1189177D01*
X3833469Y-1193292D01*
X3816553Y-1195730D01*
X3799128Y-1196594D01*
X3362553Y-1196492D01*
X3341624Y-1197457D01*
X3316782Y-1201166D01*
X3298139Y-1205839D01*
X3277209Y-1213154D01*
X3257092Y-1222502D01*
X3238042Y-1233779D01*
X3235604Y-1235405D01*
X3217875Y-1248714D01*
X3201568Y-1263700D01*
X3188614Y-1277975D01*
X3175304Y-1295704D01*
X3163773Y-1314653D01*
X3158845Y-1324813D01*
X3156508Y-1327962D01*
X3153156Y-1329994D01*
X3149346Y-1330604D01*
X3145536Y-1329740D01*
X3142335Y-1327505D01*
X3137103Y-1322120D01*
X3132277Y-1319072D01*
X3126790Y-1317142D01*
X3120491Y-1316431D01*
X3117697Y-1316431D01*
X3113989Y-1315720D01*
X3110788Y-1313738D01*
X3108553Y-1310690D01*
X3107588Y-1307033D01*
X3107131Y-1300530D01*
X3107182Y-1224178D01*
X3108350Y-1211986D01*
X3107486Y-1202232D01*
X3104489Y-1191361D01*
X3104083Y-1188669D01*
X3104083Y-1183081D01*
X3103372Y-1176731D01*
X3101340Y-1170838D01*
X3100781Y-1167485D01*
X3101340Y-1164132D01*
X3103372Y-1158240D01*
X3103880Y-1153718D01*
X3104845Y-1150416D01*
X3106826Y-1147673D01*
X3343097Y-911402D01*
X3346399Y-909167D01*
X3350260Y-908405D01*
X3423920Y-908405D01*
X3430270Y-907694D01*
X3435705Y-905764D01*
X3440633Y-902716D01*
X3444697Y-898601D01*
X3447796Y-893724D01*
X3449675Y-888237D01*
X3450386Y-881938D01*
X3450386Y-523087D01*
X3449675Y-516737D01*
X3447796Y-511301D01*
X3444697Y-506374D01*
X3440633Y-502310D01*
X3435705Y-499211D01*
X3430270Y-497281D01*
X3423920Y-496570D01*
X3191052Y-496570D01*
X3184753Y-497281D01*
X3179267Y-499211D01*
X3174390Y-502310D01*
X3170275Y-506374D01*
X3167227Y-511301D01*
X3165297Y-516737D01*
X3164586Y-523087D01*
X3164586Y-636422D01*
X3163824Y-640283D01*
X3161588Y-643585D01*
X3158337Y-645820D01*
X3154426Y-646582D01*
X2872587Y-646582D01*
X2868523Y-645718D01*
X2865120Y-643331D01*
X2862986Y-639775D01*
X2861767Y-636270D01*
X2858719Y-631393D01*
X2854604Y-627278D01*
X2849727Y-624230D01*
X2844241Y-622300D01*
X2837942Y-621588D01*
X2589072Y-621588D01*
X2583332Y-621792D01*
X2580487Y-620776D01*
X2578049Y-618998D01*
X2480868Y-521817D01*
X2478684Y-518515D01*
X2477922Y-514604D01*
X2477922Y-501548D01*
X2478684Y-497687D01*
X2480868Y-494385D01*
X2484170Y-492201D01*
X2488946Y-491388D01*
X2495245Y-490677D01*
X2500731Y-488797D01*
X2505608Y-485698D01*
X2509723Y-481634D01*
X2512771Y-476707D01*
X2514701Y-471271D01*
X2515412Y-464921D01*
X2515412Y-325069D01*
X2514701Y-318770D01*
X2512771Y-313283D01*
X2509723Y-308406D01*
X2505608Y-304292D01*
X2501544Y-300786D01*
X2499969Y-297027D01*
X2499969Y-292963D01*
X2501544Y-289204D01*
X2505608Y-285699D01*
X2509723Y-281635D01*
X2512771Y-276707D01*
X2514701Y-271272D01*
X2515412Y-264922D01*
X2515412Y-236575D01*
X2462072Y-236575D01*
X2462072Y-288442D01*
X2461310Y-292303D01*
X2459126Y-295605D01*
X2455824Y-297840D01*
X2451912Y-298602D01*
X2392070Y-298602D01*
X2388158Y-297840D01*
X2384856Y-295605D01*
X2382672Y-292303D01*
X2381910Y-288442D01*
X2381910Y-236575D01*
X2329078Y-236575D01*
X2326284Y-237998D01*
X2323134Y-238506D01*
X2259685Y-238506D01*
X2259685Y-290322D01*
X2258923Y-294233D01*
X2256739Y-297535D01*
X2253437Y-299720D01*
X2249525Y-300482D01*
X2189632Y-300482D01*
X2185771Y-299720D01*
X2182469Y-297535D01*
X2180285Y-294233D01*
X2179472Y-290322D01*
X2179472Y-238506D01*
X2127758Y-238506D01*
X2124811Y-240080D01*
X2121560Y-240588D01*
X2058111Y-240588D01*
X2058111Y-292455D01*
X2057298Y-296316D01*
X2055114Y-299618D01*
X2051812Y-301802D01*
X2047951Y-302615D01*
X1988057Y-302615D01*
X1984146Y-301802D01*
X1980895Y-299618D01*
X1978660Y-296316D01*
X1977898Y-292455D01*
X1977898Y-240588D01*
X1855114Y-240588D01*
X1855114Y-292455D01*
X1854301Y-296316D01*
X1852117Y-299618D01*
X1848815Y-301802D01*
X1844954Y-302615D01*
X1785061Y-302615D01*
X1781149Y-301802D01*
X1777847Y-299618D01*
X1775663Y-296316D01*
X1774901Y-292455D01*
X1774901Y-240588D01*
X1721612Y-240588D01*
X1721612Y-268935D01*
X1722323Y-275234D01*
X1724202Y-280720D01*
X1727301Y-285597D01*
X1731365Y-289712D01*
X1735429Y-293217D01*
X1737055Y-296976D01*
X1737055Y-301040D01*
X1735429Y-304800D01*
X1731365Y-308305D01*
X1727301Y-312369D01*
X1724202Y-317296D01*
X1722323Y-322732D01*
X1721612Y-329082D01*
X1721612Y-332943D01*
X1720799Y-336804D01*
X1718614Y-340106D01*
X1715312Y-342341D01*
X1711452Y-343103D01*
X1704086Y-343103D01*
X1700174Y-342341D01*
X1696872Y-340106D01*
X1694688Y-336804D01*
X1693925Y-332943D01*
X1693925Y-297586D01*
X1693214Y-291236D01*
X1691284Y-285800D01*
X1688185Y-280873D01*
X1684121Y-276809D01*
X1679193Y-273710D01*
X1673758Y-271780D01*
X1667408Y-271068D01*
X1318564Y-271068D01*
X1312265Y-271780D01*
X1306779Y-273710D01*
X1301902Y-276809D01*
X1297787Y-280873D01*
X1294688Y-285800D01*
X1292809Y-291236D01*
X1292098Y-297586D01*
X1292098Y-416407D01*
X1292809Y-422757D01*
X1294688Y-428193D01*
X1297787Y-433120D01*
X1301902Y-437184D01*
X1306779Y-440283D01*
X1312265Y-442214D01*
X1318564Y-442925D01*
X1426921Y-442925D01*
X1430832Y-443687D01*
X1434134Y-445871D01*
X1436319Y-449173D01*
X1437081Y-453085D01*
X1437081Y-665022D01*
X1436319Y-668934D01*
X1434134Y-672236D01*
X820166Y-1286205D01*
X816711Y-1289964D01*
X813765Y-1293825D01*
X811123Y-1297940D01*
X808888Y-1302258D01*
X807008Y-1306779D01*
X805535Y-1311402D01*
X804468Y-1316177D01*
X803859Y-1321003D01*
X803605Y-1326083D01*
X803605Y-1429918D01*
X802843Y-1433830D01*
X800658Y-1437132D01*
X797356Y-1439316D01*
X793445Y-1440078D01*
X789584Y-1439316D01*
X786282Y-1437132D01*
X778916Y-1429766D01*
X766978Y-1420418D01*
X753973Y-1412544D01*
X740105Y-1406296D01*
X725576Y-1401775D01*
X710641Y-1399032D01*
X695452Y-1398117D01*
X680262Y-1399032D01*
X665327Y-1401775D01*
X650798Y-1406296D01*
X636930Y-1412544D01*
X623925Y-1420418D01*
X611987Y-1429766D01*
X601218Y-1440535D01*
X591870Y-1452473D01*
X583996Y-1465478D01*
X577748Y-1479346D01*
X573227Y-1493875D01*
X570484Y-1508810D01*
X569569Y-1524000D01*
X570484Y-1539189D01*
X573227Y-1554124D01*
X577748Y-1568653D01*
X583996Y-1582521D01*
X591870Y-1595526D01*
X601218Y-1607464D01*
X611987Y-1618234D01*
X623925Y-1627581D01*
X636930Y-1635455D01*
X650798Y-1641703D01*
X665327Y-1646224D01*
X680262Y-1648968D01*
X695452Y-1649882D01*
X710641Y-1648968D01*
X725576Y-1646224D01*
X740105Y-1641703D01*
X753973Y-1635455D01*
X766978Y-1627581D01*
X778916Y-1618234D01*
X786282Y-1610868D01*
X789584Y-1608683D01*
X793445Y-1607921D01*
X797356Y-1608683D01*
X800658Y-1610868D01*
X802843Y-1614170D01*
X803605Y-1618081D01*
X803605Y-1840534D01*
X802843Y-1844446D01*
X800658Y-1847748D01*
X739851Y-1908505D01*
X736854Y-1910588D01*
X733298Y-1911502D01*
X729640Y-1911045D01*
X725576Y-1909775D01*
X710641Y-1907032D01*
X695452Y-1906117D01*
X680262Y-1907032D01*
X665327Y-1909775D01*
X650798Y-1914296D01*
X636930Y-1920544D01*
X623925Y-1928418D01*
X611987Y-1937766D01*
X601218Y-1948535D01*
X591870Y-1960473D01*
X583996Y-1973478D01*
X577748Y-1987346D01*
X573227Y-2001875D01*
X570484Y-2016810D01*
X569569Y-2032000D01*
X570484Y-2047189D01*
X573227Y-2062124D01*
X577748Y-2076653D01*
X583996Y-2090521D01*
X591870Y-2103526D01*
X601218Y-2115464D01*
X611987Y-2126234D01*
X623925Y-2135581D01*
X636930Y-2143455D01*
X650798Y-2149703D01*
X665327Y-2154224D01*
X680262Y-2156968D01*
X695452Y-2157882D01*
X710641Y-2156968D01*
X725576Y-2154224D01*
X740105Y-2149703D01*
X753973Y-2143455D01*
X766978Y-2135581D01*
X778916Y-2126234D01*
X789686Y-2115464D01*
X799033Y-2103526D01*
X806907Y-2090521D01*
X813155Y-2076653D01*
X817676Y-2062124D01*
X820419Y-2047189D01*
X821334Y-2032000D01*
X820419Y-2016810D01*
X817676Y-2001875D01*
X816406Y-1997811D01*
X815949Y-1994154D01*
X816864Y-1990598D01*
X818946Y-1987600D01*
X898906Y-1907590D01*
X902360Y-1903831D01*
X905306Y-1899970D01*
X907948Y-1895856D01*
X910183Y-1891538D01*
X912063Y-1887016D01*
X913536Y-1882393D01*
X914603Y-1877618D01*
X915212Y-1872792D01*
X915466Y-1867712D01*
X915466Y-1353261D01*
X916228Y-1349349D01*
X918413Y-1346047D01*
X1237234Y-1027226D01*
X1240231Y-1025144D01*
X1243787Y-1024280D01*
X1247394Y-1024737D01*
X1250645Y-1026414D01*
X1309420Y-1026414D01*
X1309420Y-970737D01*
X1306830Y-967435D01*
X1305763Y-963371D01*
X1306474Y-959256D01*
X1308760Y-955751D01*
X1532382Y-732078D01*
X1535836Y-728319D01*
X1538782Y-724458D01*
X1541424Y-720344D01*
X1543659Y-716026D01*
X1545539Y-711504D01*
X1547012Y-706882D01*
X1548079Y-702106D01*
X1548688Y-697280D01*
X1548942Y-692200D01*
X1548942Y-465074D01*
X1549704Y-461213D01*
X1551889Y-457911D01*
X1555191Y-455676D01*
X1559102Y-454914D01*
X1711452Y-454914D01*
X1715312Y-455676D01*
X1718614Y-457911D01*
X1720799Y-461213D01*
X1721612Y-465074D01*
X1721612Y-468934D01*
X1722323Y-475234D01*
X1724202Y-480720D01*
X1727301Y-485597D01*
X1731365Y-489712D01*
X1736293Y-492810D01*
X1741728Y-494690D01*
X1748078Y-495401D01*
X1881936Y-495401D01*
X1888236Y-494690D01*
X1893722Y-492810D01*
X1898599Y-489712D01*
X1902714Y-485597D01*
X1905762Y-480720D01*
X1906930Y-477520D01*
X1909064Y-473964D01*
X1912416Y-471525D01*
X1916480Y-470712D01*
X1920544Y-471525D01*
X1923948Y-473964D01*
X1926082Y-477520D01*
X1927199Y-480720D01*
X1930298Y-485597D01*
X1934362Y-489712D01*
X1939289Y-492810D01*
X1944725Y-494690D01*
X1950974Y-495401D01*
X1954530Y-496468D01*
X1957476Y-498805D01*
X1959356Y-502005D01*
X1959965Y-505714D01*
X1959610Y-524154D01*
X1959813Y-530504D01*
X1960219Y-534009D01*
X1961540Y-540105D01*
X1962556Y-543509D01*
X1964893Y-549249D01*
X1966468Y-552399D01*
X1969770Y-557682D01*
X1971903Y-560527D01*
X1976170Y-565251D01*
X2273757Y-862837D01*
X2277516Y-866292D01*
X2281377Y-869238D01*
X2285492Y-871880D01*
X2289810Y-874115D01*
X2294331Y-875995D01*
X2298954Y-877468D01*
X2303729Y-878535D01*
X2308555Y-879144D01*
X2313635Y-879398D01*
X2431592Y-879398D01*
X2435504Y-880160D01*
X2438806Y-882345D01*
X2499766Y-943305D01*
X2501950Y-946607D01*
X2502712Y-950518D01*
X2501950Y-954379D01*
X2499766Y-957681D01*
X2453487Y-1003960D01*
X2450185Y-1006144D01*
X2446274Y-1006906D01*
X2441092Y-1006906D01*
X2437434Y-1006246D01*
X2434285Y-1004316D01*
X2432050Y-1001369D01*
X2430983Y-997813D01*
X2431288Y-994156D01*
X2433421Y-986078D01*
X2434285Y-976274D01*
X2433421Y-966469D01*
X2431186Y-958138D01*
X2430881Y-955497D01*
X2430881Y-948537D01*
X2430119Y-942238D01*
X2428240Y-936802D01*
X2425141Y-931875D01*
X2421077Y-927811D01*
X2416149Y-924712D01*
X2410714Y-922782D01*
X2404364Y-922070D01*
X2393950Y-922070D01*
X2387752Y-920800D01*
X2377948Y-919937D01*
X2372461Y-920343D01*
X2242261Y-920343D01*
X2239772Y-920546D01*
X2174697Y-920546D01*
X2168398Y-921258D01*
X2162911Y-923188D01*
X2158034Y-926236D01*
X2153920Y-930351D01*
X2150872Y-935228D01*
X2148941Y-940714D01*
X2148230Y-947013D01*
X2148230Y-1015898D01*
X2148941Y-1022197D01*
X2150872Y-1027684D01*
X2153920Y-1032560D01*
X2158034Y-1036675D01*
X2162911Y-1039723D01*
X2168398Y-1041653D01*
X2174697Y-1042365D01*
X2298547Y-1042365D01*
X2304897Y-1041653D01*
X2310028Y-1039825D01*
X2314397Y-1039317D01*
X2318562Y-1040688D01*
X2321763Y-1043635D01*
X2323388Y-1047699D01*
X2322068Y-1062837D01*
X2322931Y-1072540D01*
X2324709Y-1079144D01*
X2325065Y-1081735D01*
X2325065Y-1090574D01*
X2325776Y-1096873D01*
X2327656Y-1102309D01*
X2330754Y-1107236D01*
X2334818Y-1111300D01*
X2339746Y-1114399D01*
X2345182Y-1116330D01*
X2351532Y-1117041D01*
X2363825Y-1117041D01*
X2368245Y-1117854D01*
X2378405Y-1118768D01*
X2473452Y-1118768D01*
X2478532Y-1118514D01*
X2483358Y-1117904D01*
X2488133Y-1116838D01*
X2492756Y-1115364D01*
X2497277Y-1113485D01*
X2501595Y-1111250D01*
X2505710Y-1108608D01*
X2509570Y-1105662D01*
X2513330Y-1102207D01*
X2599182Y-1016406D01*
X2602484Y-1014171D01*
X2606344Y-1013409D01*
X2837942Y-1013409D01*
X2844241Y-1012698D01*
X2849727Y-1010767D01*
X2854604Y-1007719D01*
X2858719Y-1003604D01*
X2861767Y-998728D01*
X2863697Y-993241D01*
X2864408Y-986942D01*
X2864408Y-878078D01*
X2863697Y-871728D01*
X2861767Y-866292D01*
X2858719Y-861364D01*
X2854604Y-857300D01*
X2849727Y-854202D01*
X2844241Y-852322D01*
X2837942Y-851611D01*
X2589072Y-851611D01*
X2582722Y-852322D01*
X2577033Y-854303D01*
X2573274Y-854862D01*
X2569616Y-854049D01*
X2566466Y-851916D01*
X2498648Y-784098D01*
X2494889Y-780643D01*
X2491028Y-777697D01*
X2486914Y-775055D01*
X2482596Y-772820D01*
X2478074Y-770940D01*
X2473452Y-769467D01*
X2468676Y-768400D01*
X2463850Y-767791D01*
X2458770Y-767537D01*
X2340813Y-767537D01*
X2336901Y-766775D01*
X2333599Y-764590D01*
X2081428Y-512419D01*
X2079294Y-509270D01*
X2078482Y-505612D01*
X2079040Y-501853D01*
X2080920Y-498601D01*
X2083866Y-496214D01*
X2087473Y-495147D01*
X2091232Y-494690D01*
X2096719Y-492810D01*
X2101596Y-489712D01*
X2105710Y-485597D01*
X2108758Y-480720D01*
X2109571Y-478434D01*
X2111705Y-474878D01*
X2115108Y-472490D01*
X2119172Y-471627D01*
X2123236Y-472490D01*
X2126589Y-474878D01*
X2131872Y-483514D01*
X2135987Y-487629D01*
X2140864Y-490677D01*
X2146350Y-492607D01*
X2152650Y-493318D01*
X2286508Y-493318D01*
X2292858Y-492607D01*
X2298293Y-490677D01*
X2303221Y-487629D01*
X2307285Y-483514D01*
X2310384Y-478637D01*
X2311552Y-475284D01*
X2313686Y-471728D01*
X2317038Y-469341D01*
X2321102Y-468477D01*
X2325166Y-469341D01*
X2328570Y-471728D01*
X2331212Y-476707D01*
X2334310Y-481634D01*
X2338374Y-485698D01*
X2343302Y-488797D01*
X2348738Y-490677D01*
X2355900Y-491388D01*
X2359812Y-492201D01*
X2363114Y-494385D01*
X2365298Y-497687D01*
X2366060Y-501548D01*
X2366060Y-536498D01*
X2365654Y-541985D01*
X2366518Y-551789D01*
X2369058Y-561238D01*
X2373172Y-570179D01*
X2378811Y-578205D01*
X2386076Y-585368D01*
X2387447Y-586486D01*
X2542794Y-741883D01*
X2546553Y-745286D01*
X2550414Y-748284D01*
X2554427Y-750824D01*
X2557373Y-752297D01*
X2560116Y-754227D01*
X2562047Y-757021D01*
X2562961Y-760272D01*
X2563317Y-763270D01*
X2565196Y-768705D01*
X2568295Y-773633D01*
X2572359Y-777697D01*
X2577287Y-780796D01*
X2582722Y-782675D01*
X2589072Y-783386D01*
X2837942Y-783386D01*
X2844241Y-782675D01*
X2849727Y-780796D01*
X2854604Y-777697D01*
X2858719Y-773633D01*
X2861767Y-768705D01*
X2862986Y-765200D01*
X2865170Y-761644D01*
X2868523Y-759256D01*
X2872587Y-758393D01*
X3154426Y-758393D01*
X3158337Y-759155D01*
X3161588Y-761390D01*
X3163824Y-764692D01*
X3164586Y-768553D01*
X3164586Y-881938D01*
X3165297Y-888237D01*
X3167227Y-893724D01*
X3170275Y-898601D01*
X3174390Y-902716D01*
X3178098Y-905814D01*
X3179724Y-909015D01*
X3180130Y-912621D01*
X3179267Y-916178D01*
X3177184Y-919124D01*
X3031032Y-1065326D01*
X3027730Y-1067511D01*
X3023819Y-1068273D01*
X2650947Y-1068273D01*
X2640787Y-1069187D01*
X2636316Y-1070051D01*
X2624074Y-1070051D01*
X2617724Y-1070762D01*
X2612288Y-1072642D01*
X2607360Y-1075740D01*
X2603296Y-1079804D01*
X2600198Y-1084732D01*
X2598318Y-1090168D01*
X2597607Y-1096518D01*
X2597607Y-1105306D01*
X2597251Y-1107948D01*
X2595473Y-1114501D01*
X2594610Y-1124204D01*
X2595473Y-1133906D01*
X2597251Y-1140460D01*
X2597607Y-1143101D01*
X2597607Y-1151940D01*
X2598318Y-1158240D01*
X2600350Y-1164132D01*
X2600909Y-1167485D01*
X2600350Y-1170838D01*
X2598318Y-1176731D01*
X2597607Y-1183081D01*
X2597607Y-1191869D01*
X2597251Y-1194460D01*
X2595473Y-1201216D01*
X2594559Y-1211376D01*
X2594762Y-1306271D01*
X2594000Y-1310132D01*
X2591816Y-1313484D01*
X2588514Y-1315669D01*
X2584602Y-1316431D01*
X2581656Y-1316431D01*
X2575306Y-1317142D01*
X2569870Y-1319072D01*
X2564942Y-1322120D01*
X2560878Y-1326235D01*
X2559659Y-1328115D01*
X2556865Y-1331061D01*
X2553106Y-1332687D01*
X2549042Y-1332687D01*
X2545283Y-1331061D01*
X2542438Y-1328115D01*
X2541270Y-1326235D01*
X2537155Y-1322120D01*
X2532278Y-1319072D01*
X2526792Y-1317142D01*
X2520492Y-1316431D01*
X2381656Y-1316431D01*
X2375306Y-1317142D01*
X2369870Y-1319072D01*
X2364943Y-1322120D01*
X2360879Y-1326235D01*
X2359660Y-1328115D01*
X2356866Y-1331061D01*
X2353106Y-1332687D01*
X2349042Y-1332687D01*
X2345283Y-1331061D01*
X2342438Y-1328115D01*
X2341270Y-1326235D01*
X2337155Y-1322120D01*
X2332278Y-1319072D01*
X2326792Y-1317142D01*
X2320493Y-1316431D01*
X2181606Y-1316431D01*
X2175306Y-1317142D01*
X2169871Y-1319072D01*
X2164943Y-1322120D01*
X2160879Y-1326235D01*
X2159660Y-1328115D01*
X2156866Y-1331061D01*
X2153107Y-1332687D01*
X2149043Y-1332687D01*
X2145284Y-1331061D01*
X2142439Y-1328115D01*
X2141270Y-1326235D01*
X2137156Y-1322120D01*
X2132279Y-1319072D01*
X2126792Y-1317142D01*
X2120493Y-1316431D01*
X1981606Y-1316431D01*
X1975307Y-1317142D01*
X1969871Y-1319072D01*
X1964943Y-1322120D01*
X1960880Y-1326235D01*
X1959660Y-1328115D01*
X1956866Y-1331061D01*
X1953107Y-1332687D01*
X1949043Y-1332687D01*
X1945284Y-1331061D01*
X1942439Y-1328115D01*
X1941271Y-1326235D01*
X1937156Y-1322120D01*
X1932279Y-1319072D01*
X1926793Y-1317142D01*
X1920493Y-1316431D01*
X1785162Y-1316431D01*
X1781251Y-1315669D01*
X1777949Y-1313484D01*
X1775764Y-1310182D01*
X1775002Y-1306271D01*
X1775764Y-1302410D01*
X1777949Y-1299108D01*
X1837893Y-1239164D01*
X1841296Y-1235405D01*
X1844293Y-1231544D01*
X1846884Y-1227429D01*
X1849170Y-1223111D01*
X1851050Y-1218590D01*
X1852472Y-1213967D01*
X1853539Y-1209192D01*
X1854200Y-1204366D01*
X1854403Y-1199286D01*
X1854403Y-1146149D01*
X1855165Y-1142238D01*
X1857400Y-1138936D01*
X1860702Y-1136751D01*
X1864563Y-1135989D01*
X1868932Y-1135989D01*
X1871522Y-1136294D01*
X1878126Y-1138072D01*
X1888286Y-1138986D01*
X1919122Y-1138986D01*
X1923745Y-1139393D01*
X1929231Y-1138986D01*
X1993138Y-1138986D01*
X1998675Y-1139393D01*
X2004161Y-1138986D01*
X2029815Y-1138986D01*
X2034743Y-1138732D01*
X2043734Y-1137361D01*
X2098598Y-1137361D01*
X2104898Y-1136650D01*
X2110384Y-1134719D01*
X2115261Y-1131671D01*
X2119376Y-1127556D01*
X2122424Y-1122680D01*
X2124354Y-1117193D01*
X2125065Y-1110894D01*
X2125065Y-1042009D01*
X2124354Y-1035710D01*
X2122424Y-1030224D01*
X2119376Y-1025347D01*
X2115261Y-1021232D01*
X2110384Y-1018184D01*
X2104898Y-1016253D01*
X2098598Y-1015542D01*
X1974748Y-1015542D01*
X1968398Y-1016253D01*
X1962962Y-1018184D01*
X1958035Y-1021232D01*
X1955139Y-1024178D01*
X1951837Y-1026363D01*
X1947925Y-1027125D01*
X1928317Y-1027125D01*
X1923745Y-1026718D01*
X1918207Y-1027125D01*
X1888286Y-1027125D01*
X1878126Y-1028039D01*
X1871522Y-1029817D01*
X1868932Y-1030173D01*
X1864563Y-1030173D01*
X1860702Y-1029360D01*
X1857400Y-1027176D01*
X1855165Y-1023874D01*
X1854403Y-1020013D01*
X1854403Y-997051D01*
X1855165Y-993140D01*
X1857400Y-989837D01*
X1860702Y-987653D01*
X1865375Y-986891D01*
X1867966Y-987196D01*
X1874570Y-988974D01*
X1884730Y-989888D01*
X1988921Y-989888D01*
X1994001Y-989634D01*
X1998878Y-989025D01*
X2003602Y-987958D01*
X2008276Y-986485D01*
X2012797Y-984605D01*
X2017115Y-982370D01*
X2021230Y-979728D01*
X2025091Y-976782D01*
X2028850Y-973328D01*
X2051812Y-950315D01*
X2055114Y-948131D01*
X2059025Y-947369D01*
X2098598Y-947369D01*
X2104898Y-946658D01*
X2110384Y-944727D01*
X2115261Y-941679D01*
X2119376Y-937564D01*
X2122424Y-932687D01*
X2124354Y-927201D01*
X2125065Y-920902D01*
X2125065Y-852017D01*
X2124354Y-845718D01*
X2122424Y-840232D01*
X2119376Y-835355D01*
X2115261Y-831240D01*
X2110384Y-828192D01*
X2104898Y-826262D01*
X2098598Y-825550D01*
X1974748Y-825550D01*
X1968398Y-826262D01*
X1962962Y-828192D01*
X1958035Y-831240D01*
X1953971Y-835355D01*
X1950872Y-840232D01*
X1948942Y-845718D01*
X1948230Y-852017D01*
X1948230Y-867867D01*
X1947468Y-871778D01*
X1945284Y-875080D01*
X1941982Y-877265D01*
X1938070Y-878027D01*
X1884730Y-878027D01*
X1874570Y-878941D01*
X1867966Y-880719D01*
X1864563Y-881075D01*
X1860702Y-880262D01*
X1857400Y-878078D01*
X1855165Y-874776D01*
X1854403Y-870915D01*
X1854403Y-825601D01*
X1855368Y-814324D01*
X1854504Y-804519D01*
X1851964Y-795070D01*
X1847799Y-786130D01*
X1842160Y-778103D01*
X1835251Y-771144D01*
X1827174Y-765505D01*
X1818284Y-761390D01*
X1808784Y-758850D01*
X1799031Y-757986D01*
X1789226Y-758850D01*
X1779727Y-761390D01*
X1770837Y-765505D01*
X1762760Y-771144D01*
X1755851Y-778103D01*
X1750212Y-786130D01*
X1746046Y-795070D01*
X1743456Y-804722D01*
X1742795Y-809904D01*
X1742592Y-815035D01*
X1742592Y-926490D01*
X1742135Y-932027D01*
X1742592Y-937514D01*
X1742592Y-1172108D01*
X1741830Y-1176020D01*
X1739595Y-1179322D01*
X1624279Y-1294638D01*
X1620977Y-1296873D01*
X1617116Y-1297635D01*
X1613204Y-1296873D01*
X1609902Y-1294638D01*
X1607718Y-1291336D01*
X1606956Y-1287475D01*
X1606956Y-1170076D01*
X1607718Y-1166164D01*
X1609902Y-1162862D01*
X1613204Y-1160678D01*
X1617116Y-1159916D01*
X1620926Y-1159916D01*
X1627276Y-1159205D01*
X1632712Y-1157274D01*
X1637588Y-1154226D01*
X1641703Y-1150112D01*
X1644802Y-1145235D01*
X1646682Y-1139748D01*
X1647393Y-1133449D01*
X1647393Y-999591D01*
X1646682Y-993241D01*
X1644802Y-987806D01*
X1641703Y-982878D01*
X1637588Y-978814D01*
X1632712Y-975715D01*
X1627276Y-973785D01*
X1620926Y-973074D01*
X1481074Y-973074D01*
X1474724Y-973785D01*
X1469288Y-975715D01*
X1464411Y-978814D01*
X1460296Y-982878D01*
X1456791Y-986942D01*
X1453032Y-988517D01*
X1448968Y-988517D01*
X1445209Y-986942D01*
X1441704Y-982878D01*
X1437589Y-978814D01*
X1432712Y-975715D01*
X1427226Y-973785D01*
X1420926Y-973074D01*
X1392580Y-973074D01*
X1392580Y-1026414D01*
X1444447Y-1026414D01*
X1448308Y-1027176D01*
X1451610Y-1029360D01*
X1453794Y-1032662D01*
X1454607Y-1036574D01*
X1454607Y-1096416D01*
X1453794Y-1100328D01*
X1451610Y-1103630D01*
X1448308Y-1105814D01*
X1444447Y-1106576D01*
X1392580Y-1106576D01*
X1392580Y-1159916D01*
X1420926Y-1159916D01*
X1427226Y-1159205D01*
X1432712Y-1157274D01*
X1437589Y-1154226D01*
X1441704Y-1150112D01*
X1445209Y-1146048D01*
X1448968Y-1144473D01*
X1453032Y-1144473D01*
X1456791Y-1146048D01*
X1460296Y-1150112D01*
X1464411Y-1154226D01*
X1469288Y-1157274D01*
X1474724Y-1159205D01*
X1481074Y-1159916D01*
X1484833Y-1159916D01*
X1488744Y-1160678D01*
X1492046Y-1162862D01*
X1494231Y-1166164D01*
X1494993Y-1170076D01*
X1494993Y-1181150D01*
X1494231Y-1185062D01*
X1492046Y-1188364D01*
X1262126Y-1418285D01*
X1258671Y-1422044D01*
X1255725Y-1425905D01*
X1253083Y-1430020D01*
X1250848Y-1434338D01*
X1248968Y-1438859D01*
X1247495Y-1443482D01*
X1246428Y-1448257D01*
X1245819Y-1453083D01*
X1245565Y-1458163D01*
X1245565Y-3054959D01*
X1245209Y-3059582D01*
X1246073Y-3069386D01*
X1248613Y-3078835D01*
X1252778Y-3087776D01*
X1258417Y-3095802D01*
X1265732Y-3103016D01*
X1267104Y-3104134D01*
X1343914Y-3180994D01*
X1345336Y-3182721D01*
X1352245Y-3189681D01*
X1360322Y-3195320D01*
X1369212Y-3199434D01*
X1378712Y-3201974D01*
X1388516Y-3202838D01*
X1398270Y-3201974D01*
X1407769Y-3199434D01*
X1416659Y-3195320D01*
X1424736Y-3189681D01*
X1431645Y-3182721D01*
X1437284Y-3174695D01*
X1441450Y-3165754D01*
X1443990Y-3156305D01*
X1444853Y-3146501D01*
X1443990Y-3136696D01*
X1441450Y-3127248D01*
X1437284Y-3118307D01*
X1431645Y-3110280D01*
X1424432Y-3103118D01*
X1423060Y-3102000D01*
X1360373Y-3039313D01*
X1358188Y-3036011D01*
X1357426Y-3032150D01*
X1357426Y-1485341D01*
X1358188Y-1481429D01*
X1360373Y-1478127D01*
X1477822Y-1360728D01*
X1481074Y-1358544D01*
X1484884Y-1357731D01*
X1488694Y-1358442D01*
X1491996Y-1360525D01*
X1494231Y-1363675D01*
X1495145Y-1367485D01*
X1495348Y-1372260D01*
X1495958Y-1377086D01*
X1497025Y-1381861D01*
X1498498Y-1386484D01*
X1500378Y-1391005D01*
X1502613Y-1395323D01*
X1505254Y-1399438D01*
X1508201Y-1403299D01*
X1511655Y-1407058D01*
X1552194Y-1447596D01*
X1554378Y-1450898D01*
X1555140Y-1454810D01*
X1555140Y-1591868D01*
X1555851Y-1598168D01*
X1557782Y-1603654D01*
X1560880Y-1608531D01*
X1563776Y-1612595D01*
X1564589Y-1616456D01*
X1563776Y-1620367D01*
X1561592Y-1623618D01*
X1558290Y-1625854D01*
X1554429Y-1626616D01*
X1436522Y-1626616D01*
X1430223Y-1627327D01*
X1424736Y-1629257D01*
X1419860Y-1632305D01*
X1415745Y-1636420D01*
X1412697Y-1641297D01*
X1410766Y-1646783D01*
X1410055Y-1653082D01*
X1410055Y-1791970D01*
X1410766Y-1798269D01*
X1412697Y-1803755D01*
X1415745Y-1808632D01*
X1419860Y-1812747D01*
X1421638Y-1813864D01*
X1424584Y-1816709D01*
X1426210Y-1820418D01*
X1426210Y-1824532D01*
X1424584Y-1828241D01*
X1421638Y-1831086D01*
X1420012Y-1832102D01*
X1415897Y-1836216D01*
X1412849Y-1841093D01*
X1410919Y-1846580D01*
X1410208Y-1852879D01*
X1410208Y-1991766D01*
X1410919Y-1998065D01*
X1412849Y-2003552D01*
X1415897Y-2008428D01*
X1420012Y-2012543D01*
X1421790Y-2013661D01*
X1424736Y-2016455D01*
X1426311Y-2020214D01*
X1426311Y-2024278D01*
X1424736Y-2028037D01*
X1421790Y-2030831D01*
X1419961Y-2032000D01*
X1415846Y-2036064D01*
X1412798Y-2040991D01*
X1410868Y-2046427D01*
X1410157Y-2052777D01*
X1410157Y-2191613D01*
X1410868Y-2197963D01*
X1412798Y-2203399D01*
X1415846Y-2208326D01*
X1419961Y-2212390D01*
X1421892Y-2213610D01*
X1424838Y-2216454D01*
X1426464Y-2220214D01*
X1426464Y-2224278D01*
X1424838Y-2228037D01*
X1421892Y-2230831D01*
X1419961Y-2232050D01*
X1415846Y-2236165D01*
X1412798Y-2241042D01*
X1410868Y-2246528D01*
X1410157Y-2252827D01*
X1410157Y-2391714D01*
X1410868Y-2398014D01*
X1412798Y-2403500D01*
X1415846Y-2408377D01*
X1419961Y-2412492D01*
X1421790Y-2413609D01*
X1424736Y-2416454D01*
X1426311Y-2420213D01*
X1426311Y-2424277D01*
X1424736Y-2428036D01*
X1421790Y-2430830D01*
X1419961Y-2431999D01*
X1415846Y-2436063D01*
X1412798Y-2440990D01*
X1410868Y-2446426D01*
X1410157Y-2452776D01*
X1410157Y-2591612D01*
X1410868Y-2597962D01*
X1412798Y-2603398D01*
X1415846Y-2608326D01*
X1419961Y-2612390D01*
X1421790Y-2613558D01*
X1424736Y-2616403D01*
X1426362Y-2620111D01*
X1426362Y-2624226D01*
X1424736Y-2627934D01*
X1421790Y-2630779D01*
X1419860Y-2631998D01*
X1415796Y-2636062D01*
X1412697Y-2640990D01*
X1410766Y-2646426D01*
X1410055Y-2652776D01*
X1410055Y-2791612D01*
X1410766Y-2797962D01*
X1412697Y-2803398D01*
X1415796Y-2808325D01*
X1419860Y-2812389D01*
X1424787Y-2815488D01*
X1430223Y-2817368D01*
X1436573Y-2818079D01*
X1554480Y-2818079D01*
X1558391Y-2818892D01*
X1561642Y-2821076D01*
X1563878Y-2824378D01*
X1564640Y-2828239D01*
X1563878Y-2832150D01*
X1560880Y-2836265D01*
X1557782Y-2841142D01*
X1555851Y-2846628D01*
X1555140Y-2852928D01*
X1555140Y-2908503D01*
X1609699Y-2908503D01*
X1609699Y-2825292D01*
X1610563Y-2821228D01*
X1612950Y-2817876D01*
X1617218Y-2815488D01*
X1622094Y-2812389D01*
X1626209Y-2808325D01*
X1629257Y-2803398D01*
X1631188Y-2797962D01*
X1631899Y-2791612D01*
X1631899Y-2652776D01*
X1631188Y-2646426D01*
X1629257Y-2640990D01*
X1626209Y-2636062D01*
X1622094Y-2631998D01*
X1620215Y-2630830D01*
X1617268Y-2627985D01*
X1615694Y-2624277D01*
X1615694Y-2620162D01*
X1617268Y-2616454D01*
X1620215Y-2613609D01*
X1622196Y-2612390D01*
X1626260Y-2608326D01*
X1629359Y-2603398D01*
X1631238Y-2597962D01*
X1631950Y-2591612D01*
X1631950Y-2452776D01*
X1631238Y-2446426D01*
X1629359Y-2440990D01*
X1626260Y-2436063D01*
X1622196Y-2431999D01*
X1620316Y-2430830D01*
X1617370Y-2428036D01*
X1615795Y-2424277D01*
X1615795Y-2420213D01*
X1617370Y-2416454D01*
X1620316Y-2413609D01*
X1622196Y-2412492D01*
X1626260Y-2408377D01*
X1629359Y-2403500D01*
X1631238Y-2398014D01*
X1631950Y-2391714D01*
X1631950Y-2252827D01*
X1631238Y-2246528D01*
X1629359Y-2241042D01*
X1626260Y-2236165D01*
X1622196Y-2232050D01*
X1620215Y-2230831D01*
X1617268Y-2228037D01*
X1615694Y-2224278D01*
X1615694Y-2220214D01*
X1617268Y-2216454D01*
X1620215Y-2213610D01*
X1622196Y-2212390D01*
X1626260Y-2208326D01*
X1629359Y-2203399D01*
X1631238Y-2197963D01*
X1631950Y-2191613D01*
X1631950Y-2052777D01*
X1631238Y-2046427D01*
X1629359Y-2040991D01*
X1626260Y-2036064D01*
X1622196Y-2032000D01*
X1620418Y-2030882D01*
X1617472Y-2028037D01*
X1615846Y-2024329D01*
X1615846Y-2020214D01*
X1617472Y-2016506D01*
X1620418Y-2013661D01*
X1622247Y-2012543D01*
X1626311Y-2008428D01*
X1629410Y-2003552D01*
X1631289Y-1998065D01*
X1632000Y-1991766D01*
X1632000Y-1852879D01*
X1631289Y-1846580D01*
X1629410Y-1841093D01*
X1626311Y-1836216D01*
X1622247Y-1832102D01*
X1620418Y-1830984D01*
X1617472Y-1828139D01*
X1615846Y-1824431D01*
X1615846Y-1820316D01*
X1617472Y-1816607D01*
X1620418Y-1813763D01*
X1622094Y-1812747D01*
X1626158Y-1808632D01*
X1629257Y-1803755D01*
X1631137Y-1798269D01*
X1631848Y-1791970D01*
X1631848Y-1653082D01*
X1631137Y-1646783D01*
X1629257Y-1641297D01*
X1626158Y-1636420D01*
X1623212Y-1632407D01*
X1622450Y-1628495D01*
X1623212Y-1624584D01*
X1625447Y-1621332D01*
X1628749Y-1619097D01*
X1632610Y-1618335D01*
X1720494Y-1618335D01*
X1726793Y-1617624D01*
X1732280Y-1615694D01*
X1737156Y-1612646D01*
X1741271Y-1608531D01*
X1742490Y-1606600D01*
X1745284Y-1603654D01*
X1749043Y-1602079D01*
X1753107Y-1602079D01*
X1756867Y-1603654D01*
X1759712Y-1606600D01*
X1760880Y-1608480D01*
X1764944Y-1612544D01*
X1769872Y-1615643D01*
X1775307Y-1617522D01*
X1781606Y-1618234D01*
X1920493Y-1618234D01*
X1926793Y-1617522D01*
X1932279Y-1615643D01*
X1937156Y-1612544D01*
X1941271Y-1608480D01*
X1942439Y-1606550D01*
X1945284Y-1603603D01*
X1949043Y-1602028D01*
X1953107Y-1602028D01*
X1956866Y-1603603D01*
X1959660Y-1606550D01*
X1960880Y-1608480D01*
X1964943Y-1612544D01*
X1969871Y-1615643D01*
X1975307Y-1617522D01*
X1981606Y-1618234D01*
X2120493Y-1618234D01*
X2126792Y-1617522D01*
X2132279Y-1615643D01*
X2137156Y-1612544D01*
X2141270Y-1608480D01*
X2142439Y-1606550D01*
X2145284Y-1603603D01*
X2149043Y-1602028D01*
X2153107Y-1602028D01*
X2156866Y-1603603D01*
X2159660Y-1606550D01*
X2160879Y-1608480D01*
X2164943Y-1612544D01*
X2169871Y-1615643D01*
X2175306Y-1617522D01*
X2181606Y-1618234D01*
X2320493Y-1618234D01*
X2326792Y-1617522D01*
X2332278Y-1615643D01*
X2337155Y-1612544D01*
X2341270Y-1608480D01*
X2342438Y-1606550D01*
X2345283Y-1603603D01*
X2349042Y-1602028D01*
X2353106Y-1602028D01*
X2356866Y-1603603D01*
X2359660Y-1606550D01*
X2360879Y-1608480D01*
X2364943Y-1612544D01*
X2369870Y-1615643D01*
X2375306Y-1617522D01*
X2381656Y-1618234D01*
X2520492Y-1618234D01*
X2526792Y-1617522D01*
X2532278Y-1615643D01*
X2537155Y-1612544D01*
X2541270Y-1608480D01*
X2542438Y-1606550D01*
X2545283Y-1603603D01*
X2549042Y-1602028D01*
X2553106Y-1602028D01*
X2556865Y-1603603D01*
X2559659Y-1606550D01*
X2560878Y-1608480D01*
X2564942Y-1612544D01*
X2569870Y-1615643D01*
X2575306Y-1617522D01*
X2581656Y-1618234D01*
X2720492Y-1618234D01*
X2726791Y-1617522D01*
X2732278Y-1615643D01*
X2737154Y-1612544D01*
X2741269Y-1608480D01*
X2742438Y-1606550D01*
X2745282Y-1603603D01*
X2749042Y-1602028D01*
X2753106Y-1602028D01*
X2756865Y-1603603D01*
X2759659Y-1606550D01*
X2760878Y-1608480D01*
X2764942Y-1612544D01*
X2769870Y-1615643D01*
X2775305Y-1617522D01*
X2781655Y-1618234D01*
X2920492Y-1618234D01*
X2926791Y-1617522D01*
X2932277Y-1615643D01*
X2937154Y-1612544D01*
X2941269Y-1608480D01*
X2942437Y-1606550D01*
X2945282Y-1603603D01*
X2949041Y-1602028D01*
X2953105Y-1602028D01*
X2956864Y-1603603D01*
X2959658Y-1606550D01*
X2960878Y-1608480D01*
X2964942Y-1612544D01*
X2969869Y-1615643D01*
X2975305Y-1617522D01*
X2981655Y-1618234D01*
X3120491Y-1618234D01*
X3125114Y-1617726D01*
X3129330Y-1618132D01*
X3132988Y-1620266D01*
X3135528Y-1623669D01*
X3136392Y-1627835D01*
X3136392Y-2817063D01*
X3135528Y-2821228D01*
X3132988Y-2824683D01*
X3129330Y-2826766D01*
X3125114Y-2827172D01*
X3120491Y-2826664D01*
X2981655Y-2826664D01*
X2975305Y-2827375D01*
X2969869Y-2829306D01*
X2964942Y-2832354D01*
X2960878Y-2836468D01*
X2959658Y-2838348D01*
X2956864Y-2841294D01*
X2953105Y-2842869D01*
X2949041Y-2842869D01*
X2945282Y-2841294D01*
X2942488Y-2838348D01*
X2941269Y-2836418D01*
X2937154Y-2832354D01*
X2932277Y-2829255D01*
X2926791Y-2827375D01*
X2920492Y-2826664D01*
X2781655Y-2826664D01*
X2775305Y-2827375D01*
X2769870Y-2829255D01*
X2764942Y-2832354D01*
X2760878Y-2836418D01*
X2759659Y-2838348D01*
X2756814Y-2841294D01*
X2753106Y-2842869D01*
X2748991Y-2842869D01*
X2745282Y-2841294D01*
X2742438Y-2838348D01*
X2741269Y-2836468D01*
X2737154Y-2832354D01*
X2732278Y-2829306D01*
X2726791Y-2827375D01*
X2720492Y-2826664D01*
X2581656Y-2826664D01*
X2575306Y-2827375D01*
X2569870Y-2829306D01*
X2564942Y-2832354D01*
X2560878Y-2836468D01*
X2559710Y-2838297D01*
X2556865Y-2841244D01*
X2553106Y-2842869D01*
X2549042Y-2842869D01*
X2545283Y-2841244D01*
X2542489Y-2838297D01*
X2541270Y-2836367D01*
X2537155Y-2832303D01*
X2532278Y-2829204D01*
X2526792Y-2827324D01*
X2520492Y-2826613D01*
X2381656Y-2826613D01*
X2375306Y-2827324D01*
X2369870Y-2829204D01*
X2364943Y-2832303D01*
X2360879Y-2836367D01*
X2359660Y-2838297D01*
X2356815Y-2841244D01*
X2353056Y-2842869D01*
X2348992Y-2842869D01*
X2345232Y-2841244D01*
X2342438Y-2838297D01*
X2341270Y-2836468D01*
X2337155Y-2832354D01*
X2332278Y-2829306D01*
X2326792Y-2827375D01*
X2320493Y-2826664D01*
X2181606Y-2826664D01*
X2175306Y-2827375D01*
X2169871Y-2829306D01*
X2164943Y-2832354D01*
X2160879Y-2836468D01*
X2159660Y-2838399D01*
X2156815Y-2841345D01*
X2153056Y-2842920D01*
X2148992Y-2842920D01*
X2145233Y-2841345D01*
X2142439Y-2838399D01*
X2141270Y-2836519D01*
X2137156Y-2832455D01*
X2132279Y-2829356D01*
X2126792Y-2827477D01*
X2120493Y-2826766D01*
X1981606Y-2826766D01*
X1975307Y-2827477D01*
X1969871Y-2829356D01*
X1964943Y-2832455D01*
X1960880Y-2836519D01*
X1959711Y-2838348D01*
X1956866Y-2841294D01*
X1953158Y-2842920D01*
X1949043Y-2842920D01*
X1945335Y-2841294D01*
X1942490Y-2838348D01*
X1941271Y-2836418D01*
X1937156Y-2832303D01*
X1932279Y-2829255D01*
X1926793Y-2827324D01*
X1920493Y-2826613D01*
X1781606Y-2826613D01*
X1775307Y-2827324D01*
X1769872Y-2829255D01*
X1764944Y-2832303D01*
X1760880Y-2836418D01*
X1759712Y-2838246D01*
X1756918Y-2841193D01*
X1753158Y-2842768D01*
X1749094Y-2842768D01*
X1745335Y-2841193D01*
X1742490Y-2838246D01*
X1741271Y-2836265D01*
X1737156Y-2832150D01*
X1732280Y-2829102D01*
X1726793Y-2827172D01*
X1720494Y-2826461D01*
X1692402Y-2826461D01*
X1692402Y-2908503D01*
X1744980Y-2908503D01*
X1748891Y-2909316D01*
X1752193Y-2911500D01*
X1754378Y-2914802D01*
X1755139Y-2918663D01*
X1755139Y-3036062D01*
X1754378Y-3039973D01*
X1752193Y-3043224D01*
X1748891Y-3045460D01*
X1744980Y-3046222D01*
X1692402Y-3046222D01*
X1692402Y-3128264D01*
X1720494Y-3128264D01*
X1726793Y-3127552D01*
X1732280Y-3125673D01*
X1737156Y-3122574D01*
X1741271Y-3118459D01*
X1742389Y-3116681D01*
X1745234Y-3113735D01*
X1748993Y-3112109D01*
X1753057Y-3112109D01*
X1756816Y-3113735D01*
X1759610Y-3116681D01*
X1760880Y-3118612D01*
X1764944Y-3122726D01*
X1769872Y-3125825D01*
X1774037Y-3127298D01*
X1777542Y-3129381D01*
X1779930Y-3132683D01*
X1780844Y-3136646D01*
X1780133Y-3140659D01*
X1777898Y-3144062D01*
X1738630Y-3183331D01*
X1735175Y-3187090D01*
X1732229Y-3190951D01*
X1729587Y-3195066D01*
X1727352Y-3199384D01*
X1725472Y-3203905D01*
X1723999Y-3208528D01*
X1722932Y-3213303D01*
X1722323Y-3218129D01*
X1722069Y-3223209D01*
X1722069Y-3283762D01*
X1722983Y-3293922D01*
X1724761Y-3300526D01*
X1725117Y-3303117D01*
X1725117Y-3311855D01*
X1725828Y-3318154D01*
X1727860Y-3324047D01*
X1728419Y-3327400D01*
X1727860Y-3330752D01*
X1725828Y-3336645D01*
X1725117Y-3342944D01*
X1725117Y-3350209D01*
X1758137Y-3350209D01*
X1759000Y-3345332D01*
X1761439Y-3341928D01*
X1765046Y-3339795D01*
X1769211Y-3339337D01*
X1778000Y-3340100D01*
X1786788Y-3339337D01*
X1790954Y-3339795D01*
X1794560Y-3341928D01*
X1796999Y-3345332D01*
X1797862Y-3350209D01*
X1830933Y-3350209D01*
X1830933Y-3342944D01*
X1830171Y-3336645D01*
X1828139Y-3330752D01*
X1827580Y-3327400D01*
X1828139Y-3324047D01*
X1830171Y-3318154D01*
X1830933Y-3311855D01*
X1830933Y-3303117D01*
X1831238Y-3300526D01*
X1833016Y-3293922D01*
X1833930Y-3283762D01*
X1833930Y-3250387D01*
X1834692Y-3246475D01*
X1836877Y-3243173D01*
X1890522Y-3189528D01*
X1893976Y-3185769D01*
X1896922Y-3181908D01*
X1899564Y-3177794D01*
X1901799Y-3173476D01*
X1903679Y-3168954D01*
X1905152Y-3164332D01*
X1906219Y-3159556D01*
X1906828Y-3154730D01*
X1907082Y-3149650D01*
X1907082Y-3138576D01*
X1907844Y-3134715D01*
X1910029Y-3131413D01*
X1913331Y-3129229D01*
X1917242Y-3128416D01*
X1920493Y-3128416D01*
X1926793Y-3127705D01*
X1932279Y-3125825D01*
X1937156Y-3122726D01*
X1941271Y-3118612D01*
X1942439Y-3116783D01*
X1945233Y-3113836D01*
X1948992Y-3112262D01*
X1953056Y-3112262D01*
X1956816Y-3113836D01*
X1959610Y-3116783D01*
X1960880Y-3118764D01*
X1964943Y-3122879D01*
X1970836Y-3126536D01*
X1973884Y-3129534D01*
X1975408Y-3133496D01*
X1976069Y-3138271D01*
X1976069Y-3283661D01*
X1976983Y-3293821D01*
X1978761Y-3300425D01*
X1979117Y-3303015D01*
X1979117Y-3311855D01*
X1979828Y-3318154D01*
X1981860Y-3324047D01*
X1982419Y-3327400D01*
X1981860Y-3330752D01*
X1979828Y-3336645D01*
X1979117Y-3342944D01*
X1979117Y-3349904D01*
X1978761Y-3352546D01*
X1976526Y-3360877D01*
X1975662Y-3370681D01*
X1976526Y-3380486D01*
X1978761Y-3388817D01*
X1979117Y-3391458D01*
X1979117Y-3398418D01*
X1979828Y-3404717D01*
X1981707Y-3410153D01*
X1984806Y-3415080D01*
X1988870Y-3419144D01*
X1993798Y-3422243D01*
X1999234Y-3424174D01*
X2005584Y-3424885D01*
X2015998Y-3424885D01*
X2022195Y-3426155D01*
X2032000Y-3427018D01*
X2037588Y-3426612D01*
X2138730Y-3428441D01*
X2143506Y-3428847D01*
X2150872Y-3428187D01*
X2154936Y-3428644D01*
X2158492Y-3430727D01*
X2160981Y-3434029D01*
X2161895Y-3437991D01*
X2161184Y-3442055D01*
X2158949Y-3445510D01*
X2093518Y-3510889D01*
X2091537Y-3512464D01*
X2089251Y-3513480D01*
X2082596Y-3515461D01*
X2069592Y-3521201D01*
X2057450Y-3528568D01*
X2046325Y-3537407D01*
X2036470Y-3547618D01*
X2027986Y-3558997D01*
X2020976Y-3571392D01*
X2015642Y-3584549D01*
X2012035Y-3598316D01*
X2010257Y-3612387D01*
X2010257Y-3626612D01*
X2012035Y-3640683D01*
X2015642Y-3654450D01*
X2020976Y-3667607D01*
X2027986Y-3680002D01*
X2036470Y-3691382D01*
X2046325Y-3701592D01*
X2057450Y-3710432D01*
X2069592Y-3717798D01*
X2082596Y-3723589D01*
X2096211Y-3727602D01*
X2110232Y-3729888D01*
X2124456Y-3730345D01*
X2138578Y-3728974D01*
X2152446Y-3725824D01*
X2165807Y-3720896D01*
X2178405Y-3714343D01*
X2190038Y-3706215D01*
X2200554Y-3696665D01*
X2209749Y-3685844D01*
X2217521Y-3673906D01*
X2223668Y-3661105D01*
X2228138Y-3647643D01*
X2230882Y-3633673D01*
X2231796Y-3619500D01*
X2230882Y-3605326D01*
X2228138Y-3591356D01*
X2223668Y-3577894D01*
X2217521Y-3565093D01*
X2214118Y-3559860D01*
X2212746Y-3556711D01*
X2212543Y-3553256D01*
X2213457Y-3549954D01*
X2215438Y-3547110D01*
X2246223Y-3516325D01*
X2249525Y-3514140D01*
X2253437Y-3513378D01*
X2301494Y-3513378D01*
X2305558Y-3514191D01*
X2308910Y-3516629D01*
X2311095Y-3520135D01*
X2311603Y-3524250D01*
X2310485Y-3528263D01*
X2307793Y-3531463D01*
X2300325Y-3537407D01*
X2290470Y-3547618D01*
X2281986Y-3558997D01*
X2274976Y-3571392D01*
X2269642Y-3584549D01*
X2266035Y-3598316D01*
X2264257Y-3612387D01*
X2264257Y-3626612D01*
X2266035Y-3640683D01*
X2269642Y-3654450D01*
X2274976Y-3667607D01*
X2281986Y-3680002D01*
X2290470Y-3691382D01*
X2300325Y-3701592D01*
X2311450Y-3710432D01*
X2323592Y-3717798D01*
X2336596Y-3723589D01*
X2350211Y-3727602D01*
X2364232Y-3729888D01*
X2378456Y-3730345D01*
X2392578Y-3728974D01*
X2406446Y-3725824D01*
X2419807Y-3720896D01*
X2432405Y-3714343D01*
X2444038Y-3706215D01*
X2454554Y-3696665D01*
X2463749Y-3685844D01*
X2471521Y-3673906D01*
X2477668Y-3661105D01*
X2482138Y-3647643D01*
X2484882Y-3633673D01*
X2485796Y-3619500D01*
X2484882Y-3605326D01*
X2483205Y-3596640D01*
X2483104Y-3593337D01*
X2484069Y-3590188D01*
X2485948Y-3587496D01*
X2511907Y-3561537D01*
X2515209Y-3559352D01*
X2519070Y-3558540D01*
X2522982Y-3559301D01*
X2526284Y-3561486D01*
X2528468Y-3564788D01*
X2529281Y-3568649D01*
X2528519Y-3572510D01*
X2523642Y-3584549D01*
X2520035Y-3598316D01*
X2518257Y-3612387D01*
X2518257Y-3626612D01*
X2520035Y-3640683D01*
X2523642Y-3654450D01*
X2528976Y-3667607D01*
X2535986Y-3680002D01*
X2544470Y-3691382D01*
X2554325Y-3701592D01*
X2565450Y-3710432D01*
X2577592Y-3717798D01*
X2590596Y-3723589D01*
X2604211Y-3727602D01*
X2618232Y-3729888D01*
X2632456Y-3730345D01*
X2646578Y-3728974D01*
X2660446Y-3725824D01*
X2673807Y-3720896D01*
X2686405Y-3714343D01*
X2698038Y-3706215D01*
X2708554Y-3696665D01*
X2717749Y-3685844D01*
X2725521Y-3673906D01*
X2731668Y-3661105D01*
X2736138Y-3647643D01*
X2738882Y-3633673D01*
X2739745Y-3619246D01*
X2740406Y-3615029D01*
X2742742Y-3611422D01*
X2755696Y-3598468D01*
X2759202Y-3596182D01*
X2763316Y-3595471D01*
X2767330Y-3596538D01*
X2770632Y-3599078D01*
X2772613Y-3602786D01*
X2772968Y-3606952D01*
X2772257Y-3612387D01*
X2772257Y-3626612D01*
X2774035Y-3640683D01*
X2777642Y-3654450D01*
X2782976Y-3667607D01*
X2789986Y-3680002D01*
X2798470Y-3691382D01*
X2808325Y-3701592D01*
X2819450Y-3710432D01*
X2831592Y-3717798D01*
X2844596Y-3723589D01*
X2858211Y-3727602D01*
X2872232Y-3729888D01*
X2886456Y-3730345D01*
X2900578Y-3728974D01*
X2914446Y-3725824D01*
X2927807Y-3720896D01*
X2940405Y-3714343D01*
X2952038Y-3706215D01*
X2962554Y-3696665D01*
X2971749Y-3685844D01*
X2979521Y-3673906D01*
X2985668Y-3661105D01*
X2990138Y-3647643D01*
X2992882Y-3633673D01*
X2993796Y-3619500D01*
X2992882Y-3605326D01*
X2990138Y-3591356D01*
X2985668Y-3577894D01*
X2979521Y-3565093D01*
X2971749Y-3553155D01*
X2962554Y-3542334D01*
X2952038Y-3532784D01*
X2940405Y-3524656D01*
X2931566Y-3520084D01*
X2928162Y-3517188D01*
X2926334Y-3513124D01*
X2926384Y-3508654D01*
X2928416Y-3504641D01*
X2931922Y-3501898D01*
X2936290Y-3500932D01*
X3073196Y-3500932D01*
X3078175Y-3500678D01*
X3084880Y-3499662D01*
X3089046Y-3499916D01*
X3092704Y-3501796D01*
X3095193Y-3504742D01*
X3095142Y-3500882D01*
X3096768Y-3497072D01*
X3099816Y-3494227D01*
X3105556Y-3490722D01*
X3109315Y-3487826D01*
X3113074Y-3484372D01*
X3216910Y-3380536D01*
X3220364Y-3376777D01*
X3223310Y-3372916D01*
X3225952Y-3368801D01*
X3228187Y-3364484D01*
X3230067Y-3359962D01*
X3231540Y-3355340D01*
X3232607Y-3350564D01*
X3233216Y-3345738D01*
X3233470Y-3340658D01*
X3233470Y-3289960D01*
X3233877Y-3284474D01*
X3233013Y-3274669D01*
X3230473Y-3265220D01*
X3226358Y-3256279D01*
X3220720Y-3248253D01*
X3212033Y-3239922D01*
X3150006Y-3178098D01*
X3148177Y-3175762D01*
X3141218Y-3168802D01*
X3133191Y-3163163D01*
X3124250Y-3159048D01*
X3114802Y-3156508D01*
X3104997Y-3155645D01*
X3095193Y-3156508D01*
X3085744Y-3159048D01*
X3076803Y-3163163D01*
X3068777Y-3168802D01*
X3061817Y-3175762D01*
X3056178Y-3183788D01*
X3052064Y-3192729D01*
X3049524Y-3202178D01*
X3048660Y-3211982D01*
X3049524Y-3221786D01*
X3052064Y-3231235D01*
X3056178Y-3240176D01*
X3061817Y-3248152D01*
X3118662Y-3304692D01*
X3120847Y-3307994D01*
X3121609Y-3313480D01*
X3120847Y-3317392D01*
X3118662Y-3320694D01*
X3053232Y-3386124D01*
X3049930Y-3388309D01*
X3046018Y-3389071D01*
X2830271Y-3389071D01*
X2825699Y-3389274D01*
X2821736Y-3388664D01*
X2818282Y-3386531D01*
X2815996Y-3383229D01*
X2815132Y-3379266D01*
X2815844Y-3375304D01*
X2818079Y-3371951D01*
X3058617Y-3131464D01*
X3061868Y-3129280D01*
X3065780Y-3128467D01*
X3120491Y-3128467D01*
X3126790Y-3127756D01*
X3132277Y-3125876D01*
X3137154Y-3122777D01*
X3142132Y-3117748D01*
X3145332Y-3115564D01*
X3149142Y-3114751D01*
X3152952Y-3115411D01*
X3156254Y-3117443D01*
X3158540Y-3120593D01*
X3164840Y-3133547D01*
X3176371Y-3152495D01*
X3187801Y-3167938D01*
X3202584Y-3184499D01*
X3218942Y-3199485D01*
X3239058Y-3214420D01*
X3255568Y-3224326D01*
X3275584Y-3233928D01*
X3278276Y-3235045D01*
X3299155Y-3242360D01*
X3317849Y-3247034D01*
X3342640Y-3250742D01*
X3361588Y-3251657D01*
X3366465Y-3251403D01*
X3799332Y-3251301D01*
X3817721Y-3252266D01*
X3834637Y-3254806D01*
X3851198Y-3259023D01*
X3867251Y-3264814D01*
X3882644Y-3272129D01*
X3897274Y-3280968D01*
X3910990Y-3291179D01*
X3923588Y-3302711D01*
X3935018Y-3315360D01*
X3945178Y-3329127D01*
X3953916Y-3343808D01*
X3961180Y-3359251D01*
X3966870Y-3375355D01*
X3970985Y-3391915D01*
X3973423Y-3408832D01*
X3974084Y-3426002D01*
X3974084Y-3799128D01*
X3973118Y-3817569D01*
X3970578Y-3834434D01*
X3966413Y-3850995D01*
X3960571Y-3867048D01*
X3953256Y-3882491D01*
X3944416Y-3897122D01*
X3934206Y-3910787D01*
X3922725Y-3923385D01*
X3910025Y-3934866D01*
X3896258Y-3944975D01*
X3881577Y-3953713D01*
X3866134Y-3960977D01*
X3850030Y-3966667D01*
X3833469Y-3970782D01*
X3816553Y-3973220D01*
X3799128Y-3974084D01*
G37*

%LPC*%
G36*
X1076045Y-3731818D02*
G01*
X1193952Y-3731818D01*
X1200251Y-3731107D01*
X1205738Y-3729177D01*
X1210614Y-3726078D01*
X1214729Y-3722014D01*
X1217777Y-3717086D01*
X1219708Y-3711651D01*
X1220419Y-3705301D01*
X1220419Y-3685590D01*
X1221181Y-3681679D01*
X1223416Y-3678377D01*
X1226667Y-3676192D01*
X1230579Y-3675430D01*
X1491843Y-3675430D01*
X1495704Y-3676192D01*
X1499006Y-3678377D01*
X1501241Y-3681679D01*
X1502003Y-3685590D01*
X1502003Y-3703929D01*
X1502714Y-3710228D01*
X1504594Y-3715715D01*
X1507693Y-3720592D01*
X1511808Y-3724706D01*
X1516684Y-3727805D01*
X1522171Y-3729685D01*
X1528470Y-3730396D01*
X1697329Y-3730396D01*
X1703628Y-3729685D01*
X1709115Y-3727805D01*
X1713992Y-3724706D01*
X1718106Y-3720592D01*
X1721205Y-3715715D01*
X1723085Y-3710228D01*
X1723796Y-3703929D01*
X1723796Y-3535070D01*
X1723085Y-3528771D01*
X1721205Y-3523284D01*
X1718106Y-3518408D01*
X1713992Y-3514293D01*
X1709115Y-3511194D01*
X1703628Y-3509314D01*
X1697329Y-3508603D01*
X1675587Y-3508603D01*
X1671675Y-3507841D01*
X1668373Y-3505606D01*
X1666189Y-3502304D01*
X1665427Y-3498443D01*
X1665427Y-3369564D01*
X1664716Y-3363264D01*
X1662785Y-3357778D01*
X1659686Y-3352901D01*
X1655622Y-3348786D01*
X1650695Y-3345687D01*
X1645259Y-3343808D01*
X1638909Y-3343097D01*
X1580083Y-3343097D01*
X1573733Y-3343808D01*
X1568297Y-3345687D01*
X1563370Y-3348786D01*
X1559306Y-3352901D01*
X1556207Y-3357778D01*
X1554276Y-3363264D01*
X1553565Y-3369564D01*
X1553565Y-3498443D01*
X1552803Y-3502304D01*
X1550619Y-3505606D01*
X1547317Y-3507841D01*
X1543405Y-3508603D01*
X1528470Y-3508603D01*
X1522171Y-3509314D01*
X1516684Y-3511194D01*
X1511808Y-3514293D01*
X1507693Y-3518408D01*
X1504594Y-3523284D01*
X1502714Y-3528771D01*
X1502003Y-3535070D01*
X1502003Y-3553409D01*
X1501241Y-3557320D01*
X1499006Y-3560622D01*
X1495704Y-3562807D01*
X1491843Y-3563569D01*
X1230579Y-3563569D01*
X1226667Y-3562807D01*
X1223416Y-3560622D01*
X1221181Y-3557320D01*
X1220419Y-3553409D01*
X1220419Y-3533648D01*
X1219708Y-3527348D01*
X1217777Y-3521862D01*
X1214729Y-3516985D01*
X1210614Y-3512870D01*
X1205738Y-3509822D01*
X1200251Y-3507892D01*
X1193952Y-3507181D01*
X1076045Y-3507181D01*
X1069746Y-3507892D01*
X1064310Y-3509822D01*
X1059383Y-3512870D01*
X1055319Y-3516985D01*
X1052220Y-3521862D01*
X1050290Y-3527348D01*
X1049578Y-3533648D01*
X1049578Y-3705301D01*
X1050290Y-3711651D01*
X1052220Y-3717086D01*
X1055319Y-3722014D01*
X1059383Y-3726078D01*
X1064310Y-3729177D01*
X1069746Y-3731107D01*
G37*
G36*
X787044Y-3731818D02*
G01*
X904951Y-3731818D01*
X911250Y-3731107D01*
X916686Y-3729177D01*
X921613Y-3726078D01*
X925677Y-3722014D01*
X928776Y-3717086D01*
X930706Y-3711651D01*
X931418Y-3705301D01*
X931418Y-3533648D01*
X930706Y-3527348D01*
X928776Y-3521862D01*
X925677Y-3516985D01*
X921613Y-3512870D01*
X916686Y-3509822D01*
X911250Y-3507892D01*
X904951Y-3507181D01*
X787044Y-3507181D01*
X780796Y-3507892D01*
X773836Y-3510432D01*
X770077Y-3511042D01*
X766318Y-3510229D01*
X763168Y-3508095D01*
X621842Y-3366719D01*
X619607Y-3363366D01*
X618845Y-3359404D01*
X619709Y-3355492D01*
X622046Y-3352190D01*
X625449Y-3350056D01*
X628091Y-3349091D01*
X638200Y-3343554D01*
X647446Y-3336645D01*
X655624Y-3328466D01*
X662533Y-3319221D01*
X667918Y-3309365D01*
X610819Y-3309365D01*
X610819Y-3332479D01*
X609904Y-3336696D01*
X607314Y-3340150D01*
X603504Y-3342233D01*
X599186Y-3342538D01*
X595122Y-3340963D01*
X589991Y-3337661D01*
X585724Y-3335426D01*
X581202Y-3333546D01*
X576580Y-3332073D01*
X571804Y-3331006D01*
X566978Y-3330397D01*
X561898Y-3330143D01*
X518312Y-3330143D01*
X514400Y-3329381D01*
X511098Y-3327196D01*
X508914Y-3323894D01*
X508152Y-3319983D01*
X508152Y-3309365D01*
X483565Y-3309365D01*
X479653Y-3308553D01*
X476351Y-3306368D01*
X402285Y-3232302D01*
X400100Y-3229000D01*
X399338Y-3225088D01*
X399338Y-3061258D01*
X400151Y-3057245D01*
X402437Y-3053892D01*
X405892Y-3051759D01*
X409905Y-3051098D01*
X415239Y-3051352D01*
X467817Y-3051352D01*
X472033Y-3052216D01*
X475488Y-3054807D01*
X477570Y-3058566D01*
X477875Y-3062833D01*
X474319Y-3072688D01*
X473608Y-3079038D01*
X473608Y-3092094D01*
X530656Y-3092094D01*
X530656Y-3069590D01*
X531418Y-3065678D01*
X533654Y-3062376D01*
X536905Y-3060192D01*
X540816Y-3059430D01*
X608177Y-3059430D01*
X612089Y-3060192D01*
X615391Y-3062376D01*
X617575Y-3065678D01*
X618337Y-3069590D01*
X618337Y-3092094D01*
X675436Y-3092094D01*
X675436Y-3079038D01*
X674725Y-3072688D01*
X672795Y-3067253D01*
X669137Y-3061360D01*
X667715Y-3057855D01*
X667715Y-3054096D01*
X669137Y-3050590D01*
X672795Y-3044748D01*
X674725Y-3039262D01*
X675436Y-3032963D01*
X675436Y-2959658D01*
X676198Y-2955747D01*
X678383Y-2952445D01*
X681685Y-2950260D01*
X685596Y-2949498D01*
X740206Y-2949498D01*
X744118Y-2950260D01*
X747420Y-2952445D01*
X826516Y-3031540D01*
X828700Y-3034842D01*
X829462Y-3038703D01*
X828700Y-3042615D01*
X826516Y-3045917D01*
X823214Y-3048101D01*
X819200Y-3048863D01*
X819200Y-3090062D01*
X866952Y-3090062D01*
X870813Y-3090824D01*
X874115Y-3093008D01*
X876300Y-3096310D01*
X877112Y-3100222D01*
X877112Y-3135782D01*
X876300Y-3139694D01*
X874115Y-3142945D01*
X870813Y-3145180D01*
X866952Y-3145942D01*
X819200Y-3145942D01*
X819200Y-3187090D01*
X832408Y-3187090D01*
X838758Y-3186379D01*
X844194Y-3184499D01*
X849121Y-3181400D01*
X853186Y-3177286D01*
X856284Y-3172409D01*
X858418Y-3166313D01*
X860552Y-3162757D01*
X863955Y-3160369D01*
X868019Y-3159506D01*
X872083Y-3160369D01*
X875436Y-3162757D01*
X877569Y-3166313D01*
X879703Y-3172409D01*
X882802Y-3177286D01*
X886866Y-3181400D01*
X891794Y-3184499D01*
X897229Y-3186379D01*
X903579Y-3187090D01*
X983081Y-3187090D01*
X989380Y-3186379D01*
X994867Y-3184499D01*
X999744Y-3181400D01*
X1003858Y-3177286D01*
X1006906Y-3172409D01*
X1008837Y-3166922D01*
X1009548Y-3160623D01*
X1009548Y-3075381D01*
X1008837Y-3069031D01*
X1006906Y-3063595D01*
X1003858Y-3058668D01*
X997254Y-3052419D01*
X995629Y-3049727D01*
X994003Y-3045663D01*
X991768Y-3041396D01*
X989126Y-3037281D01*
X986180Y-3033420D01*
X982726Y-3029661D01*
X807262Y-2854198D01*
X804113Y-2851302D01*
X801674Y-2847898D01*
X800811Y-2843784D01*
X801674Y-2839720D01*
X804113Y-2836316D01*
X807872Y-2832811D01*
X973734Y-2667000D01*
X977137Y-2663240D01*
X980135Y-2659380D01*
X982726Y-2655265D01*
X985012Y-2650947D01*
X986891Y-2646426D01*
X988314Y-2641904D01*
X989533Y-2635554D01*
X990549Y-2632710D01*
X992327Y-2630322D01*
X994867Y-2627782D01*
X997915Y-2622905D01*
X999845Y-2617470D01*
X1000556Y-2611120D01*
X1000556Y-2525877D01*
X999845Y-2519527D01*
X997915Y-2514092D01*
X994867Y-2509164D01*
X990752Y-2505100D01*
X985875Y-2502001D01*
X980389Y-2500122D01*
X974090Y-2499410D01*
X894587Y-2499410D01*
X888237Y-2500122D01*
X882802Y-2502001D01*
X877874Y-2505100D01*
X873810Y-2509164D01*
X870712Y-2514092D01*
X868578Y-2520137D01*
X866444Y-2523693D01*
X863041Y-2526131D01*
X858977Y-2526944D01*
X854913Y-2526131D01*
X851560Y-2523693D01*
X849426Y-2520137D01*
X847293Y-2514092D01*
X844194Y-2509164D01*
X840130Y-2505100D01*
X835202Y-2502001D01*
X829767Y-2500122D01*
X823417Y-2499410D01*
X810209Y-2499410D01*
X810209Y-2540558D01*
X857910Y-2540558D01*
X861821Y-2541320D01*
X865124Y-2543505D01*
X867308Y-2546807D01*
X868070Y-2550718D01*
X868070Y-2586278D01*
X867308Y-2590190D01*
X865124Y-2593492D01*
X861821Y-2595676D01*
X857910Y-2596438D01*
X810209Y-2596438D01*
X810209Y-2637586D01*
X820470Y-2637586D01*
X824331Y-2638399D01*
X827633Y-2640584D01*
X829868Y-2643886D01*
X830630Y-2647746D01*
X829868Y-2651658D01*
X827633Y-2654960D01*
X748030Y-2734564D01*
X744728Y-2736748D01*
X740816Y-2737561D01*
X685596Y-2737561D01*
X681685Y-2736748D01*
X678383Y-2734564D01*
X676198Y-2731262D01*
X675436Y-2727401D01*
X675436Y-2654046D01*
X674725Y-2647746D01*
X672795Y-2642260D01*
X669137Y-2636418D01*
X667715Y-2632913D01*
X667715Y-2629103D01*
X669137Y-2625598D01*
X672795Y-2619756D01*
X674725Y-2614269D01*
X675436Y-2607970D01*
X675436Y-2594864D01*
X618337Y-2594864D01*
X618337Y-2617419D01*
X617575Y-2621280D01*
X615391Y-2624582D01*
X612089Y-2626817D01*
X608177Y-2627579D01*
X540816Y-2627579D01*
X536905Y-2626817D01*
X533654Y-2624582D01*
X531418Y-2621280D01*
X530656Y-2617419D01*
X530656Y-2594864D01*
X473608Y-2594864D01*
X473608Y-2607970D01*
X474319Y-2614269D01*
X477774Y-2623972D01*
X477469Y-2628239D01*
X475386Y-2631998D01*
X471932Y-2634589D01*
X467715Y-2635453D01*
X423062Y-2635453D01*
X419150Y-2635605D01*
X413105Y-2636367D01*
X409498Y-2637129D01*
X403707Y-2638907D01*
X400304Y-2640279D01*
X394868Y-2643022D01*
X391769Y-2644952D01*
X386892Y-2648610D01*
X383946Y-2651252D01*
X309372Y-2723235D01*
X307187Y-2724912D01*
X300228Y-2731871D01*
X294589Y-2739898D01*
X290474Y-2748838D01*
X287934Y-2758287D01*
X287070Y-2768092D01*
X287477Y-2773578D01*
X287477Y-2841955D01*
X287070Y-2847441D01*
X287477Y-2852928D01*
X287477Y-2918561D01*
X287070Y-2924048D01*
X287477Y-2929534D01*
X287477Y-3209848D01*
X286715Y-3213760D01*
X284530Y-3217062D01*
X281228Y-3219246D01*
X277317Y-3220008D01*
X273456Y-3219246D01*
X270154Y-3217062D01*
X267462Y-3214370D01*
X258216Y-3207461D01*
X248107Y-3201924D01*
X237286Y-3197910D01*
X230835Y-3196488D01*
X230835Y-3241649D01*
X277317Y-3241649D01*
X281127Y-3242360D01*
X284378Y-3244494D01*
X286613Y-3247644D01*
X287477Y-3251403D01*
X287731Y-3257346D01*
X288340Y-3262172D01*
X289407Y-3266948D01*
X290880Y-3271570D01*
X292760Y-3276092D01*
X294995Y-3280410D01*
X297637Y-3284524D01*
X300583Y-3288385D01*
X304190Y-3292297D01*
X305562Y-3294583D01*
X308203Y-3296310D01*
X437337Y-3425444D01*
X441096Y-3428898D01*
X444957Y-3431844D01*
X449072Y-3434486D01*
X453390Y-3436721D01*
X457911Y-3438601D01*
X462534Y-3440074D01*
X467309Y-3441141D01*
X472135Y-3441750D01*
X477215Y-3442004D01*
X534720Y-3442004D01*
X538632Y-3442766D01*
X541934Y-3444951D01*
X755700Y-3658717D01*
X756970Y-3659784D01*
X759612Y-3663289D01*
X760577Y-3667556D01*
X760577Y-3705301D01*
X761288Y-3711651D01*
X763219Y-3717086D01*
X766267Y-3722014D01*
X770382Y-3726078D01*
X775258Y-3729177D01*
X780745Y-3731107D01*
G37*
G36*
X3140456Y-3730345D02*
G01*
X3154578Y-3728974D01*
X3168446Y-3725824D01*
X3181807Y-3720896D01*
X3194405Y-3714343D01*
X3206038Y-3706215D01*
X3216554Y-3696665D01*
X3225749Y-3685844D01*
X3233521Y-3673906D01*
X3239668Y-3661105D01*
X3244138Y-3647643D01*
X3246882Y-3633673D01*
X3247796Y-3619500D01*
X3246882Y-3605326D01*
X3244138Y-3591356D01*
X3239668Y-3577894D01*
X3233521Y-3565093D01*
X3225749Y-3553155D01*
X3216554Y-3542334D01*
X3206038Y-3532784D01*
X3194405Y-3524656D01*
X3181807Y-3518103D01*
X3168446Y-3513175D01*
X3154578Y-3510026D01*
X3140456Y-3508654D01*
X3126232Y-3509111D01*
X3112211Y-3511397D01*
X3107994Y-3512667D01*
X3103880Y-3512972D01*
X3099917Y-3511651D01*
X3096869Y-3508857D01*
X3096514Y-3508959D01*
X3096006Y-3513023D01*
X3093872Y-3516579D01*
X3090519Y-3519017D01*
X3085592Y-3521201D01*
X3073450Y-3528568D01*
X3062325Y-3537407D01*
X3052470Y-3547618D01*
X3043986Y-3558997D01*
X3036976Y-3571392D01*
X3031642Y-3584549D01*
X3028035Y-3598316D01*
X3026257Y-3612387D01*
X3026257Y-3626612D01*
X3028035Y-3640683D01*
X3031642Y-3654450D01*
X3036976Y-3667607D01*
X3043986Y-3680002D01*
X3052470Y-3691382D01*
X3062325Y-3701592D01*
X3073450Y-3710432D01*
X3085592Y-3717798D01*
X3098596Y-3723589D01*
X3112211Y-3727602D01*
X3126232Y-3729888D01*
G37*
G36*
X1818030Y-3718915D02*
G01*
X1818030Y-3668369D01*
X1767433Y-3668369D01*
X1773986Y-3680002D01*
X1782470Y-3691382D01*
X1792325Y-3701592D01*
X1803450Y-3710432D01*
X1815592Y-3717798D01*
G37*
G36*
X1915769Y-3718814D02*
G01*
X1924405Y-3714343D01*
X1936038Y-3706215D01*
X1946554Y-3696665D01*
X1955749Y-3685844D01*
X1963521Y-3673906D01*
X1966214Y-3668369D01*
X1915769Y-3668369D01*
G37*
G36*
X1915769Y-3570630D02*
G01*
X1966214Y-3570630D01*
X1963521Y-3565093D01*
X1955749Y-3553155D01*
X1946554Y-3542334D01*
X1936038Y-3532784D01*
X1924405Y-3524656D01*
X1915769Y-3520186D01*
G37*
G36*
X1767433Y-3570630D02*
G01*
X1818030Y-3570630D01*
X1818030Y-3520084D01*
X1815592Y-3521201D01*
X1803450Y-3528568D01*
X1792325Y-3537407D01*
X1782470Y-3547618D01*
X1773986Y-3558997D01*
G37*
G36*
X1751584Y-3424885D02*
G01*
X1758137Y-3424885D01*
X1758137Y-3391154D01*
X1725117Y-3391154D01*
X1725117Y-3398418D01*
X1725828Y-3404717D01*
X1727707Y-3410153D01*
X1730806Y-3415080D01*
X1734870Y-3419144D01*
X1739798Y-3422243D01*
X1745234Y-3424174D01*
G37*
G36*
X1797862Y-3424885D02*
G01*
X1804416Y-3424885D01*
X1810766Y-3424174D01*
X1816201Y-3422243D01*
X1821129Y-3419144D01*
X1825193Y-3415080D01*
X1828292Y-3410153D01*
X1830171Y-3404717D01*
X1830933Y-3398418D01*
X1830933Y-3391154D01*
X1797862Y-3391154D01*
G37*
G36*
X230835Y-3354476D02*
G01*
X237286Y-3353104D01*
X248107Y-3349091D01*
X258216Y-3343554D01*
X267462Y-3336645D01*
X275640Y-3328466D01*
X282549Y-3319221D01*
X287934Y-3309365D01*
X230835Y-3309365D01*
G37*
G36*
X128168Y-3354476D02*
G01*
X128168Y-3309365D01*
X71069Y-3309365D01*
X76454Y-3319221D01*
X83362Y-3328466D01*
X91541Y-3336645D01*
X100787Y-3343554D01*
X110896Y-3349091D01*
X121716Y-3353104D01*
G37*
G36*
X1580083Y-3304895D02*
G01*
X1588160Y-3304895D01*
X1588160Y-3270351D01*
X1553565Y-3270351D01*
X1553565Y-3278428D01*
X1554276Y-3284728D01*
X1556207Y-3290214D01*
X1559306Y-3295091D01*
X1563370Y-3299206D01*
X1568297Y-3302254D01*
X1573733Y-3304184D01*
G37*
G36*
X1630832Y-3304895D02*
G01*
X1638909Y-3304895D01*
X1645259Y-3304184D01*
X1650695Y-3302254D01*
X1655622Y-3299206D01*
X1659686Y-3295091D01*
X1662785Y-3290214D01*
X1664716Y-3284728D01*
X1665427Y-3278428D01*
X1665427Y-3270351D01*
X1630832Y-3270351D01*
G37*
G36*
X71069Y-3241649D02*
G01*
X128168Y-3241649D01*
X128168Y-3196488D01*
X121716Y-3197910D01*
X110896Y-3201924D01*
X100787Y-3207461D01*
X91541Y-3214370D01*
X83362Y-3222548D01*
X76454Y-3231743D01*
G37*
G36*
X610819Y-3241649D02*
G01*
X667918Y-3241649D01*
X662533Y-3231743D01*
X655624Y-3222548D01*
X647446Y-3214370D01*
X638200Y-3207461D01*
X630834Y-3203448D01*
X627532Y-3200501D01*
X625754Y-3196437D01*
X625856Y-3192018D01*
X627888Y-3188055D01*
X631393Y-3185312D01*
X635711Y-3184347D01*
X648919Y-3184347D01*
X655269Y-3183636D01*
X660704Y-3181756D01*
X665632Y-3178657D01*
X669696Y-3174542D01*
X672795Y-3169666D01*
X674725Y-3164179D01*
X675436Y-3157880D01*
X675436Y-3144774D01*
X618337Y-3144774D01*
X618337Y-3194507D01*
X617423Y-3198825D01*
X614730Y-3202279D01*
X610819Y-3204311D01*
G37*
G36*
X451053Y-3241649D02*
G01*
X508152Y-3241649D01*
X508152Y-3184855D01*
X508812Y-3181146D01*
X510844Y-3177946D01*
X513892Y-3175711D01*
X517550Y-3174746D01*
X524459Y-3174288D01*
X530656Y-3174288D01*
X530656Y-3144774D01*
X473608Y-3144774D01*
X473608Y-3157880D01*
X474319Y-3164179D01*
X476199Y-3169666D01*
X479298Y-3174542D01*
X483412Y-3178657D01*
X488289Y-3181756D01*
X491032Y-3182670D01*
X494538Y-3184804D01*
X496976Y-3188157D01*
X497840Y-3192170D01*
X497027Y-3196234D01*
X494690Y-3199587D01*
X490880Y-3201924D01*
X480771Y-3207461D01*
X471525Y-3214370D01*
X463346Y-3222548D01*
X456438Y-3231743D01*
G37*
G36*
X1630832Y-3227628D02*
G01*
X1665427Y-3227628D01*
X1665427Y-3219551D01*
X1664716Y-3213252D01*
X1662785Y-3207766D01*
X1659686Y-3202889D01*
X1655622Y-3198774D01*
X1650695Y-3195726D01*
X1645259Y-3193796D01*
X1638909Y-3193084D01*
X1630832Y-3193084D01*
G37*
G36*
X1553565Y-3227628D02*
G01*
X1588160Y-3227628D01*
X1588160Y-3193084D01*
X1580083Y-3193084D01*
X1573733Y-3193796D01*
X1568297Y-3195726D01*
X1563370Y-3198774D01*
X1559306Y-3202889D01*
X1556207Y-3207766D01*
X1554276Y-3213252D01*
X1553565Y-3219551D01*
G37*
G36*
X752906Y-3187090D02*
G01*
X766165Y-3187090D01*
X766165Y-3145942D01*
X726440Y-3145942D01*
X726440Y-3160623D01*
X727151Y-3166922D01*
X729081Y-3172409D01*
X732129Y-3177286D01*
X736244Y-3181400D01*
X741121Y-3184499D01*
X746607Y-3186379D01*
G37*
G36*
X1581607Y-3128264D02*
G01*
X1609699Y-3128264D01*
X1609699Y-3046222D01*
X1555140Y-3046222D01*
X1555140Y-3101797D01*
X1555851Y-3108096D01*
X1557782Y-3113582D01*
X1560880Y-3118459D01*
X1564944Y-3122574D01*
X1569872Y-3125673D01*
X1575308Y-3127552D01*
G37*
G36*
X726440Y-3090062D02*
G01*
X766165Y-3090062D01*
X766165Y-3048863D01*
X752906Y-3048863D01*
X746607Y-3049574D01*
X741121Y-3051505D01*
X736244Y-3054604D01*
X732129Y-3058668D01*
X729081Y-3063595D01*
X727151Y-3069031D01*
X726440Y-3075381D01*
G37*
G36*
X743915Y-2637586D02*
G01*
X757174Y-2637586D01*
X757174Y-2596438D01*
X717448Y-2596438D01*
X717448Y-2611120D01*
X718159Y-2617470D01*
X720090Y-2622905D01*
X723138Y-2627782D01*
X727252Y-2631897D01*
X732129Y-2634996D01*
X737616Y-2636875D01*
G37*
G36*
X618337Y-2542184D02*
G01*
X675436Y-2542184D01*
X675436Y-2529128D01*
X674725Y-2522778D01*
X672795Y-2517343D01*
X669696Y-2512415D01*
X665632Y-2508351D01*
X660704Y-2505252D01*
X655269Y-2503322D01*
X648919Y-2502611D01*
X635711Y-2502611D01*
X631393Y-2501646D01*
X627888Y-2498953D01*
X625856Y-2494991D01*
X625754Y-2490571D01*
X627532Y-2486456D01*
X630834Y-2483561D01*
X638200Y-2479548D01*
X647446Y-2472639D01*
X655624Y-2464460D01*
X662533Y-2455214D01*
X667918Y-2445359D01*
X610819Y-2445359D01*
X610819Y-2482646D01*
X614730Y-2484678D01*
X617423Y-2488184D01*
X618337Y-2492451D01*
G37*
G36*
X473608Y-2542184D02*
G01*
X530656Y-2542184D01*
X530656Y-2512720D01*
X523748Y-2512669D01*
X517550Y-2512263D01*
X513892Y-2511298D01*
X510844Y-2509012D01*
X508812Y-2505811D01*
X508152Y-2502103D01*
X508152Y-2445359D01*
X451053Y-2445359D01*
X456438Y-2455214D01*
X463346Y-2464460D01*
X471525Y-2472639D01*
X480771Y-2479548D01*
X491235Y-2485186D01*
X494690Y-2487371D01*
X497027Y-2490774D01*
X497840Y-2494788D01*
X496976Y-2498852D01*
X494538Y-2502154D01*
X491032Y-2504287D01*
X488289Y-2505252D01*
X483412Y-2508351D01*
X479298Y-2512415D01*
X476199Y-2517343D01*
X474319Y-2522778D01*
X473608Y-2529128D01*
G37*
G36*
X717448Y-2540558D02*
G01*
X757174Y-2540558D01*
X757174Y-2499410D01*
X743915Y-2499410D01*
X737616Y-2500122D01*
X732129Y-2502001D01*
X727252Y-2505100D01*
X723138Y-2509164D01*
X720090Y-2514092D01*
X718159Y-2519527D01*
X717448Y-2525877D01*
G37*
G36*
X230835Y-2490470D02*
G01*
X237286Y-2489098D01*
X248107Y-2485085D01*
X258216Y-2479548D01*
X267462Y-2472639D01*
X275640Y-2464460D01*
X282549Y-2455214D01*
X287934Y-2445359D01*
X230835Y-2445359D01*
G37*
G36*
X128168Y-2490470D02*
G01*
X128168Y-2445359D01*
X71069Y-2445359D01*
X76454Y-2455214D01*
X83362Y-2464460D01*
X91541Y-2472639D01*
X100787Y-2479548D01*
X110896Y-2485085D01*
X121716Y-2489098D01*
G37*
G36*
X230835Y-2377643D02*
G01*
X287934Y-2377643D01*
X282549Y-2367737D01*
X275640Y-2358542D01*
X267462Y-2350363D01*
X258216Y-2343454D01*
X248107Y-2337917D01*
X237286Y-2333904D01*
X230835Y-2332482D01*
G37*
G36*
X451053Y-2377643D02*
G01*
X508152Y-2377643D01*
X508152Y-2332482D01*
X501700Y-2333904D01*
X490880Y-2337917D01*
X480771Y-2343454D01*
X471525Y-2350363D01*
X463346Y-2358542D01*
X456438Y-2367737D01*
G37*
G36*
X71069Y-2377643D02*
G01*
X128168Y-2377643D01*
X128168Y-2332482D01*
X121716Y-2333904D01*
X110896Y-2337917D01*
X100787Y-2343454D01*
X91541Y-2350363D01*
X83362Y-2358542D01*
X76454Y-2367737D01*
G37*
G36*
X610819Y-2377643D02*
G01*
X667918Y-2377643D01*
X662533Y-2367737D01*
X655624Y-2358542D01*
X647446Y-2350363D01*
X638200Y-2343454D01*
X628091Y-2337917D01*
X617270Y-2333904D01*
X610819Y-2332482D01*
G37*
G36*
X1281074Y-1159916D02*
G01*
X1309420Y-1159916D01*
X1309420Y-1106576D01*
X1254607Y-1106576D01*
X1254607Y-1133449D01*
X1255318Y-1139748D01*
X1257198Y-1145235D01*
X1260297Y-1150112D01*
X1264361Y-1154226D01*
X1269288Y-1157274D01*
X1274724Y-1159205D01*
G37*
G36*
X639114Y-1128420D02*
G01*
X639114Y-1072337D01*
X583031Y-1072337D01*
X583996Y-1074521D01*
X591870Y-1087526D01*
X601218Y-1099464D01*
X611987Y-1110234D01*
X623925Y-1119581D01*
X636930Y-1127455D01*
G37*
G36*
X751789Y-1128420D02*
G01*
X753973Y-1127455D01*
X766978Y-1119581D01*
X778916Y-1110234D01*
X789686Y-1099464D01*
X799033Y-1087526D01*
X806907Y-1074521D01*
X807872Y-1072337D01*
X751789Y-1072337D01*
G37*
G36*
X751789Y-959662D02*
G01*
X807872Y-959662D01*
X806907Y-957478D01*
X799033Y-944473D01*
X789686Y-932535D01*
X778916Y-921766D01*
X766978Y-912418D01*
X753973Y-904544D01*
X751789Y-903579D01*
G37*
G36*
X583031Y-959662D02*
G01*
X639114Y-959662D01*
X639114Y-903579D01*
X636930Y-904544D01*
X623925Y-912418D01*
X611987Y-921766D01*
X601218Y-932535D01*
X591870Y-944473D01*
X583996Y-957478D01*
G37*
G36*
X2782366Y-553415D02*
G01*
X2837942Y-553415D01*
X2844241Y-552704D01*
X2849727Y-550773D01*
X2854604Y-547725D01*
X2858719Y-543610D01*
X2861767Y-538734D01*
X2863697Y-533247D01*
X2864408Y-526948D01*
X2864408Y-506323D01*
X2782366Y-506323D01*
G37*
G36*
X2589072Y-553415D02*
G01*
X2644648Y-553415D01*
X2644648Y-506323D01*
X2562606Y-506323D01*
X2562606Y-526948D01*
X2563317Y-533247D01*
X2565196Y-538734D01*
X2568295Y-543610D01*
X2572359Y-547725D01*
X2577287Y-550773D01*
X2582722Y-552704D01*
G37*
G36*
X784555Y-442925D02*
G01*
X865124Y-442925D01*
X865124Y-393344D01*
X758088Y-393344D01*
X758088Y-416407D01*
X758799Y-422757D01*
X760730Y-428193D01*
X763778Y-433120D01*
X767892Y-437184D01*
X772769Y-440283D01*
X778256Y-442214D01*
G37*
G36*
X1052830Y-442925D02*
G01*
X1133449Y-442925D01*
X1139748Y-442214D01*
X1145235Y-440283D01*
X1150112Y-437184D01*
X1154226Y-433120D01*
X1157274Y-428193D01*
X1159205Y-422757D01*
X1159916Y-416407D01*
X1159916Y-393344D01*
X1052830Y-393344D01*
G37*
G36*
X2782366Y-438658D02*
G01*
X2864408Y-438658D01*
X2864408Y-418084D01*
X2863697Y-411734D01*
X2861767Y-406298D01*
X2858719Y-401370D01*
X2854604Y-397306D01*
X2849727Y-394208D01*
X2844241Y-392277D01*
X2837942Y-391566D01*
X2782366Y-391566D01*
G37*
G36*
X2562606Y-438658D02*
G01*
X2644648Y-438658D01*
X2644648Y-391566D01*
X2589072Y-391566D01*
X2582722Y-392277D01*
X2577287Y-394208D01*
X2572359Y-397306D01*
X2568295Y-401370D01*
X2565196Y-406298D01*
X2563317Y-411734D01*
X2562606Y-418084D01*
G37*
G36*
X1052830Y-320649D02*
G01*
X1159916Y-320649D01*
X1159916Y-297586D01*
X1159205Y-291236D01*
X1157274Y-285800D01*
X1154226Y-280873D01*
X1150112Y-276809D01*
X1145235Y-273710D01*
X1139748Y-271780D01*
X1133449Y-271068D01*
X1052830Y-271068D01*
G37*
G36*
X758088Y-320649D02*
G01*
X865124Y-320649D01*
X865124Y-271068D01*
X784555Y-271068D01*
X778256Y-271780D01*
X772769Y-273710D01*
X767892Y-276809D01*
X763778Y-280873D01*
X760730Y-285800D01*
X758799Y-291236D01*
X758088Y-297586D01*
G37*
G36*
X2109724Y-157683D02*
G01*
X2112111Y-156057D01*
X2116023Y-155295D01*
X2179472Y-155295D01*
X2179472Y-100482D01*
X2152650Y-100482D01*
X2146350Y-101193D01*
X2140864Y-103124D01*
X2135987Y-106172D01*
X2131872Y-110286D01*
X2128824Y-115163D01*
X2128012Y-117449D01*
X2125878Y-121005D01*
X2122474Y-123393D01*
X2118410Y-124256D01*
X2114346Y-123393D01*
X2110994Y-121005D01*
X2105710Y-112369D01*
X2101596Y-108305D01*
X2096719Y-105206D01*
X2091232Y-103327D01*
X2084933Y-102616D01*
X2058111Y-102616D01*
X2058111Y-157378D01*
X2109825Y-157378D01*
G37*
G36*
X1721612Y-157378D02*
G01*
X1774901Y-157378D01*
X1774901Y-102616D01*
X1748078Y-102616D01*
X1741728Y-103327D01*
X1736293Y-105206D01*
X1731365Y-108305D01*
X1727301Y-112369D01*
X1724202Y-117297D01*
X1722323Y-122732D01*
X1721612Y-129082D01*
G37*
G36*
X1855114Y-157378D02*
G01*
X1977898Y-157378D01*
X1977898Y-102616D01*
X1951075Y-102616D01*
X1944725Y-103327D01*
X1939289Y-105206D01*
X1934362Y-108305D01*
X1930298Y-112369D01*
X1927199Y-117297D01*
X1926082Y-120497D01*
X1923948Y-124053D01*
X1920544Y-126441D01*
X1916480Y-127304D01*
X1912416Y-126441D01*
X1909064Y-124053D01*
X1906930Y-120497D01*
X1905762Y-117297D01*
X1902714Y-112369D01*
X1898599Y-108305D01*
X1893722Y-105206D01*
X1888236Y-103327D01*
X1881936Y-102616D01*
X1855114Y-102616D01*
G37*
G36*
X2259685Y-155295D02*
G01*
X2312517Y-155295D01*
X2315311Y-153873D01*
X2318410Y-153416D01*
X2381910Y-153416D01*
X2381910Y-98602D01*
X2355088Y-98602D01*
X2348738Y-99314D01*
X2343302Y-101193D01*
X2338374Y-104292D01*
X2334310Y-108407D01*
X2331212Y-113283D01*
X2330043Y-116585D01*
X2327910Y-120142D01*
X2324506Y-122529D01*
X2320442Y-123393D01*
X2316378Y-122529D01*
X2313025Y-120142D01*
X2310384Y-115163D01*
X2307285Y-110286D01*
X2303221Y-106172D01*
X2298293Y-103124D01*
X2292858Y-101193D01*
X2286508Y-100482D01*
X2259685Y-100482D01*
G37*
G36*
X2462072Y-153416D02*
G01*
X2515412Y-153416D01*
X2515412Y-125069D01*
X2514701Y-118770D01*
X2512771Y-113283D01*
X2509723Y-108407D01*
X2505608Y-104292D01*
X2500731Y-101193D01*
X2495245Y-99314D01*
X2488946Y-98602D01*
X2462072Y-98602D01*
G37*

%LPD*%
G36*
X442315Y-2939491D02*
G01*
X438454Y-2938729D01*
X435152Y-2936544D01*
X402285Y-2903829D01*
X400100Y-2900527D01*
X399338Y-2896616D01*
X399338Y-2852928D01*
X399745Y-2847441D01*
X399338Y-2841955D01*
X399338Y-2796133D01*
X400100Y-2792171D01*
X402437Y-2788818D01*
X442518Y-2750159D01*
X445770Y-2748026D01*
X449580Y-2747314D01*
X463550Y-2747314D01*
X467715Y-2748178D01*
X471119Y-2750667D01*
X473252Y-2754376D01*
X473608Y-2759049D01*
X473608Y-2827883D01*
X474319Y-2834182D01*
X476402Y-2840126D01*
X476961Y-2843479D01*
X476402Y-2846832D01*
X474319Y-2852775D01*
X473608Y-2859125D01*
X473608Y-2927959D01*
X473201Y-2932430D01*
X471119Y-2936138D01*
X467664Y-2938627D01*
X463550Y-2939491D01*
G37*

%LPD*%
D10*
X1550923Y-1066545D02*
G01*
X1550923Y-1208531D01*
X1301495Y-1457960D01*
X1301495Y-3059684D01*
X846073Y-3619500D02*
G01*
X795528Y-3619500D01*
X562102Y-3386073D01*
X477012Y-3386073D01*
X343407Y-3252470D01*
X343407Y-2924047D01*
X574547Y-2995421D02*
G01*
X415036Y-2995421D01*
X343407Y-2924047D01*
X343407Y-2924047D02*
G01*
X343407Y-2924047D01*
X343407Y-2847428D01*
X343407Y-2847428D02*
G01*
X343407Y-2768092D01*
X343407Y-2768092D02*
G01*
X343407Y-2768092D01*
X422910Y-2691384D01*
X574547Y-2691384D01*
X574547Y-2893568D02*
G01*
X767587Y-2893568D01*
X943355Y-3069336D01*
X943355Y-3118104D01*
X783589Y-2568447D02*
G01*
X574547Y-2568447D01*
X574494Y-2793453D02*
G01*
X768200Y-2793453D01*
X934338Y-2627317D01*
X934338Y-2568498D01*
X559485Y-2411491D02*
G01*
X574497Y-2426502D01*
X574497Y-2568539D01*
X559562Y-2411476D02*
G01*
X782828Y-2411476D01*
X951992Y-2242565D01*
X951992Y-1530095D01*
X1351026Y-1131062D01*
X1351026Y-1066545D01*
X574497Y-3118449D02*
G01*
X559485Y-3133460D01*
X559485Y-3275497D01*
X792734Y-3118104D02*
G01*
X574547Y-3118357D01*
X1134998Y-3619500D02*
G01*
X1612900Y-3619500D01*
X1866900Y-3619500D02*
G01*
X1866900Y-3754373D01*
X1976374Y-3864102D01*
X3442461Y-3864102D01*
X3659377Y-3646931D01*
X2051507Y-2975990D02*
G01*
X2051507Y-2977006D01*
X2051992Y-2977492D01*
X2143506Y-3372612D02*
G01*
X2032000Y-3370579D01*
X1301582Y-3059579D02*
G01*
X1388496Y-3146493D01*
X1798497Y-932002D02*
G01*
X1798497Y-814831D01*
X1798998Y-814331D01*
X1798497Y-932002D02*
G01*
X1798497Y-934996D01*
X1798998Y-935497D01*
X2628900Y-3619500D02*
G01*
X2655570Y-3619500D01*
X2830068Y-3445002D01*
X3073400Y-3445002D01*
X3177540Y-3340862D01*
X3177540Y-3284473D01*
X3177540Y-3284473D02*
G01*
X3177540Y-3284473D01*
X3104895Y-3212084D01*
X3051302Y-1210818D02*
G01*
X3051208Y-1305880D01*
X3051208Y-1305880D02*
G01*
X3051047Y-1467357D01*
X3051987Y-1211986D02*
G01*
X3051987Y-1211579D01*
X3051200Y-1210790D01*
X2284984Y-3188970D02*
G01*
X2286000Y-3284220D01*
X959004Y-356994D02*
G01*
X959004Y-938118D01*
X881123Y-1016000D01*
X695502Y-1016000D01*
X1887829Y-1083055D02*
G01*
X1923722Y-1083055D01*
X1923722Y-1083055D02*
G01*
X1998652Y-1083055D01*
X1998652Y-1083055D02*
G01*
X2030044Y-1083055D01*
X2036648Y-1076452D01*
X1884273Y-933957D02*
G01*
X1989150Y-933957D01*
X2036648Y-886460D01*
X1651073Y-1467431D02*
G01*
X1651073Y-1346918D01*
X1798497Y-1199497D01*
X1798497Y-932002D01*
X1551025Y-1066495D02*
G01*
X1551025Y-1367383D01*
X1651073Y-1467431D01*
X1778000Y-3284220D02*
G01*
X1778000Y-3223005D01*
X1851152Y-3149854D01*
X1851152Y-2977642D01*
X1651073Y-2977362D02*
G01*
X1651073Y-3207412D01*
X1609496Y-3248990D01*
X1609496Y-3399002D02*
G01*
X1609496Y-3616096D01*
X1612900Y-3619500D01*
X353009Y-3659987D02*
G01*
X356494Y-3659987D01*
X560999Y-3864493D01*
X1756803Y-3864493D01*
X1866900Y-3754396D01*
X1778000Y-3370681D02*
G01*
X1778000Y-3396998D01*
X1855495Y-3474493D01*
X1855495Y-3608095D01*
X1866900Y-3619500D01*
X2286000Y-3284118D02*
G01*
X2286000Y-3012490D01*
X2251075Y-2977565D01*
X2032000Y-3284118D02*
G01*
X2032000Y-3132795D01*
X2032000Y-3132795D02*
G01*
X2032000Y-2995498D01*
X2051507Y-2975990D01*
X2286000Y-3370681D02*
G01*
X2032000Y-3370681D01*
X3051073Y-2977565D02*
G01*
X3051073Y-3059912D01*
X2626639Y-3484346D01*
X2510053Y-3484346D01*
X2374900Y-3619500D01*
X2713507Y-472490D02*
G01*
X2845485Y-340512D01*
X3646982Y-340512D01*
X2421991Y-194995D02*
G01*
X2541493Y-194995D01*
X2713507Y-367009D01*
X2713507Y-472490D01*
X1815007Y-199009D02*
G01*
X1819020Y-194995D01*
X2421991Y-194995D01*
X962507Y-359994D02*
G01*
X1123492Y-199009D01*
X1815007Y-199009D01*
X959002Y-356996D02*
G01*
X959507Y-356996D01*
X962507Y-359996D01*
X1496491Y-359996D02*
G01*
X1493492Y-356996D01*
X1492986Y-356996D01*
X1496491Y-359994D02*
G01*
X1535506Y-399008D01*
X2018004Y-399008D01*
X2018029Y-399034D02*
G01*
X2015490Y-525526D01*
X2313431Y-823468D01*
X2458974Y-823468D01*
X2567940Y-932434D01*
X2713481Y-932434D01*
X1815007Y-399008D02*
G01*
X2018004Y-399008D01*
X2421991Y-394995D02*
G01*
X2421991Y-471205D01*
X2421991Y-471205D02*
G01*
X2421991Y-541995D01*
X2421991Y-541995D02*
G01*
X2421991Y-541995D01*
X2582484Y-702487D01*
X2713507Y-702487D01*
X2219706Y-397002D02*
G01*
X2421890Y-394970D01*
X2377947Y-1062837D02*
G01*
X2473655Y-1062837D01*
X2604008Y-932484D01*
X2713507Y-932484D01*
X2236647Y-981455D02*
G01*
X2241829Y-976274D01*
X2377947Y-976274D01*
X2650490Y-1210818D02*
G01*
X2650997Y-1467357D01*
X2650500Y-1124204D02*
G01*
X3051200Y-1124204D01*
X3307486Y-702487D02*
G01*
X2713507Y-702487D01*
X3051200Y-1124204D02*
G01*
X3307486Y-867918D01*
X3307486Y-702487D01*
X2851150Y-2977642D02*
G01*
X2851150Y-3119881D01*
X2571495Y-3399536D01*
X2458465Y-3399536D01*
X2400554Y-3457447D01*
X2226056Y-3457447D01*
X2120900Y-3562604D01*
X2120900Y-3619500D01*
X1609597Y-3248913D02*
G01*
X1731010Y-3370579D01*
X1778000Y-3370579D01*
X695502Y-1016000D02*
G01*
X385000Y-1016000D01*
X170942Y-1230058D01*
X170942Y-3477257D01*
X353006Y-3660142D01*
X1493012Y-356870D02*
G01*
X1493012Y-692404D01*
X859536Y-1325879D01*
X859536Y-1867915D01*
X695452Y-2032000D01*
X340512Y-353006D02*
G01*
X340512Y-661009D01*
X695502Y-1016000D01*
D11*
G01*
X845997Y-3619492D03*
G01*
X1134998Y-3619492D03*
D12*
G01*
X943324Y-3117994D03*
G01*
X792674Y-3117994D03*
G01*
X934322Y-2568493D03*
G01*
X783672Y-2568493D03*
D13*
G01*
X574492Y-3118446D03*
D14*
G01*
X574492Y-2995510D03*
D15*
G01*
X574492Y-2893529D03*
G01*
X574492Y-2793453D03*
D14*
G01*
X574492Y-2691472D03*
D13*
G01*
X574492Y-2568536D03*
D16*
G01*
X2036648Y-886460D03*
G01*
X2036648Y-1076452D03*
G01*
X2236647Y-981455D03*
D17*
G01*
X1797709Y-933957D03*
G01*
X1884274Y-933957D03*
D18*
G01*
X2377947Y-1062838D03*
D19*
G01*
X2377947Y-976274D03*
D17*
G01*
X1801265Y-1083056D03*
G01*
X1887830Y-1083056D03*
D20*
G01*
X1814995Y-399003D03*
D21*
G01*
X1815007Y-199009D03*
D20*
G01*
X2017994Y-399003D03*
D21*
G01*
X2018004Y-199009D03*
D20*
G01*
X2219591Y-396902D03*
D21*
G01*
X2219604Y-196900D03*
D20*
G01*
X2421994Y-395003D03*
D21*
G01*
X2421991Y-194995D03*
D22*
G01*
X1551000Y-1066497D03*
G01*
X1350995Y-1066497D03*
D23*
G01*
X959002Y-356996D03*
G01*
X1492986Y-356996D03*
D24*
G01*
X1609496Y-3399002D03*
G01*
X1609496Y-3248990D03*
D18*
G01*
X3051195Y-1124215D03*
D19*
G01*
X3051200Y-1210792D03*
D18*
G01*
X2650495Y-1124215D03*
D19*
G01*
X2650490Y-1210792D03*
D18*
G01*
X2032000Y-3370682D03*
D19*
G01*
X2032000Y-3284118D03*
D18*
G01*
X2286000Y-3370682D03*
D19*
G01*
X2286000Y-3284118D03*
D18*
G01*
X1778000Y-3370682D03*
D19*
G01*
X1778000Y-3284118D03*
D25*
G01*
X3051073Y-2977565D03*
G01*
X2851073Y-2977540D03*
G01*
X2651048Y-2977565D03*
G01*
X2451049Y-2977489D03*
G01*
X2251075Y-2977565D03*
G01*
X2051075Y-2977642D03*
G01*
X1851075Y-2977514D03*
G01*
X1651076Y-2977362D03*
D26*
G01*
X1520977Y-2722168D03*
G01*
X1521053Y-2522169D03*
G01*
X1521053Y-2322245D03*
G01*
X1521053Y-2122170D03*
G01*
X1521104Y-1922297D03*
G01*
X1520952Y-1722501D03*
D25*
G01*
X1651076Y-1467434D03*
G01*
X1851075Y-1467357D03*
G01*
X2051075Y-1467357D03*
G01*
X2251075Y-1467357D03*
G01*
X2451049Y-1467357D03*
G01*
X2651048Y-1467357D03*
G01*
X2851073Y-1467357D03*
G01*
X3051073Y-1467357D03*
D27*
G01*
X2713507Y-472490D03*
G01*
X2713507Y-702487D03*
G01*
X2713507Y-932484D03*
D28*
G01*
X3307496Y-702497D03*
D29*
G01*
X559485Y-3275497D03*
G01*
X559485Y-2411491D03*
G01*
X179501Y-3275497D03*
G01*
X179501Y-2411491D03*
D30*
G01*
X695452Y-1016000D03*
G01*
X695452Y-1524000D03*
G01*
X695452Y-2032000D03*
D31*
G01*
X1612900Y-3619500D03*
D32*
G01*
X1866900Y-3619500D03*
G01*
X2120900Y-3619500D03*
G01*
X2374900Y-3619500D03*
G01*
X2628900Y-3619500D03*
G01*
X2882900Y-3619500D03*
G01*
X3136900Y-3619500D03*
D33*
G01*
X340512Y-353009D03*
G01*
X3646982Y-340512D03*
G01*
X3659479Y-3646982D03*
G01*
X353009Y-3659987D03*
D34*
G01*
X2284984Y-3188995D03*
G01*
X2286000Y-3284220D03*
G01*
X3104997Y-3211982D03*
G01*
X3051987Y-1211986D03*
G01*
X3051200Y-1305890D03*
G01*
X3177540Y-3284473D03*
G01*
X1923719Y-1083055D03*
G01*
X1998649Y-1083055D03*
G01*
X2421991Y-541985D03*
G01*
X2421991Y-471195D03*
G01*
X1798497Y-932002D03*
G01*
X1799005Y-814323D03*
G01*
X1388490Y-3146501D03*
G01*
X2143506Y-3372485D03*
G01*
X2032000Y-3370681D03*
G01*
X1301572Y-3059582D03*
G01*
X2377947Y-976274D03*
G01*
X2236647Y-981455D03*
G01*
X2051507Y-2975990D03*
G01*
X2032000Y-3132785D03*
G01*
X343407Y-2924047D03*
G01*
X343407Y-2768092D03*
G01*
X343407Y-2847428D03*
M02*
