G04 Layer: TopPasteMaskLayer*
G04 EasyEDA v6.5.22, 2023-04-06 23:37:51*
G04 59bfaf2a9afe4f888a6a27d7eff82a53,13d4147aac1444c28c06bf4132869bd4,10*
G04 Gerber Generator version 0.2*
G04 Scale: 100 percent, Rotated: No, Reflected: No *
G04 Dimensions in millimeters *
G04 leading zeros omitted , absolute positions ,4 integer and 5 decimal *
%FSLAX45Y45*%
%MOMM*%

%AMMACRO1*21,1,$1,$2,0,0,$3*%
%ADD10R,1.1901X1.7280*%
%ADD11R,1.2500X0.7000*%
%ADD12R,3.5000X1.2000*%
%ADD13R,0.6000X0.6000*%
%ADD14R,1.4000X2.5000*%
%ADD15R,1.7000X1.4000*%
%ADD16R,2.5000X1.1000*%
%ADD17MACRO1,3.6X2.34X90.0000*%
%ADD18C,0.0133*%

%LPD*%
G36*
X907491Y-3072993D02*
G01*
X902512Y-3078022D01*
X902512Y-3100781D01*
X939495Y-3100781D01*
X939495Y-3133801D01*
X902512Y-3133801D01*
X902512Y-3157982D01*
X907491Y-3163011D01*
X987501Y-3163011D01*
X992479Y-3157982D01*
X992479Y-3078022D01*
X987501Y-3072993D01*
G37*
G36*
X748487Y-3072993D02*
G01*
X743508Y-3078022D01*
X743508Y-3157982D01*
X748487Y-3163011D01*
X827481Y-3163011D01*
X832510Y-3157982D01*
X832510Y-3133801D01*
X794512Y-3133801D01*
X794512Y-3100781D01*
X832510Y-3100781D01*
X832510Y-3078022D01*
X827481Y-3072993D01*
G37*
G36*
X898499Y-2523490D02*
G01*
X893521Y-2528519D01*
X893521Y-2551277D01*
X930503Y-2551277D01*
X930503Y-2584297D01*
X893521Y-2584297D01*
X893521Y-2608478D01*
X898499Y-2613507D01*
X978509Y-2613507D01*
X983487Y-2608478D01*
X983487Y-2528519D01*
X978509Y-2523490D01*
G37*
G36*
X739495Y-2523490D02*
G01*
X734517Y-2528519D01*
X734517Y-2608478D01*
X739495Y-2613507D01*
X818489Y-2613507D01*
X823518Y-2608478D01*
X823518Y-2584297D01*
X785520Y-2584297D01*
X785520Y-2551277D01*
X823518Y-2551277D01*
X823518Y-2528519D01*
X818489Y-2523490D01*
G37*
G36*
X499567Y-3078429D02*
G01*
X499567Y-3158439D01*
X649427Y-3158439D01*
X649427Y-3078429D01*
G37*
G36*
X499567Y-2957525D02*
G01*
X499567Y-3033471D01*
X649427Y-3033471D01*
X649427Y-2957525D01*
G37*
G36*
X499567Y-2858465D02*
G01*
X499567Y-2928569D01*
X649427Y-2928569D01*
X649427Y-2858465D01*
G37*
G36*
X499567Y-2758389D02*
G01*
X499567Y-2828493D01*
X649427Y-2828493D01*
X649427Y-2758389D01*
G37*
G36*
X499567Y-2653487D02*
G01*
X499567Y-2729433D01*
X649427Y-2729433D01*
X649427Y-2653487D01*
G37*
G36*
X499567Y-2528519D02*
G01*
X499567Y-2608529D01*
X649427Y-2608529D01*
X649427Y-2528519D01*
G37*
G36*
X524459Y-2356510D02*
G01*
X519023Y-2356764D01*
X513588Y-2357577D01*
X508254Y-2358948D01*
X503123Y-2360828D01*
X498195Y-2363165D01*
X493522Y-2366060D01*
X489153Y-2369362D01*
X485089Y-2373071D01*
X481482Y-2377186D01*
X478282Y-2381656D01*
X475538Y-2386380D01*
X473303Y-2391410D01*
X471525Y-2396591D01*
X470306Y-2401925D01*
X469646Y-2407361D01*
X469493Y-2412847D01*
X469900Y-2418334D01*
X470865Y-2423718D01*
X472338Y-2429002D01*
X474370Y-2434132D01*
X476859Y-2439009D01*
X479806Y-2443581D01*
X483260Y-2447899D01*
X487070Y-2451811D01*
X491286Y-2455316D01*
X495808Y-2458415D01*
X500634Y-2461056D01*
X505663Y-2463190D01*
X510895Y-2464816D01*
X516280Y-2465882D01*
X521766Y-2466441D01*
X594461Y-2466492D01*
X599948Y-2466238D01*
X605383Y-2465425D01*
X610717Y-2464054D01*
X615848Y-2462174D01*
X620776Y-2459786D01*
X625449Y-2456942D01*
X629818Y-2453640D01*
X633831Y-2449880D01*
X637489Y-2445766D01*
X640689Y-2441346D01*
X643432Y-2436571D01*
X645668Y-2431592D01*
X647446Y-2426411D01*
X648665Y-2421026D01*
X649325Y-2415590D01*
X649478Y-2410104D01*
X649071Y-2404668D01*
X648106Y-2399233D01*
X646633Y-2393950D01*
X644601Y-2388870D01*
X642112Y-2383993D01*
X639165Y-2379370D01*
X635711Y-2375103D01*
X631901Y-2371191D01*
X627684Y-2367635D01*
X623163Y-2364536D01*
X618337Y-2361946D01*
X613308Y-2359812D01*
X608076Y-2358186D01*
X602691Y-2357120D01*
X597204Y-2356561D01*
G37*
G36*
X524459Y-3220516D02*
G01*
X519023Y-3220770D01*
X513588Y-3221583D01*
X508254Y-3222955D01*
X503123Y-3224834D01*
X498195Y-3227171D01*
X493522Y-3230067D01*
X489153Y-3233369D01*
X485089Y-3237077D01*
X481482Y-3241192D01*
X478282Y-3245662D01*
X475538Y-3250387D01*
X473303Y-3255416D01*
X471525Y-3260598D01*
X470306Y-3265932D01*
X469646Y-3271367D01*
X469493Y-3276854D01*
X469900Y-3282340D01*
X470865Y-3287725D01*
X472338Y-3293008D01*
X474370Y-3298139D01*
X476859Y-3303015D01*
X479806Y-3307587D01*
X483260Y-3311906D01*
X487070Y-3315817D01*
X491286Y-3319322D01*
X495808Y-3322421D01*
X500634Y-3325063D01*
X505663Y-3327196D01*
X510895Y-3328771D01*
X516280Y-3329889D01*
X521766Y-3330448D01*
X594461Y-3330498D01*
X599948Y-3330244D01*
X605383Y-3329432D01*
X610717Y-3328060D01*
X615848Y-3326180D01*
X620776Y-3323793D01*
X625449Y-3320948D01*
X629818Y-3317646D01*
X633831Y-3313887D01*
X637489Y-3309772D01*
X640689Y-3305352D01*
X643432Y-3300577D01*
X645668Y-3295599D01*
X647446Y-3290417D01*
X648665Y-3285032D01*
X649325Y-3279597D01*
X649478Y-3274110D01*
X649071Y-3268675D01*
X648106Y-3263239D01*
X646633Y-3257956D01*
X644601Y-3252876D01*
X642112Y-3247999D01*
X639165Y-3243376D01*
X635711Y-3239109D01*
X631901Y-3235198D01*
X627684Y-3231642D01*
X623163Y-3228543D01*
X618337Y-3225952D01*
X613308Y-3223818D01*
X608076Y-3222193D01*
X602691Y-3221126D01*
X597204Y-3220567D01*
G37*
G36*
X144475Y-2356510D02*
G01*
X139039Y-2356764D01*
X133604Y-2357577D01*
X128270Y-2358948D01*
X123139Y-2360828D01*
X118211Y-2363165D01*
X113537Y-2366060D01*
X109169Y-2369362D01*
X105105Y-2373071D01*
X101498Y-2377186D01*
X98298Y-2381656D01*
X95554Y-2386380D01*
X93319Y-2391410D01*
X91541Y-2396591D01*
X90322Y-2401925D01*
X89662Y-2407361D01*
X89509Y-2412847D01*
X89916Y-2418334D01*
X90881Y-2423718D01*
X92354Y-2429002D01*
X94386Y-2434132D01*
X96875Y-2439009D01*
X99822Y-2443581D01*
X103276Y-2447899D01*
X107086Y-2451811D01*
X111302Y-2455316D01*
X115824Y-2458415D01*
X120650Y-2461056D01*
X125679Y-2463190D01*
X130911Y-2464816D01*
X136296Y-2465882D01*
X141782Y-2466441D01*
X214477Y-2466492D01*
X219964Y-2466238D01*
X225399Y-2465425D01*
X230733Y-2464054D01*
X235864Y-2462174D01*
X240792Y-2459786D01*
X245465Y-2456942D01*
X249834Y-2453640D01*
X253847Y-2449880D01*
X257505Y-2445766D01*
X260705Y-2441346D01*
X263448Y-2436571D01*
X265684Y-2431592D01*
X267462Y-2426411D01*
X268681Y-2421026D01*
X269341Y-2415590D01*
X269494Y-2410104D01*
X269087Y-2404668D01*
X268122Y-2399233D01*
X266649Y-2393950D01*
X264617Y-2388870D01*
X262128Y-2383993D01*
X259181Y-2379370D01*
X255727Y-2375103D01*
X251917Y-2371191D01*
X247700Y-2367635D01*
X243179Y-2364536D01*
X238353Y-2361946D01*
X233324Y-2359812D01*
X228092Y-2358186D01*
X222707Y-2357120D01*
X217220Y-2356561D01*
G37*
G36*
X144475Y-3220516D02*
G01*
X139039Y-3220770D01*
X133604Y-3221583D01*
X128270Y-3222955D01*
X123139Y-3224834D01*
X118211Y-3227171D01*
X113537Y-3230067D01*
X109169Y-3233369D01*
X105105Y-3237077D01*
X101498Y-3241192D01*
X98298Y-3245662D01*
X95554Y-3250387D01*
X93319Y-3255416D01*
X91541Y-3260598D01*
X90322Y-3265932D01*
X89662Y-3271367D01*
X89509Y-3276854D01*
X89916Y-3282340D01*
X90881Y-3287725D01*
X92354Y-3293008D01*
X94386Y-3298139D01*
X96875Y-3303015D01*
X99822Y-3307587D01*
X103276Y-3311906D01*
X107086Y-3315817D01*
X111302Y-3319322D01*
X115824Y-3322421D01*
X120650Y-3325063D01*
X125679Y-3327196D01*
X130911Y-3328771D01*
X136296Y-3329889D01*
X141782Y-3330448D01*
X214477Y-3330498D01*
X219964Y-3330244D01*
X225399Y-3329432D01*
X230733Y-3328060D01*
X235864Y-3326180D01*
X240792Y-3323793D01*
X245465Y-3320948D01*
X249834Y-3317646D01*
X253847Y-3313887D01*
X257505Y-3309772D01*
X260705Y-3305352D01*
X263448Y-3300577D01*
X265684Y-3295599D01*
X267462Y-3290417D01*
X268681Y-3285032D01*
X269341Y-3279597D01*
X269494Y-3274110D01*
X269087Y-3268675D01*
X268122Y-3263239D01*
X266649Y-3257956D01*
X264617Y-3252876D01*
X262128Y-3247999D01*
X259181Y-3243376D01*
X255727Y-3239109D01*
X251917Y-3235198D01*
X247700Y-3231642D01*
X243179Y-3228543D01*
X238353Y-3225952D01*
X233324Y-3223818D01*
X228092Y-3222193D01*
X222707Y-3221126D01*
X217220Y-3220567D01*
G37*
G36*
X1773428Y-906932D02*
G01*
X1769414Y-910945D01*
X1769414Y-956970D01*
X1773428Y-960983D01*
X1823516Y-960983D01*
X1827479Y-956970D01*
X1827479Y-910945D01*
X1823516Y-906932D01*
G37*
G36*
X1858467Y-906932D02*
G01*
X1854504Y-910945D01*
X1854504Y-956970D01*
X1858467Y-960983D01*
X1908556Y-960983D01*
X1912569Y-956970D01*
X1912569Y-910945D01*
X1908556Y-906932D01*
G37*
G36*
X2354935Y-1033068D02*
G01*
X2350922Y-1037082D01*
X2350922Y-1087120D01*
X2354935Y-1091133D01*
X2400960Y-1091133D01*
X2404973Y-1087120D01*
X2404973Y-1037082D01*
X2400960Y-1033068D01*
G37*
G36*
X2354935Y-947978D02*
G01*
X2350922Y-951992D01*
X2350922Y-1002080D01*
X2354935Y-1006043D01*
X2400960Y-1006043D01*
X2404973Y-1002080D01*
X2404973Y-951992D01*
X2400960Y-947978D01*
G37*
G36*
X1776984Y-1056081D02*
G01*
X1772970Y-1060043D01*
X1772970Y-1106068D01*
X1776984Y-1110030D01*
X1827072Y-1110030D01*
X1831035Y-1106068D01*
X1831035Y-1060043D01*
X1827072Y-1056081D01*
G37*
G36*
X1862074Y-1056081D02*
G01*
X1858060Y-1060043D01*
X1858060Y-1106068D01*
X1862074Y-1110030D01*
X1912112Y-1110030D01*
X1916125Y-1106068D01*
X1916125Y-1060043D01*
X1912112Y-1056081D01*
G37*
G36*
X1753006Y-131521D02*
G01*
X1747977Y-136499D01*
X1747977Y-251510D01*
X1753006Y-256489D01*
X1795018Y-255981D01*
X1795018Y-211988D01*
X1839975Y-211988D01*
X1839975Y-256997D01*
X1880971Y-256489D01*
X1886000Y-251510D01*
X1886000Y-136499D01*
X1880971Y-131521D01*
G37*
G36*
X1753006Y-346506D02*
G01*
X1747977Y-351485D01*
X1747977Y-466496D01*
X1753006Y-471525D01*
X1880971Y-471525D01*
X1886000Y-466496D01*
X1886000Y-351485D01*
X1880971Y-346506D01*
X1839975Y-347014D01*
X1839975Y-391007D01*
X1795018Y-391007D01*
X1795018Y-346506D01*
G37*
G36*
X1956003Y-131521D02*
G01*
X1950974Y-136499D01*
X1950974Y-251510D01*
X1956003Y-256489D01*
X1998014Y-255981D01*
X1998014Y-211988D01*
X2042972Y-211988D01*
X2042972Y-256997D01*
X2084019Y-256489D01*
X2088997Y-251510D01*
X2088997Y-136499D01*
X2084019Y-131521D01*
G37*
G36*
X1956003Y-346506D02*
G01*
X1950974Y-351485D01*
X1950974Y-466496D01*
X1956003Y-471525D01*
X2084019Y-471525D01*
X2088997Y-466496D01*
X2088997Y-351485D01*
X2084019Y-346506D01*
X2042972Y-347014D01*
X2042972Y-391007D01*
X1998014Y-391007D01*
X1998014Y-346506D01*
G37*
G36*
X2157577Y-129387D02*
G01*
X2152599Y-134416D01*
X2152599Y-249377D01*
X2157577Y-254406D01*
X2199589Y-253898D01*
X2199589Y-209905D01*
X2244598Y-209905D01*
X2244598Y-254914D01*
X2285593Y-254406D01*
X2290572Y-249377D01*
X2290572Y-134416D01*
X2285593Y-129387D01*
G37*
G36*
X2157577Y-344424D02*
G01*
X2152599Y-349402D01*
X2152599Y-464413D01*
X2157577Y-469392D01*
X2285593Y-469392D01*
X2290572Y-464413D01*
X2290572Y-349402D01*
X2285593Y-344424D01*
X2244598Y-344881D01*
X2244598Y-388924D01*
X2199589Y-388924D01*
X2199589Y-344424D01*
G37*
G36*
X2360015Y-127508D02*
G01*
X2354986Y-132486D01*
X2354986Y-247497D01*
X2360015Y-252475D01*
X2401976Y-252018D01*
X2401976Y-207975D01*
X2446985Y-207975D01*
X2446985Y-252984D01*
X2487980Y-252475D01*
X2493010Y-247497D01*
X2493010Y-132486D01*
X2487980Y-127508D01*
G37*
G36*
X2360015Y-342493D02*
G01*
X2354986Y-347522D01*
X2354986Y-462483D01*
X2360015Y-467512D01*
X2487980Y-467512D01*
X2493010Y-462483D01*
X2493010Y-347522D01*
X2487980Y-342493D01*
X2446985Y-343001D01*
X2446985Y-386994D01*
X2401976Y-386994D01*
X2401976Y-342493D01*
G37*
G36*
X1288491Y-995476D02*
G01*
X1283512Y-1000506D01*
X1283512Y-1128471D01*
X1288491Y-1133500D01*
X1403502Y-1133500D01*
X1408480Y-1128471D01*
X1407972Y-1086510D01*
X1363980Y-1086510D01*
X1363980Y-1041501D01*
X1408988Y-1041501D01*
X1408480Y-1000506D01*
X1403502Y-995476D01*
G37*
G36*
X1503476Y-995476D02*
G01*
X1498498Y-1000506D01*
X1499006Y-1041501D01*
X1542999Y-1041501D01*
X1542999Y-1086510D01*
X1498498Y-1086510D01*
X1498498Y-1128471D01*
X1503476Y-1133500D01*
X1618488Y-1133500D01*
X1623517Y-1128471D01*
X1623517Y-1000506D01*
X1618488Y-995476D01*
G37*
G36*
X3028188Y-1095908D02*
G01*
X3024174Y-1099921D01*
X3024174Y-1150010D01*
X3028188Y-1153972D01*
X3074212Y-1153972D01*
X3078175Y-1150010D01*
X3078175Y-1099921D01*
X3074212Y-1095908D01*
G37*
G36*
X3028188Y-1180998D02*
G01*
X3024174Y-1185011D01*
X3024174Y-1235049D01*
X3028188Y-1239062D01*
X3074212Y-1239062D01*
X3078175Y-1235049D01*
X3078175Y-1185011D01*
X3074212Y-1180998D01*
G37*
G36*
X2627477Y-1095908D02*
G01*
X2623515Y-1099921D01*
X2623515Y-1150010D01*
X2627477Y-1153972D01*
X2673502Y-1153972D01*
X2677515Y-1150010D01*
X2677515Y-1099921D01*
X2673502Y-1095908D01*
G37*
G36*
X2627477Y-1180998D02*
G01*
X2623515Y-1185011D01*
X2623515Y-1235049D01*
X2627477Y-1239062D01*
X2673502Y-1239062D01*
X2677515Y-1235049D01*
X2677515Y-1185011D01*
X2673502Y-1180998D01*
G37*
G36*
X2008987Y-3340912D02*
G01*
X2004974Y-3344875D01*
X2004974Y-3394964D01*
X2008987Y-3398977D01*
X2055012Y-3398977D01*
X2059025Y-3394964D01*
X2059025Y-3344875D01*
X2055012Y-3340912D01*
G37*
G36*
X2008987Y-3255822D02*
G01*
X2004974Y-3259836D01*
X2004974Y-3309924D01*
X2008987Y-3313887D01*
X2055012Y-3313887D01*
X2059025Y-3309924D01*
X2059025Y-3259836D01*
X2055012Y-3255822D01*
G37*
G36*
X2262987Y-3340912D02*
G01*
X2258974Y-3344875D01*
X2258974Y-3394964D01*
X2262987Y-3398977D01*
X2309012Y-3398977D01*
X2313025Y-3394964D01*
X2313025Y-3344875D01*
X2309012Y-3340912D01*
G37*
G36*
X2262987Y-3255822D02*
G01*
X2258974Y-3259836D01*
X2258974Y-3309924D01*
X2262987Y-3313887D01*
X2309012Y-3313887D01*
X2313025Y-3309924D01*
X2313025Y-3259836D01*
X2309012Y-3255822D01*
G37*
G36*
X1754987Y-3340912D02*
G01*
X1750974Y-3344875D01*
X1750974Y-3394964D01*
X1754987Y-3398977D01*
X1801012Y-3398977D01*
X1805025Y-3394964D01*
X1805025Y-3344875D01*
X1801012Y-3340912D01*
G37*
G36*
X1754987Y-3255822D02*
G01*
X1750974Y-3259836D01*
X1750974Y-3309924D01*
X1754987Y-3313887D01*
X1801012Y-3313887D01*
X1805025Y-3309924D01*
X1805025Y-3259836D01*
X1801012Y-3255822D01*
G37*
D10*
G01*
X845997Y-3619492D03*
G01*
X1134998Y-3619492D03*
D11*
G01*
X2036648Y-886460D03*
G01*
X2036648Y-1076452D03*
G01*
X2236647Y-981455D03*
D12*
G01*
X959002Y-356996D03*
G01*
X1492986Y-356996D03*
D13*
G01*
X1609496Y-3399002D03*
G01*
X1609496Y-3248990D03*
D14*
G01*
X3051073Y-2977565D03*
G01*
X2851073Y-2977540D03*
G01*
X2651048Y-2977565D03*
G01*
X2451049Y-2977489D03*
G01*
X2251075Y-2977565D03*
G01*
X2051075Y-2977642D03*
G01*
X1851075Y-2977514D03*
G01*
X1651076Y-2977362D03*
D15*
G01*
X1520977Y-2722168D03*
G01*
X1521053Y-2522169D03*
G01*
X1521053Y-2322245D03*
G01*
X1521053Y-2122170D03*
G01*
X1521104Y-1922297D03*
G01*
X1520952Y-1722501D03*
D14*
G01*
X1651076Y-1467434D03*
G01*
X1851075Y-1467357D03*
G01*
X2051075Y-1467357D03*
G01*
X2251075Y-1467357D03*
G01*
X2451049Y-1467357D03*
G01*
X2651048Y-1467357D03*
G01*
X2851073Y-1467357D03*
G01*
X3051073Y-1467357D03*
D16*
G01*
X2713507Y-472490D03*
G01*
X2713507Y-702487D03*
G01*
X2713507Y-932484D03*
D17*
G01*
X3307496Y-702497D03*
M02*
