G04 Layer: BottomLayer*
G04 EasyEDA v6.5.22, 2023-04-06 23:37:51*
G04 59bfaf2a9afe4f888a6a27d7eff82a53,13d4147aac1444c28c06bf4132869bd4,10*
G04 Gerber Generator version 0.2*
G04 Scale: 100 percent, Rotated: No, Reflected: No *
G04 Dimensions in millimeters *
G04 leading zeros omitted , absolute positions ,4 integer and 5 decimal *
%FSLAX45Y45*%
%MOMM*%

%ADD10C,0.6000*%
%ADD11O,1.7999964X1.0999978000000001*%
%ADD12C,2.0000*%
%ADD13R,1.7000X1.7000*%
%ADD14C,1.7000*%
%ADD15C,5.0000*%
%ADD16C,0.6096*%
%ADD17C,0.0125*%

%LPD*%
G36*
X200863Y-3974084D02*
G01*
X182422Y-3973118D01*
X165557Y-3970578D01*
X148996Y-3966413D01*
X132943Y-3960571D01*
X117500Y-3953256D01*
X102870Y-3944416D01*
X89204Y-3934206D01*
X76606Y-3922725D01*
X65125Y-3910025D01*
X55016Y-3896258D01*
X46278Y-3881577D01*
X39014Y-3866134D01*
X33324Y-3850030D01*
X29209Y-3833469D01*
X26771Y-3816553D01*
X25908Y-3799128D01*
X25908Y-200863D01*
X26873Y-182422D01*
X29413Y-165557D01*
X33578Y-148996D01*
X39420Y-132943D01*
X46736Y-117500D01*
X55575Y-102870D01*
X65786Y-89204D01*
X77266Y-76606D01*
X89966Y-65125D01*
X103733Y-55016D01*
X118414Y-46278D01*
X133858Y-39014D01*
X149961Y-33324D01*
X166522Y-29209D01*
X183438Y-26771D01*
X200863Y-25908D01*
X3799128Y-25908D01*
X3817569Y-26873D01*
X3834434Y-29413D01*
X3850995Y-33578D01*
X3867048Y-39420D01*
X3882491Y-46736D01*
X3897122Y-55575D01*
X3910787Y-65786D01*
X3923385Y-77266D01*
X3934866Y-89966D01*
X3944975Y-103733D01*
X3953713Y-118414D01*
X3960977Y-133858D01*
X3966667Y-149961D01*
X3970782Y-166522D01*
X3973220Y-183438D01*
X3974084Y-200863D01*
X3974084Y-1021638D01*
X3973118Y-1040028D01*
X3970578Y-1056944D01*
X3966413Y-1073505D01*
X3960571Y-1089558D01*
X3953256Y-1105001D01*
X3944416Y-1119581D01*
X3934206Y-1133297D01*
X3922725Y-1145895D01*
X3910025Y-1157325D01*
X3896258Y-1167485D01*
X3881577Y-1176223D01*
X3866134Y-1183487D01*
X3850030Y-1189177D01*
X3833469Y-1193292D01*
X3816553Y-1195730D01*
X3799128Y-1196594D01*
X3362553Y-1196492D01*
X3341624Y-1197457D01*
X3316782Y-1201166D01*
X3298139Y-1205839D01*
X3277209Y-1213154D01*
X3257092Y-1222502D01*
X3238042Y-1233779D01*
X3235604Y-1235405D01*
X3217875Y-1248714D01*
X3201568Y-1263700D01*
X3188614Y-1277975D01*
X3175304Y-1295704D01*
X3163773Y-1314653D01*
X3162401Y-1317193D01*
X3153054Y-1337310D01*
X3145739Y-1358239D01*
X3141065Y-1376883D01*
X3137357Y-1401724D01*
X3136392Y-1422654D01*
X3136392Y-3021990D01*
X3137662Y-3031185D01*
X3138424Y-3046476D01*
X3141522Y-3068421D01*
X3142081Y-3071317D01*
X3146755Y-3089960D01*
X3154121Y-3110890D01*
X3163468Y-3131007D01*
X3174746Y-3150057D01*
X3187801Y-3167938D01*
X3202584Y-3184499D01*
X3218942Y-3199485D01*
X3239058Y-3214420D01*
X3255568Y-3224326D01*
X3275584Y-3233928D01*
X3278276Y-3235045D01*
X3299155Y-3242360D01*
X3317849Y-3247034D01*
X3342640Y-3250742D01*
X3361588Y-3251657D01*
X3366465Y-3251403D01*
X3799332Y-3251301D01*
X3817721Y-3252266D01*
X3834637Y-3254806D01*
X3851198Y-3259023D01*
X3867251Y-3264814D01*
X3882644Y-3272129D01*
X3897274Y-3280968D01*
X3910990Y-3291179D01*
X3923588Y-3302711D01*
X3935018Y-3315360D01*
X3945178Y-3329127D01*
X3953916Y-3343808D01*
X3961180Y-3359251D01*
X3966870Y-3375355D01*
X3970985Y-3391915D01*
X3973423Y-3408832D01*
X3974084Y-3426002D01*
X3974084Y-3799128D01*
X3973118Y-3817569D01*
X3970578Y-3834434D01*
X3966413Y-3850995D01*
X3960571Y-3867048D01*
X3953256Y-3882491D01*
X3944416Y-3897122D01*
X3934206Y-3910787D01*
X3922725Y-3923385D01*
X3910025Y-3934866D01*
X3896258Y-3944975D01*
X3881577Y-3953713D01*
X3866134Y-3960977D01*
X3850030Y-3966667D01*
X3833469Y-3970782D01*
X3816553Y-3973220D01*
X3799128Y-3974084D01*
G37*

%LPC*%
G36*
X1528470Y-3730396D02*
G01*
X1697329Y-3730396D01*
X1703628Y-3729685D01*
X1709115Y-3727805D01*
X1713992Y-3724706D01*
X1718106Y-3720592D01*
X1721205Y-3715715D01*
X1723085Y-3710228D01*
X1723796Y-3703929D01*
X1723796Y-3535070D01*
X1723085Y-3528771D01*
X1721205Y-3523284D01*
X1718106Y-3518408D01*
X1713992Y-3514293D01*
X1709115Y-3511194D01*
X1703628Y-3509314D01*
X1697329Y-3508603D01*
X1585264Y-3508603D01*
X1581353Y-3507841D01*
X1578102Y-3505606D01*
X1226769Y-3154324D01*
X1224584Y-3151022D01*
X1223822Y-3147110D01*
X1223822Y-2287219D01*
X1223568Y-2282190D01*
X1222959Y-2277313D01*
X1221892Y-2272588D01*
X1220419Y-2267915D01*
X1218590Y-2263444D01*
X1216304Y-2259076D01*
X1213713Y-2254961D01*
X1210716Y-2251100D01*
X1207312Y-2247341D01*
X952855Y-1992630D01*
X949045Y-1989175D01*
X945235Y-1986229D01*
X941069Y-1983587D01*
X936802Y-1981352D01*
X932230Y-1979472D01*
X927608Y-1977999D01*
X922832Y-1976932D01*
X918057Y-1976323D01*
X912926Y-1976069D01*
X814222Y-1976069D01*
X810818Y-1975510D01*
X807770Y-1973783D01*
X805535Y-1971192D01*
X799033Y-1960473D01*
X789686Y-1948535D01*
X778916Y-1937766D01*
X766978Y-1928418D01*
X753973Y-1920544D01*
X740105Y-1914296D01*
X725576Y-1909775D01*
X710641Y-1907032D01*
X695452Y-1906117D01*
X680262Y-1907032D01*
X665327Y-1909775D01*
X650798Y-1914296D01*
X636930Y-1920544D01*
X623925Y-1928418D01*
X611987Y-1937766D01*
X601218Y-1948535D01*
X591870Y-1960473D01*
X583996Y-1973478D01*
X577748Y-1987346D01*
X573227Y-2001875D01*
X570484Y-2016810D01*
X569569Y-2032000D01*
X570484Y-2047189D01*
X573227Y-2062124D01*
X577748Y-2076653D01*
X583996Y-2090521D01*
X591870Y-2103526D01*
X601218Y-2115464D01*
X611987Y-2126234D01*
X623925Y-2135581D01*
X636930Y-2143455D01*
X650798Y-2149703D01*
X665327Y-2154224D01*
X680262Y-2156968D01*
X695452Y-2157882D01*
X710641Y-2156968D01*
X725576Y-2154224D01*
X740105Y-2149703D01*
X753973Y-2143455D01*
X766978Y-2135581D01*
X778916Y-2126234D01*
X789686Y-2115464D01*
X799033Y-2103526D01*
X805535Y-2092807D01*
X807770Y-2090216D01*
X810818Y-2088489D01*
X814222Y-2087930D01*
X885748Y-2087930D01*
X889660Y-2088692D01*
X892911Y-2090877D01*
X1109014Y-2307183D01*
X1111199Y-2310485D01*
X1111961Y-2314346D01*
X1111961Y-3174288D01*
X1112215Y-3179368D01*
X1112824Y-3184194D01*
X1113891Y-3188970D01*
X1115364Y-3193592D01*
X1117244Y-3198114D01*
X1119479Y-3202432D01*
X1122121Y-3206546D01*
X1125067Y-3210407D01*
X1128522Y-3214166D01*
X1499006Y-3584701D01*
X1501241Y-3587953D01*
X1502003Y-3591864D01*
X1502003Y-3703929D01*
X1502714Y-3710228D01*
X1504594Y-3715715D01*
X1507693Y-3720592D01*
X1511808Y-3724706D01*
X1516684Y-3727805D01*
X1522171Y-3729685D01*
G37*
G36*
X2124456Y-3730345D02*
G01*
X2138578Y-3728974D01*
X2152446Y-3725824D01*
X2165807Y-3720896D01*
X2178405Y-3714343D01*
X2190038Y-3706215D01*
X2200554Y-3696665D01*
X2209749Y-3685844D01*
X2217521Y-3673906D01*
X2223668Y-3661105D01*
X2228138Y-3647643D01*
X2230882Y-3633673D01*
X2231796Y-3619500D01*
X2230882Y-3605326D01*
X2228138Y-3591356D01*
X2223668Y-3577894D01*
X2217521Y-3565093D01*
X2209749Y-3553155D01*
X2200554Y-3542334D01*
X2190038Y-3532784D01*
X2178405Y-3524656D01*
X2165807Y-3518103D01*
X2152446Y-3513175D01*
X2138578Y-3510026D01*
X2124456Y-3508654D01*
X2110232Y-3509111D01*
X2096211Y-3511397D01*
X2082596Y-3515461D01*
X2069592Y-3521201D01*
X2057450Y-3528568D01*
X2046325Y-3537407D01*
X2036470Y-3547618D01*
X2027986Y-3558997D01*
X2020976Y-3571392D01*
X2015642Y-3584549D01*
X2012035Y-3598316D01*
X2010257Y-3612387D01*
X2010257Y-3626612D01*
X2012035Y-3640683D01*
X2015642Y-3654450D01*
X2020976Y-3667607D01*
X2027986Y-3680002D01*
X2036470Y-3691382D01*
X2046325Y-3701592D01*
X2057450Y-3710432D01*
X2069592Y-3717798D01*
X2082596Y-3723589D01*
X2096211Y-3727602D01*
X2110232Y-3729888D01*
G37*
G36*
X2378456Y-3730345D02*
G01*
X2392578Y-3728974D01*
X2406446Y-3725824D01*
X2419807Y-3720896D01*
X2432405Y-3714343D01*
X2444038Y-3706215D01*
X2454554Y-3696665D01*
X2463749Y-3685844D01*
X2471521Y-3673906D01*
X2477668Y-3661105D01*
X2482138Y-3647643D01*
X2484882Y-3633673D01*
X2485796Y-3619500D01*
X2484882Y-3605326D01*
X2482138Y-3591356D01*
X2477668Y-3577894D01*
X2471521Y-3565093D01*
X2463749Y-3553155D01*
X2454554Y-3542334D01*
X2444038Y-3532784D01*
X2432405Y-3524656D01*
X2419807Y-3518103D01*
X2406446Y-3513175D01*
X2392578Y-3510026D01*
X2378456Y-3508654D01*
X2364232Y-3509111D01*
X2350211Y-3511397D01*
X2336596Y-3515461D01*
X2323592Y-3521201D01*
X2311450Y-3528568D01*
X2300325Y-3537407D01*
X2290470Y-3547618D01*
X2281986Y-3558997D01*
X2274976Y-3571392D01*
X2269642Y-3584549D01*
X2266035Y-3598316D01*
X2264257Y-3612387D01*
X2264257Y-3626612D01*
X2266035Y-3640683D01*
X2269642Y-3654450D01*
X2274976Y-3667607D01*
X2281986Y-3680002D01*
X2290470Y-3691382D01*
X2300325Y-3701592D01*
X2311450Y-3710432D01*
X2323592Y-3717798D01*
X2336596Y-3723589D01*
X2350211Y-3727602D01*
X2364232Y-3729888D01*
G37*
G36*
X2886456Y-3730345D02*
G01*
X2900578Y-3728974D01*
X2914446Y-3725824D01*
X2927807Y-3720896D01*
X2940405Y-3714343D01*
X2952038Y-3706215D01*
X2962554Y-3696665D01*
X2971749Y-3685844D01*
X2979521Y-3673906D01*
X2985668Y-3661105D01*
X2990138Y-3647643D01*
X2992882Y-3633673D01*
X2993796Y-3619500D01*
X2992882Y-3605326D01*
X2990138Y-3591356D01*
X2985668Y-3577894D01*
X2979521Y-3565093D01*
X2971749Y-3553155D01*
X2962554Y-3542334D01*
X2952038Y-3532784D01*
X2940405Y-3524656D01*
X2927807Y-3518103D01*
X2914446Y-3513175D01*
X2900578Y-3510026D01*
X2886456Y-3508654D01*
X2872232Y-3509111D01*
X2858211Y-3511397D01*
X2844596Y-3515461D01*
X2831592Y-3521201D01*
X2819450Y-3528568D01*
X2808325Y-3537407D01*
X2798470Y-3547618D01*
X2789986Y-3558997D01*
X2782976Y-3571392D01*
X2777642Y-3584549D01*
X2774035Y-3598316D01*
X2772257Y-3612387D01*
X2772257Y-3626612D01*
X2774035Y-3640683D01*
X2777642Y-3654450D01*
X2782976Y-3667607D01*
X2789986Y-3680002D01*
X2798470Y-3691382D01*
X2808325Y-3701592D01*
X2819450Y-3710432D01*
X2831592Y-3717798D01*
X2844596Y-3723589D01*
X2858211Y-3727602D01*
X2872232Y-3729888D01*
G37*
G36*
X2632456Y-3730345D02*
G01*
X2646578Y-3728974D01*
X2660446Y-3725824D01*
X2673807Y-3720896D01*
X2686405Y-3714343D01*
X2698038Y-3706215D01*
X2708554Y-3696665D01*
X2717749Y-3685844D01*
X2725521Y-3673906D01*
X2731668Y-3661105D01*
X2736138Y-3647643D01*
X2738882Y-3633673D01*
X2739796Y-3619500D01*
X2738882Y-3605326D01*
X2736138Y-3591356D01*
X2731668Y-3577894D01*
X2725521Y-3565093D01*
X2717749Y-3553155D01*
X2708554Y-3542334D01*
X2698038Y-3532784D01*
X2686405Y-3524656D01*
X2673807Y-3518103D01*
X2660446Y-3513175D01*
X2646578Y-3510026D01*
X2632456Y-3508654D01*
X2618232Y-3509111D01*
X2604211Y-3511397D01*
X2590596Y-3515461D01*
X2577592Y-3521201D01*
X2565450Y-3528568D01*
X2554325Y-3537407D01*
X2544470Y-3547618D01*
X2535986Y-3558997D01*
X2528976Y-3571392D01*
X2523642Y-3584549D01*
X2520035Y-3598316D01*
X2518257Y-3612387D01*
X2518257Y-3626612D01*
X2520035Y-3640683D01*
X2523642Y-3654450D01*
X2528976Y-3667607D01*
X2535986Y-3680002D01*
X2544470Y-3691382D01*
X2554325Y-3701592D01*
X2565450Y-3710432D01*
X2577592Y-3717798D01*
X2590596Y-3723589D01*
X2604211Y-3727602D01*
X2618232Y-3729888D01*
G37*
G36*
X3140456Y-3730345D02*
G01*
X3154578Y-3728974D01*
X3168446Y-3725824D01*
X3181807Y-3720896D01*
X3194405Y-3714343D01*
X3206038Y-3706215D01*
X3216554Y-3696665D01*
X3225749Y-3685844D01*
X3233521Y-3673906D01*
X3239668Y-3661105D01*
X3244138Y-3647643D01*
X3246882Y-3633673D01*
X3247796Y-3619500D01*
X3246882Y-3605326D01*
X3244138Y-3591356D01*
X3239668Y-3577894D01*
X3233521Y-3565093D01*
X3225749Y-3553155D01*
X3216554Y-3542334D01*
X3206038Y-3532784D01*
X3197148Y-3526586D01*
X3194812Y-3524351D01*
X3193338Y-3521456D01*
X3192830Y-3518255D01*
X3192830Y-3404615D01*
X3192576Y-3399536D01*
X3191967Y-3394710D01*
X3190900Y-3389934D01*
X3189427Y-3385261D01*
X3187547Y-3380790D01*
X3185312Y-3376472D01*
X3182670Y-3372358D01*
X3179724Y-3368446D01*
X3176270Y-3364687D01*
X3169716Y-3358134D01*
X3167481Y-3354781D01*
X3166719Y-3350768D01*
X3167634Y-3346805D01*
X3170021Y-3343503D01*
X3173476Y-3341370D01*
X3177540Y-3340811D01*
X3187344Y-3339947D01*
X3196793Y-3337407D01*
X3205734Y-3333292D01*
X3213760Y-3327654D01*
X3220720Y-3320694D01*
X3226358Y-3312668D01*
X3230473Y-3303727D01*
X3233013Y-3294278D01*
X3233877Y-3284474D01*
X3233013Y-3274669D01*
X3230473Y-3265220D01*
X3226358Y-3256279D01*
X3220720Y-3248253D01*
X3213658Y-3241243D01*
X3212236Y-3240074D01*
X3110839Y-3137052D01*
X3108655Y-3133750D01*
X3107893Y-3129889D01*
X3107893Y-1217472D01*
X3108350Y-1211986D01*
X3107486Y-1202182D01*
X3104946Y-1192733D01*
X3100781Y-1183792D01*
X3095142Y-1175766D01*
X3088233Y-1168806D01*
X3080156Y-1163167D01*
X3071266Y-1159052D01*
X3061766Y-1156512D01*
X3052013Y-1155649D01*
X3042208Y-1156512D01*
X3032709Y-1159052D01*
X3023819Y-1163167D01*
X3015742Y-1168806D01*
X3008833Y-1175766D01*
X3003194Y-1183792D01*
X2999028Y-1192733D01*
X2996488Y-1202182D01*
X2995625Y-1211986D01*
X2996082Y-1217472D01*
X2996082Y-1293368D01*
X2994863Y-1305915D01*
X2996082Y-1318412D01*
X2996082Y-3156762D01*
X2996285Y-3161385D01*
X2996946Y-3166719D01*
X2997860Y-3170986D01*
X2999486Y-3176117D01*
X3001111Y-3180181D01*
X3003600Y-3184956D01*
X3005937Y-3188665D01*
X3009188Y-3192932D01*
X3012287Y-3196336D01*
X3022701Y-3206902D01*
X3024886Y-3210306D01*
X3025648Y-3214268D01*
X3024733Y-3218180D01*
X3022447Y-3221482D01*
X3018993Y-3223564D01*
X3015030Y-3224225D01*
X3012287Y-3224072D01*
X2351074Y-3224072D01*
X2347163Y-3223310D01*
X2343861Y-3221126D01*
X2341676Y-3217824D01*
X2340914Y-3213912D01*
X2340965Y-3193491D01*
X2341321Y-3189020D01*
X2340457Y-3179216D01*
X2337917Y-3169716D01*
X2333802Y-3160826D01*
X2328164Y-3152749D01*
X2321204Y-3145840D01*
X2313178Y-3140202D01*
X2304237Y-3136036D01*
X2294788Y-3133496D01*
X2284984Y-3132632D01*
X2275179Y-3133496D01*
X2265730Y-3136036D01*
X2256790Y-3140202D01*
X2248763Y-3145840D01*
X2241804Y-3152749D01*
X2236165Y-3160826D01*
X2232050Y-3169716D01*
X2229510Y-3179216D01*
X2228646Y-3189020D01*
X2229104Y-3194608D01*
X2229104Y-3279546D01*
X2230018Y-3290417D01*
X2230475Y-3293821D01*
X2233066Y-3303473D01*
X2237181Y-3312414D01*
X2242820Y-3320440D01*
X2249779Y-3327400D01*
X2257806Y-3333038D01*
X2266746Y-3337153D01*
X2276195Y-3339693D01*
X2286000Y-3340557D01*
X2295804Y-3339693D01*
X2305964Y-3336848D01*
X2310231Y-3335883D01*
X2985109Y-3335883D01*
X2989021Y-3336696D01*
X2992323Y-3338880D01*
X3078022Y-3424580D01*
X3080207Y-3427882D01*
X3080969Y-3431743D01*
X3080969Y-3518255D01*
X3080410Y-3521659D01*
X3078683Y-3524707D01*
X3076092Y-3526942D01*
X3073450Y-3528568D01*
X3062325Y-3537407D01*
X3052470Y-3547618D01*
X3043986Y-3558997D01*
X3036976Y-3571392D01*
X3031642Y-3584549D01*
X3028035Y-3598316D01*
X3026257Y-3612387D01*
X3026257Y-3626612D01*
X3028035Y-3640683D01*
X3031642Y-3654450D01*
X3036976Y-3667607D01*
X3043986Y-3680002D01*
X3052470Y-3691382D01*
X3062325Y-3701592D01*
X3073450Y-3710432D01*
X3085592Y-3717798D01*
X3098596Y-3723589D01*
X3112211Y-3727602D01*
X3126232Y-3729888D01*
G37*
G36*
X1818030Y-3718915D02*
G01*
X1818030Y-3668369D01*
X1767433Y-3668369D01*
X1773986Y-3680002D01*
X1782470Y-3691382D01*
X1792325Y-3701592D01*
X1803450Y-3710432D01*
X1815592Y-3717798D01*
G37*
G36*
X1915769Y-3718814D02*
G01*
X1924405Y-3714343D01*
X1936038Y-3706215D01*
X1946554Y-3696665D01*
X1955749Y-3685844D01*
X1963521Y-3673906D01*
X1966214Y-3668369D01*
X1915769Y-3668369D01*
G37*
G36*
X1915769Y-3570630D02*
G01*
X1966214Y-3570630D01*
X1963521Y-3565093D01*
X1955749Y-3553155D01*
X1946554Y-3542334D01*
X1936038Y-3532784D01*
X1924405Y-3524656D01*
X1915769Y-3520186D01*
G37*
G36*
X1767433Y-3570630D02*
G01*
X1818030Y-3570630D01*
X1818030Y-3520084D01*
X1815592Y-3521201D01*
X1803450Y-3528568D01*
X1792325Y-3537407D01*
X1782470Y-3547618D01*
X1773986Y-3558997D01*
G37*
G36*
X2143506Y-3428847D02*
G01*
X2153310Y-3427984D01*
X2162759Y-3425444D01*
X2171700Y-3421278D01*
X2179726Y-3415639D01*
X2186686Y-3408730D01*
X2192324Y-3400653D01*
X2196439Y-3391763D01*
X2198979Y-3382264D01*
X2199843Y-3372510D01*
X2198979Y-3362706D01*
X2196439Y-3353206D01*
X2192324Y-3344316D01*
X2186686Y-3336239D01*
X2179726Y-3329330D01*
X2171700Y-3323691D01*
X2162759Y-3319526D01*
X2153310Y-3316986D01*
X2143506Y-3316122D01*
X2136546Y-3316681D01*
X2048764Y-3316681D01*
X2046173Y-3316376D01*
X2041804Y-3315208D01*
X2032000Y-3314344D01*
X2022195Y-3315208D01*
X2017826Y-3316376D01*
X2015236Y-3316681D01*
X1950923Y-3316681D01*
X1947011Y-3315919D01*
X1943709Y-3313734D01*
X1874672Y-3244697D01*
X1872488Y-3241395D01*
X1871725Y-3237534D01*
X1872488Y-3233623D01*
X1874672Y-3230321D01*
X1877974Y-3228136D01*
X1881886Y-3227374D01*
X1995220Y-3227374D01*
X2000300Y-3227120D01*
X2005126Y-3226511D01*
X2009902Y-3225444D01*
X2014524Y-3223971D01*
X2019046Y-3222091D01*
X2023364Y-3219856D01*
X2027478Y-3217214D01*
X2031339Y-3214268D01*
X2035098Y-3210814D01*
X2071370Y-3174542D01*
X2074824Y-3170783D01*
X2077770Y-3166922D01*
X2080412Y-3162808D01*
X2082647Y-3158490D01*
X2084527Y-3153968D01*
X2086000Y-3149295D01*
X2087473Y-3142792D01*
X2088337Y-3132785D01*
X2087930Y-3127298D01*
X2087930Y-3023209D01*
X2088692Y-3019298D01*
X2090877Y-3015996D01*
X2094687Y-3012236D01*
X2100326Y-3004159D01*
X2104440Y-2995269D01*
X2106980Y-2985770D01*
X2107844Y-2976016D01*
X2106980Y-2966212D01*
X2104440Y-2956712D01*
X2100326Y-2947822D01*
X2094687Y-2939745D01*
X2087727Y-2932836D01*
X2079701Y-2927197D01*
X2070760Y-2923032D01*
X2061311Y-2920492D01*
X2051507Y-2919628D01*
X2041702Y-2920492D01*
X2032254Y-2923032D01*
X2023313Y-2927197D01*
X2015286Y-2932836D01*
X2008327Y-2939745D01*
X2006650Y-2941878D01*
X1992884Y-2955442D01*
X1989175Y-2959506D01*
X1986432Y-2963011D01*
X1983587Y-2967482D01*
X1981504Y-2971444D01*
X1979472Y-2976321D01*
X1978101Y-2980588D01*
X1976932Y-2985770D01*
X1976374Y-2990138D01*
X1976069Y-2995676D01*
X1976069Y-3105353D01*
X1975307Y-3109264D01*
X1973122Y-3112566D01*
X1969820Y-3114751D01*
X1965909Y-3115513D01*
X1570431Y-3115513D01*
X1566519Y-3114751D01*
X1563217Y-3112566D01*
X1374851Y-2924200D01*
X1372666Y-2920898D01*
X1371904Y-2916986D01*
X1371904Y-1453845D01*
X1372666Y-1449933D01*
X1374851Y-1446631D01*
X1509115Y-1312367D01*
X1512417Y-1310182D01*
X1516329Y-1309420D01*
X2039416Y-1309420D01*
X2044496Y-1309166D01*
X2049322Y-1308557D01*
X2054098Y-1307490D01*
X2058720Y-1306017D01*
X2063242Y-1304137D01*
X2067560Y-1301902D01*
X2071674Y-1299260D01*
X2075535Y-1296314D01*
X2079294Y-1292860D01*
X2276094Y-1096060D01*
X2279548Y-1092301D01*
X2282494Y-1088440D01*
X2285136Y-1084326D01*
X2287371Y-1080008D01*
X2289251Y-1075486D01*
X2290724Y-1070864D01*
X2291791Y-1066088D01*
X2292400Y-1061262D01*
X2292654Y-1056182D01*
X2292654Y-1042365D01*
X2293416Y-1038453D01*
X2295601Y-1035151D01*
X2298903Y-1032967D01*
X2302814Y-1032205D01*
X2372461Y-1032205D01*
X2377948Y-1032611D01*
X2387752Y-1031748D01*
X2397201Y-1029208D01*
X2406142Y-1025093D01*
X2414168Y-1019454D01*
X2421128Y-1012494D01*
X2426766Y-1004468D01*
X2430881Y-995527D01*
X2433421Y-986078D01*
X2434285Y-976274D01*
X2433421Y-966469D01*
X2430881Y-957021D01*
X2426766Y-948080D01*
X2421128Y-940053D01*
X2414168Y-933094D01*
X2406142Y-927455D01*
X2397201Y-923340D01*
X2387752Y-920800D01*
X2377948Y-919937D01*
X2372461Y-920343D01*
X2242058Y-920343D01*
X2236978Y-920597D01*
X2232101Y-921207D01*
X2227376Y-922274D01*
X2222703Y-923747D01*
X2218182Y-925626D01*
X2213864Y-927862D01*
X2209749Y-930503D01*
X2206091Y-933297D01*
X2200656Y-938072D01*
X2193493Y-945235D01*
X2187854Y-953262D01*
X2183688Y-962202D01*
X2181148Y-971651D01*
X2180285Y-981456D01*
X2180793Y-987806D01*
X2180793Y-1029004D01*
X2180031Y-1032916D01*
X2177846Y-1036218D01*
X2019452Y-1194612D01*
X2016150Y-1196797D01*
X2012238Y-1197559D01*
X1489151Y-1197559D01*
X1484071Y-1197813D01*
X1479245Y-1198422D01*
X1474470Y-1199489D01*
X1469847Y-1200962D01*
X1465326Y-1202842D01*
X1461008Y-1205077D01*
X1456893Y-1207719D01*
X1453032Y-1210665D01*
X1449273Y-1214120D01*
X1276604Y-1386789D01*
X1273149Y-1390548D01*
X1270203Y-1394409D01*
X1267561Y-1398524D01*
X1265326Y-1402842D01*
X1263446Y-1407363D01*
X1261973Y-1411986D01*
X1260906Y-1416761D01*
X1260297Y-1421587D01*
X1260043Y-1426667D01*
X1260043Y-2944164D01*
X1260297Y-2949244D01*
X1260906Y-2954070D01*
X1261973Y-2958846D01*
X1263446Y-2963468D01*
X1265326Y-2967990D01*
X1267561Y-2972308D01*
X1270203Y-2976422D01*
X1273149Y-2980283D01*
X1276604Y-2984042D01*
X1283563Y-2991002D01*
X1285697Y-2994202D01*
X1286510Y-2998012D01*
X1285849Y-3001822D01*
X1283817Y-3005124D01*
X1280668Y-3007410D01*
X1273403Y-3010763D01*
X1265326Y-3016402D01*
X1258417Y-3023362D01*
X1252778Y-3031388D01*
X1248613Y-3040329D01*
X1246073Y-3049778D01*
X1245209Y-3059582D01*
X1246073Y-3069386D01*
X1248613Y-3078835D01*
X1252778Y-3087776D01*
X1258417Y-3095802D01*
X1265732Y-3103016D01*
X1267104Y-3104134D01*
X1343914Y-3180994D01*
X1345336Y-3182721D01*
X1352854Y-3190087D01*
X1354226Y-3191205D01*
X1455369Y-3292348D01*
X1459128Y-3295802D01*
X1462989Y-3298748D01*
X1467104Y-3301390D01*
X1471422Y-3303625D01*
X1475943Y-3305505D01*
X1480566Y-3306978D01*
X1485341Y-3308045D01*
X1490167Y-3308654D01*
X1495247Y-3308908D01*
X1776526Y-3308908D01*
X1780438Y-3309670D01*
X1783740Y-3311855D01*
X1883867Y-3411982D01*
X1887626Y-3415436D01*
X1891487Y-3418382D01*
X1895602Y-3421024D01*
X1899920Y-3423259D01*
X1904441Y-3425139D01*
X1909064Y-3426612D01*
X1913839Y-3427679D01*
X1918665Y-3428288D01*
X1923745Y-3428542D01*
X2139492Y-3428542D01*
G37*
G36*
X508152Y-3354476D02*
G01*
X508152Y-3309365D01*
X451053Y-3309365D01*
X456438Y-3319221D01*
X463346Y-3328466D01*
X471525Y-3336645D01*
X480771Y-3343554D01*
X490880Y-3349091D01*
X501700Y-3353104D01*
G37*
G36*
X128168Y-3354476D02*
G01*
X128168Y-3309365D01*
X71069Y-3309365D01*
X76454Y-3319221D01*
X83362Y-3328466D01*
X91541Y-3336645D01*
X100787Y-3343554D01*
X110896Y-3349091D01*
X121716Y-3353104D01*
G37*
G36*
X230835Y-3354476D02*
G01*
X237286Y-3353104D01*
X248107Y-3349091D01*
X258216Y-3343554D01*
X267462Y-3336645D01*
X275640Y-3328466D01*
X282549Y-3319221D01*
X287934Y-3309365D01*
X230835Y-3309365D01*
G37*
G36*
X610819Y-3354476D02*
G01*
X617270Y-3353104D01*
X628091Y-3349091D01*
X638200Y-3343554D01*
X647446Y-3336645D01*
X655624Y-3328466D01*
X662533Y-3319221D01*
X667918Y-3309365D01*
X610819Y-3309365D01*
G37*
G36*
X451053Y-3241649D02*
G01*
X508152Y-3241649D01*
X508152Y-3196488D01*
X501700Y-3197910D01*
X490880Y-3201924D01*
X480771Y-3207461D01*
X471525Y-3214370D01*
X463346Y-3222548D01*
X456438Y-3231743D01*
G37*
G36*
X230835Y-3241649D02*
G01*
X287934Y-3241649D01*
X282549Y-3231743D01*
X275640Y-3222548D01*
X267462Y-3214370D01*
X258216Y-3207461D01*
X248107Y-3201924D01*
X237286Y-3197910D01*
X230835Y-3196488D01*
G37*
G36*
X71069Y-3241649D02*
G01*
X128168Y-3241649D01*
X128168Y-3196488D01*
X121716Y-3197910D01*
X110896Y-3201924D01*
X100787Y-3207461D01*
X91541Y-3214370D01*
X83362Y-3222548D01*
X76454Y-3231743D01*
G37*
G36*
X610819Y-3241649D02*
G01*
X667918Y-3241649D01*
X662533Y-3231743D01*
X655624Y-3222548D01*
X647446Y-3214370D01*
X638200Y-3207461D01*
X628091Y-3201924D01*
X617270Y-3197910D01*
X610819Y-3196488D01*
G37*
G36*
X343408Y-2980385D02*
G01*
X353212Y-2979521D01*
X362661Y-2976981D01*
X371602Y-2972866D01*
X379628Y-2967228D01*
X386588Y-2960268D01*
X392226Y-2952242D01*
X396341Y-2943301D01*
X398881Y-2933852D01*
X399745Y-2924048D01*
X399338Y-2918561D01*
X399338Y-2852928D01*
X399745Y-2847441D01*
X399338Y-2841955D01*
X399338Y-2773578D01*
X399745Y-2768092D01*
X398881Y-2758287D01*
X396341Y-2748838D01*
X392226Y-2739898D01*
X386588Y-2731871D01*
X379628Y-2724912D01*
X371602Y-2719273D01*
X362661Y-2715158D01*
X353212Y-2712618D01*
X343408Y-2711754D01*
X333603Y-2712618D01*
X324154Y-2715158D01*
X315214Y-2719273D01*
X307187Y-2724912D01*
X300228Y-2731871D01*
X294589Y-2739898D01*
X290474Y-2748838D01*
X287934Y-2758287D01*
X287070Y-2768092D01*
X287477Y-2773578D01*
X287477Y-2841955D01*
X287070Y-2847441D01*
X287477Y-2852928D01*
X287477Y-2918561D01*
X287070Y-2924048D01*
X287934Y-2933852D01*
X290474Y-2943301D01*
X294589Y-2952242D01*
X300228Y-2960268D01*
X307187Y-2967228D01*
X315214Y-2972866D01*
X324154Y-2976981D01*
X333603Y-2979521D01*
G37*
G36*
X508152Y-2490470D02*
G01*
X508152Y-2445359D01*
X451053Y-2445359D01*
X456438Y-2455214D01*
X463346Y-2464460D01*
X471525Y-2472639D01*
X480771Y-2479548D01*
X490880Y-2485085D01*
X501700Y-2489098D01*
G37*
G36*
X128168Y-2490470D02*
G01*
X128168Y-2445359D01*
X71069Y-2445359D01*
X76454Y-2455214D01*
X83362Y-2464460D01*
X91541Y-2472639D01*
X100787Y-2479548D01*
X110896Y-2485085D01*
X121716Y-2489098D01*
G37*
G36*
X230835Y-2490470D02*
G01*
X237286Y-2489098D01*
X248107Y-2485085D01*
X258216Y-2479548D01*
X267462Y-2472639D01*
X275640Y-2464460D01*
X282549Y-2455214D01*
X287934Y-2445359D01*
X230835Y-2445359D01*
G37*
G36*
X610819Y-2490470D02*
G01*
X617270Y-2489098D01*
X628091Y-2485085D01*
X638200Y-2479548D01*
X647446Y-2472639D01*
X655624Y-2464460D01*
X662533Y-2455214D01*
X667918Y-2445359D01*
X610819Y-2445359D01*
G37*
G36*
X451053Y-2377643D02*
G01*
X508152Y-2377643D01*
X508152Y-2332482D01*
X501700Y-2333904D01*
X490880Y-2337917D01*
X480771Y-2343454D01*
X471525Y-2350363D01*
X463346Y-2358542D01*
X456438Y-2367737D01*
G37*
G36*
X230835Y-2377643D02*
G01*
X287934Y-2377643D01*
X282549Y-2367737D01*
X275640Y-2358542D01*
X267462Y-2350363D01*
X258216Y-2343454D01*
X248107Y-2337917D01*
X237286Y-2333904D01*
X230835Y-2332482D01*
G37*
G36*
X71069Y-2377643D02*
G01*
X128168Y-2377643D01*
X128168Y-2332482D01*
X121716Y-2333904D01*
X110896Y-2337917D01*
X100787Y-2343454D01*
X91541Y-2350363D01*
X83362Y-2358542D01*
X76454Y-2367737D01*
G37*
G36*
X610819Y-2377643D02*
G01*
X667918Y-2377643D01*
X662533Y-2367737D01*
X655624Y-2358542D01*
X647446Y-2350363D01*
X638200Y-2343454D01*
X628091Y-2337917D01*
X617270Y-2333904D01*
X610819Y-2332482D01*
G37*
G36*
X695452Y-1649882D02*
G01*
X710641Y-1648968D01*
X725576Y-1646224D01*
X740105Y-1641703D01*
X753973Y-1635455D01*
X766978Y-1627581D01*
X778916Y-1618234D01*
X789686Y-1607464D01*
X799033Y-1595526D01*
X805535Y-1584807D01*
X807770Y-1582216D01*
X810818Y-1580489D01*
X814222Y-1579930D01*
X824788Y-1579930D01*
X829868Y-1579676D01*
X834694Y-1579067D01*
X839469Y-1578000D01*
X844092Y-1576527D01*
X848614Y-1574647D01*
X852932Y-1572412D01*
X857046Y-1569770D01*
X860907Y-1566824D01*
X864666Y-1563370D01*
X1286103Y-1141933D01*
X1289405Y-1139748D01*
X1293317Y-1138986D01*
X1918207Y-1138986D01*
X1923745Y-1139393D01*
X1929231Y-1138986D01*
X1993138Y-1138986D01*
X1998675Y-1139393D01*
X2008428Y-1138529D01*
X2017928Y-1135989D01*
X2026818Y-1131874D01*
X2034895Y-1126236D01*
X2041804Y-1119276D01*
X2047443Y-1111250D01*
X2051608Y-1102309D01*
X2054148Y-1092860D01*
X2055012Y-1083056D01*
X2054148Y-1073251D01*
X2051608Y-1063802D01*
X2047443Y-1054862D01*
X2041804Y-1046835D01*
X2034895Y-1039876D01*
X2026818Y-1034237D01*
X2017928Y-1030122D01*
X2008428Y-1027582D01*
X1998675Y-1026718D01*
X1993138Y-1027125D01*
X1929231Y-1027125D01*
X1923745Y-1026718D01*
X1918207Y-1027125D01*
X1266139Y-1027125D01*
X1261059Y-1027379D01*
X1256233Y-1027988D01*
X1251458Y-1029055D01*
X1246835Y-1030528D01*
X1242314Y-1032408D01*
X1237996Y-1034643D01*
X1233881Y-1037285D01*
X1230020Y-1040231D01*
X1226261Y-1043686D01*
X815136Y-1454759D01*
X812139Y-1456842D01*
X808583Y-1457706D01*
X804926Y-1457299D01*
X801725Y-1455572D01*
X799033Y-1452473D01*
X789686Y-1440535D01*
X778916Y-1429766D01*
X766978Y-1420418D01*
X753973Y-1412544D01*
X740105Y-1406296D01*
X725576Y-1401775D01*
X710641Y-1399032D01*
X695452Y-1398117D01*
X680262Y-1399032D01*
X665327Y-1401775D01*
X650798Y-1406296D01*
X636930Y-1412544D01*
X623925Y-1420418D01*
X611987Y-1429766D01*
X601218Y-1440535D01*
X591870Y-1452473D01*
X583996Y-1465478D01*
X577748Y-1479346D01*
X573227Y-1493875D01*
X570484Y-1508810D01*
X569569Y-1524000D01*
X570484Y-1539189D01*
X573227Y-1554124D01*
X577748Y-1568653D01*
X583996Y-1582521D01*
X591870Y-1595526D01*
X601218Y-1607464D01*
X611987Y-1618234D01*
X623925Y-1627581D01*
X636930Y-1635455D01*
X650798Y-1641703D01*
X665327Y-1646224D01*
X680262Y-1648968D01*
G37*
G36*
X751789Y-1128420D02*
G01*
X753973Y-1127455D01*
X766978Y-1119581D01*
X778916Y-1110234D01*
X789686Y-1099464D01*
X799033Y-1087526D01*
X806907Y-1074521D01*
X807872Y-1072337D01*
X751789Y-1072337D01*
G37*
G36*
X639114Y-1128420D02*
G01*
X639114Y-1072337D01*
X583031Y-1072337D01*
X583996Y-1074521D01*
X591870Y-1087526D01*
X601218Y-1099464D01*
X611987Y-1110234D01*
X623925Y-1119581D01*
X636930Y-1127455D01*
G37*
G36*
X1798523Y-988364D02*
G01*
X1808276Y-987501D01*
X1817776Y-984961D01*
X1826666Y-980795D01*
X1834743Y-975156D01*
X1841652Y-968248D01*
X1847291Y-960170D01*
X1851456Y-951280D01*
X1853996Y-941781D01*
X1854860Y-932027D01*
X1854403Y-926490D01*
X1854403Y-825601D01*
X1855368Y-814324D01*
X1854911Y-808736D01*
X1854911Y-772363D01*
X1855673Y-768502D01*
X1857857Y-765200D01*
X1929688Y-693369D01*
X1932990Y-691184D01*
X1936851Y-690422D01*
X2332278Y-690422D01*
X2337358Y-690168D01*
X2342184Y-689559D01*
X2346960Y-688492D01*
X2351633Y-687019D01*
X2356104Y-685139D01*
X2360422Y-682904D01*
X2364536Y-680313D01*
X2368448Y-677316D01*
X2372207Y-673862D01*
X2461361Y-584708D01*
X2464816Y-580948D01*
X2467762Y-577088D01*
X2470404Y-572973D01*
X2472639Y-568604D01*
X2474518Y-564134D01*
X2475941Y-559562D01*
X2477465Y-552094D01*
X2478328Y-541985D01*
X2477922Y-536498D01*
X2477922Y-476707D01*
X2478328Y-471220D01*
X2477465Y-461416D01*
X2474925Y-451916D01*
X2470810Y-443026D01*
X2465171Y-434949D01*
X2458212Y-428040D01*
X2450185Y-422401D01*
X2441244Y-418236D01*
X2431796Y-415696D01*
X2421991Y-414832D01*
X2412187Y-415696D01*
X2402738Y-418236D01*
X2393797Y-422401D01*
X2385771Y-428040D01*
X2378811Y-434949D01*
X2373172Y-443026D01*
X2369058Y-451916D01*
X2366518Y-461416D01*
X2365654Y-471220D01*
X2366060Y-476707D01*
X2366060Y-517651D01*
X2365298Y-521512D01*
X2363114Y-524814D01*
X2312314Y-575614D01*
X2309012Y-577799D01*
X2305151Y-578612D01*
X1909724Y-578612D01*
X1904644Y-578815D01*
X1899767Y-579475D01*
X1895043Y-580491D01*
X1890369Y-581964D01*
X1885848Y-583844D01*
X1881530Y-586079D01*
X1877415Y-588721D01*
X1873554Y-591667D01*
X1869795Y-595122D01*
X1759610Y-705307D01*
X1756156Y-709066D01*
X1753209Y-712927D01*
X1750568Y-717042D01*
X1748332Y-721360D01*
X1746453Y-725881D01*
X1744980Y-730554D01*
X1743964Y-735279D01*
X1743303Y-740105D01*
X1743100Y-745236D01*
X1743100Y-807669D01*
X1742592Y-815187D01*
X1742592Y-926490D01*
X1742135Y-932027D01*
X1742998Y-941781D01*
X1745538Y-951280D01*
X1749704Y-960170D01*
X1755343Y-968248D01*
X1762252Y-975156D01*
X1770329Y-980795D01*
X1779219Y-984961D01*
X1788718Y-987501D01*
G37*
G36*
X751789Y-959662D02*
G01*
X807872Y-959662D01*
X806907Y-957478D01*
X799033Y-944473D01*
X789686Y-932535D01*
X778916Y-921766D01*
X766978Y-912418D01*
X753973Y-904544D01*
X751789Y-903579D01*
G37*
G36*
X583031Y-959662D02*
G01*
X639114Y-959662D01*
X639114Y-903579D01*
X636930Y-904544D01*
X623925Y-912418D01*
X611987Y-921766D01*
X601218Y-932535D01*
X591870Y-944473D01*
X583996Y-957478D01*
G37*

%LPD*%
D10*
X559485Y-2411491D02*
G01*
X179501Y-2411491D01*
X343407Y-2768092D02*
G01*
X343407Y-2924047D01*
X695452Y-2032000D02*
G01*
X913129Y-2032000D01*
X1167892Y-2287015D01*
X1167892Y-3174492D01*
X1612900Y-3619500D01*
X559485Y-3275497D02*
G01*
X179501Y-3275497D01*
X2377947Y-976274D02*
G01*
X2241829Y-976274D01*
X2236647Y-981455D01*
X1388618Y-3146552D02*
G01*
X1495044Y-3252978D01*
X1803907Y-3252978D01*
X1923542Y-3372612D01*
X2143506Y-3372612D01*
X1301582Y-3059579D02*
G01*
X1388496Y-3146493D01*
X2421991Y-541995D02*
G01*
X2421991Y-545002D01*
X2332494Y-634499D01*
X1909495Y-634499D01*
X1798995Y-744999D01*
X1798995Y-814334D01*
X1798998Y-814331D02*
G01*
X1798497Y-814831D01*
X1798497Y-932002D01*
X2421991Y-471205D02*
G01*
X2421991Y-541995D01*
X1998652Y-1083055D02*
G01*
X1923722Y-1083055D01*
X3105000Y-3213100D02*
G01*
X3177540Y-3284473D01*
X3051987Y-3156978D01*
X3051987Y-1211986D01*
X3136900Y-3619500D02*
G01*
X3136900Y-3404400D01*
X3012493Y-3279993D01*
X2284994Y-3279993D01*
X2284994Y-3188992D01*
X2236724Y-981455D02*
G01*
X2236724Y-1056386D01*
X2039620Y-1253489D01*
X1488947Y-1253489D01*
X1315973Y-1426463D01*
X1315973Y-2944368D01*
X1543050Y-3171444D01*
X1995424Y-3171444D01*
X2032000Y-3134868D01*
X2032000Y-2995421D01*
X2051558Y-2976118D01*
X1923795Y-1083055D02*
G01*
X1265936Y-1083055D01*
X824992Y-1524000D01*
X695452Y-1524000D01*
D11*
G01*
X559485Y-3275497D03*
G01*
X559485Y-2411491D03*
G01*
X179501Y-3275497D03*
G01*
X179501Y-2411491D03*
D12*
G01*
X695452Y-1016000D03*
G01*
X695452Y-1524000D03*
G01*
X695452Y-2032000D03*
D13*
G01*
X1612900Y-3619500D03*
D14*
G01*
X1866900Y-3619500D03*
G01*
X2120900Y-3619500D03*
G01*
X2374900Y-3619500D03*
G01*
X2628900Y-3619500D03*
G01*
X2882900Y-3619500D03*
G01*
X3136900Y-3619500D03*
D15*
G01*
X340512Y-353009D03*
G01*
X3646982Y-340512D03*
G01*
X3659479Y-3646982D03*
G01*
X353009Y-3659987D03*
D16*
G01*
X2284984Y-3188995D03*
G01*
X2286000Y-3284220D03*
G01*
X3104997Y-3211982D03*
G01*
X3051987Y-1211986D03*
G01*
X3051200Y-1305890D03*
G01*
X3177540Y-3284473D03*
G01*
X1923719Y-1083055D03*
G01*
X1998649Y-1083055D03*
G01*
X2421991Y-541985D03*
G01*
X2421991Y-471195D03*
G01*
X1798497Y-932002D03*
G01*
X1799005Y-814323D03*
G01*
X1388490Y-3146501D03*
G01*
X2143506Y-3372485D03*
G01*
X2032000Y-3370681D03*
G01*
X1301572Y-3059582D03*
G01*
X2377947Y-976274D03*
G01*
X2236647Y-981455D03*
G01*
X2051507Y-2975990D03*
G01*
X2032000Y-3132785D03*
G01*
X343407Y-2924047D03*
G01*
X343407Y-2768092D03*
G01*
X343407Y-2847428D03*
M02*
