%TF.GenerationSoftware,KiCad,Pcbnew,(6.0.1)*%
%TF.CreationDate,2022-11-28T18:30:33+03:00*%
%TF.ProjectId,WS2812Controller,57533238-3132-4436-9f6e-74726f6c6c65,0.6*%
%TF.SameCoordinates,PX81390e0PY53ec600*%
%TF.FileFunction,Copper,L1,Top*%
%TF.FilePolarity,Positive*%
%FSLAX46Y46*%
G04 Gerber Fmt 4.6, Leading zero omitted, Abs format (unit mm)*
G04 Created by KiCad (PCBNEW (6.0.1)) date 2022-11-28 18:30:33*
%MOMM*%
%LPD*%
G01*
G04 APERTURE LIST*
G04 Aperture macros list*
%AMRoundRect*
0 Rectangle with rounded corners*
0 $1 Rounding radius*
0 $2 $3 $4 $5 $6 $7 $8 $9 X,Y pos of 4 corners*
0 Add a 4 corners polygon primitive as box body*
4,1,4,$2,$3,$4,$5,$6,$7,$8,$9,$2,$3,0*
0 Add four circle primitives for the rounded corners*
1,1,$1+$1,$2,$3*
1,1,$1+$1,$4,$5*
1,1,$1+$1,$6,$7*
1,1,$1+$1,$8,$9*
0 Add four rect primitives between the rounded corners*
20,1,$1+$1,$2,$3,$4,$5,0*
20,1,$1+$1,$4,$5,$6,$7,0*
20,1,$1+$1,$6,$7,$8,$9,0*
20,1,$1+$1,$8,$9,$2,$3,0*%
G04 Aperture macros list end*
%ADD10C,0.150000*%
%TA.AperFunction,NonConductor*%
%ADD11C,0.150000*%
%TD*%
%TA.AperFunction,SMDPad,CuDef*%
%ADD12R,2.000000X1.500000*%
%TD*%
%TA.AperFunction,SMDPad,CuDef*%
%ADD13R,2.000000X3.800000*%
%TD*%
%TA.AperFunction,ComponentPad*%
%ADD14R,2.200000X2.200000*%
%TD*%
%TA.AperFunction,ComponentPad*%
%ADD15C,2.200000*%
%TD*%
%TA.AperFunction,SMDPad,CuDef*%
%ADD16R,1.000000X2.500000*%
%TD*%
%TA.AperFunction,SMDPad,CuDef*%
%ADD17R,1.800000X1.000000*%
%TD*%
%TA.AperFunction,ComponentPad*%
%ADD18R,1.700000X1.700000*%
%TD*%
%TA.AperFunction,ComponentPad*%
%ADD19O,1.700000X1.700000*%
%TD*%
%TA.AperFunction,SMDPad,CuDef*%
%ADD20RoundRect,0.250000X0.450000X-0.262500X0.450000X0.262500X-0.450000X0.262500X-0.450000X-0.262500X0*%
%TD*%
%TA.AperFunction,SMDPad,CuDef*%
%ADD21RoundRect,0.250000X-0.450000X0.262500X-0.450000X-0.262500X0.450000X-0.262500X0.450000X0.262500X0*%
%TD*%
%TA.AperFunction,ComponentPad*%
%ADD22C,3.000000*%
%TD*%
%TA.AperFunction,SMDPad,CuDef*%
%ADD23RoundRect,0.250000X-0.475000X0.250000X-0.475000X-0.250000X0.475000X-0.250000X0.475000X0.250000X0*%
%TD*%
%TA.AperFunction,SMDPad,CuDef*%
%ADD24R,1.000000X0.900000*%
%TD*%
%TA.AperFunction,SMDPad,CuDef*%
%ADD25RoundRect,0.090000X-0.210000X0.895000X-0.210000X-0.895000X0.210000X-0.895000X0.210000X0.895000X0*%
%TD*%
%TA.AperFunction,SMDPad,CuDef*%
%ADD26RoundRect,0.250000X0.475000X-0.250000X0.475000X0.250000X-0.475000X0.250000X-0.475000X-0.250000X0*%
%TD*%
%TA.AperFunction,ComponentPad*%
%ADD27R,1.600000X1.600000*%
%TD*%
%TA.AperFunction,ComponentPad*%
%ADD28C,1.600000*%
%TD*%
%TA.AperFunction,ViaPad*%
%ADD29C,0.800000*%
%TD*%
%TA.AperFunction,ViaPad*%
%ADD30C,0.550000*%
%TD*%
%TA.AperFunction,Conductor*%
%ADD31C,0.400000*%
%TD*%
%TA.AperFunction,Conductor*%
%ADD32C,0.250000*%
%TD*%
%TA.AperFunction,Conductor*%
%ADD33C,1.500000*%
%TD*%
G04 APERTURE END LIST*
D10*
D11*
X9263333Y16363334D02*
X9263333Y17063334D01*
X9430000Y17063334D01*
X9530000Y17030000D01*
X9596666Y16963334D01*
X9630000Y16896667D01*
X9663333Y16763334D01*
X9663333Y16663334D01*
X9630000Y16530000D01*
X9596666Y16463334D01*
X9530000Y16396667D01*
X9430000Y16363334D01*
X9263333Y16363334D01*
X10230000Y16396667D02*
X10163333Y16363334D01*
X10030000Y16363334D01*
X9963333Y16396667D01*
X9930000Y16463334D01*
X9930000Y16730000D01*
X9963333Y16796667D01*
X10030000Y16830000D01*
X10163333Y16830000D01*
X10230000Y16796667D01*
X10263333Y16730000D01*
X10263333Y16663334D01*
X9930000Y16596667D01*
X10530000Y16396667D02*
X10596666Y16363334D01*
X10730000Y16363334D01*
X10796666Y16396667D01*
X10830000Y16463334D01*
X10830000Y16496667D01*
X10796666Y16563334D01*
X10730000Y16596667D01*
X10630000Y16596667D01*
X10563333Y16630000D01*
X10530000Y16696667D01*
X10530000Y16730000D01*
X10563333Y16796667D01*
X10630000Y16830000D01*
X10730000Y16830000D01*
X10796666Y16796667D01*
X11130000Y16363334D02*
X11130000Y16830000D01*
X11130000Y17063334D02*
X11096666Y17030000D01*
X11130000Y16996667D01*
X11163333Y17030000D01*
X11130000Y17063334D01*
X11130000Y16996667D01*
X11763333Y16830000D02*
X11763333Y16263334D01*
X11730000Y16196667D01*
X11696666Y16163334D01*
X11630000Y16130000D01*
X11530000Y16130000D01*
X11463333Y16163334D01*
X11763333Y16396667D02*
X11696666Y16363334D01*
X11563333Y16363334D01*
X11496666Y16396667D01*
X11463333Y16430000D01*
X11430000Y16496667D01*
X11430000Y16696667D01*
X11463333Y16763334D01*
X11496666Y16796667D01*
X11563333Y16830000D01*
X11696666Y16830000D01*
X11763333Y16796667D01*
X12096666Y16830000D02*
X12096666Y16363334D01*
X12096666Y16763334D02*
X12130000Y16796667D01*
X12196666Y16830000D01*
X12296666Y16830000D01*
X12363333Y16796667D01*
X12396666Y16730000D01*
X12396666Y16363334D01*
X13030000Y16830000D02*
X13030000Y16363334D01*
X12863333Y17096667D02*
X12696666Y16596667D01*
X13130000Y16596667D01*
X13630000Y16730000D02*
X13396666Y16730000D01*
X13396666Y16363334D02*
X13396666Y17063334D01*
X13730000Y17063334D01*
X14296666Y16830000D02*
X14296666Y16363334D01*
X13996666Y16830000D02*
X13996666Y16463334D01*
X14030000Y16396667D01*
X14096666Y16363334D01*
X14196666Y16363334D01*
X14263333Y16396667D01*
X14296666Y16430000D01*
X14530000Y16830000D02*
X14796666Y16830000D01*
X14630000Y17063334D02*
X14630000Y16463334D01*
X14663333Y16396667D01*
X14730000Y16363334D01*
X14796666Y16363334D01*
X15330000Y16830000D02*
X15330000Y16363334D01*
X15030000Y16830000D02*
X15030000Y16463334D01*
X15063333Y16396667D01*
X15130000Y16363334D01*
X15230000Y16363334D01*
X15296666Y16396667D01*
X15330000Y16430000D01*
X15663333Y16363334D02*
X15663333Y16830000D01*
X15663333Y16696667D02*
X15696666Y16763334D01*
X15730000Y16796667D01*
X15796666Y16830000D01*
X15863333Y16830000D01*
X16363333Y16396667D02*
X16296666Y16363334D01*
X16163333Y16363334D01*
X16096666Y16396667D01*
X16063333Y16463334D01*
X16063333Y16730000D01*
X16096666Y16796667D01*
X16163333Y16830000D01*
X16296666Y16830000D01*
X16363333Y16796667D01*
X16396666Y16730000D01*
X16396666Y16663334D01*
X16063333Y16596667D01*
X17596666Y17030000D02*
X17530000Y17063334D01*
X17430000Y17063334D01*
X17330000Y17030000D01*
X17263333Y16963334D01*
X17230000Y16896667D01*
X17196666Y16763334D01*
X17196666Y16663334D01*
X17230000Y16530000D01*
X17263333Y16463334D01*
X17330000Y16396667D01*
X17430000Y16363334D01*
X17496666Y16363334D01*
X17596666Y16396667D01*
X17630000Y16430000D01*
X17630000Y16663334D01*
X17496666Y16663334D01*
X17930000Y16363334D02*
X17930000Y16830000D01*
X17930000Y16763334D02*
X17963333Y16796667D01*
X18030000Y16830000D01*
X18130000Y16830000D01*
X18196666Y16796667D01*
X18230000Y16730000D01*
X18230000Y16363334D01*
X18230000Y16730000D02*
X18263333Y16796667D01*
X18330000Y16830000D01*
X18430000Y16830000D01*
X18496666Y16796667D01*
X18530000Y16730000D01*
X18530000Y16363334D01*
X18863333Y16363334D02*
X18863333Y17063334D01*
X18863333Y16796667D02*
X18930000Y16830000D01*
X19063333Y16830000D01*
X19130000Y16796667D01*
X19163333Y16763334D01*
X19196666Y16696667D01*
X19196666Y16496667D01*
X19163333Y16430000D01*
X19130000Y16396667D01*
X19063333Y16363334D01*
X18930000Y16363334D01*
X18863333Y16396667D01*
X19496666Y16363334D02*
X19496666Y17063334D01*
X19496666Y16730000D02*
X19896666Y16730000D01*
X19896666Y16363334D02*
X19896666Y17063334D01*
D12*
%TO.P,U1,1,GND*%
%TO.N,GND*%
X11060140Y14668960D03*
D13*
%TO.P,U1,2,VO*%
%TO.N,+3V3*%
X17360140Y12368960D03*
D12*
X11060140Y12368960D03*
%TO.P,U1,3,VI*%
%TO.N,+5V*%
X11060140Y10068960D03*
%TD*%
D14*
%TO.P,J3,1,Pin_1*%
%TO.N,+5V*%
X-19676000Y4078400D03*
D15*
%TO.P,J3,2,Pin_2*%
%TO.N,Net-(J3-Pad2)*%
X-19676000Y1538400D03*
%TO.P,J3,3,Pin_3*%
%TO.N,GND*%
X-19676000Y-1001600D03*
%TD*%
D14*
%TO.P,J1,1,Pin_1*%
%TO.N,GND*%
X-19676000Y-5319600D03*
D15*
%TO.P,J1,2,Pin_2*%
X-19676000Y-7859600D03*
%TO.P,J1,3,Pin_3*%
%TO.N,/SUPPLY*%
X-19676000Y-10399600D03*
%TO.P,J1,4,Pin_4*%
X-19676000Y-12939600D03*
%TD*%
D16*
%TO.P,U2,1,~{RST}*%
%TO.N,/RST*%
X16003260Y6122880D03*
%TO.P,U2,2,ADC*%
%TO.N,unconnected-(U2-Pad2)*%
X14003260Y6122880D03*
%TO.P,U2,3,EN*%
%TO.N,/EN*%
X12003260Y6122880D03*
%TO.P,U2,4,GPIO16*%
%TO.N,unconnected-(U2-Pad4)*%
X10003260Y6122880D03*
%TO.P,U2,5,GPIO14*%
%TO.N,unconnected-(U2-Pad5)*%
X8003260Y6122880D03*
%TO.P,U2,6,GPIO12*%
%TO.N,unconnected-(U2-Pad6)*%
X6003260Y6122880D03*
%TO.P,U2,7,GPIO13*%
%TO.N,unconnected-(U2-Pad7)*%
X4003260Y6122880D03*
%TO.P,U2,8,VCC*%
%TO.N,+3V3*%
X2003260Y6122880D03*
D17*
%TO.P,U2,9,CS0*%
%TO.N,unconnected-(U2-Pad9)*%
X503260Y3522880D03*
%TO.P,U2,10,MISO*%
%TO.N,unconnected-(U2-Pad10)*%
X503260Y1522880D03*
%TO.P,U2,11,GPIO9*%
%TO.N,unconnected-(U2-Pad11)*%
X503260Y-477120D03*
%TO.P,U2,12,GPIO10*%
%TO.N,unconnected-(U2-Pad12)*%
X503260Y-2477120D03*
%TO.P,U2,13,MOSI*%
%TO.N,unconnected-(U2-Pad13)*%
X503260Y-4477120D03*
%TO.P,U2,14,SCLK*%
%TO.N,unconnected-(U2-Pad14)*%
X503260Y-6477120D03*
D16*
%TO.P,U2,15,GND*%
%TO.N,GND*%
X2003260Y-9077120D03*
%TO.P,U2,16,GPIO15*%
%TO.N,Net-(R2-Pad1)*%
X4003260Y-9077120D03*
%TO.P,U2,17,GPIO2*%
%TO.N,Net-(R4-Pad2)*%
X6003260Y-9077120D03*
%TO.P,U2,18,GPIO0*%
%TO.N,GPIO0*%
X8003260Y-9077120D03*
%TO.P,U2,19,GPIO4*%
%TO.N,GPIO4*%
X10003260Y-9077120D03*
%TO.P,U2,20,GPIO5*%
%TO.N,unconnected-(U2-Pad20)*%
X12003260Y-9077120D03*
%TO.P,U2,21,GPIO3/RXD*%
%TO.N,RX*%
X14003260Y-9077120D03*
%TO.P,U2,22,GPIO1/TXD*%
%TO.N,TX*%
X16003260Y-9077120D03*
%TD*%
D18*
%TO.P,J2,1,Pin_1*%
%TO.N,GND*%
X15396320Y-14586460D03*
D19*
%TO.P,J2,2,Pin_2*%
%TO.N,GPIO0*%
X12856320Y-14586460D03*
%TO.P,J2,3,Pin_3*%
%TO.N,TX*%
X10316320Y-14586460D03*
%TO.P,J2,4,Pin_4*%
%TO.N,RX*%
X7776320Y-14586460D03*
%TO.P,J2,5,Pin_5*%
%TO.N,+3V3*%
X5236320Y-14586460D03*
%TD*%
D20*
%TO.P,R5,1*%
%TO.N,+3V3*%
X2168000Y-14918900D03*
%TO.P,R5,2*%
%TO.N,GPIO0*%
X2168000Y-13093900D03*
%TD*%
D21*
%TO.P,R1,1*%
%TO.N,+3V3*%
X19772740Y15168680D03*
%TO.P,R1,2*%
%TO.N,/EN*%
X19772740Y13343680D03*
%TD*%
%TO.P,R6,1*%
%TO.N,Net-(J3-Pad2)*%
X-5756800Y13677700D03*
%TO.P,R6,2*%
%TO.N,DATA*%
X-5756800Y11852700D03*
%TD*%
%TO.P,R2,1*%
%TO.N,Net-(R2-Pad1)*%
X-2160160Y-13093900D03*
%TO.P,R2,2*%
%TO.N,GND*%
X-2160160Y-14918900D03*
%TD*%
D22*
%TO.P,F1,1*%
%TO.N,+5V*%
X-10950000Y6542000D03*
%TO.P,F1,2*%
%TO.N,/SUPPLY*%
X-10950000Y-16058000D03*
%TD*%
D23*
%TO.P,C1,1*%
%TO.N,+5V*%
X8241140Y11413960D03*
%TO.P,C1,2*%
%TO.N,GND*%
X8241140Y9513960D03*
%TD*%
D21*
%TO.P,R3,1*%
%TO.N,+3V3*%
X19775280Y11252000D03*
%TO.P,R3,2*%
%TO.N,/RST*%
X19775280Y9427000D03*
%TD*%
D24*
%TO.P,SW1,1,1*%
%TO.N,GND*%
X-4159040Y5211460D03*
X-4159040Y1111460D03*
%TO.P,SW1,2,2*%
%TO.N,/RST*%
X-2559040Y1111460D03*
X-2559040Y5211460D03*
%TD*%
D20*
%TO.P,R4,1*%
%TO.N,+3V3*%
X3920Y-14918900D03*
%TO.P,R4,2*%
%TO.N,Net-(R4-Pad2)*%
X3920Y-13093900D03*
%TD*%
D25*
%TO.P,U3,1,1~{OE}*%
%TO.N,GND*%
X4210000Y15189400D03*
%TO.P,U3,2,1A*%
%TO.N,GPIO4*%
X2940000Y15189400D03*
%TO.P,U3,3,1Y*%
%TO.N,DATA*%
X1670000Y15189400D03*
%TO.P,U3,4,2~{OE}*%
%TO.N,GND*%
X400000Y15189400D03*
%TO.P,U3,5,2A*%
%TO.N,unconnected-(U3-Pad5)*%
X-870000Y15189400D03*
%TO.P,U3,6,2Y*%
%TO.N,unconnected-(U3-Pad6)*%
X-2140000Y15189400D03*
%TO.P,U3,7,GND*%
%TO.N,GND*%
X-3410000Y15189400D03*
%TO.P,U3,8,3Y*%
%TO.N,unconnected-(U3-Pad8)*%
X-3410000Y10239400D03*
%TO.P,U3,9,3A*%
%TO.N,unconnected-(U3-Pad9)*%
X-2140000Y10239400D03*
%TO.P,U3,10,3~{OE}*%
%TO.N,GND*%
X-870000Y10239400D03*
%TO.P,U3,11,4Y*%
%TO.N,unconnected-(U3-Pad11)*%
X400000Y10239400D03*
%TO.P,U3,12,4A*%
%TO.N,unconnected-(U3-Pad12)*%
X1670000Y10239400D03*
%TO.P,U3,13,4~{OE}*%
%TO.N,GND*%
X2940000Y10239400D03*
%TO.P,U3,14,VCC*%
%TO.N,+5V*%
X4210000Y10239400D03*
%TD*%
D24*
%TO.P,SW2,1,1*%
%TO.N,GPIO0*%
X-2561580Y-9018060D03*
X-2561580Y-4918060D03*
%TO.P,SW2,2,2*%
%TO.N,GND*%
X-4161580Y-9018060D03*
X-4161580Y-4918060D03*
%TD*%
D26*
%TO.P,C2,1*%
%TO.N,+3V3*%
X8241140Y13323960D03*
%TO.P,C2,2*%
%TO.N,GND*%
X8241140Y15223960D03*
%TD*%
D27*
%TO.P,C3,1*%
%TO.N,+5V*%
X-13020000Y10997349D03*
D28*
%TO.P,C3,2*%
%TO.N,GND*%
X-13020000Y14497349D03*
%TD*%
D29*
%TO.N,+5V*%
X6587600Y11495200D03*
D30*
%TO.N,GND*%
X14550000Y10960000D03*
D29*
X1914000Y12612800D03*
D30*
X13860000Y-5350000D03*
X13720000Y2330000D03*
X22660000Y8670000D03*
X11390000Y-11210000D03*
X22980000Y15550000D03*
X6080000Y3270000D03*
D29*
X6435200Y9412400D03*
D30*
X9310000Y-990000D03*
D29*
%TO.N,GPIO0*%
X6587600Y-11720400D03*
X898000Y-10906380D03*
X6587600Y-11720400D03*
%TO.N,/RST*%
X15985600Y8244000D03*
X2269600Y8244000D03*
%TO.N,GPIO4*%
X2980800Y14035200D03*
X13293200Y9412400D03*
%TD*%
D31*
%TO.N,+5V*%
X4955200Y11495200D02*
X6587600Y11495200D01*
X8241140Y11413960D02*
X9586140Y10068960D01*
X8159900Y11495200D02*
X8241140Y11413960D01*
X4210000Y10750000D02*
X4955200Y11495200D01*
X9586140Y10068960D02*
X11060140Y10068960D01*
X6587600Y11495200D02*
X8159900Y11495200D01*
X4210000Y10239400D02*
X4210000Y10750000D01*
D32*
%TO.N,GND*%
X422000Y14764400D02*
X346999Y14689399D01*
X-2628001Y14689399D02*
X-3388000Y15449398D01*
X346999Y14689399D02*
X-2628001Y14689399D01*
X-848000Y9664400D02*
X-848000Y8664400D01*
X10430140Y15298960D02*
X11060140Y14668960D01*
X422000Y15764400D02*
X422000Y14764400D01*
X8241140Y15298960D02*
X10430140Y15298960D01*
X2962000Y11564800D02*
X1914000Y12612800D01*
X-848000Y8664400D02*
X-2450940Y7061460D01*
X-2450940Y7061460D02*
X-3359040Y7061460D01*
X-3388000Y15449398D02*
X-3388000Y15764400D01*
X2962000Y9664400D02*
X2962000Y11564800D01*
%TO.N,+3V3*%
X3556999Y8426619D02*
X3556999Y11586999D01*
X17360140Y12868580D02*
X17360140Y12368960D01*
X18364600Y11364500D02*
X17360140Y12368960D01*
X5236320Y-14586460D02*
X2612940Y-14586460D01*
X2003260Y4622880D02*
X2003260Y6122880D01*
X2003260Y6122880D02*
X2003260Y6872880D01*
X5236320Y-14586460D02*
X8828261Y-10994519D01*
X5218960Y13248960D02*
X8241140Y13248960D01*
X9121140Y12368960D02*
X11060140Y12368960D01*
X2612940Y-14586460D02*
X2168000Y-15031400D01*
X2003260Y6872880D02*
X3556999Y8426619D01*
X17360140Y12368960D02*
X11060140Y12368960D01*
X8828261Y-10994519D02*
X8828261Y-2202121D01*
X8828261Y-2202121D02*
X2003260Y4622880D01*
X19775280Y11364500D02*
X18364600Y11364500D01*
X2168000Y-15031400D02*
X3920Y-15031400D01*
X3556999Y11586999D02*
X5218960Y13248960D01*
X19772740Y15281180D02*
X17360140Y12868580D01*
X8241140Y13248960D02*
X9121140Y12368960D01*
%TO.N,Net-(R2-Pad1)*%
X2949000Y-11631380D02*
X-810140Y-11631380D01*
X-810140Y-11631380D02*
X-2160160Y-12981400D01*
X4003260Y-10577120D02*
X2949000Y-11631380D01*
X4003260Y-9077120D02*
X4003260Y-10577120D01*
%TO.N,GPIO0*%
X898000Y-10906380D02*
X-1193620Y-10906380D01*
X5326600Y-12981400D02*
X6587600Y-11720400D01*
X-2561580Y-9018060D02*
X-2561580Y-4918060D01*
X6587600Y-11720400D02*
X8003260Y-10304740D01*
X-1193620Y-10906380D02*
X-2561580Y-9538420D01*
X-2561580Y-9538420D02*
X-2561580Y-9018060D01*
X2168000Y-12981400D02*
X5326600Y-12981400D01*
X8003260Y-10304740D02*
X8003260Y-9077120D01*
%TO.N,/EN*%
X20800290Y10801320D02*
X20325770Y10326800D01*
X12003260Y6457882D02*
X12003260Y6122880D01*
X18240692Y9764510D02*
X15309888Y9764510D01*
X15309888Y9764510D02*
X12003260Y6457882D01*
X19772740Y13231180D02*
X20800290Y12203630D01*
X20800290Y12203630D02*
X20800290Y10801320D01*
X18802982Y10326800D02*
X18240692Y9764510D01*
X20325770Y10326800D02*
X18802982Y10326800D01*
%TO.N,/RST*%
X473500Y8244000D02*
X-2559040Y5211460D01*
X-2559040Y1111460D02*
X-2559040Y5211460D01*
X2269600Y8244000D02*
X473500Y8244000D01*
X17056100Y9314500D02*
X15985600Y8244000D01*
X15985600Y6140540D02*
X16003260Y6122880D01*
X19775280Y9314500D02*
X17056100Y9314500D01*
X15985600Y8244000D02*
X15985600Y6140540D01*
%TO.N,Net-(R4-Pad2)*%
X6003260Y-10577120D02*
X4498990Y-12081390D01*
X903930Y-12081390D02*
X3920Y-12981400D01*
X4498990Y-12081390D02*
X903930Y-12081390D01*
X6003260Y-9077120D02*
X6003260Y-10577120D01*
%TO.N,TX*%
X10828922Y-14586460D02*
X10316320Y-14586460D01*
X16003260Y-9077120D02*
X16003260Y-9412122D01*
X16003260Y-9412122D02*
X10828922Y-14586460D01*
%TO.N,RX*%
X7776320Y-14586460D02*
X10022590Y-12340190D01*
X14003260Y-10577120D02*
X12240190Y-12340190D01*
X14003260Y-9077120D02*
X14003260Y-10577120D01*
X10022590Y-12340190D02*
X12240190Y-12340190D01*
%TO.N,Net-(J3-Pad2)*%
X-19676000Y1538400D02*
X-16577200Y-1560400D01*
X-6781810Y1529390D02*
X-9871600Y-1560400D01*
X-6781810Y12765190D02*
X-6781810Y1529390D01*
X-9871600Y-1560400D02*
X-16577200Y-1560400D01*
X-5756800Y13790200D02*
X-6781810Y12765190D01*
%TO.N,GPIO4*%
X12957778Y9412400D02*
X13293200Y9412400D01*
X11178259Y7632881D02*
X12957778Y9412400D01*
X2980800Y14035200D02*
X2980800Y15745600D01*
X11178259Y-7902121D02*
X11178259Y7632881D01*
X2980800Y15745600D02*
X2962000Y15764400D01*
X10003260Y-9077120D02*
X11178259Y-7902121D01*
D33*
%TO.N,/SUPPLY*%
X-19676000Y-10399600D02*
X-19676000Y-12939600D01*
D32*
%TO.N,DATA*%
X1692000Y14764400D02*
X-1332200Y11740200D01*
X-1332200Y11740200D02*
X-5756800Y11740200D01*
X1692000Y15764400D02*
X1692000Y14764400D01*
%TD*%
%TA.AperFunction,Conductor*%
%TO.N,GND*%
G36*
X8305788Y17174958D02*
G01*
X8352281Y17121302D01*
X8363667Y17068960D01*
X8363667Y15233500D01*
X8377214Y15233500D01*
X8390450Y15230621D01*
X8389759Y15227446D01*
X8437261Y15213498D01*
X8483754Y15159842D01*
X8495140Y15107500D01*
X8495140Y15095960D01*
X8475138Y15027839D01*
X8421482Y14981346D01*
X8369140Y14969960D01*
X7026256Y14969960D01*
X7011017Y14965485D01*
X7009812Y14964095D01*
X7008141Y14956412D01*
X7008141Y14926865D01*
X7008478Y14920346D01*
X7018397Y14824754D01*
X7021289Y14811360D01*
X7072728Y14657176D01*
X7078901Y14643998D01*
X7164203Y14506153D01*
X7173239Y14494752D01*
X7287968Y14380222D01*
X7296902Y14373166D01*
X7337963Y14315248D01*
X7341193Y14244325D01*
X7305566Y14182914D01*
X7297733Y14176114D01*
X7291792Y14172438D01*
X7166835Y14047263D01*
X7162995Y14041033D01*
X7162994Y14041032D01*
X7102162Y13942344D01*
X7049390Y13894851D01*
X6994902Y13882460D01*
X5297727Y13882460D01*
X5286544Y13882987D01*
X5279051Y13884662D01*
X5271125Y13884413D01*
X5271124Y13884413D01*
X5210961Y13882522D01*
X5207003Y13882460D01*
X5179104Y13882460D01*
X5175114Y13881956D01*
X5163280Y13881024D01*
X5119071Y13879634D01*
X5111457Y13877422D01*
X5103629Y13876182D01*
X5103179Y13879025D01*
X5045833Y13879201D01*
X4986225Y13917768D01*
X4956930Y13982439D01*
X4965293Y14048207D01*
X4999449Y14130665D01*
X5003686Y14146479D01*
X5017462Y14251119D01*
X5018000Y14259328D01*
X5018000Y14917285D01*
X5013525Y14932524D01*
X5012135Y14933729D01*
X5004452Y14935400D01*
X4482115Y14935400D01*
X4466876Y14930925D01*
X4465671Y14929535D01*
X4464000Y14921852D01*
X4464000Y13715148D01*
X4468044Y13701377D01*
X4488309Y13698340D01*
X4552714Y13668464D01*
X4590742Y13608510D01*
X4590320Y13537515D01*
X4558732Y13484636D01*
X3859342Y12785247D01*
X3164746Y12090651D01*
X3156460Y12083111D01*
X3149981Y12078999D01*
X3144556Y12073222D01*
X3103356Y12029348D01*
X3100601Y12026506D01*
X3080864Y12006769D01*
X3078384Y12003572D01*
X3070681Y11994552D01*
X3040413Y11962320D01*
X3036594Y11955374D01*
X3036592Y11955371D01*
X3030651Y11944565D01*
X3019800Y11928046D01*
X3007385Y11912040D01*
X3004240Y11904771D01*
X3004237Y11904767D01*
X2989825Y11871462D01*
X2984608Y11860812D01*
X2963304Y11822059D01*
X2961331Y11814374D01*
X2960398Y11812018D01*
X2916724Y11756044D01*
X2843245Y11732400D01*
X2694928Y11732400D01*
X2686719Y11731862D01*
X2582079Y11718086D01*
X2566262Y11713848D01*
X2436050Y11659912D01*
X2421869Y11651725D01*
X2310047Y11565922D01*
X2298478Y11554353D01*
X2212675Y11442531D01*
X2204488Y11428350D01*
X2171867Y11349596D01*
X2127319Y11294315D01*
X2059956Y11271894D01*
X1985456Y11293049D01*
X1982114Y11295282D01*
X1954329Y11313847D01*
X1942160Y11316268D01*
X1942159Y11316268D01*
X1904830Y11323693D01*
X1898762Y11324900D01*
X1441238Y11324900D01*
X1435170Y11323693D01*
X1397841Y11316268D01*
X1397840Y11316268D01*
X1385671Y11313847D01*
X1322657Y11271743D01*
X1280553Y11208729D01*
X1269500Y11153162D01*
X1269500Y9325638D01*
X1280553Y9270071D01*
X1322657Y9207057D01*
X1385671Y9164953D01*
X1397840Y9162532D01*
X1397841Y9162532D01*
X1435170Y9155107D01*
X1441238Y9153900D01*
X1588550Y9153900D01*
X1656671Y9133898D01*
X1703164Y9080242D01*
X1713268Y9009968D01*
X1683774Y8945388D01*
X1668451Y8931324D01*
X1668595Y8931165D01*
X1663686Y8926745D01*
X1658347Y8922866D01*
X1653932Y8917963D01*
X1649020Y8913540D01*
X1647895Y8914789D01*
X1594586Y8881949D01*
X1561400Y8877500D01*
X552267Y8877500D01*
X541084Y8878027D01*
X533591Y8879702D01*
X525665Y8879453D01*
X525664Y8879453D01*
X465514Y8877562D01*
X461555Y8877500D01*
X433644Y8877500D01*
X429710Y8877003D01*
X429709Y8877003D01*
X429644Y8876995D01*
X417807Y8876062D01*
X385990Y8875062D01*
X381529Y8874922D01*
X373610Y8874673D01*
X355954Y8869544D01*
X354158Y8869022D01*
X334806Y8865014D01*
X327735Y8864120D01*
X314703Y8862474D01*
X307334Y8859557D01*
X307332Y8859556D01*
X273597Y8846200D01*
X262369Y8842355D01*
X219907Y8830018D01*
X213085Y8825984D01*
X213079Y8825981D01*
X202468Y8819706D01*
X184718Y8811010D01*
X173256Y8806472D01*
X173251Y8806469D01*
X165883Y8803552D01*
X159468Y8798891D01*
X130125Y8777573D01*
X120207Y8771057D01*
X109572Y8764767D01*
X82137Y8748542D01*
X67813Y8734218D01*
X52781Y8721379D01*
X36393Y8709472D01*
X12839Y8681000D01*
X8212Y8675407D01*
X222Y8666627D01*
X-2459540Y6206865D01*
X-2521852Y6172839D01*
X-2548635Y6169960D01*
X-3107174Y6169960D01*
X-3169356Y6163205D01*
X-3188023Y6156207D01*
X-3297341Y6115226D01*
X-3297344Y6115224D01*
X-3305745Y6112075D01*
X-3306004Y6112767D01*
X-3368414Y6099117D01*
X-3412425Y6112040D01*
X-3412578Y6111632D01*
X-3418152Y6113722D01*
X-3420074Y6114286D01*
X-3420979Y6114781D01*
X-3541434Y6159938D01*
X-3556689Y6163565D01*
X-3607554Y6169091D01*
X-3614368Y6169460D01*
X-3886925Y6169460D01*
X-3902164Y6164985D01*
X-3903369Y6163595D01*
X-3905040Y6155912D01*
X-3905040Y4271576D01*
X-3900565Y4256337D01*
X-3899175Y4255132D01*
X-3891492Y4253461D01*
X-3614371Y4253461D01*
X-3607550Y4253831D01*
X-3556688Y4259355D01*
X-3541436Y4262981D01*
X-3420979Y4308139D01*
X-3420074Y4308634D01*
X-3419074Y4308853D01*
X-3412578Y4311288D01*
X-3412226Y4310350D01*
X-3350717Y4323803D01*
X-3305827Y4310622D01*
X-3305744Y4310844D01*
X-3302711Y4309707D01*
X-3302704Y4309705D01*
X-3297339Y4307694D01*
X-3297336Y4307692D01*
X-3274309Y4299059D01*
X-3217545Y4256417D01*
X-3192846Y4189855D01*
X-3192540Y4181078D01*
X-3192540Y2141842D01*
X-3212542Y2073721D01*
X-3266198Y2027228D01*
X-3274309Y2023861D01*
X-3297336Y2015228D01*
X-3297339Y2015226D01*
X-3300955Y2013871D01*
X-3300958Y2013870D01*
X-3305744Y2012076D01*
X-3306003Y2012767D01*
X-3368414Y1999117D01*
X-3412425Y2012040D01*
X-3412578Y2011632D01*
X-3418152Y2013722D01*
X-3420074Y2014286D01*
X-3420979Y2014781D01*
X-3541434Y2059938D01*
X-3556689Y2063565D01*
X-3607554Y2069091D01*
X-3614368Y2069460D01*
X-3886925Y2069460D01*
X-3902164Y2064985D01*
X-3903369Y2063595D01*
X-3905040Y2055912D01*
X-3905040Y171576D01*
X-3900565Y156337D01*
X-3899175Y155132D01*
X-3891492Y153461D01*
X-3614371Y153461D01*
X-3607550Y153831D01*
X-3556688Y159355D01*
X-3541436Y162981D01*
X-3420979Y208139D01*
X-3420074Y208634D01*
X-3419074Y208853D01*
X-3412578Y211288D01*
X-3412226Y210350D01*
X-3350717Y223803D01*
X-3305828Y210622D01*
X-3305745Y210845D01*
X-3302703Y209704D01*
X-3302696Y209702D01*
X-3297344Y207696D01*
X-3297341Y207694D01*
X-3216626Y177436D01*
X-3169356Y159715D01*
X-3107174Y152960D01*
X-2010906Y152960D01*
X-1948724Y159715D01*
X-1812335Y210845D01*
X-1695779Y298199D01*
X-1608425Y414755D01*
X-1557295Y551144D01*
X-1550540Y613326D01*
X-1550540Y1609594D01*
X-1557295Y1671776D01*
X-1608425Y1808165D01*
X-1695779Y1924721D01*
X-1812335Y2012075D01*
X-1820744Y2015228D01*
X-1820747Y2015229D01*
X-1843771Y2023861D01*
X-1900535Y2066503D01*
X-1925234Y2133065D01*
X-1925540Y2141842D01*
X-1925540Y4181078D01*
X-1905538Y4249199D01*
X-1851882Y4295692D01*
X-1843771Y4299059D01*
X-1820747Y4307691D01*
X-1820744Y4307692D01*
X-1812335Y4310845D01*
X-1695779Y4398199D01*
X-1608425Y4514755D01*
X-1557295Y4651144D01*
X-1550540Y4713326D01*
X-1550540Y5271866D01*
X-1530538Y5339987D01*
X-1513635Y5360961D01*
X698999Y7573595D01*
X761311Y7607621D01*
X788094Y7610500D01*
X874915Y7610500D01*
X943036Y7590498D01*
X989529Y7536842D01*
X1000178Y7470893D01*
X994760Y7421014D01*
X994760Y4824746D01*
X1001515Y4762564D01*
X1011055Y4737117D01*
X1024366Y4701610D01*
X1029549Y4630803D01*
X995629Y4568434D01*
X933373Y4534305D01*
X906384Y4531380D01*
X-444874Y4531380D01*
X-507056Y4524625D01*
X-643445Y4473495D01*
X-760001Y4386141D01*
X-847355Y4269585D01*
X-898485Y4133196D01*
X-905240Y4071014D01*
X-905240Y2974746D01*
X-898485Y2912564D01*
X-847355Y2776175D01*
X-760001Y2659619D01*
X-712080Y2623704D01*
X-669567Y2566847D01*
X-664541Y2496029D01*
X-698601Y2433735D01*
X-712070Y2422063D01*
X-760001Y2386141D01*
X-847355Y2269585D01*
X-898485Y2133196D01*
X-905240Y2071014D01*
X-905240Y974746D01*
X-898485Y912564D01*
X-847355Y776175D01*
X-760001Y659619D01*
X-712080Y623704D01*
X-669567Y566847D01*
X-664541Y496029D01*
X-698601Y433735D01*
X-712070Y422063D01*
X-760001Y386141D01*
X-847355Y269585D01*
X-898485Y133196D01*
X-905240Y71014D01*
X-905240Y-1025254D01*
X-898485Y-1087436D01*
X-847355Y-1223825D01*
X-760001Y-1340381D01*
X-712080Y-1376296D01*
X-669567Y-1433153D01*
X-664541Y-1503971D01*
X-698601Y-1566265D01*
X-712070Y-1577937D01*
X-760001Y-1613859D01*
X-847355Y-1730415D01*
X-898485Y-1866804D01*
X-905240Y-1928986D01*
X-905240Y-3025254D01*
X-898485Y-3087436D01*
X-847355Y-3223825D01*
X-760001Y-3340381D01*
X-712080Y-3376296D01*
X-669567Y-3433153D01*
X-664541Y-3503971D01*
X-698601Y-3566265D01*
X-712070Y-3577937D01*
X-760001Y-3613859D01*
X-847355Y-3730415D01*
X-898485Y-3866804D01*
X-905240Y-3928986D01*
X-905240Y-5025254D01*
X-898485Y-5087436D01*
X-847355Y-5223825D01*
X-760001Y-5340381D01*
X-712080Y-5376296D01*
X-669567Y-5433153D01*
X-664541Y-5503971D01*
X-698601Y-5566265D01*
X-712070Y-5577937D01*
X-760001Y-5613859D01*
X-847355Y-5730415D01*
X-898485Y-5866804D01*
X-905240Y-5928986D01*
X-905240Y-7025254D01*
X-898485Y-7087436D01*
X-847355Y-7223825D01*
X-760001Y-7340381D01*
X-643445Y-7427735D01*
X-507056Y-7478865D01*
X-444874Y-7485620D01*
X906918Y-7485620D01*
X975039Y-7505622D01*
X1021532Y-7559278D01*
X1031636Y-7629552D01*
X1024900Y-7655850D01*
X1004782Y-7709515D01*
X1001155Y-7724769D01*
X995629Y-7775634D01*
X995260Y-7782448D01*
X995260Y-8805005D01*
X999735Y-8820244D01*
X1001125Y-8821449D01*
X1008808Y-8823120D01*
X1731145Y-8823120D01*
X1746384Y-8818645D01*
X1747589Y-8817255D01*
X1749260Y-8809572D01*
X1749260Y-7405388D01*
X1769262Y-7337267D01*
X1774434Y-7329823D01*
X1826208Y-7260741D01*
X1853875Y-7223825D01*
X1905005Y-7087436D01*
X1911760Y-7025254D01*
X1911760Y-5928986D01*
X1905005Y-5866804D01*
X1853875Y-5730415D01*
X1766521Y-5613859D01*
X1718600Y-5577944D01*
X1676087Y-5521087D01*
X1671061Y-5450269D01*
X1705121Y-5387975D01*
X1718590Y-5376303D01*
X1766521Y-5340381D01*
X1853875Y-5223825D01*
X1905005Y-5087436D01*
X1911760Y-5025254D01*
X1911760Y-3928986D01*
X1905005Y-3866804D01*
X1853875Y-3730415D01*
X1766521Y-3613859D01*
X1718600Y-3577944D01*
X1676087Y-3521087D01*
X1671061Y-3450269D01*
X1705121Y-3387975D01*
X1718590Y-3376303D01*
X1766521Y-3340381D01*
X1853875Y-3223825D01*
X1905005Y-3087436D01*
X1911760Y-3025254D01*
X1911760Y-1928986D01*
X1905005Y-1866804D01*
X1853875Y-1730415D01*
X1766521Y-1613859D01*
X1718600Y-1577944D01*
X1676087Y-1521087D01*
X1671061Y-1450269D01*
X1705121Y-1387975D01*
X1718590Y-1376303D01*
X1766521Y-1340381D01*
X1853875Y-1223825D01*
X1905005Y-1087436D01*
X1911760Y-1025254D01*
X1911760Y71014D01*
X1905005Y133196D01*
X1853875Y269585D01*
X1766521Y386141D01*
X1718600Y422056D01*
X1676087Y478913D01*
X1671061Y549731D01*
X1705121Y612025D01*
X1718590Y623697D01*
X1766521Y659619D01*
X1853875Y776175D01*
X1905005Y912564D01*
X1911760Y974746D01*
X1911760Y2071014D01*
X1905005Y2133196D01*
X1853875Y2269585D01*
X1766521Y2386141D01*
X1718600Y2422056D01*
X1676087Y2478913D01*
X1671061Y2549731D01*
X1705121Y2612025D01*
X1718590Y2623697D01*
X1766521Y2659619D01*
X1853875Y2776175D01*
X1905005Y2912564D01*
X1911760Y2974746D01*
X1911760Y3514286D01*
X1931762Y3582407D01*
X1985418Y3628900D01*
X2055692Y3639004D01*
X2120272Y3609510D01*
X2126855Y3603381D01*
X5143970Y586265D01*
X8157856Y-2427621D01*
X8191882Y-2489933D01*
X8194761Y-2516716D01*
X8194761Y-7192620D01*
X8174759Y-7260741D01*
X8121103Y-7307234D01*
X8068761Y-7318620D01*
X7455126Y-7318620D01*
X7392944Y-7325375D01*
X7256555Y-7376505D01*
X7139999Y-7463859D01*
X7104084Y-7511780D01*
X7047227Y-7554293D01*
X6976409Y-7559319D01*
X6914115Y-7525259D01*
X6902443Y-7511790D01*
X6866521Y-7463859D01*
X6749965Y-7376505D01*
X6613576Y-7325375D01*
X6551394Y-7318620D01*
X5455126Y-7318620D01*
X5392944Y-7325375D01*
X5256555Y-7376505D01*
X5139999Y-7463859D01*
X5104084Y-7511780D01*
X5047227Y-7554293D01*
X4976409Y-7559319D01*
X4914115Y-7525259D01*
X4902443Y-7511790D01*
X4866521Y-7463859D01*
X4749965Y-7376505D01*
X4613576Y-7325375D01*
X4551394Y-7318620D01*
X3455126Y-7318620D01*
X3392944Y-7325375D01*
X3256555Y-7376505D01*
X3139999Y-7463859D01*
X3134618Y-7471039D01*
X3103774Y-7512194D01*
X3046915Y-7554709D01*
X2976096Y-7559735D01*
X2913803Y-7525675D01*
X2902122Y-7512195D01*
X2871543Y-7471394D01*
X2858984Y-7458835D01*
X2756909Y-7382334D01*
X2741314Y-7373796D01*
X2620866Y-7328642D01*
X2605611Y-7325015D01*
X2554746Y-7319489D01*
X2547932Y-7319120D01*
X2275375Y-7319120D01*
X2260136Y-7323595D01*
X2258931Y-7324985D01*
X2257260Y-7332668D01*
X2257260Y-9205120D01*
X2237258Y-9273241D01*
X2183602Y-9319734D01*
X2131260Y-9331120D01*
X1013376Y-9331120D01*
X998137Y-9335595D01*
X996932Y-9336985D01*
X995261Y-9344668D01*
X995261Y-9871880D01*
X975259Y-9940001D01*
X921603Y-9986494D01*
X869261Y-9997880D01*
X802513Y-9997880D01*
X796061Y-9999252D01*
X796056Y-9999252D01*
X709112Y-10017733D01*
X615712Y-10037586D01*
X609682Y-10040271D01*
X609681Y-10040271D01*
X447278Y-10112577D01*
X447276Y-10112578D01*
X441248Y-10115262D01*
X286747Y-10227514D01*
X282332Y-10232417D01*
X277420Y-10236840D01*
X276295Y-10235591D01*
X222986Y-10268431D01*
X189800Y-10272880D01*
X-879025Y-10272880D01*
X-947146Y-10252878D01*
X-968121Y-10235975D01*
X-1523604Y-9680491D01*
X-1557629Y-9618179D01*
X-1559771Y-9577789D01*
X-1553449Y-9519593D01*
X-1553449Y-9519589D01*
X-1553080Y-9516194D01*
X-1553080Y-8519926D01*
X-1559835Y-8457744D01*
X-1610965Y-8321355D01*
X-1698319Y-8204799D01*
X-1814875Y-8117445D01*
X-1823284Y-8114292D01*
X-1823287Y-8114291D01*
X-1846311Y-8105659D01*
X-1903075Y-8063017D01*
X-1927774Y-7996455D01*
X-1928080Y-7987678D01*
X-1928080Y-5948442D01*
X-1908078Y-5880321D01*
X-1854422Y-5833828D01*
X-1846311Y-5830461D01*
X-1823287Y-5821829D01*
X-1823284Y-5821828D01*
X-1814875Y-5818675D01*
X-1698319Y-5731321D01*
X-1610965Y-5614765D01*
X-1559835Y-5478376D01*
X-1553080Y-5416194D01*
X-1553080Y-4419926D01*
X-1559835Y-4357744D01*
X-1610965Y-4221355D01*
X-1698319Y-4104799D01*
X-1814875Y-4017445D01*
X-1951264Y-3966315D01*
X-2013446Y-3959560D01*
X-3109714Y-3959560D01*
X-3171896Y-3966315D01*
X-3191350Y-3973608D01*
X-3299881Y-4014294D01*
X-3299884Y-4014296D01*
X-3308285Y-4017445D01*
X-3308544Y-4016753D01*
X-3370954Y-4030403D01*
X-3414965Y-4017480D01*
X-3415118Y-4017888D01*
X-3420692Y-4015798D01*
X-3422614Y-4015234D01*
X-3423519Y-4014739D01*
X-3543974Y-3969582D01*
X-3559229Y-3965955D01*
X-3610094Y-3960429D01*
X-3616908Y-3960060D01*
X-3889465Y-3960060D01*
X-3904704Y-3964535D01*
X-3905909Y-3965925D01*
X-3907580Y-3973608D01*
X-3907580Y-5857944D01*
X-3903105Y-5873183D01*
X-3901715Y-5874388D01*
X-3894032Y-5876059D01*
X-3616911Y-5876059D01*
X-3610090Y-5875689D01*
X-3559228Y-5870165D01*
X-3543976Y-5866539D01*
X-3423519Y-5821381D01*
X-3422614Y-5820886D01*
X-3421614Y-5820667D01*
X-3415118Y-5818232D01*
X-3414766Y-5819170D01*
X-3353257Y-5805717D01*
X-3308367Y-5818898D01*
X-3308284Y-5818676D01*
X-3305251Y-5819813D01*
X-3305244Y-5819815D01*
X-3299879Y-5821826D01*
X-3299876Y-5821828D01*
X-3276849Y-5830461D01*
X-3220085Y-5873103D01*
X-3195386Y-5939665D01*
X-3195080Y-5948442D01*
X-3195080Y-7987678D01*
X-3215082Y-8055799D01*
X-3268738Y-8102292D01*
X-3276849Y-8105659D01*
X-3299876Y-8114292D01*
X-3299879Y-8114294D01*
X-3303495Y-8115649D01*
X-3303498Y-8115650D01*
X-3308284Y-8117444D01*
X-3308543Y-8116753D01*
X-3370954Y-8130403D01*
X-3414965Y-8117480D01*
X-3415118Y-8117888D01*
X-3420692Y-8115798D01*
X-3422614Y-8115234D01*
X-3423519Y-8114739D01*
X-3543974Y-8069582D01*
X-3559229Y-8065955D01*
X-3610094Y-8060429D01*
X-3616908Y-8060060D01*
X-3889465Y-8060060D01*
X-3904704Y-8064535D01*
X-3905909Y-8065925D01*
X-3907580Y-8073608D01*
X-3907580Y-9957944D01*
X-3903105Y-9973183D01*
X-3901715Y-9974388D01*
X-3894032Y-9976059D01*
X-3616911Y-9976059D01*
X-3610090Y-9975689D01*
X-3559228Y-9970165D01*
X-3543976Y-9966539D01*
X-3423519Y-9921381D01*
X-3422614Y-9920886D01*
X-3421614Y-9920667D01*
X-3415118Y-9918232D01*
X-3414766Y-9919170D01*
X-3353257Y-9905717D01*
X-3308368Y-9918898D01*
X-3308285Y-9918675D01*
X-3305243Y-9919816D01*
X-3305236Y-9919818D01*
X-3299884Y-9921824D01*
X-3299881Y-9921826D01*
X-3232606Y-9947046D01*
X-3171896Y-9969805D01*
X-3109714Y-9976560D01*
X-3071534Y-9976560D01*
X-3003413Y-9996562D01*
X-2982439Y-10013465D01*
X-1697277Y-11298627D01*
X-1689733Y-11306917D01*
X-1685620Y-11313398D01*
X-1679843Y-11318823D01*
X-1635953Y-11360038D01*
X-1633111Y-11362793D01*
X-1624380Y-11371524D01*
X-1590354Y-11433836D01*
X-1595419Y-11504651D01*
X-1624380Y-11549714D01*
X-2110661Y-12035995D01*
X-2172973Y-12070021D01*
X-2199756Y-12072900D01*
X-2660560Y-12072900D01*
X-2663806Y-12073237D01*
X-2663810Y-12073237D01*
X-2759468Y-12083162D01*
X-2759472Y-12083163D01*
X-2766326Y-12083874D01*
X-2772862Y-12086055D01*
X-2772864Y-12086055D01*
X-2904966Y-12130128D01*
X-2934106Y-12139850D01*
X-3084508Y-12232922D01*
X-3209465Y-12358097D01*
X-3302275Y-12508662D01*
X-3357957Y-12676539D01*
X-3358657Y-12683375D01*
X-3358658Y-12683378D01*
X-3359555Y-12692131D01*
X-3368660Y-12781000D01*
X-3368660Y-13406800D01*
X-3368323Y-13410046D01*
X-3368323Y-13410050D01*
X-3359155Y-13498406D01*
X-3357686Y-13512566D01*
X-3301710Y-13680346D01*
X-3208638Y-13830748D01*
X-3203456Y-13835921D01*
X-3121697Y-13917538D01*
X-3087618Y-13979821D01*
X-3092621Y-14050641D01*
X-3121542Y-14095729D01*
X-3203899Y-14178229D01*
X-3212911Y-14189640D01*
X-3297976Y-14327643D01*
X-3304123Y-14340824D01*
X-3355298Y-14495110D01*
X-3358165Y-14508486D01*
X-3367832Y-14602838D01*
X-3368160Y-14609255D01*
X-3368160Y-14646785D01*
X-3363685Y-14662024D01*
X-3362295Y-14663229D01*
X-3354612Y-14664900D01*
X-2032160Y-14664900D01*
X-1964039Y-14684902D01*
X-1917546Y-14738558D01*
X-1906160Y-14790900D01*
X-1906160Y-15921284D01*
X-1901685Y-15936523D01*
X-1900295Y-15937728D01*
X-1892612Y-15939399D01*
X-1663065Y-15939399D01*
X-1656546Y-15939062D01*
X-1560954Y-15929143D01*
X-1547560Y-15926251D01*
X-1393376Y-15874812D01*
X-1380198Y-15868639D01*
X-1242353Y-15783337D01*
X-1230952Y-15774301D01*
X-1167659Y-15710898D01*
X-1105376Y-15676819D01*
X-1034556Y-15681822D01*
X-989469Y-15710742D01*
X-945782Y-15754352D01*
X-919383Y-15780705D01*
X-913153Y-15784545D01*
X-913152Y-15784546D01*
X-775792Y-15869216D01*
X-768818Y-15873515D01*
X-702565Y-15895490D01*
X-607469Y-15927032D01*
X-607467Y-15927032D01*
X-600941Y-15929197D01*
X-594105Y-15929897D01*
X-594102Y-15929898D01*
X-551049Y-15934309D01*
X-496480Y-15939900D01*
X504320Y-15939900D01*
X507566Y-15939563D01*
X507570Y-15939563D01*
X603228Y-15929638D01*
X603232Y-15929637D01*
X610086Y-15928926D01*
X616622Y-15926745D01*
X616624Y-15926745D01*
X753000Y-15881246D01*
X777866Y-15872950D01*
X928268Y-15779878D01*
X996775Y-15711251D01*
X1059059Y-15677172D01*
X1129879Y-15682175D01*
X1174966Y-15711095D01*
X1244697Y-15780705D01*
X1250927Y-15784545D01*
X1250928Y-15784546D01*
X1388288Y-15869216D01*
X1395262Y-15873515D01*
X1461515Y-15895490D01*
X1556611Y-15927032D01*
X1556613Y-15927032D01*
X1563139Y-15929197D01*
X1569975Y-15929897D01*
X1569978Y-15929898D01*
X1613031Y-15934309D01*
X1667600Y-15939900D01*
X2668400Y-15939900D01*
X2671646Y-15939563D01*
X2671650Y-15939563D01*
X2767308Y-15929638D01*
X2767312Y-15929637D01*
X2774166Y-15928926D01*
X2780702Y-15926745D01*
X2780704Y-15926745D01*
X2917080Y-15881246D01*
X2941946Y-15872950D01*
X3092348Y-15779878D01*
X3217305Y-15654703D01*
X3233991Y-15627633D01*
X3306275Y-15510368D01*
X3306276Y-15510366D01*
X3310115Y-15504138D01*
X3365797Y-15336261D01*
X3366498Y-15329422D01*
X3367941Y-15322690D01*
X3370183Y-15323171D01*
X3392957Y-15267394D01*
X3451070Y-15226610D01*
X3491463Y-15219960D01*
X3960594Y-15219960D01*
X4028715Y-15239962D01*
X4068027Y-15280125D01*
X4136307Y-15391548D01*
X4282570Y-15560398D01*
X4454446Y-15703092D01*
X4647320Y-15815798D01*
X4652145Y-15817640D01*
X4652146Y-15817641D01*
X4711400Y-15840268D01*
X4856012Y-15895490D01*
X4861080Y-15896521D01*
X4861083Y-15896522D01*
X4968337Y-15918343D01*
X5074917Y-15940027D01*
X5080092Y-15940217D01*
X5080094Y-15940217D01*
X5292993Y-15948024D01*
X5292997Y-15948024D01*
X5298157Y-15948213D01*
X5303277Y-15947557D01*
X5303279Y-15947557D01*
X5514608Y-15920485D01*
X5514609Y-15920485D01*
X5519736Y-15919828D01*
X5524686Y-15918343D01*
X5728749Y-15857121D01*
X5728754Y-15857119D01*
X5733704Y-15855634D01*
X5934314Y-15757356D01*
X6116180Y-15627633D01*
X6274416Y-15469949D01*
X6404773Y-15288537D01*
X6406096Y-15289488D01*
X6452965Y-15246317D01*
X6522900Y-15234085D01*
X6588346Y-15261604D01*
X6616195Y-15293454D01*
X6676307Y-15391548D01*
X6822570Y-15560398D01*
X6994446Y-15703092D01*
X7187320Y-15815798D01*
X7192145Y-15817640D01*
X7192146Y-15817641D01*
X7251400Y-15840268D01*
X7396012Y-15895490D01*
X7401080Y-15896521D01*
X7401083Y-15896522D01*
X7508337Y-15918343D01*
X7614917Y-15940027D01*
X7620092Y-15940217D01*
X7620094Y-15940217D01*
X7832993Y-15948024D01*
X7832997Y-15948024D01*
X7838157Y-15948213D01*
X7843277Y-15947557D01*
X7843279Y-15947557D01*
X8054608Y-15920485D01*
X8054609Y-15920485D01*
X8059736Y-15919828D01*
X8064686Y-15918343D01*
X8268749Y-15857121D01*
X8268754Y-15857119D01*
X8273704Y-15855634D01*
X8474314Y-15757356D01*
X8656180Y-15627633D01*
X8814416Y-15469949D01*
X8944773Y-15288537D01*
X8946096Y-15289488D01*
X8992965Y-15246317D01*
X9062900Y-15234085D01*
X9128346Y-15261604D01*
X9156195Y-15293454D01*
X9216307Y-15391548D01*
X9362570Y-15560398D01*
X9534446Y-15703092D01*
X9727320Y-15815798D01*
X9732145Y-15817640D01*
X9732146Y-15817641D01*
X9791400Y-15840268D01*
X9936012Y-15895490D01*
X9941080Y-15896521D01*
X9941083Y-15896522D01*
X10048337Y-15918343D01*
X10154917Y-15940027D01*
X10160092Y-15940217D01*
X10160094Y-15940217D01*
X10372993Y-15948024D01*
X10372997Y-15948024D01*
X10378157Y-15948213D01*
X10383277Y-15947557D01*
X10383279Y-15947557D01*
X10594608Y-15920485D01*
X10594609Y-15920485D01*
X10599736Y-15919828D01*
X10604686Y-15918343D01*
X10808749Y-15857121D01*
X10808754Y-15857119D01*
X10813704Y-15855634D01*
X11014314Y-15757356D01*
X11196180Y-15627633D01*
X11354416Y-15469949D01*
X11484773Y-15288537D01*
X11486096Y-15289488D01*
X11532965Y-15246317D01*
X11602900Y-15234085D01*
X11668346Y-15261604D01*
X11696195Y-15293454D01*
X11756307Y-15391548D01*
X11902570Y-15560398D01*
X12074446Y-15703092D01*
X12267320Y-15815798D01*
X12272145Y-15817640D01*
X12272146Y-15817641D01*
X12331400Y-15840268D01*
X12476012Y-15895490D01*
X12481080Y-15896521D01*
X12481083Y-15896522D01*
X12588337Y-15918343D01*
X12694917Y-15940027D01*
X12700092Y-15940217D01*
X12700094Y-15940217D01*
X12912993Y-15948024D01*
X12912997Y-15948024D01*
X12918157Y-15948213D01*
X12923277Y-15947557D01*
X12923279Y-15947557D01*
X13134608Y-15920485D01*
X13134609Y-15920485D01*
X13139736Y-15919828D01*
X13144686Y-15918343D01*
X13348749Y-15857121D01*
X13348754Y-15857119D01*
X13353704Y-15855634D01*
X13554314Y-15757356D01*
X13736180Y-15627633D01*
X13792486Y-15571524D01*
X13844799Y-15519393D01*
X13907171Y-15485477D01*
X13977978Y-15490665D01*
X14034739Y-15533311D01*
X14051721Y-15564414D01*
X14092996Y-15674514D01*
X14101534Y-15690109D01*
X14178035Y-15792184D01*
X14190596Y-15804745D01*
X14292671Y-15881246D01*
X14308266Y-15889784D01*
X14428714Y-15934938D01*
X14443969Y-15938565D01*
X14494834Y-15944091D01*
X14501648Y-15944460D01*
X15124205Y-15944460D01*
X15139444Y-15939985D01*
X15140649Y-15938595D01*
X15142320Y-15930912D01*
X15142320Y-15926344D01*
X15650320Y-15926344D01*
X15654795Y-15941583D01*
X15656185Y-15942788D01*
X15663868Y-15944459D01*
X16290989Y-15944459D01*
X16297810Y-15944089D01*
X16348672Y-15938565D01*
X16363924Y-15934939D01*
X16484374Y-15889784D01*
X16499969Y-15881246D01*
X16602044Y-15804745D01*
X16614605Y-15792184D01*
X16691106Y-15690109D01*
X16699644Y-15674514D01*
X16744798Y-15554066D01*
X16748425Y-15538811D01*
X16753951Y-15487946D01*
X16754320Y-15481132D01*
X16754320Y-14858575D01*
X16749845Y-14843336D01*
X16748455Y-14842131D01*
X16740772Y-14840460D01*
X15668435Y-14840460D01*
X15653196Y-14844935D01*
X15651991Y-14846325D01*
X15650320Y-14854008D01*
X15650320Y-15926344D01*
X15142320Y-15926344D01*
X15142320Y-14748703D01*
X19108743Y-14748703D01*
X19146268Y-15033734D01*
X19222129Y-15311036D01*
X19223813Y-15314984D01*
X19330205Y-15564414D01*
X19334923Y-15575476D01*
X19388442Y-15664900D01*
X19479856Y-15817641D01*
X19482561Y-15822161D01*
X19662313Y-16046528D01*
X19870851Y-16244423D01*
X20104317Y-16412186D01*
X20108112Y-16414195D01*
X20108113Y-16414196D01*
X20129869Y-16425715D01*
X20358392Y-16546712D01*
X20628373Y-16645511D01*
X20909264Y-16706755D01*
X20937841Y-16709004D01*
X21132282Y-16724307D01*
X21132291Y-16724307D01*
X21134739Y-16724500D01*
X21290271Y-16724500D01*
X21292407Y-16724354D01*
X21292418Y-16724354D01*
X21500548Y-16710165D01*
X21500554Y-16710164D01*
X21504825Y-16709873D01*
X21509020Y-16709004D01*
X21509022Y-16709004D01*
X21689731Y-16671581D01*
X21786342Y-16651574D01*
X22057343Y-16555607D01*
X22312812Y-16423750D01*
X22316313Y-16421289D01*
X22316317Y-16421287D01*
X22468212Y-16314533D01*
X22548023Y-16258441D01*
X22715699Y-16102627D01*
X22755479Y-16065661D01*
X22755481Y-16065658D01*
X22758622Y-16062740D01*
X22940713Y-15840268D01*
X23090927Y-15595142D01*
X23124179Y-15519393D01*
X23204757Y-15335830D01*
X23206483Y-15331898D01*
X23224858Y-15267394D01*
X23284068Y-15059534D01*
X23285244Y-15055406D01*
X23323313Y-14787916D01*
X23325146Y-14775036D01*
X23325146Y-14775034D01*
X23325751Y-14770784D01*
X23325845Y-14752951D01*
X23327235Y-14487583D01*
X23327235Y-14487576D01*
X23327257Y-14483297D01*
X23316642Y-14402664D01*
X23299985Y-14276145D01*
X23289732Y-14198266D01*
X23279436Y-14160628D01*
X23244708Y-14033687D01*
X23213871Y-13920964D01*
X23196101Y-13879302D01*
X23102763Y-13660476D01*
X23102761Y-13660472D01*
X23101077Y-13656524D01*
X23014920Y-13512566D01*
X22955643Y-13413521D01*
X22955640Y-13413517D01*
X22953439Y-13409839D01*
X22773687Y-13185472D01*
X22597561Y-13018335D01*
X22568258Y-12990527D01*
X22568255Y-12990525D01*
X22565149Y-12987577D01*
X22331683Y-12819814D01*
X22309843Y-12808250D01*
X22252336Y-12777802D01*
X22077608Y-12685288D01*
X21807627Y-12586489D01*
X21526736Y-12525245D01*
X21495685Y-12522801D01*
X21303718Y-12507693D01*
X21303709Y-12507693D01*
X21301261Y-12507500D01*
X21145729Y-12507500D01*
X21143593Y-12507646D01*
X21143582Y-12507646D01*
X20935452Y-12521835D01*
X20935446Y-12521836D01*
X20931175Y-12522127D01*
X20926980Y-12522996D01*
X20926978Y-12522996D01*
X20790417Y-12551276D01*
X20649658Y-12580426D01*
X20378657Y-12676393D01*
X20123188Y-12808250D01*
X20119687Y-12810711D01*
X20119683Y-12810713D01*
X20109594Y-12817804D01*
X19887977Y-12973559D01*
X19677378Y-13169260D01*
X19495287Y-13391732D01*
X19345073Y-13636858D01*
X19343347Y-13640791D01*
X19343346Y-13640792D01*
X19326514Y-13679137D01*
X19229517Y-13900102D01*
X19228342Y-13904229D01*
X19228341Y-13904230D01*
X19214460Y-13952960D01*
X19150756Y-14176594D01*
X19110249Y-14461216D01*
X19110227Y-14465505D01*
X19110226Y-14465512D01*
X19109182Y-14664900D01*
X19108743Y-14748703D01*
X15142320Y-14748703D01*
X15142320Y-14314345D01*
X15650320Y-14314345D01*
X15654795Y-14329584D01*
X15656185Y-14330789D01*
X15663868Y-14332460D01*
X16736204Y-14332460D01*
X16751443Y-14327985D01*
X16752648Y-14326595D01*
X16754319Y-14318912D01*
X16754319Y-13691791D01*
X16753949Y-13684970D01*
X16748425Y-13634108D01*
X16744799Y-13618856D01*
X16699644Y-13498406D01*
X16691106Y-13482811D01*
X16614605Y-13380736D01*
X16602044Y-13368175D01*
X16499969Y-13291674D01*
X16484374Y-13283136D01*
X16363926Y-13237982D01*
X16348671Y-13234355D01*
X16297806Y-13228829D01*
X16290992Y-13228460D01*
X15668435Y-13228460D01*
X15653196Y-13232935D01*
X15651991Y-13234325D01*
X15650320Y-13242008D01*
X15650320Y-14314345D01*
X15142320Y-14314345D01*
X15142320Y-13246576D01*
X15137845Y-13231337D01*
X15136455Y-13230132D01*
X15128772Y-13228461D01*
X14501651Y-13228461D01*
X14494830Y-13228831D01*
X14443968Y-13234355D01*
X14428716Y-13237981D01*
X14308266Y-13283136D01*
X14292671Y-13291674D01*
X14190596Y-13368175D01*
X14178035Y-13380736D01*
X14101534Y-13482811D01*
X14092996Y-13498406D01*
X14051617Y-13608782D01*
X14008975Y-13665547D01*
X13942413Y-13690246D01*
X13873064Y-13675038D01*
X13840441Y-13649351D01*
X13789471Y-13593336D01*
X13789468Y-13593333D01*
X13785990Y-13589511D01*
X13781939Y-13586312D01*
X13781935Y-13586308D01*
X13614734Y-13454260D01*
X13614730Y-13454258D01*
X13610679Y-13451058D01*
X13595655Y-13442764D01*
X13549461Y-13417264D01*
X13415109Y-13343098D01*
X13410240Y-13341374D01*
X13410236Y-13341372D01*
X13273307Y-13292883D01*
X13215771Y-13251289D01*
X13189855Y-13185191D01*
X13203789Y-13115575D01*
X13226272Y-13085015D01*
X15438762Y-10872525D01*
X15501074Y-10838499D01*
X15527857Y-10835620D01*
X16551394Y-10835620D01*
X16613576Y-10828865D01*
X16749965Y-10777735D01*
X16866521Y-10690381D01*
X16953875Y-10573825D01*
X17005005Y-10437436D01*
X17011760Y-10375254D01*
X17011760Y-9947046D01*
X17031762Y-9878925D01*
X17085418Y-9832432D01*
X17137777Y-9821046D01*
X21171384Y-9821587D01*
X24026017Y-9821970D01*
X24094135Y-9841981D01*
X24140621Y-9895643D01*
X24152000Y-9947970D01*
X24152000Y-16020952D01*
X24150500Y-16040336D01*
X24146814Y-16064010D01*
X24147978Y-16072912D01*
X24147978Y-16072914D01*
X24148805Y-16079239D01*
X24149548Y-16104567D01*
X24137457Y-16273623D01*
X24134899Y-16291417D01*
X24093480Y-16481818D01*
X24088414Y-16499068D01*
X24020318Y-16681638D01*
X24012851Y-16697990D01*
X23919469Y-16869009D01*
X23909752Y-16884128D01*
X23900825Y-16896054D01*
X23792977Y-17040122D01*
X23781204Y-17053708D01*
X23643428Y-17191484D01*
X23629841Y-17203257D01*
X23473848Y-17320032D01*
X23458734Y-17329746D01*
X23408032Y-17357431D01*
X23287710Y-17423131D01*
X23271358Y-17430598D01*
X23088788Y-17498694D01*
X23071540Y-17503759D01*
X23038058Y-17511043D01*
X22881137Y-17545179D01*
X22863342Y-17547737D01*
X22814443Y-17551234D01*
X22701369Y-17559321D01*
X22683467Y-17558577D01*
X22675142Y-17558475D01*
X22666270Y-17557094D01*
X22657368Y-17558258D01*
X22657365Y-17558258D01*
X22634749Y-17561216D01*
X22618411Y-17562280D01*
X-9314380Y-17562280D01*
X-9382501Y-17542278D01*
X-9428994Y-17488622D01*
X-9439098Y-17418348D01*
X-9411880Y-17357762D01*
X-9412331Y-17357431D01*
X-9410786Y-17355328D01*
X-9410786Y-17355327D01*
X-9250205Y-17136723D01*
X-9222846Y-17086334D01*
X-9121582Y-16899830D01*
X-9121581Y-16899828D01*
X-9119532Y-16896054D01*
X-9054634Y-16724307D01*
X-9024249Y-16643895D01*
X-9024248Y-16643891D01*
X-9022731Y-16639877D01*
X-8986531Y-16481818D01*
X-8962551Y-16377117D01*
X-8962550Y-16377113D01*
X-8961593Y-16372933D01*
X-8949860Y-16241473D01*
X-8937469Y-16102627D01*
X-8937469Y-16102625D01*
X-8937249Y-16100161D01*
X-8936807Y-16058000D01*
X-8938246Y-16036892D01*
X-8955141Y-15789055D01*
X-8955142Y-15789049D01*
X-8955433Y-15784778D01*
X-8957347Y-15775533D01*
X-9001069Y-15564414D01*
X-9010968Y-15516612D01*
X-9102383Y-15258465D01*
X-9117852Y-15228495D01*
X-3368159Y-15228495D01*
X-3367822Y-15235014D01*
X-3357903Y-15330606D01*
X-3355011Y-15344000D01*
X-3303572Y-15498184D01*
X-3297399Y-15511362D01*
X-3212097Y-15649207D01*
X-3203061Y-15660608D01*
X-3088331Y-15775139D01*
X-3076920Y-15784151D01*
X-2938917Y-15869216D01*
X-2925736Y-15875363D01*
X-2771450Y-15926538D01*
X-2758074Y-15929405D01*
X-2663722Y-15939072D01*
X-2657306Y-15939400D01*
X-2432275Y-15939400D01*
X-2417036Y-15934925D01*
X-2415831Y-15933535D01*
X-2414160Y-15925852D01*
X-2414160Y-15191015D01*
X-2418635Y-15175776D01*
X-2420025Y-15174571D01*
X-2427708Y-15172900D01*
X-3350044Y-15172900D01*
X-3365283Y-15177375D01*
X-3366488Y-15178765D01*
X-3368159Y-15186448D01*
X-3368159Y-15228495D01*
X-9117852Y-15228495D01*
X-9227987Y-15015112D01*
X-9237960Y-15000921D01*
X-9338003Y-14858575D01*
X-9385455Y-14791057D01*
X-9513699Y-14653050D01*
X-9568954Y-14593588D01*
X-9568957Y-14593585D01*
X-9571875Y-14590445D01*
X-9575190Y-14587731D01*
X-9575194Y-14587728D01*
X-9729762Y-14461216D01*
X-9783795Y-14416990D01*
X-10017296Y-14273901D01*
X-10021232Y-14272173D01*
X-10264127Y-14165549D01*
X-10264131Y-14165548D01*
X-10268055Y-14163825D01*
X-10531434Y-14088800D01*
X-10535676Y-14088196D01*
X-10535682Y-14088195D01*
X-10736166Y-14059662D01*
X-10802557Y-14050213D01*
X-10946411Y-14049460D01*
X-11072123Y-14048802D01*
X-11072129Y-14048802D01*
X-11076409Y-14048780D01*
X-11080653Y-14049339D01*
X-11080657Y-14049339D01*
X-11199698Y-14065011D01*
X-11347922Y-14084525D01*
X-11352062Y-14085658D01*
X-11352064Y-14085658D01*
X-11387583Y-14095375D01*
X-11612072Y-14156788D01*
X-11616020Y-14158472D01*
X-11860018Y-14262546D01*
X-11860022Y-14262548D01*
X-11863970Y-14264232D01*
X-11883875Y-14276145D01*
X-12095275Y-14402664D01*
X-12095279Y-14402667D01*
X-12098957Y-14404868D01*
X-12312682Y-14576094D01*
X-12395370Y-14663229D01*
X-12493359Y-14766488D01*
X-12501192Y-14774742D01*
X-12660998Y-14997136D01*
X-12789143Y-15239161D01*
X-12790615Y-15243184D01*
X-12790617Y-15243188D01*
X-12873600Y-15469949D01*
X-12883257Y-15496337D01*
X-12941596Y-15763907D01*
X-12963083Y-16036918D01*
X-12947318Y-16310320D01*
X-12946493Y-16314525D01*
X-12946492Y-16314533D01*
X-12925547Y-16421287D01*
X-12894595Y-16579053D01*
X-12893208Y-16583103D01*
X-12893207Y-16583108D01*
X-12807277Y-16834088D01*
X-12805888Y-16838144D01*
X-12786388Y-16876916D01*
X-12700677Y-17047333D01*
X-12682840Y-17082799D01*
X-12680414Y-17086328D01*
X-12680411Y-17086334D01*
X-12603761Y-17197859D01*
X-12527726Y-17308490D01*
X-12524837Y-17311665D01*
X-12488608Y-17351480D01*
X-12457556Y-17415326D01*
X-12465950Y-17485824D01*
X-12511127Y-17540593D01*
X-12581801Y-17562280D01*
X-22691432Y-17562280D01*
X-22710817Y-17560780D01*
X-22711099Y-17560736D01*
X-22713643Y-17560340D01*
X-22725619Y-17558475D01*
X-22725621Y-17558475D01*
X-22734490Y-17557094D01*
X-22743392Y-17558258D01*
X-22743394Y-17558258D01*
X-22749719Y-17559085D01*
X-22775042Y-17559828D01*
X-22944103Y-17547737D01*
X-22961897Y-17545179D01*
X-23118818Y-17511043D01*
X-23152300Y-17503759D01*
X-23169548Y-17498694D01*
X-23352118Y-17430598D01*
X-23368470Y-17423131D01*
X-23488792Y-17357431D01*
X-23539494Y-17329746D01*
X-23554608Y-17320032D01*
X-23710601Y-17203257D01*
X-23724188Y-17191484D01*
X-23861964Y-17053708D01*
X-23873737Y-17040122D01*
X-23981585Y-16896054D01*
X-23990512Y-16884128D01*
X-24000229Y-16869009D01*
X-24093611Y-16697990D01*
X-24101078Y-16681638D01*
X-24169174Y-16499068D01*
X-24174240Y-16481818D01*
X-24215659Y-16291417D01*
X-24218217Y-16273622D01*
X-24229801Y-16111651D01*
X-24229057Y-16093747D01*
X-24228955Y-16085422D01*
X-24227574Y-16076550D01*
X-24228997Y-16065661D01*
X-24231696Y-16045029D01*
X-24232760Y-16028691D01*
X-24232760Y-12939600D01*
X-21289474Y-12939600D01*
X-21269609Y-13192003D01*
X-21268455Y-13196810D01*
X-21268454Y-13196816D01*
X-21245390Y-13292883D01*
X-21210505Y-13438191D01*
X-21208612Y-13442762D01*
X-21208611Y-13442764D01*
X-21116331Y-13665547D01*
X-21113616Y-13672102D01*
X-20981328Y-13887976D01*
X-20816898Y-14080498D01*
X-20813142Y-14083706D01*
X-20807886Y-14088195D01*
X-20624376Y-14244928D01*
X-20408502Y-14377216D01*
X-20403932Y-14379109D01*
X-20403928Y-14379111D01*
X-20179164Y-14472211D01*
X-20174591Y-14474105D01*
X-20089968Y-14494421D01*
X-19933216Y-14532054D01*
X-19933210Y-14532055D01*
X-19928403Y-14533209D01*
X-19676000Y-14553074D01*
X-19423597Y-14533209D01*
X-19418790Y-14532055D01*
X-19418784Y-14532054D01*
X-19262032Y-14494421D01*
X-19177409Y-14474105D01*
X-19172836Y-14472211D01*
X-18948072Y-14379111D01*
X-18948068Y-14379109D01*
X-18943498Y-14377216D01*
X-18727624Y-14244928D01*
X-18544114Y-14088195D01*
X-18538858Y-14083706D01*
X-18535102Y-14080498D01*
X-18370672Y-13887976D01*
X-18238384Y-13672102D01*
X-18235668Y-13665547D01*
X-18143389Y-13442764D01*
X-18143388Y-13442762D01*
X-18141495Y-13438191D01*
X-18106610Y-13292883D01*
X-18083546Y-13196816D01*
X-18083545Y-13196810D01*
X-18082391Y-13192003D01*
X-18062526Y-12939600D01*
X-18082391Y-12687197D01*
X-18084512Y-12678359D01*
X-18140340Y-12445821D01*
X-18141495Y-12441009D01*
X-18227687Y-12232922D01*
X-18236489Y-12211672D01*
X-18236491Y-12211668D01*
X-18238384Y-12207098D01*
X-18370672Y-11991224D01*
X-18387312Y-11971741D01*
X-18416342Y-11906951D01*
X-18417500Y-11889911D01*
X-18417500Y-11449289D01*
X-18397498Y-11381168D01*
X-18387312Y-11367459D01*
X-18373882Y-11351734D01*
X-18370672Y-11347976D01*
X-18238384Y-11132102D01*
X-18234667Y-11123130D01*
X-18143389Y-10902764D01*
X-18143388Y-10902762D01*
X-18141495Y-10898191D01*
X-18111283Y-10772349D01*
X-18083546Y-10656816D01*
X-18083545Y-10656810D01*
X-18082391Y-10652003D01*
X-18062526Y-10399600D01*
X-18082391Y-10147197D01*
X-18090057Y-10115262D01*
X-18132134Y-9940001D01*
X-18141495Y-9901009D01*
X-18143389Y-9896436D01*
X-18236489Y-9671672D01*
X-18236491Y-9671668D01*
X-18238384Y-9667098D01*
X-18332982Y-9512729D01*
X-5169579Y-9512729D01*
X-5169209Y-9519550D01*
X-5163685Y-9570412D01*
X-5160059Y-9585664D01*
X-5114904Y-9706114D01*
X-5106366Y-9721709D01*
X-5029865Y-9823784D01*
X-5017304Y-9836345D01*
X-4915229Y-9912846D01*
X-4899634Y-9921384D01*
X-4779186Y-9966538D01*
X-4763931Y-9970165D01*
X-4713066Y-9975691D01*
X-4706252Y-9976060D01*
X-4433695Y-9976060D01*
X-4418456Y-9971585D01*
X-4417251Y-9970195D01*
X-4415580Y-9962512D01*
X-4415580Y-9290175D01*
X-4420055Y-9274936D01*
X-4421445Y-9273731D01*
X-4429128Y-9272060D01*
X-5151464Y-9272060D01*
X-5166703Y-9276535D01*
X-5167908Y-9277925D01*
X-5169579Y-9285608D01*
X-5169579Y-9512729D01*
X-18332982Y-9512729D01*
X-18370672Y-9451224D01*
X-18535102Y-9258702D01*
X-18727624Y-9094272D01*
X-18903224Y-8986664D01*
X-18926484Y-8968326D01*
X-19663188Y-8231622D01*
X-19677132Y-8224008D01*
X-19678965Y-8224139D01*
X-19685580Y-8228390D01*
X-20425516Y-8968326D01*
X-20448776Y-8986664D01*
X-20624376Y-9094272D01*
X-20816898Y-9258702D01*
X-20981328Y-9451224D01*
X-21113616Y-9667098D01*
X-21115509Y-9671668D01*
X-21115511Y-9671672D01*
X-21208611Y-9896436D01*
X-21210505Y-9901009D01*
X-21219866Y-9940001D01*
X-21261942Y-10115262D01*
X-21269609Y-10147197D01*
X-21289474Y-10399600D01*
X-21269609Y-10652003D01*
X-21268455Y-10656810D01*
X-21268454Y-10656816D01*
X-21240717Y-10772349D01*
X-21210505Y-10898191D01*
X-21208612Y-10902762D01*
X-21208611Y-10902764D01*
X-21117332Y-11123130D01*
X-21113616Y-11132102D01*
X-20981328Y-11347976D01*
X-20978118Y-11351734D01*
X-20964688Y-11367459D01*
X-20935658Y-11432249D01*
X-20934500Y-11449289D01*
X-20934500Y-11889911D01*
X-20954502Y-11958032D01*
X-20964688Y-11971741D01*
X-20981328Y-11991224D01*
X-21113616Y-12207098D01*
X-21115509Y-12211668D01*
X-21115511Y-12211672D01*
X-21124313Y-12232922D01*
X-21210505Y-12441009D01*
X-21211660Y-12445821D01*
X-21267487Y-12678359D01*
X-21269609Y-12687197D01*
X-21289474Y-12939600D01*
X-24232760Y-12939600D01*
X-24232760Y-7864530D01*
X-21288584Y-7864530D01*
X-21269502Y-8106990D01*
X-21267959Y-8116737D01*
X-21211183Y-8353224D01*
X-21208134Y-8362609D01*
X-21115064Y-8587300D01*
X-21110583Y-8596094D01*
X-20991287Y-8790767D01*
X-20980830Y-8800227D01*
X-20972054Y-8796444D01*
X-19765095Y-7589485D01*
X-19702783Y-7555459D01*
X-19631968Y-7560524D01*
X-19586905Y-7589485D01*
X-18382990Y-8793400D01*
X-18370610Y-8800160D01*
X-18362960Y-8794433D01*
X-18333246Y-8745945D01*
X-5169580Y-8745945D01*
X-5165105Y-8761184D01*
X-5163715Y-8762389D01*
X-5156032Y-8764060D01*
X-4433695Y-8764060D01*
X-4418456Y-8759585D01*
X-4417251Y-8758195D01*
X-4415580Y-8750512D01*
X-4415580Y-8078176D01*
X-4420055Y-8062937D01*
X-4421445Y-8061732D01*
X-4429128Y-8060061D01*
X-4706249Y-8060061D01*
X-4713070Y-8060431D01*
X-4763932Y-8065955D01*
X-4779184Y-8069581D01*
X-4899634Y-8114736D01*
X-4915229Y-8123274D01*
X-5017304Y-8199775D01*
X-5029865Y-8212336D01*
X-5106366Y-8314411D01*
X-5114904Y-8330006D01*
X-5160058Y-8450454D01*
X-5163685Y-8465709D01*
X-5169211Y-8516574D01*
X-5169580Y-8523388D01*
X-5169580Y-8745945D01*
X-18333246Y-8745945D01*
X-18241417Y-8596094D01*
X-18236936Y-8587300D01*
X-18143866Y-8362609D01*
X-18140817Y-8353224D01*
X-18084041Y-8116737D01*
X-18082498Y-8106990D01*
X-18063416Y-7864530D01*
X-18063416Y-7854670D01*
X-18082498Y-7612210D01*
X-18084041Y-7602463D01*
X-18140817Y-7365976D01*
X-18143866Y-7356591D01*
X-18236936Y-7131900D01*
X-18241422Y-7123096D01*
X-18315577Y-7002087D01*
X-18334116Y-6933554D01*
X-18312660Y-6865877D01*
X-18283710Y-6835426D01*
X-18220276Y-6787885D01*
X-18207715Y-6775324D01*
X-18131214Y-6673249D01*
X-18122676Y-6657654D01*
X-18077522Y-6537206D01*
X-18073895Y-6521951D01*
X-18068369Y-6471086D01*
X-18068000Y-6464272D01*
X-18068000Y-5591715D01*
X-18072475Y-5576476D01*
X-18073865Y-5575271D01*
X-18081548Y-5573600D01*
X-21265884Y-5573600D01*
X-21281123Y-5578075D01*
X-21282328Y-5579465D01*
X-21283999Y-5587148D01*
X-21283999Y-6464269D01*
X-21283629Y-6471090D01*
X-21278105Y-6521952D01*
X-21274479Y-6537204D01*
X-21229324Y-6657654D01*
X-21220786Y-6673249D01*
X-21144285Y-6775324D01*
X-21131724Y-6787885D01*
X-21068290Y-6835426D01*
X-21025775Y-6892285D01*
X-21020749Y-6963103D01*
X-21036423Y-7002087D01*
X-21110578Y-7123096D01*
X-21115064Y-7131900D01*
X-21208134Y-7356591D01*
X-21211183Y-7365976D01*
X-21267959Y-7602463D01*
X-21269502Y-7612210D01*
X-21288584Y-7854670D01*
X-21288584Y-7864530D01*
X-24232760Y-7864530D01*
X-24232760Y-5412729D01*
X-5169579Y-5412729D01*
X-5169209Y-5419550D01*
X-5163685Y-5470412D01*
X-5160059Y-5485664D01*
X-5114904Y-5606114D01*
X-5106366Y-5621709D01*
X-5029865Y-5723784D01*
X-5017304Y-5736345D01*
X-4915229Y-5812846D01*
X-4899634Y-5821384D01*
X-4779186Y-5866538D01*
X-4763931Y-5870165D01*
X-4713066Y-5875691D01*
X-4706252Y-5876060D01*
X-4433695Y-5876060D01*
X-4418456Y-5871585D01*
X-4417251Y-5870195D01*
X-4415580Y-5862512D01*
X-4415580Y-5190175D01*
X-4420055Y-5174936D01*
X-4421445Y-5173731D01*
X-4429128Y-5172060D01*
X-5151464Y-5172060D01*
X-5166703Y-5176535D01*
X-5167908Y-5177925D01*
X-5169579Y-5185608D01*
X-5169579Y-5412729D01*
X-24232760Y-5412729D01*
X-24232760Y-5047485D01*
X-21284000Y-5047485D01*
X-21279525Y-5062724D01*
X-21278135Y-5063929D01*
X-21270452Y-5065600D01*
X-19948115Y-5065600D01*
X-19932876Y-5061125D01*
X-19931671Y-5059735D01*
X-19930000Y-5052052D01*
X-19930000Y-5047485D01*
X-19422000Y-5047485D01*
X-19417525Y-5062724D01*
X-19416135Y-5063929D01*
X-19408452Y-5065600D01*
X-18086116Y-5065600D01*
X-18070877Y-5061125D01*
X-18069672Y-5059735D01*
X-18068001Y-5052052D01*
X-18068001Y-4645945D01*
X-5169580Y-4645945D01*
X-5165105Y-4661184D01*
X-5163715Y-4662389D01*
X-5156032Y-4664060D01*
X-4433695Y-4664060D01*
X-4418456Y-4659585D01*
X-4417251Y-4658195D01*
X-4415580Y-4650512D01*
X-4415580Y-3978176D01*
X-4420055Y-3962937D01*
X-4421445Y-3961732D01*
X-4429128Y-3960061D01*
X-4706249Y-3960061D01*
X-4713070Y-3960431D01*
X-4763932Y-3965955D01*
X-4779184Y-3969581D01*
X-4899634Y-4014736D01*
X-4915229Y-4023274D01*
X-5017304Y-4099775D01*
X-5029865Y-4112336D01*
X-5106366Y-4214411D01*
X-5114904Y-4230006D01*
X-5160058Y-4350454D01*
X-5163685Y-4365709D01*
X-5169211Y-4416574D01*
X-5169580Y-4423388D01*
X-5169580Y-4645945D01*
X-18068001Y-4645945D01*
X-18068001Y-4174931D01*
X-18068371Y-4168110D01*
X-18073895Y-4117248D01*
X-18077521Y-4101996D01*
X-18122676Y-3981546D01*
X-18131214Y-3965951D01*
X-18207715Y-3863876D01*
X-18220276Y-3851315D01*
X-18322351Y-3774814D01*
X-18337946Y-3766276D01*
X-18458394Y-3721122D01*
X-18473649Y-3717495D01*
X-18524514Y-3711969D01*
X-18531328Y-3711600D01*
X-19403885Y-3711600D01*
X-19419124Y-3716075D01*
X-19420329Y-3717465D01*
X-19422000Y-3725148D01*
X-19422000Y-5047485D01*
X-19930000Y-5047485D01*
X-19930000Y-3729716D01*
X-19934475Y-3714477D01*
X-19935865Y-3713272D01*
X-19943548Y-3711601D01*
X-20820669Y-3711601D01*
X-20827490Y-3711971D01*
X-20878352Y-3717495D01*
X-20893604Y-3721121D01*
X-21014054Y-3766276D01*
X-21029649Y-3774814D01*
X-21131724Y-3851315D01*
X-21144285Y-3863876D01*
X-21220786Y-3965951D01*
X-21229324Y-3981546D01*
X-21274478Y-4101994D01*
X-21278105Y-4117249D01*
X-21283631Y-4168114D01*
X-21284000Y-4174928D01*
X-21284000Y-5047485D01*
X-24232760Y-5047485D01*
X-24232760Y-2306990D01*
X-20616560Y-2306990D01*
X-20610833Y-2314640D01*
X-20412494Y-2436183D01*
X-20403700Y-2440664D01*
X-20179009Y-2533734D01*
X-20169624Y-2536783D01*
X-19933137Y-2593559D01*
X-19923390Y-2595102D01*
X-19680930Y-2614184D01*
X-19671070Y-2614184D01*
X-19428610Y-2595102D01*
X-19418863Y-2593559D01*
X-19182376Y-2536783D01*
X-19172991Y-2533734D01*
X-18948300Y-2440664D01*
X-18939506Y-2436183D01*
X-18744833Y-2316887D01*
X-18735373Y-2306430D01*
X-18739156Y-2297654D01*
X-19663188Y-1373622D01*
X-19677132Y-1366008D01*
X-19678965Y-1366139D01*
X-19685580Y-1370390D01*
X-20609800Y-2294610D01*
X-20616560Y-2306990D01*
X-24232760Y-2306990D01*
X-24232760Y-994175D01*
X-23279596Y-994175D01*
X-23276458Y-1028651D01*
X-23262786Y-1178879D01*
X-23260782Y-1200903D01*
X-23259044Y-1206809D01*
X-23259043Y-1206813D01*
X-23243761Y-1258737D01*
X-23202173Y-1400040D01*
X-23106001Y-1584000D01*
X-22975929Y-1745777D01*
X-22971212Y-1749735D01*
X-22971210Y-1749737D01*
X-22890350Y-1817586D01*
X-22816911Y-1879209D01*
X-22811519Y-1882173D01*
X-22811515Y-1882176D01*
X-22656460Y-1967418D01*
X-22635005Y-1979213D01*
X-22437139Y-2041979D01*
X-22431022Y-2042665D01*
X-22431018Y-2042666D01*
X-22360094Y-2050621D01*
X-22275587Y-2060100D01*
X-22163763Y-2060100D01*
X-22160707Y-2059800D01*
X-22160700Y-2059800D01*
X-22015534Y-2045566D01*
X-22015531Y-2045565D01*
X-22009408Y-2044965D01*
X-21867804Y-2002213D01*
X-21816593Y-1986752D01*
X-21816590Y-1986751D01*
X-21810685Y-1984968D01*
X-21803365Y-1981076D01*
X-21632847Y-1890409D01*
X-21632845Y-1890408D01*
X-21627401Y-1887513D01*
X-21526411Y-1805148D01*
X-21471311Y-1760210D01*
X-21471308Y-1760207D01*
X-21466536Y-1756315D01*
X-21450410Y-1736823D01*
X-21358276Y-1625452D01*
X-21299443Y-1585714D01*
X-21228465Y-1584093D01*
X-21167877Y-1621102D01*
X-21144783Y-1657550D01*
X-21115064Y-1729300D01*
X-21110583Y-1738094D01*
X-20991287Y-1932767D01*
X-20980830Y-1942227D01*
X-20972054Y-1938444D01*
X-20048022Y-1014412D01*
X-20040408Y-1000468D01*
X-20040539Y-998635D01*
X-20044790Y-992020D01*
X-20969010Y-67800D01*
X-20981390Y-61040D01*
X-20989040Y-66767D01*
X-21110583Y-265106D01*
X-21115064Y-273900D01*
X-21145135Y-346499D01*
X-21189683Y-401780D01*
X-21257047Y-424201D01*
X-21325838Y-406643D01*
X-21359740Y-377233D01*
X-21452206Y-262229D01*
X-21452211Y-262224D01*
X-21456071Y-257423D01*
X-21468629Y-246885D01*
X-21610371Y-127950D01*
X-21615089Y-123991D01*
X-21620481Y-121027D01*
X-21620485Y-121024D01*
X-21791598Y-26954D01*
X-21796995Y-23987D01*
X-21994861Y38779D01*
X-22000978Y39465D01*
X-22000982Y39466D01*
X-22077598Y48059D01*
X-22156413Y56900D01*
X-22268237Y56900D01*
X-22271293Y56600D01*
X-22271300Y56600D01*
X-22416466Y42366D01*
X-22416469Y42365D01*
X-22422592Y41765D01*
X-22554546Y1926D01*
X-22615407Y-16448D01*
X-22615410Y-16449D01*
X-22621315Y-18232D01*
X-22626760Y-21127D01*
X-22626762Y-21128D01*
X-22799153Y-112791D01*
X-22799155Y-112792D01*
X-22804599Y-115687D01*
X-22819635Y-127950D01*
X-22960689Y-242990D01*
X-22960692Y-242993D01*
X-22965464Y-246885D01*
X-22969392Y-251633D01*
X-22969393Y-251634D01*
X-23063272Y-365114D01*
X-23097783Y-406830D01*
X-23100712Y-412247D01*
X-23100714Y-412250D01*
X-23193584Y-584010D01*
X-23193586Y-584015D01*
X-23196514Y-589430D01*
X-23257898Y-787729D01*
X-23258542Y-793854D01*
X-23258542Y-793855D01*
X-23268646Y-889995D01*
X-23279596Y-994175D01*
X-24232760Y-994175D01*
X-24232760Y1545825D01*
X-23279596Y1545825D01*
X-23276993Y1517225D01*
X-23262600Y1359078D01*
X-23260782Y1339097D01*
X-23259044Y1333191D01*
X-23259043Y1333187D01*
X-23223264Y1211622D01*
X-23202173Y1139960D01*
X-23106001Y956000D01*
X-22975929Y794223D01*
X-22971212Y790265D01*
X-22971210Y790263D01*
X-22867319Y703088D01*
X-22816911Y660791D01*
X-22811519Y657827D01*
X-22811515Y657824D01*
X-22724394Y609929D01*
X-22635005Y560787D01*
X-22437139Y498021D01*
X-22431022Y497335D01*
X-22431018Y497334D01*
X-22354402Y488741D01*
X-22275587Y479900D01*
X-22163763Y479900D01*
X-22160707Y480200D01*
X-22160700Y480200D01*
X-22015534Y494434D01*
X-22015531Y494435D01*
X-22009408Y495035D01*
X-21877454Y534874D01*
X-21816593Y553248D01*
X-21816590Y553249D01*
X-21810685Y555032D01*
X-21803019Y559108D01*
X-21632847Y649591D01*
X-21632845Y649592D01*
X-21627401Y652487D01*
X-21567529Y701317D01*
X-21471311Y779790D01*
X-21471308Y779793D01*
X-21466536Y783685D01*
X-21451651Y801678D01*
X-21358637Y914111D01*
X-21299803Y953849D01*
X-21228825Y955470D01*
X-21168238Y918461D01*
X-21145144Y882013D01*
X-21132544Y851595D01*
X-21113616Y805898D01*
X-20981328Y590024D01*
X-20816898Y397502D01*
X-20624376Y233072D01*
X-20461393Y133196D01*
X-20448776Y125464D01*
X-20425516Y107126D01*
X-18382990Y-1935400D01*
X-18370610Y-1942160D01*
X-18362960Y-1936433D01*
X-18241417Y-1738094D01*
X-18236936Y-1729300D01*
X-18143866Y-1504609D01*
X-18140817Y-1495224D01*
X-18084041Y-1258737D01*
X-18082498Y-1248990D01*
X-18082201Y-1245220D01*
X-18056916Y-1178879D01*
X-17999778Y-1136739D01*
X-17928928Y-1132180D01*
X-17867494Y-1166011D01*
X-17080852Y-1952653D01*
X-17073312Y-1960939D01*
X-17069200Y-1967418D01*
X-17063423Y-1972843D01*
X-17019549Y-2014043D01*
X-17016707Y-2016798D01*
X-16996970Y-2036535D01*
X-16993773Y-2039015D01*
X-16984753Y-2046718D01*
X-16952521Y-2076986D01*
X-16945575Y-2080805D01*
X-16945572Y-2080807D01*
X-16934766Y-2086748D01*
X-16918247Y-2097599D01*
X-16902241Y-2110014D01*
X-16894972Y-2113159D01*
X-16894968Y-2113162D01*
X-16861663Y-2127574D01*
X-16851013Y-2132791D01*
X-16812260Y-2154095D01*
X-16804585Y-2156066D01*
X-16804584Y-2156066D01*
X-16792638Y-2159133D01*
X-16773933Y-2165537D01*
X-16755345Y-2173581D01*
X-16747522Y-2174820D01*
X-16747512Y-2174823D01*
X-16711676Y-2180499D01*
X-16700056Y-2182905D01*
X-16668241Y-2191073D01*
X-16657230Y-2193900D01*
X-16636976Y-2193900D01*
X-16617266Y-2195451D01*
X-16597257Y-2198620D01*
X-16589365Y-2197874D01*
X-16570620Y-2196102D01*
X-16553238Y-2194459D01*
X-16541381Y-2193900D01*
X-9950367Y-2193900D01*
X-9939184Y-2194427D01*
X-9931691Y-2196102D01*
X-9923765Y-2195853D01*
X-9923764Y-2195853D01*
X-9863614Y-2193962D01*
X-9859655Y-2193900D01*
X-9831744Y-2193900D01*
X-9827809Y-2193403D01*
X-9827744Y-2193395D01*
X-9815907Y-2192462D01*
X-9783649Y-2191448D01*
X-9779630Y-2191322D01*
X-9771711Y-2191073D01*
X-9752257Y-2185421D01*
X-9732900Y-2181413D01*
X-9720670Y-2179868D01*
X-9720669Y-2179868D01*
X-9712803Y-2178874D01*
X-9705432Y-2175955D01*
X-9705430Y-2175955D01*
X-9671688Y-2162596D01*
X-9660458Y-2158751D01*
X-9625617Y-2148629D01*
X-9625616Y-2148629D01*
X-9618007Y-2146418D01*
X-9611188Y-2142385D01*
X-9611183Y-2142383D01*
X-9600572Y-2136107D01*
X-9582824Y-2127412D01*
X-9563983Y-2119952D01*
X-9528213Y-2093964D01*
X-9518293Y-2087448D01*
X-9487065Y-2068980D01*
X-9487062Y-2068978D01*
X-9480238Y-2064942D01*
X-9465917Y-2050621D01*
X-9450883Y-2037780D01*
X-9440906Y-2030531D01*
X-9434493Y-2025872D01*
X-9406302Y-1991795D01*
X-9398312Y-1983016D01*
X-6798504Y616791D01*
X-5167039Y616791D01*
X-5166669Y609970D01*
X-5161145Y559108D01*
X-5157519Y543856D01*
X-5112364Y423406D01*
X-5103826Y407811D01*
X-5027325Y305736D01*
X-5014764Y293175D01*
X-4912689Y216674D01*
X-4897094Y208136D01*
X-4776646Y162982D01*
X-4761391Y159355D01*
X-4710526Y153829D01*
X-4703712Y153460D01*
X-4431155Y153460D01*
X-4415916Y157935D01*
X-4414711Y159325D01*
X-4413040Y167008D01*
X-4413040Y839345D01*
X-4417515Y854584D01*
X-4418905Y855789D01*
X-4426588Y857460D01*
X-5148924Y857460D01*
X-5164163Y852985D01*
X-5165368Y851595D01*
X-5167039Y843912D01*
X-5167039Y616791D01*
X-6798504Y616791D01*
X-6389557Y1025738D01*
X-6381271Y1033278D01*
X-6374792Y1037390D01*
X-6328166Y1087042D01*
X-6325412Y1089883D01*
X-6305675Y1109620D01*
X-6303195Y1112817D01*
X-6295490Y1121839D01*
X-6265224Y1154069D01*
X-6261405Y1161015D01*
X-6261403Y1161018D01*
X-6255462Y1171824D01*
X-6244611Y1188343D01*
X-6237052Y1198089D01*
X-6232196Y1204349D01*
X-6229051Y1211618D01*
X-6229048Y1211622D01*
X-6214636Y1244927D01*
X-6209419Y1255577D01*
X-6188115Y1294330D01*
X-6183077Y1313953D01*
X-6176673Y1332656D01*
X-6171777Y1343970D01*
X-6171777Y1343971D01*
X-6168629Y1351245D01*
X-6167390Y1359068D01*
X-6167387Y1359078D01*
X-6163507Y1383575D01*
X-5167040Y1383575D01*
X-5162565Y1368336D01*
X-5161175Y1367131D01*
X-5153492Y1365460D01*
X-4431155Y1365460D01*
X-4415916Y1369935D01*
X-4414711Y1371325D01*
X-4413040Y1379008D01*
X-4413040Y2051344D01*
X-4417515Y2066583D01*
X-4418905Y2067788D01*
X-4426588Y2069459D01*
X-4703709Y2069459D01*
X-4710530Y2069089D01*
X-4761392Y2063565D01*
X-4776644Y2059939D01*
X-4897094Y2014784D01*
X-4912689Y2006246D01*
X-5014764Y1929745D01*
X-5027325Y1917184D01*
X-5103826Y1815109D01*
X-5112364Y1799514D01*
X-5157518Y1679066D01*
X-5161145Y1663811D01*
X-5166671Y1612946D01*
X-5167040Y1606132D01*
X-5167040Y1383575D01*
X-6163507Y1383575D01*
X-6161711Y1394914D01*
X-6159305Y1406534D01*
X-6150282Y1441679D01*
X-6150282Y1441680D01*
X-6148310Y1449360D01*
X-6148310Y1469614D01*
X-6146759Y1489325D01*
X-6144830Y1501504D01*
X-6143590Y1509333D01*
X-6147751Y1553352D01*
X-6148310Y1565209D01*
X-6148310Y4716791D01*
X-5167039Y4716791D01*
X-5166669Y4709970D01*
X-5161145Y4659108D01*
X-5157519Y4643856D01*
X-5112364Y4523406D01*
X-5103826Y4507811D01*
X-5027325Y4405736D01*
X-5014764Y4393175D01*
X-4912689Y4316674D01*
X-4897094Y4308136D01*
X-4776646Y4262982D01*
X-4761391Y4259355D01*
X-4710526Y4253829D01*
X-4703712Y4253460D01*
X-4431155Y4253460D01*
X-4415916Y4257935D01*
X-4414711Y4259325D01*
X-4413040Y4267008D01*
X-4413040Y4939345D01*
X-4417515Y4954584D01*
X-4418905Y4955789D01*
X-4426588Y4957460D01*
X-5148924Y4957460D01*
X-5164163Y4952985D01*
X-5165368Y4951595D01*
X-5167039Y4943912D01*
X-5167039Y4716791D01*
X-6148310Y4716791D01*
X-6148310Y5483575D01*
X-5167040Y5483575D01*
X-5162565Y5468336D01*
X-5161175Y5467131D01*
X-5153492Y5465460D01*
X-4431155Y5465460D01*
X-4415916Y5469935D01*
X-4414711Y5471325D01*
X-4413040Y5479008D01*
X-4413040Y6151344D01*
X-4417515Y6166583D01*
X-4418905Y6167788D01*
X-4426588Y6169459D01*
X-4703709Y6169459D01*
X-4710530Y6169089D01*
X-4761392Y6163565D01*
X-4776644Y6159939D01*
X-4897094Y6114784D01*
X-4912689Y6106246D01*
X-5014764Y6029745D01*
X-5027325Y6017184D01*
X-5103826Y5915109D01*
X-5112364Y5899514D01*
X-5157518Y5779066D01*
X-5161145Y5763811D01*
X-5166671Y5712946D01*
X-5167040Y5706132D01*
X-5167040Y5483575D01*
X-6148310Y5483575D01*
X-6148310Y10705700D01*
X-6128308Y10773821D01*
X-6074652Y10820314D01*
X-6022310Y10831700D01*
X-5256400Y10831700D01*
X-5253154Y10832037D01*
X-5253150Y10832037D01*
X-5157492Y10841962D01*
X-5157488Y10841963D01*
X-5150634Y10842674D01*
X-5144098Y10844855D01*
X-5144096Y10844855D01*
X-4989802Y10896332D01*
X-4982854Y10898650D01*
X-4832452Y10991722D01*
X-4754591Y11069718D01*
X-4692310Y11103797D01*
X-4665419Y11106700D01*
X-3936500Y11106700D01*
X-3868379Y11086698D01*
X-3821886Y11033042D01*
X-3810500Y10980700D01*
X-3810500Y9325638D01*
X-3799447Y9270071D01*
X-3757343Y9207057D01*
X-3694329Y9164953D01*
X-3682160Y9162532D01*
X-3682159Y9162532D01*
X-3644830Y9155107D01*
X-3638762Y9153900D01*
X-3181238Y9153900D01*
X-3175170Y9155107D01*
X-3137841Y9162532D01*
X-3137840Y9162532D01*
X-3125671Y9164953D01*
X-3062657Y9207057D01*
X-3020553Y9270071D01*
X-3009500Y9325638D01*
X-3009500Y10980700D01*
X-2989498Y11048821D01*
X-2935842Y11095314D01*
X-2883500Y11106700D01*
X-2666500Y11106700D01*
X-2598379Y11086698D01*
X-2551886Y11033042D01*
X-2540500Y10980700D01*
X-2540500Y9325638D01*
X-2529447Y9270071D01*
X-2487343Y9207057D01*
X-2424329Y9164953D01*
X-2412160Y9162532D01*
X-2412159Y9162532D01*
X-2374830Y9155107D01*
X-2368762Y9153900D01*
X-1911238Y9153900D01*
X-1905170Y9155107D01*
X-1867841Y9162532D01*
X-1867840Y9162532D01*
X-1855671Y9164953D01*
X-1824544Y9185751D01*
X-1756791Y9206966D01*
X-1688324Y9188183D01*
X-1638133Y9129204D01*
X-1605512Y9050450D01*
X-1597325Y9036269D01*
X-1511522Y8924447D01*
X-1499953Y8912878D01*
X-1388131Y8827075D01*
X-1373950Y8818888D01*
X-1243738Y8764952D01*
X-1227921Y8760714D01*
X-1141961Y8749398D01*
X-1127779Y8751609D01*
X-1124000Y8764767D01*
X-1124000Y10367400D01*
X-1103998Y10435521D01*
X-1050342Y10482014D01*
X-998000Y10493400D01*
X-742000Y10493400D01*
X-673879Y10473398D01*
X-627386Y10419742D01*
X-616000Y10367400D01*
X-616000Y8765148D01*
X-611956Y8751377D01*
X-598417Y8749348D01*
X-512079Y8760714D01*
X-496262Y8764952D01*
X-366050Y8818888D01*
X-351869Y8827075D01*
X-240047Y8912878D01*
X-228478Y8924447D01*
X-142675Y9036269D01*
X-134488Y9050450D01*
X-101867Y9129204D01*
X-57319Y9184485D01*
X10044Y9206906D01*
X84544Y9185751D01*
X115671Y9164953D01*
X127840Y9162532D01*
X127841Y9162532D01*
X165170Y9155107D01*
X171238Y9153900D01*
X628762Y9153900D01*
X634830Y9155107D01*
X672159Y9162532D01*
X672160Y9162532D01*
X684329Y9164953D01*
X747343Y9207057D01*
X789447Y9270071D01*
X800500Y9325638D01*
X800500Y11153162D01*
X789447Y11208729D01*
X747343Y11271743D01*
X684329Y11313847D01*
X672160Y11316268D01*
X672159Y11316268D01*
X634830Y11323693D01*
X628762Y11324900D01*
X171238Y11324900D01*
X165170Y11323693D01*
X127841Y11316268D01*
X127840Y11316268D01*
X115671Y11313847D01*
X87886Y11295282D01*
X84544Y11293049D01*
X16791Y11271834D01*
X-51676Y11290617D01*
X-101867Y11349596D01*
X-134488Y11428350D01*
X-142675Y11442531D01*
X-228478Y11554353D01*
X-240047Y11565922D01*
X-335716Y11639331D01*
X-377583Y11696669D01*
X-381805Y11767540D01*
X-348107Y11828389D01*
X1860665Y14037161D01*
X1922977Y14071187D01*
X1993792Y14066122D01*
X2050628Y14023575D01*
X2075070Y13961237D01*
X2077685Y13936356D01*
X2085408Y13862878D01*
X2087258Y13845272D01*
X2146273Y13663644D01*
X2241760Y13498256D01*
X2246178Y13493349D01*
X2246179Y13493348D01*
X2364804Y13361602D01*
X2369547Y13356334D01*
X2468643Y13284336D01*
X2508194Y13255601D01*
X2524048Y13244082D01*
X2530076Y13241398D01*
X2530078Y13241397D01*
X2657126Y13184832D01*
X2698512Y13166406D01*
X2791913Y13146553D01*
X2878856Y13128072D01*
X2878861Y13128072D01*
X2885313Y13126700D01*
X3076287Y13126700D01*
X3082739Y13128072D01*
X3082744Y13128072D01*
X3169687Y13146553D01*
X3263088Y13166406D01*
X3304474Y13184832D01*
X3431522Y13241397D01*
X3431524Y13241398D01*
X3437552Y13244082D01*
X3453407Y13255601D01*
X3492957Y13284336D01*
X3592053Y13356334D01*
X3596796Y13361602D01*
X3715421Y13493348D01*
X3715422Y13493349D01*
X3719840Y13498256D01*
X3801085Y13638976D01*
X3852466Y13687968D01*
X3926649Y13700897D01*
X3938039Y13699398D01*
X3952221Y13701609D01*
X3956000Y13714767D01*
X3956000Y15461515D01*
X4464000Y15461515D01*
X4468475Y15446276D01*
X4469865Y15445071D01*
X4477548Y15443400D01*
X4999885Y15443400D01*
X5015124Y15447875D01*
X5016329Y15449265D01*
X5018000Y15456948D01*
X5018000Y15496075D01*
X7008140Y15496075D01*
X7012615Y15480836D01*
X7014005Y15479631D01*
X7021688Y15477960D01*
X7969025Y15477960D01*
X7984264Y15482435D01*
X7985469Y15483825D01*
X7987140Y15491508D01*
X7987140Y16213844D01*
X7982665Y16229083D01*
X7981275Y16230288D01*
X7973592Y16231959D01*
X7719045Y16231959D01*
X7712526Y16231622D01*
X7616934Y16221703D01*
X7603540Y16218811D01*
X7449356Y16167372D01*
X7436178Y16161199D01*
X7298333Y16075897D01*
X7286932Y16066861D01*
X7172401Y15952131D01*
X7163389Y15940720D01*
X7078324Y15802717D01*
X7072177Y15789536D01*
X7021002Y15635250D01*
X7018135Y15621874D01*
X7008468Y15527522D01*
X7008140Y15521105D01*
X7008140Y15496075D01*
X5018000Y15496075D01*
X5018000Y16119472D01*
X5017462Y16127681D01*
X5003686Y16232321D01*
X4999448Y16248138D01*
X4945512Y16378350D01*
X4937325Y16392531D01*
X4851522Y16504353D01*
X4839953Y16515922D01*
X4728131Y16601725D01*
X4713950Y16609912D01*
X4583738Y16663848D01*
X4567921Y16668086D01*
X4481961Y16679402D01*
X4467779Y16677191D01*
X4464000Y16664033D01*
X4464000Y15461515D01*
X3956000Y15461515D01*
X3956000Y16663652D01*
X3951956Y16677423D01*
X3938417Y16679452D01*
X3852079Y16668086D01*
X3836262Y16663848D01*
X3706050Y16609912D01*
X3691869Y16601725D01*
X3580047Y16515922D01*
X3568478Y16504353D01*
X3482675Y16392531D01*
X3474487Y16378348D01*
X3471382Y16370853D01*
X3426835Y16315572D01*
X3359472Y16293150D01*
X3291708Y16310394D01*
X3287041Y16314014D01*
X3279768Y16317161D01*
X3279765Y16317163D01*
X3161576Y16368307D01*
X3140145Y16377581D01*
X2982057Y16402620D01*
X2974165Y16401874D01*
X2830596Y16388303D01*
X2830593Y16388302D01*
X2822708Y16387557D01*
X2815254Y16384874D01*
X2815252Y16384873D01*
X2679571Y16336025D01*
X2679569Y16336024D01*
X2672111Y16333339D01*
X2665553Y16328882D01*
X2573667Y16266436D01*
X2539729Y16243372D01*
X2534485Y16237424D01*
X2534484Y16237423D01*
X2482102Y16178007D01*
X2433880Y16123310D01*
X2430281Y16116246D01*
X2429139Y16114566D01*
X2374305Y16069468D01*
X2303795Y16061174D01*
X2239994Y16092317D01*
X2222991Y16111328D01*
X2182469Y16167101D01*
X2157472Y16201507D01*
X2034144Y16303533D01*
X2026977Y16306906D01*
X2026973Y16306908D01*
X1945686Y16345158D01*
X1889318Y16371683D01*
X1732094Y16401675D01*
X1643600Y16396108D01*
X1580262Y16392123D01*
X1580260Y16392123D01*
X1572350Y16391625D01*
X1564814Y16389176D01*
X1564812Y16389176D01*
X1427667Y16344615D01*
X1427664Y16344614D01*
X1420125Y16342164D01*
X1333182Y16286988D01*
X1264950Y16267377D01*
X1196945Y16287768D01*
X1149261Y16345158D01*
X1135514Y16378348D01*
X1127325Y16392531D01*
X1041522Y16504353D01*
X1029953Y16515922D01*
X918131Y16601725D01*
X903950Y16609912D01*
X773738Y16663848D01*
X757921Y16668086D01*
X671961Y16679402D01*
X657779Y16677191D01*
X654000Y16664033D01*
X654000Y15061400D01*
X633998Y14993279D01*
X580342Y14946786D01*
X528000Y14935400D01*
X272000Y14935400D01*
X203879Y14955402D01*
X157386Y15009058D01*
X146000Y15061400D01*
X146000Y16663652D01*
X141956Y16677423D01*
X128417Y16679452D01*
X42079Y16668086D01*
X26262Y16663848D01*
X-103950Y16609912D01*
X-118131Y16601725D01*
X-229953Y16515922D01*
X-241522Y16504353D01*
X-327325Y16392531D01*
X-335512Y16378350D01*
X-368133Y16299596D01*
X-412681Y16244315D01*
X-480044Y16221894D01*
X-554544Y16243049D01*
X-561698Y16247829D01*
X-585671Y16263847D01*
X-597840Y16266268D01*
X-597841Y16266268D01*
X-635170Y16273693D01*
X-641238Y16274900D01*
X-1098762Y16274900D01*
X-1104830Y16273693D01*
X-1142159Y16266268D01*
X-1142160Y16266268D01*
X-1154329Y16263847D01*
X-1217343Y16221743D01*
X-1259447Y16158729D01*
X-1270500Y16103162D01*
X-1270500Y14275638D01*
X-1269293Y14269570D01*
X-1264271Y14244325D01*
X-1259447Y14220071D01*
X-1217343Y14157057D01*
X-1154329Y14114953D01*
X-1142160Y14112532D01*
X-1142159Y14112532D01*
X-1107796Y14105697D01*
X-1098762Y14103900D01*
X-641238Y14103900D01*
X-632204Y14105697D01*
X-597841Y14112532D01*
X-597840Y14112532D01*
X-585671Y14114953D01*
X-554544Y14135751D01*
X-486791Y14156966D01*
X-418324Y14138183D01*
X-368133Y14079204D01*
X-335512Y14000450D01*
X-327323Y13986265D01*
X-244677Y13878557D01*
X-219077Y13812337D01*
X-233342Y13742788D01*
X-255544Y13712761D01*
X-1557700Y12410605D01*
X-1620012Y12376579D01*
X-1646795Y12373700D01*
X-4505413Y12373700D01*
X-4573534Y12393702D01*
X-4613984Y12439930D01*
X-4615250Y12439146D01*
X-4704468Y12583320D01*
X-4708322Y12589548D01*
X-4794909Y12675984D01*
X-4828988Y12738266D01*
X-4823985Y12809086D01*
X-4795064Y12854175D01*
X-4712666Y12936717D01*
X-4707495Y12941897D01*
X-4676257Y12992574D01*
X-4618525Y13086232D01*
X-4618524Y13086234D01*
X-4614685Y13092462D01*
X-4577749Y13203821D01*
X-4561168Y13253811D01*
X-4561168Y13253813D01*
X-4559003Y13260339D01*
X-4557476Y13275237D01*
X-4553891Y13310231D01*
X-4548300Y13364800D01*
X-4548300Y13990600D01*
X-4549322Y14000450D01*
X-4558562Y14089508D01*
X-4558563Y14089512D01*
X-4559274Y14096366D01*
X-4561787Y14103900D01*
X-4612932Y14257198D01*
X-4613643Y14259328D01*
X-4218000Y14259328D01*
X-4217462Y14251119D01*
X-4203686Y14146479D01*
X-4199448Y14130662D01*
X-4145512Y14000450D01*
X-4137325Y13986269D01*
X-4051522Y13874447D01*
X-4039953Y13862878D01*
X-3928131Y13777075D01*
X-3913950Y13768888D01*
X-3783738Y13714952D01*
X-3767921Y13710714D01*
X-3681961Y13699398D01*
X-3667779Y13701609D01*
X-3664000Y13714767D01*
X-3664000Y13715148D01*
X-3156000Y13715148D01*
X-3151956Y13701377D01*
X-3138417Y13699348D01*
X-3052079Y13710714D01*
X-3036262Y13714952D01*
X-2906050Y13768888D01*
X-2891869Y13777075D01*
X-2780047Y13862878D01*
X-2768478Y13874447D01*
X-2682675Y13986269D01*
X-2674488Y14000450D01*
X-2641867Y14079204D01*
X-2597319Y14134485D01*
X-2529956Y14156906D01*
X-2455456Y14135751D01*
X-2424329Y14114953D01*
X-2412160Y14112532D01*
X-2412159Y14112532D01*
X-2377796Y14105697D01*
X-2368762Y14103900D01*
X-1911238Y14103900D01*
X-1902204Y14105697D01*
X-1867841Y14112532D01*
X-1867840Y14112532D01*
X-1855671Y14114953D01*
X-1792657Y14157057D01*
X-1750553Y14220071D01*
X-1745728Y14244325D01*
X-1740707Y14269570D01*
X-1739500Y14275638D01*
X-1739500Y16103162D01*
X-1750553Y16158729D01*
X-1792657Y16221743D01*
X-1855671Y16263847D01*
X-1867840Y16266268D01*
X-1867841Y16266268D01*
X-1905170Y16273693D01*
X-1911238Y16274900D01*
X-2368762Y16274900D01*
X-2374830Y16273693D01*
X-2412159Y16266268D01*
X-2412160Y16266268D01*
X-2424329Y16263847D01*
X-2448302Y16247829D01*
X-2455456Y16243049D01*
X-2523209Y16221834D01*
X-2591676Y16240617D01*
X-2641867Y16299596D01*
X-2674488Y16378350D01*
X-2682675Y16392531D01*
X-2768478Y16504353D01*
X-2780047Y16515922D01*
X-2891869Y16601725D01*
X-2906050Y16609912D01*
X-3036262Y16663848D01*
X-3052079Y16668086D01*
X-3138039Y16679402D01*
X-3152221Y16677191D01*
X-3156000Y16664033D01*
X-3156000Y13715148D01*
X-3664000Y13715148D01*
X-3664000Y14917285D01*
X-3668475Y14932524D01*
X-3669865Y14933729D01*
X-3677548Y14935400D01*
X-4199885Y14935400D01*
X-4215124Y14930925D01*
X-4216329Y14929535D01*
X-4218000Y14921852D01*
X-4218000Y14259328D01*
X-4613643Y14259328D01*
X-4615250Y14264146D01*
X-4708322Y14414548D01*
X-4833497Y14539505D01*
X-4858115Y14554680D01*
X-4977832Y14628475D01*
X-4977834Y14628476D01*
X-4984062Y14632315D01*
X-5068362Y14660276D01*
X-5145411Y14685832D01*
X-5145413Y14685832D01*
X-5151939Y14687997D01*
X-5158775Y14688697D01*
X-5158778Y14688698D01*
X-5201831Y14693109D01*
X-5256400Y14698700D01*
X-6257200Y14698700D01*
X-6260446Y14698363D01*
X-6260450Y14698363D01*
X-6356108Y14688438D01*
X-6356112Y14688437D01*
X-6362966Y14687726D01*
X-6369502Y14685545D01*
X-6369504Y14685545D01*
X-6470415Y14651878D01*
X-6530746Y14631750D01*
X-6681148Y14538678D01*
X-6806105Y14413503D01*
X-6809945Y14407273D01*
X-6809946Y14407272D01*
X-6873458Y14304236D01*
X-6898915Y14262938D01*
X-6908741Y14233313D01*
X-6949306Y14111012D01*
X-6954597Y14095061D01*
X-6955297Y14088225D01*
X-6955298Y14088222D01*
X-6956222Y14079204D01*
X-6965300Y13990600D01*
X-6965300Y13529795D01*
X-6985302Y13461674D01*
X-7002205Y13440700D01*
X-7174063Y13268842D01*
X-7182349Y13261302D01*
X-7188828Y13257190D01*
X-7194253Y13251413D01*
X-7235453Y13207539D01*
X-7238208Y13204697D01*
X-7257945Y13184960D01*
X-7260425Y13181763D01*
X-7268128Y13172743D01*
X-7298396Y13140511D01*
X-7302215Y13133565D01*
X-7302217Y13133562D01*
X-7308158Y13122756D01*
X-7319009Y13106237D01*
X-7331424Y13090231D01*
X-7334569Y13082962D01*
X-7334572Y13082958D01*
X-7348984Y13049653D01*
X-7354201Y13039003D01*
X-7375505Y13000250D01*
X-7377476Y12992575D01*
X-7377476Y12992574D01*
X-7380543Y12980628D01*
X-7386947Y12961924D01*
X-7394991Y12943335D01*
X-7396230Y12935512D01*
X-7396233Y12935502D01*
X-7401909Y12899666D01*
X-7404315Y12888046D01*
X-7413011Y12854175D01*
X-7415310Y12845220D01*
X-7415310Y12824966D01*
X-7416861Y12805256D01*
X-7420030Y12785247D01*
X-7419284Y12777355D01*
X-7415869Y12741229D01*
X-7415310Y12729371D01*
X-7415310Y1843984D01*
X-7435312Y1775863D01*
X-7452215Y1754889D01*
X-10097100Y-889995D01*
X-10159412Y-924021D01*
X-10186195Y-926900D01*
X-16262606Y-926900D01*
X-16330727Y-906898D01*
X-16351701Y-889995D01*
X-18122971Y881275D01*
X-18156997Y943587D01*
X-18150285Y1018588D01*
X-18143389Y1035236D01*
X-18143388Y1035238D01*
X-18141495Y1039809D01*
X-18114064Y1154069D01*
X-18083546Y1281184D01*
X-18083545Y1281190D01*
X-18082391Y1285997D01*
X-18062526Y1538400D01*
X-18082391Y1790803D01*
X-18084540Y1799757D01*
X-18135513Y2012075D01*
X-18141495Y2036991D01*
X-18154172Y2067597D01*
X-18236489Y2266328D01*
X-18236491Y2266332D01*
X-18238384Y2270902D01*
X-18314913Y2395786D01*
X-18333451Y2464320D01*
X-18311995Y2531996D01*
X-18283046Y2562447D01*
X-18261254Y2578779D01*
X-18212739Y2615139D01*
X-18125385Y2731695D01*
X-18074255Y2868084D01*
X-18067500Y2930266D01*
X-18067500Y5226534D01*
X-18074255Y5288716D01*
X-18125385Y5425105D01*
X-18212739Y5541661D01*
X-18329295Y5629015D01*
X-18465684Y5680145D01*
X-18527866Y5686900D01*
X-20824134Y5686900D01*
X-20886316Y5680145D01*
X-21022705Y5629015D01*
X-21139261Y5541661D01*
X-21226615Y5425105D01*
X-21277745Y5288716D01*
X-21284500Y5226534D01*
X-21284500Y4948820D01*
X-21304502Y4880699D01*
X-21358158Y4834206D01*
X-21428432Y4824102D01*
X-21491491Y4852298D01*
X-21600672Y4943912D01*
X-21615089Y4956009D01*
X-21620481Y4958973D01*
X-21620485Y4958976D01*
X-21791598Y5053046D01*
X-21796995Y5056013D01*
X-21994861Y5118779D01*
X-22000978Y5119465D01*
X-22000982Y5119466D01*
X-22077598Y5128059D01*
X-22156413Y5136900D01*
X-22268237Y5136900D01*
X-22271293Y5136600D01*
X-22271300Y5136600D01*
X-22416466Y5122366D01*
X-22416469Y5122365D01*
X-22422592Y5121765D01*
X-22554546Y5081926D01*
X-22615407Y5063552D01*
X-22615410Y5063551D01*
X-22621315Y5061768D01*
X-22626760Y5058873D01*
X-22626762Y5058872D01*
X-22799153Y4967209D01*
X-22799155Y4967208D01*
X-22804599Y4964313D01*
X-22823595Y4948820D01*
X-22960689Y4837010D01*
X-22960692Y4837007D01*
X-22965464Y4833115D01*
X-22969392Y4828367D01*
X-22969393Y4828366D01*
X-22974182Y4822577D01*
X-23097783Y4673170D01*
X-23100712Y4667753D01*
X-23100714Y4667750D01*
X-23193584Y4495990D01*
X-23193586Y4495985D01*
X-23196514Y4490570D01*
X-23257898Y4292271D01*
X-23258542Y4286146D01*
X-23258542Y4286145D01*
X-23261801Y4255132D01*
X-23279596Y4085825D01*
X-23260782Y3879097D01*
X-23259044Y3873191D01*
X-23259043Y3873187D01*
X-23215527Y3725332D01*
X-23202173Y3679960D01*
X-23106001Y3496000D01*
X-22975929Y3334223D01*
X-22971212Y3330265D01*
X-22971210Y3330263D01*
X-22867319Y3243088D01*
X-22816911Y3200791D01*
X-22811519Y3197827D01*
X-22811515Y3197824D01*
X-22640402Y3103754D01*
X-22635005Y3100787D01*
X-22437139Y3038021D01*
X-22431022Y3037335D01*
X-22431018Y3037334D01*
X-22354402Y3028741D01*
X-22275587Y3019900D01*
X-22163763Y3019900D01*
X-22160707Y3020200D01*
X-22160700Y3020200D01*
X-22015534Y3034434D01*
X-22015531Y3034435D01*
X-22009408Y3035035D01*
X-21877454Y3074874D01*
X-21816593Y3093248D01*
X-21816590Y3093249D01*
X-21810685Y3095032D01*
X-21803365Y3098924D01*
X-21632847Y3189591D01*
X-21632845Y3189592D01*
X-21627401Y3192487D01*
X-21622620Y3196387D01*
X-21622616Y3196389D01*
X-21490135Y3304437D01*
X-21424704Y3331991D01*
X-21354762Y3319795D01*
X-21302517Y3271723D01*
X-21284500Y3206794D01*
X-21284500Y2930266D01*
X-21277745Y2868084D01*
X-21226615Y2731695D01*
X-21139261Y2615139D01*
X-21090746Y2578779D01*
X-21068954Y2562447D01*
X-21026440Y2505587D01*
X-21021415Y2434769D01*
X-21037087Y2395786D01*
X-21113616Y2270902D01*
X-21115509Y2266332D01*
X-21115513Y2266324D01*
X-21145492Y2193946D01*
X-21190040Y2138664D01*
X-21257403Y2116243D01*
X-21326194Y2133801D01*
X-21360097Y2163211D01*
X-21452206Y2277771D01*
X-21452211Y2277776D01*
X-21456071Y2282577D01*
X-21468629Y2293115D01*
X-21610371Y2412050D01*
X-21615089Y2416009D01*
X-21620481Y2418973D01*
X-21620485Y2418976D01*
X-21791598Y2513046D01*
X-21796995Y2516013D01*
X-21994861Y2578779D01*
X-22000978Y2579465D01*
X-22000982Y2579466D01*
X-22077598Y2588059D01*
X-22156413Y2596900D01*
X-22268237Y2596900D01*
X-22271293Y2596600D01*
X-22271300Y2596600D01*
X-22416466Y2582366D01*
X-22416469Y2582365D01*
X-22422592Y2581765D01*
X-22554546Y2541926D01*
X-22615407Y2523552D01*
X-22615410Y2523551D01*
X-22621315Y2521768D01*
X-22626760Y2518873D01*
X-22626762Y2518872D01*
X-22799153Y2427209D01*
X-22799155Y2427208D01*
X-22804599Y2424313D01*
X-22860206Y2378961D01*
X-22960689Y2297010D01*
X-22960692Y2297007D01*
X-22965464Y2293115D01*
X-22969392Y2288367D01*
X-22969393Y2288366D01*
X-22987628Y2266324D01*
X-23097783Y2133170D01*
X-23100712Y2127753D01*
X-23100714Y2127750D01*
X-23193584Y1955990D01*
X-23193586Y1955985D01*
X-23196514Y1950570D01*
X-23257898Y1752271D01*
X-23258542Y1746146D01*
X-23258542Y1746145D01*
X-23278183Y1559265D01*
X-23279596Y1545825D01*
X-24232760Y1545825D01*
X-24232760Y6563082D01*
X-12963083Y6563082D01*
X-12947318Y6289680D01*
X-12946493Y6285475D01*
X-12946492Y6285467D01*
X-12922854Y6164985D01*
X-12894595Y6020947D01*
X-12893208Y6016897D01*
X-12893207Y6016892D01*
X-12807277Y5765912D01*
X-12805888Y5761856D01*
X-12803961Y5758025D01*
X-12697848Y5547042D01*
X-12682840Y5517201D01*
X-12680414Y5513672D01*
X-12680411Y5513666D01*
X-12530891Y5296115D01*
X-12527726Y5291510D01*
X-12524839Y5288337D01*
X-12524838Y5288336D01*
X-12486335Y5246022D01*
X-12343418Y5088957D01*
X-12133325Y4913293D01*
X-12129684Y4911009D01*
X-11904976Y4770049D01*
X-11904972Y4770047D01*
X-11901336Y4767766D01*
X-11833456Y4737117D01*
X-11655655Y4656836D01*
X-11655651Y4656834D01*
X-11651743Y4655070D01*
X-11647623Y4653850D01*
X-11647624Y4653850D01*
X-11393277Y4578509D01*
X-11393273Y4578508D01*
X-11389164Y4577291D01*
X-11384930Y4576643D01*
X-11384925Y4576642D01*
X-11122702Y4536517D01*
X-11122700Y4536517D01*
X-11118460Y4535868D01*
X-10979088Y4533678D01*
X-10848929Y4531633D01*
X-10848923Y4531633D01*
X-10844638Y4531566D01*
X-10572765Y4564466D01*
X-10307873Y4633959D01*
X-10303913Y4635599D01*
X-10303908Y4635601D01*
X-10181368Y4686359D01*
X-10054864Y4738759D01*
X-9907715Y4824746D01*
X-9822121Y4874763D01*
X-9822120Y4874764D01*
X-9818418Y4876927D01*
X-9602911Y5045906D01*
X-9595991Y5053046D01*
X-9415314Y5239491D01*
X-9412331Y5242569D01*
X-9409798Y5246017D01*
X-9409794Y5246022D01*
X-9252743Y5459822D01*
X-9250205Y5463277D01*
X-9222846Y5513666D01*
X-9121582Y5700170D01*
X-9121581Y5700172D01*
X-9119532Y5703946D01*
X-9022731Y5960123D01*
X-8990897Y6099117D01*
X-8962551Y6222883D01*
X-8962550Y6222887D01*
X-8961593Y6227067D01*
X-8955474Y6295621D01*
X-8937469Y6497373D01*
X-8937469Y6497375D01*
X-8937249Y6499839D01*
X-8936807Y6542000D01*
X-8955433Y6815222D01*
X-8972882Y6899482D01*
X-9010099Y7079191D01*
X-9010968Y7083388D01*
X-9102383Y7341535D01*
X-9227987Y7584888D01*
X-9231929Y7590498D01*
X-9344305Y7750392D01*
X-9385455Y7808943D01*
X-9455534Y7884357D01*
X-9568954Y8006412D01*
X-9568957Y8006415D01*
X-9571875Y8009555D01*
X-9575190Y8012269D01*
X-9575194Y8012272D01*
X-9717251Y8128544D01*
X-9783795Y8183010D01*
X-10017296Y8326099D01*
X-10021232Y8327827D01*
X-10264127Y8434451D01*
X-10264131Y8434452D01*
X-10268055Y8436175D01*
X-10531434Y8511200D01*
X-10535676Y8511804D01*
X-10535682Y8511805D01*
X-10759128Y8543606D01*
X-10802557Y8549787D01*
X-10946411Y8550540D01*
X-11072123Y8551198D01*
X-11072129Y8551198D01*
X-11076409Y8551220D01*
X-11080653Y8550661D01*
X-11080657Y8550661D01*
X-11199698Y8534989D01*
X-11347922Y8515475D01*
X-11352062Y8514342D01*
X-11352064Y8514342D01*
X-11382703Y8505960D01*
X-11612072Y8443212D01*
X-11616020Y8441528D01*
X-11860018Y8337454D01*
X-11860022Y8337452D01*
X-11863970Y8335768D01*
X-11936862Y8292143D01*
X-12095275Y8197336D01*
X-12095279Y8197333D01*
X-12098957Y8195132D01*
X-12312682Y8023906D01*
X-12378035Y7955038D01*
X-12464257Y7864179D01*
X-12501192Y7825258D01*
X-12660998Y7602864D01*
X-12789143Y7360839D01*
X-12790615Y7356816D01*
X-12790617Y7356812D01*
X-12797686Y7337494D01*
X-12883257Y7103663D01*
X-12941596Y6836093D01*
X-12963083Y6563082D01*
X-24232760Y6563082D01*
X-24232760Y10149215D01*
X-14328500Y10149215D01*
X-14321745Y10087033D01*
X-14270615Y9950644D01*
X-14183261Y9834088D01*
X-14066705Y9746734D01*
X-13930316Y9695604D01*
X-13868134Y9688849D01*
X-12171866Y9688849D01*
X-12109684Y9695604D01*
X-11973295Y9746734D01*
X-11856739Y9834088D01*
X-11769385Y9950644D01*
X-11718255Y10087033D01*
X-11711500Y10149215D01*
X-11711500Y11845483D01*
X-11718255Y11907665D01*
X-11769385Y12044054D01*
X-11856739Y12160610D01*
X-11973295Y12247964D01*
X-12109684Y12299094D01*
X-12171866Y12305849D01*
X-13868134Y12305849D01*
X-13930316Y12299094D01*
X-14066705Y12247964D01*
X-14183261Y12160610D01*
X-14270615Y12044054D01*
X-14321745Y11907665D01*
X-14328500Y11845483D01*
X-14328500Y10149215D01*
X-24232760Y10149215D01*
X-24232760Y14105697D01*
X-23372757Y14105697D01*
X-23372198Y14101453D01*
X-23372198Y14101449D01*
X-23356580Y13982817D01*
X-23335232Y13820666D01*
X-23334099Y13816526D01*
X-23334099Y13816524D01*
X-23331907Y13808512D01*
X-23259371Y13543364D01*
X-23257687Y13539416D01*
X-23179595Y13356334D01*
X-23146577Y13278924D01*
X-23103854Y13207539D01*
X-23039139Y13099409D01*
X-22998939Y13032239D01*
X-22819187Y12807872D01*
X-22742728Y12735315D01*
X-22616042Y12615095D01*
X-22610649Y12609977D01*
X-22434211Y12483193D01*
X-22412867Y12467856D01*
X-22377183Y12442214D01*
X-22373388Y12440205D01*
X-22373387Y12440204D01*
X-22351631Y12428685D01*
X-22123108Y12307688D01*
X-22020741Y12270227D01*
X-21871397Y12215575D01*
X-21853127Y12208889D01*
X-21572236Y12147645D01*
X-21543659Y12145396D01*
X-21349218Y12130093D01*
X-21349209Y12130093D01*
X-21346761Y12129900D01*
X-21191229Y12129900D01*
X-21189093Y12130046D01*
X-21189082Y12130046D01*
X-20980952Y12144235D01*
X-20980946Y12144236D01*
X-20976675Y12144527D01*
X-20972480Y12145396D01*
X-20972478Y12145396D01*
X-20835917Y12173676D01*
X-20695158Y12202826D01*
X-20424157Y12298793D01*
X-20316097Y12354567D01*
X-20172495Y12428685D01*
X-20172494Y12428685D01*
X-20168688Y12430650D01*
X-20165187Y12433111D01*
X-20165183Y12433113D01*
X-20010535Y12541802D01*
X-19933477Y12595959D01*
X-19846355Y12676918D01*
X-19726021Y12788739D01*
X-19726019Y12788742D01*
X-19722878Y12791660D01*
X-19540787Y13014132D01*
X-19390573Y13259258D01*
X-19323837Y13411287D01*
X-13741507Y13411287D01*
X-13732211Y13399272D01*
X-13681006Y13363418D01*
X-13671511Y13357935D01*
X-13474053Y13265859D01*
X-13463761Y13262113D01*
X-13253312Y13205724D01*
X-13242519Y13203821D01*
X-13025475Y13184832D01*
X-13014525Y13184832D01*
X-12797481Y13203821D01*
X-12786688Y13205724D01*
X-12576239Y13262113D01*
X-12565947Y13265859D01*
X-12368489Y13357935D01*
X-12358994Y13363418D01*
X-12306952Y13399858D01*
X-12298576Y13410337D01*
X-12305644Y13423783D01*
X-13007188Y14125327D01*
X-13021132Y14132941D01*
X-13022965Y14132810D01*
X-13029580Y14128559D01*
X-13735077Y13423062D01*
X-13741507Y13411287D01*
X-19323837Y13411287D01*
X-19275017Y13522502D01*
X-19272939Y13529795D01*
X-19208649Y13755488D01*
X-19196256Y13798994D01*
X-19162360Y14037161D01*
X-19156354Y14079364D01*
X-19156354Y14079366D01*
X-19155749Y14083616D01*
X-19155724Y14088222D01*
X-19154265Y14366817D01*
X-19154265Y14366824D01*
X-19154243Y14371103D01*
X-19155443Y14380222D01*
X-19170143Y14491874D01*
X-14332517Y14491874D01*
X-14313528Y14274830D01*
X-14311625Y14264037D01*
X-14255236Y14053588D01*
X-14251490Y14043296D01*
X-14159414Y13845838D01*
X-14153931Y13836343D01*
X-14117491Y13784301D01*
X-14107012Y13775925D01*
X-14093566Y13782993D01*
X-13392022Y14484537D01*
X-13385644Y14496217D01*
X-12655592Y14496217D01*
X-12655461Y14494384D01*
X-12651210Y14487769D01*
X-11945713Y13782272D01*
X-11933938Y13775842D01*
X-11921923Y13785138D01*
X-11886069Y13836343D01*
X-11880586Y13845838D01*
X-11788510Y14043296D01*
X-11784764Y14053588D01*
X-11728375Y14264037D01*
X-11726472Y14274830D01*
X-11707483Y14491874D01*
X-11707483Y14502824D01*
X-11726472Y14719868D01*
X-11728375Y14730661D01*
X-11784764Y14941110D01*
X-11788510Y14951402D01*
X-11880586Y15148860D01*
X-11886069Y15158355D01*
X-11922509Y15210397D01*
X-11932988Y15218773D01*
X-11946434Y15211705D01*
X-12647978Y14510161D01*
X-12655592Y14496217D01*
X-13385644Y14496217D01*
X-13384408Y14498481D01*
X-13384539Y14500314D01*
X-13388790Y14506929D01*
X-14094287Y15212426D01*
X-14106062Y15218856D01*
X-14118077Y15209560D01*
X-14153931Y15158355D01*
X-14159414Y15148860D01*
X-14251490Y14951402D01*
X-14255236Y14941110D01*
X-14311625Y14730661D01*
X-14313528Y14719868D01*
X-14332517Y14502824D01*
X-14332517Y14491874D01*
X-19170143Y14491874D01*
X-19188863Y14634068D01*
X-19191768Y14656134D01*
X-19200410Y14687726D01*
X-19250103Y14869371D01*
X-19267629Y14933436D01*
X-19307454Y15026804D01*
X-19378737Y15193924D01*
X-19378739Y15193928D01*
X-19380423Y15197876D01*
X-19528061Y15444561D01*
X-19640062Y15584361D01*
X-13741424Y15584361D01*
X-13734356Y15570915D01*
X-13032812Y14869371D01*
X-13018868Y14861757D01*
X-13017035Y14861888D01*
X-13010420Y14866139D01*
X-12415044Y15461515D01*
X-4218000Y15461515D01*
X-4213525Y15446276D01*
X-4212135Y15445071D01*
X-4204452Y15443400D01*
X-3682115Y15443400D01*
X-3666876Y15447875D01*
X-3665671Y15449265D01*
X-3664000Y15456948D01*
X-3664000Y16663652D01*
X-3668044Y16677423D01*
X-3681583Y16679452D01*
X-3767921Y16668086D01*
X-3783738Y16663848D01*
X-3913950Y16609912D01*
X-3928131Y16601725D01*
X-4039953Y16515922D01*
X-4051522Y16504353D01*
X-4137325Y16392531D01*
X-4145512Y16378350D01*
X-4199448Y16248138D01*
X-4203686Y16232321D01*
X-4217462Y16127681D01*
X-4218000Y16119472D01*
X-4218000Y15461515D01*
X-12415044Y15461515D01*
X-12304923Y15571636D01*
X-12298493Y15583411D01*
X-12307789Y15595426D01*
X-12358994Y15631280D01*
X-12368489Y15636763D01*
X-12565947Y15728839D01*
X-12576239Y15732585D01*
X-12786688Y15788974D01*
X-12797481Y15790877D01*
X-13014525Y15809866D01*
X-13025475Y15809866D01*
X-13242519Y15790877D01*
X-13253312Y15788974D01*
X-13463761Y15732585D01*
X-13474053Y15728839D01*
X-13671511Y15636763D01*
X-13681006Y15631280D01*
X-13733048Y15594840D01*
X-13741424Y15584361D01*
X-19640062Y15584361D01*
X-19707813Y15668928D01*
X-19871742Y15824491D01*
X-19913242Y15863873D01*
X-19913245Y15863875D01*
X-19916351Y15866823D01*
X-20149817Y16034586D01*
X-20171657Y16046150D01*
X-20261632Y16093789D01*
X-20403892Y16169112D01*
X-20574709Y16231622D01*
X-20669842Y16266436D01*
X-20669844Y16266437D01*
X-20673873Y16267911D01*
X-20954764Y16329155D01*
X-20985815Y16331599D01*
X-21177782Y16346707D01*
X-21177791Y16346707D01*
X-21180239Y16346900D01*
X-21335771Y16346900D01*
X-21337907Y16346754D01*
X-21337918Y16346754D01*
X-21546048Y16332565D01*
X-21546054Y16332564D01*
X-21550325Y16332273D01*
X-21554520Y16331404D01*
X-21554522Y16331404D01*
X-21672809Y16306908D01*
X-21831842Y16273974D01*
X-22102843Y16178007D01*
X-22106652Y16176041D01*
X-22329203Y16061174D01*
X-22358312Y16046150D01*
X-22361813Y16043689D01*
X-22361817Y16043687D01*
X-22470962Y15966978D01*
X-22593523Y15880841D01*
X-22608608Y15866823D01*
X-22784945Y15702960D01*
X-22804122Y15685140D01*
X-22986213Y15462668D01*
X-23136427Y15217542D01*
X-23138153Y15213609D01*
X-23138154Y15213608D01*
X-23139931Y15209560D01*
X-23251983Y14954298D01*
X-23253158Y14950171D01*
X-23253159Y14950170D01*
X-23264153Y14911574D01*
X-23330744Y14677806D01*
X-23351163Y14534334D01*
X-23369319Y14406756D01*
X-23371251Y14393184D01*
X-23371273Y14388895D01*
X-23371274Y14388888D01*
X-23372735Y14109983D01*
X-23372757Y14105697D01*
X-24232760Y14105697D01*
X-24232760Y15653632D01*
X-24231260Y15673017D01*
X-24228955Y15687819D01*
X-24228955Y15687821D01*
X-24227574Y15696690D01*
X-24228738Y15705594D01*
X-24229565Y15711919D01*
X-24230308Y15737247D01*
X-24228583Y15761356D01*
X-24218217Y15906303D01*
X-24215659Y15924097D01*
X-24175386Y16109230D01*
X-24174239Y16114500D01*
X-24169174Y16131748D01*
X-24101078Y16314318D01*
X-24093611Y16330670D01*
X-24000229Y16501689D01*
X-23990512Y16516808D01*
X-23873737Y16672802D01*
X-23861964Y16686388D01*
X-23724188Y16824164D01*
X-23710602Y16835937D01*
X-23664276Y16870616D01*
X-23554608Y16952712D01*
X-23539494Y16962426D01*
X-23433780Y17020150D01*
X-23368470Y17055811D01*
X-23352118Y17063278D01*
X-23169548Y17131374D01*
X-23152300Y17136439D01*
X-22961897Y17177859D01*
X-22944102Y17180417D01*
X-22895203Y17183914D01*
X-22782129Y17192001D01*
X-22764227Y17191257D01*
X-22755902Y17191155D01*
X-22747030Y17189774D01*
X-22738128Y17190938D01*
X-22738125Y17190938D01*
X-22715509Y17193896D01*
X-22699171Y17194960D01*
X8237667Y17194960D01*
X8305788Y17174958D01*
G37*
%TD.AperFunction*%
%TA.AperFunction,Conductor*%
G36*
X11092405Y-10628981D02*
G01*
X11104077Y-10642450D01*
X11139999Y-10690381D01*
X11256555Y-10777735D01*
X11392944Y-10828865D01*
X11455126Y-10835620D01*
X12544665Y-10835620D01*
X12612786Y-10855622D01*
X12659279Y-10909278D01*
X12669383Y-10979552D01*
X12639889Y-11044132D01*
X12633760Y-11050715D01*
X12014690Y-11669785D01*
X11952378Y-11703811D01*
X11925595Y-11706690D01*
X10101353Y-11706690D01*
X10090169Y-11706163D01*
X10082681Y-11704489D01*
X10074758Y-11704738D01*
X10014623Y-11706628D01*
X10010665Y-11706690D01*
X9982734Y-11706690D01*
X9978819Y-11707185D01*
X9978815Y-11707185D01*
X9978757Y-11707193D01*
X9978728Y-11707196D01*
X9966886Y-11708129D01*
X9922700Y-11709517D01*
X9905334Y-11714562D01*
X9903248Y-11715168D01*
X9883896Y-11719176D01*
X9871658Y-11720722D01*
X9871656Y-11720723D01*
X9863793Y-11721716D01*
X9822676Y-11737996D01*
X9811475Y-11741831D01*
X9768996Y-11754172D01*
X9762177Y-11758205D01*
X9762172Y-11758207D01*
X9751561Y-11764483D01*
X9733811Y-11773180D01*
X9714973Y-11780638D01*
X9708557Y-11785299D01*
X9708556Y-11785300D01*
X9679215Y-11806618D01*
X9669291Y-11813137D01*
X9638050Y-11831612D01*
X9638045Y-11831616D01*
X9631227Y-11835648D01*
X9616903Y-11849972D01*
X9601871Y-11862811D01*
X9585483Y-11874718D01*
X9558818Y-11906951D01*
X9557302Y-11908783D01*
X9549312Y-11917563D01*
X8233665Y-13233210D01*
X8171353Y-13267236D01*
X8122474Y-13268162D01*
X7909693Y-13230260D01*
X7909687Y-13230259D01*
X7904604Y-13229354D01*
X7793329Y-13227995D01*
X7725460Y-13207162D01*
X7679626Y-13152943D01*
X7670381Y-13082551D01*
X7700660Y-13018335D01*
X7705775Y-13012909D01*
X9220508Y-11498176D01*
X9228798Y-11490632D01*
X9235279Y-11486519D01*
X9281920Y-11436851D01*
X9284674Y-11434010D01*
X9304396Y-11414288D01*
X9306873Y-11411095D01*
X9314578Y-11402074D01*
X9344847Y-11369840D01*
X9348721Y-11362793D01*
X9354607Y-11352087D01*
X9365463Y-11335560D01*
X9373018Y-11325821D01*
X9373019Y-11325819D01*
X9377875Y-11319559D01*
X9395435Y-11278979D01*
X9400652Y-11268331D01*
X9418136Y-11236528D01*
X9418137Y-11236526D01*
X9421956Y-11229579D01*
X9426994Y-11209956D01*
X9433398Y-11191253D01*
X9438294Y-11179939D01*
X9438294Y-11179938D01*
X9441442Y-11172664D01*
X9442681Y-11164841D01*
X9442684Y-11164831D01*
X9448360Y-11128995D01*
X9450766Y-11117375D01*
X9459789Y-11082230D01*
X9459789Y-11082229D01*
X9461761Y-11074549D01*
X9461761Y-11054295D01*
X9463312Y-11034584D01*
X9465241Y-11022405D01*
X9466481Y-11014576D01*
X9462596Y-10973478D01*
X9476099Y-10903777D01*
X9525141Y-10852441D01*
X9588037Y-10835620D01*
X10551394Y-10835620D01*
X10613576Y-10828865D01*
X10749965Y-10777735D01*
X10866521Y-10690381D01*
X10902436Y-10642460D01*
X10959293Y-10599947D01*
X11030111Y-10594921D01*
X11092405Y-10628981D01*
G37*
%TD.AperFunction*%
%TA.AperFunction,Conductor*%
G36*
X15092405Y4571019D02*
G01*
X15104077Y4557550D01*
X15139999Y4509619D01*
X15256555Y4422265D01*
X15392944Y4371135D01*
X15455126Y4364380D01*
X16314260Y4364380D01*
X16382381Y4344378D01*
X16428874Y4290722D01*
X16440260Y4238380D01*
X16440260Y-7192620D01*
X16420258Y-7260741D01*
X16366602Y-7307234D01*
X16314260Y-7318620D01*
X15455126Y-7318620D01*
X15392944Y-7325375D01*
X15256555Y-7376505D01*
X15139999Y-7463859D01*
X15104084Y-7511780D01*
X15047227Y-7554293D01*
X14976409Y-7559319D01*
X14914115Y-7525259D01*
X14902443Y-7511790D01*
X14866521Y-7463859D01*
X14749965Y-7376505D01*
X14613576Y-7325375D01*
X14551394Y-7318620D01*
X13455126Y-7318620D01*
X13392944Y-7325375D01*
X13256555Y-7376505D01*
X13139999Y-7463859D01*
X13104084Y-7511780D01*
X13047227Y-7554293D01*
X12976409Y-7559319D01*
X12914115Y-7525259D01*
X12902443Y-7511790D01*
X12866521Y-7463859D01*
X12749965Y-7376505D01*
X12613576Y-7325375D01*
X12551394Y-7318620D01*
X11937759Y-7318620D01*
X11869638Y-7298618D01*
X11823145Y-7244962D01*
X11811759Y-7192620D01*
X11811759Y4238380D01*
X11831761Y4306501D01*
X11885417Y4352994D01*
X11937759Y4364380D01*
X12551394Y4364380D01*
X12613576Y4371135D01*
X12749965Y4422265D01*
X12866521Y4509619D01*
X12902436Y4557540D01*
X12959293Y4600053D01*
X13030111Y4605079D01*
X13092405Y4571019D01*
X13104077Y4557550D01*
X13139999Y4509619D01*
X13256555Y4422265D01*
X13392944Y4371135D01*
X13455126Y4364380D01*
X14551394Y4364380D01*
X14613576Y4371135D01*
X14749965Y4422265D01*
X14866521Y4509619D01*
X14902436Y4557540D01*
X14959293Y4600053D01*
X15030111Y4605079D01*
X15092405Y4571019D01*
G37*
%TD.AperFunction*%
%TA.AperFunction,Conductor*%
G36*
X9092405Y4571019D02*
G01*
X9104077Y4557550D01*
X9139999Y4509619D01*
X9256555Y4422265D01*
X9392944Y4371135D01*
X9455126Y4364380D01*
X10418759Y4364380D01*
X10486880Y4344378D01*
X10533373Y4290722D01*
X10544759Y4238380D01*
X10544759Y-7192620D01*
X10524757Y-7260741D01*
X10471101Y-7307234D01*
X10418759Y-7318620D01*
X9587761Y-7318620D01*
X9519640Y-7298618D01*
X9473147Y-7244962D01*
X9461761Y-7192620D01*
X9461761Y-2280888D01*
X9462288Y-2269705D01*
X9463963Y-2262212D01*
X9461823Y-2194121D01*
X9461761Y-2190164D01*
X9461761Y-2162265D01*
X9461257Y-2158274D01*
X9460324Y-2146432D01*
X9459896Y-2132796D01*
X9458935Y-2102232D01*
X9456723Y-2094618D01*
X9456722Y-2094613D01*
X9453284Y-2082780D01*
X9449273Y-2063416D01*
X9448805Y-2059707D01*
X9446735Y-2043324D01*
X9443818Y-2035957D01*
X9443817Y-2035952D01*
X9430459Y-2002213D01*
X9426615Y-1990986D01*
X9422332Y-1976246D01*
X9414279Y-1948528D01*
X9404958Y-1932767D01*
X9403968Y-1931093D01*
X9395273Y-1913345D01*
X9387813Y-1894504D01*
X9362313Y-1859405D01*
X9361825Y-1858734D01*
X9355309Y-1848814D01*
X9336841Y-1817586D01*
X9336839Y-1817583D01*
X9332803Y-1810759D01*
X9318482Y-1796438D01*
X9305641Y-1781404D01*
X9298392Y-1771427D01*
X9293733Y-1765014D01*
X9259656Y-1736823D01*
X9250877Y-1728833D01*
X3372760Y4149285D01*
X3338734Y4211597D01*
X3343799Y4282412D01*
X3386346Y4339248D01*
X3452866Y4364059D01*
X3461855Y4364380D01*
X4551394Y4364380D01*
X4613576Y4371135D01*
X4749965Y4422265D01*
X4866521Y4509619D01*
X4902436Y4557540D01*
X4959293Y4600053D01*
X5030111Y4605079D01*
X5092405Y4571019D01*
X5104077Y4557550D01*
X5139999Y4509619D01*
X5256555Y4422265D01*
X5392944Y4371135D01*
X5455126Y4364380D01*
X6551394Y4364380D01*
X6613576Y4371135D01*
X6749965Y4422265D01*
X6866521Y4509619D01*
X6902436Y4557540D01*
X6959293Y4600053D01*
X7030111Y4605079D01*
X7092405Y4571019D01*
X7104077Y4557550D01*
X7139999Y4509619D01*
X7256555Y4422265D01*
X7392944Y4371135D01*
X7455126Y4364380D01*
X8551394Y4364380D01*
X8613576Y4371135D01*
X8749965Y4422265D01*
X8866521Y4509619D01*
X8902436Y4557540D01*
X8959293Y4600053D01*
X9030111Y4605079D01*
X9092405Y4571019D01*
G37*
%TD.AperFunction*%
%TA.AperFunction,Conductor*%
G36*
X22630056Y17193460D02*
G01*
X22632284Y17193113D01*
X22644859Y17191155D01*
X22644861Y17191155D01*
X22653730Y17189774D01*
X22662632Y17190938D01*
X22662634Y17190938D01*
X22668959Y17191765D01*
X22694282Y17192508D01*
X22858126Y17180790D01*
X22863343Y17180417D01*
X22881137Y17177859D01*
X23071540Y17136439D01*
X23088788Y17131374D01*
X23271358Y17063278D01*
X23287710Y17055811D01*
X23353020Y17020150D01*
X23458734Y16962426D01*
X23473848Y16952712D01*
X23583516Y16870616D01*
X23629842Y16835937D01*
X23643428Y16824164D01*
X23781204Y16686388D01*
X23792977Y16672802D01*
X23909752Y16516808D01*
X23919469Y16501689D01*
X24012851Y16330670D01*
X24020318Y16314318D01*
X24088414Y16131748D01*
X24093479Y16114500D01*
X24094626Y16109230D01*
X24134899Y15924097D01*
X24137457Y15906302D01*
X24149041Y15744331D01*
X24148297Y15726427D01*
X24148195Y15718102D01*
X24146814Y15709230D01*
X24147978Y15700328D01*
X24147978Y15700325D01*
X24150936Y15677709D01*
X24152000Y15661371D01*
X24152000Y7005480D01*
X24131998Y6937359D01*
X24078342Y6890866D01*
X24026000Y6879480D01*
X17137760Y6879480D01*
X17069639Y6899482D01*
X17023146Y6953138D01*
X17011760Y7005480D01*
X17011760Y7421014D01*
X17005005Y7483196D01*
X16953875Y7619585D01*
X16866521Y7736141D01*
X16859341Y7741522D01*
X16852991Y7747872D01*
X16855511Y7750392D01*
X16823202Y7793598D01*
X16818173Y7864416D01*
X16821447Y7876508D01*
X16822168Y7878725D01*
X16879142Y8054072D01*
X16884900Y8108851D01*
X16894399Y8199235D01*
X16896507Y8219294D01*
X16923520Y8284950D01*
X16932722Y8295218D01*
X17281599Y8644095D01*
X17343911Y8678121D01*
X17370694Y8681000D01*
X18683843Y8681000D01*
X18751964Y8660998D01*
X18772861Y8644173D01*
X18851977Y8565195D01*
X18858207Y8561355D01*
X18858208Y8561354D01*
X18995370Y8476806D01*
X19002542Y8472385D01*
X19082285Y8445936D01*
X19163891Y8418868D01*
X19163893Y8418868D01*
X19170419Y8416703D01*
X19177255Y8416003D01*
X19177258Y8416002D01*
X19220311Y8411591D01*
X19274880Y8406000D01*
X20275680Y8406000D01*
X20278926Y8406337D01*
X20278930Y8406337D01*
X20374588Y8416262D01*
X20374592Y8416263D01*
X20381446Y8416974D01*
X20387982Y8419155D01*
X20387984Y8419155D01*
X20520086Y8463228D01*
X20549226Y8472950D01*
X20699628Y8566022D01*
X20824585Y8691197D01*
X20851104Y8734218D01*
X20913555Y8835532D01*
X20913556Y8835534D01*
X20917395Y8841762D01*
X20944820Y8924447D01*
X20970912Y9003111D01*
X20970912Y9003113D01*
X20973077Y9009639D01*
X20974738Y9025844D01*
X20980311Y9080242D01*
X20983780Y9114100D01*
X20983780Y9739900D01*
X20982944Y9747958D01*
X20973518Y9838808D01*
X20973517Y9838812D01*
X20972806Y9845666D01*
X20939353Y9945937D01*
X20936769Y10016886D01*
X20969782Y10074908D01*
X21192537Y10297663D01*
X21200827Y10305207D01*
X21207308Y10309320D01*
X21253949Y10358988D01*
X21256703Y10361829D01*
X21276425Y10381551D01*
X21278902Y10384744D01*
X21286607Y10393765D01*
X21289243Y10396572D01*
X21316876Y10425999D01*
X21322111Y10435521D01*
X21326636Y10443752D01*
X21337492Y10460279D01*
X21345047Y10470018D01*
X21345048Y10470020D01*
X21349904Y10476280D01*
X21367464Y10516860D01*
X21372681Y10527508D01*
X21390165Y10559311D01*
X21390166Y10559313D01*
X21393985Y10566260D01*
X21399023Y10585883D01*
X21405427Y10604586D01*
X21410323Y10615900D01*
X21410323Y10615901D01*
X21413471Y10623175D01*
X21414710Y10630998D01*
X21414713Y10631008D01*
X21420389Y10666844D01*
X21422795Y10678464D01*
X21431818Y10713609D01*
X21431818Y10713610D01*
X21433790Y10721290D01*
X21433790Y10741544D01*
X21435341Y10761255D01*
X21435364Y10761397D01*
X21438510Y10781263D01*
X21434349Y10825282D01*
X21433790Y10837139D01*
X21433790Y12124863D01*
X21434317Y12136046D01*
X21435992Y12143539D01*
X21435456Y12160610D01*
X21433852Y12211616D01*
X21433790Y12215575D01*
X21433790Y12243486D01*
X21433285Y12247486D01*
X21432352Y12259329D01*
X21432255Y12262438D01*
X21430963Y12303520D01*
X21425312Y12322972D01*
X21421304Y12342324D01*
X21419757Y12354567D01*
X21418764Y12362427D01*
X21411076Y12381845D01*
X21402490Y12403533D01*
X21398645Y12414760D01*
X21394028Y12430650D01*
X21386308Y12457223D01*
X21375999Y12474655D01*
X21375997Y12474658D01*
X21367302Y12492406D01*
X21359842Y12511247D01*
X21333854Y12547017D01*
X21327338Y12556937D01*
X21308870Y12588165D01*
X21308868Y12588168D01*
X21304832Y12594992D01*
X21290511Y12609313D01*
X21277670Y12624347D01*
X21270421Y12634324D01*
X21265762Y12640737D01*
X21231685Y12668928D01*
X21222906Y12676918D01*
X21013167Y12886657D01*
X20979141Y12948969D01*
X20976918Y12988594D01*
X20980912Y13027580D01*
X20981240Y13030780D01*
X20981240Y13656580D01*
X20978716Y13680906D01*
X20970978Y13755488D01*
X20970977Y13755492D01*
X20970266Y13762346D01*
X20968084Y13768888D01*
X20916608Y13923178D01*
X20914290Y13930126D01*
X20821218Y14080528D01*
X20734631Y14166964D01*
X20700552Y14229246D01*
X20705555Y14300066D01*
X20734476Y14345155D01*
X20816874Y14427697D01*
X20822045Y14432877D01*
X20825886Y14439108D01*
X20911015Y14577212D01*
X20911016Y14577214D01*
X20914855Y14583442D01*
X20970537Y14751319D01*
X20973216Y14777460D01*
X20980912Y14852582D01*
X20981240Y14855780D01*
X20981240Y15481580D01*
X20970266Y15587346D01*
X20967571Y15595426D01*
X20920255Y15737247D01*
X20914290Y15755126D01*
X20821218Y15905528D01*
X20821705Y15905829D01*
X20796951Y15966978D01*
X20796334Y15979436D01*
X20796334Y17068960D01*
X20816336Y17137081D01*
X20869992Y17183574D01*
X20922334Y17194960D01*
X22610672Y17194960D01*
X22630056Y17193460D01*
G37*
%TD.AperFunction*%
%TA.AperFunction,Conductor*%
G36*
X6044316Y10766698D02*
G01*
X6050256Y10762636D01*
X6120183Y10711831D01*
X6130848Y10704082D01*
X6136876Y10701398D01*
X6136878Y10701397D01*
X6299281Y10629091D01*
X6305312Y10626406D01*
X6398713Y10606553D01*
X6485656Y10588072D01*
X6485661Y10588072D01*
X6492113Y10586700D01*
X6683087Y10586700D01*
X6689539Y10588072D01*
X6689544Y10588072D01*
X6776487Y10606553D01*
X6869888Y10626406D01*
X6880225Y10631008D01*
X6994137Y10681725D01*
X7040568Y10702397D01*
X7110934Y10711831D01*
X7175231Y10681725D01*
X7180833Y10676464D01*
X7292837Y10564655D01*
X7297375Y10561858D01*
X7337964Y10504607D01*
X7341194Y10433684D01*
X7305568Y10372273D01*
X7297072Y10364898D01*
X7286933Y10356862D01*
X7172401Y10242131D01*
X7163389Y10230720D01*
X7078324Y10092717D01*
X7072177Y10079536D01*
X7021002Y9925250D01*
X7018135Y9911874D01*
X7008468Y9817522D01*
X7008140Y9811105D01*
X7008140Y9786075D01*
X7012615Y9770836D01*
X7014005Y9769631D01*
X7021688Y9767960D01*
X8369140Y9767960D01*
X8437261Y9747958D01*
X8483754Y9694302D01*
X8495140Y9641960D01*
X8495140Y8524076D01*
X8499615Y8508837D01*
X8501005Y8507632D01*
X8508688Y8505961D01*
X8763235Y8505961D01*
X8769754Y8506298D01*
X8865346Y8516217D01*
X8878740Y8519109D01*
X9032924Y8570548D01*
X9046102Y8576721D01*
X9183947Y8662023D01*
X9195348Y8671059D01*
X9309879Y8785789D01*
X9318891Y8797200D01*
X9403956Y8935203D01*
X9410103Y8948384D01*
X9423889Y8989947D01*
X9464320Y9048307D01*
X9529885Y9075543D01*
X9599766Y9063009D01*
X9644308Y9025844D01*
X9691497Y8962880D01*
X9696879Y8955699D01*
X9813435Y8868345D01*
X9949824Y8817215D01*
X10012006Y8810460D01*
X11155743Y8810460D01*
X11223864Y8790458D01*
X11270357Y8736802D01*
X11280461Y8666528D01*
X11250967Y8601948D01*
X11244838Y8595365D01*
X10786006Y8136533D01*
X10777720Y8128993D01*
X10771241Y8124881D01*
X10765816Y8119104D01*
X10724616Y8075230D01*
X10721861Y8072388D01*
X10702124Y8052651D01*
X10699644Y8049454D01*
X10691941Y8040434D01*
X10661673Y8008202D01*
X10657854Y8001256D01*
X10657852Y8001253D01*
X10651911Y7990447D01*
X10641060Y7973928D01*
X10628645Y7957922D01*
X10625498Y7950651D01*
X10621461Y7943824D01*
X10618563Y7945538D01*
X10583025Y7902794D01*
X10512756Y7881380D01*
X9455126Y7881380D01*
X9392944Y7874625D01*
X9256555Y7823495D01*
X9139999Y7736141D01*
X9104084Y7688220D01*
X9047227Y7645707D01*
X8976409Y7640681D01*
X8914115Y7674741D01*
X8902443Y7688210D01*
X8866521Y7736141D01*
X8749965Y7823495D01*
X8613576Y7874625D01*
X8551394Y7881380D01*
X7455126Y7881380D01*
X7392944Y7874625D01*
X7256555Y7823495D01*
X7139999Y7736141D01*
X7104084Y7688220D01*
X7047227Y7645707D01*
X6976409Y7640681D01*
X6914115Y7674741D01*
X6902443Y7688210D01*
X6866521Y7736141D01*
X6749965Y7823495D01*
X6613576Y7874625D01*
X6551394Y7881380D01*
X5455126Y7881380D01*
X5392944Y7874625D01*
X5256555Y7823495D01*
X5139999Y7736141D01*
X5104084Y7688220D01*
X5047227Y7645707D01*
X4976409Y7640681D01*
X4914115Y7674741D01*
X4902443Y7688210D01*
X4866521Y7736141D01*
X4749965Y7823495D01*
X4613576Y7874625D01*
X4551394Y7881380D01*
X4193227Y7881380D01*
X4125106Y7901382D01*
X4078613Y7955038D01*
X4068509Y8025312D01*
X4082826Y8068106D01*
X4083359Y8069075D01*
X4094198Y8085572D01*
X4094558Y8086036D01*
X4106613Y8101578D01*
X4109758Y8108847D01*
X4109761Y8108851D01*
X4124173Y8142156D01*
X4129390Y8152806D01*
X4150694Y8191559D01*
X4155732Y8211182D01*
X4162136Y8229885D01*
X4167032Y8241199D01*
X4167032Y8241200D01*
X4170180Y8248474D01*
X4171419Y8256297D01*
X4171422Y8256307D01*
X4177098Y8292143D01*
X4179504Y8303763D01*
X4188527Y8338908D01*
X4188527Y8338909D01*
X4190499Y8346589D01*
X4190499Y8366843D01*
X4192050Y8386554D01*
X4193979Y8398733D01*
X4195219Y8406562D01*
X4191058Y8450581D01*
X4190499Y8462438D01*
X4190499Y9027900D01*
X4210501Y9096021D01*
X4264157Y9142514D01*
X4316499Y9153900D01*
X4438762Y9153900D01*
X4444830Y9155107D01*
X4482159Y9162532D01*
X4482160Y9162532D01*
X4494329Y9164953D01*
X4557343Y9207057D01*
X4563896Y9216865D01*
X7008141Y9216865D01*
X7008478Y9210346D01*
X7018397Y9114754D01*
X7021289Y9101360D01*
X7072728Y8947176D01*
X7078901Y8933998D01*
X7164203Y8796153D01*
X7173239Y8784752D01*
X7287969Y8670221D01*
X7299380Y8661209D01*
X7437383Y8576144D01*
X7450564Y8569997D01*
X7604850Y8518822D01*
X7618226Y8515955D01*
X7712578Y8506288D01*
X7718994Y8505960D01*
X7969025Y8505960D01*
X7984264Y8510435D01*
X7985469Y8511825D01*
X7987140Y8519508D01*
X7987140Y9241845D01*
X7982665Y9257084D01*
X7981275Y9258289D01*
X7973592Y9259960D01*
X7026256Y9259960D01*
X7011017Y9255485D01*
X7009812Y9254095D01*
X7008141Y9246412D01*
X7008141Y9216865D01*
X4563896Y9216865D01*
X4599447Y9270071D01*
X4610500Y9325638D01*
X4610500Y9591243D01*
X4630502Y9659364D01*
X4653670Y9686192D01*
X4715236Y9739900D01*
X4740385Y9761839D01*
X4838990Y9902139D01*
X4901282Y10061909D01*
X4918500Y10192694D01*
X4918500Y10404340D01*
X4938502Y10472461D01*
X4955405Y10493435D01*
X5211765Y10749795D01*
X5274077Y10783821D01*
X5300860Y10786700D01*
X5976195Y10786700D01*
X6044316Y10766698D01*
G37*
%TD.AperFunction*%
%TA.AperFunction,Conductor*%
G36*
X15793761Y11715458D02*
G01*
X15840254Y11661802D01*
X15851640Y11609460D01*
X15851640Y10524010D01*
X15831638Y10455889D01*
X15777982Y10409396D01*
X15725640Y10398010D01*
X15388655Y10398010D01*
X15377472Y10398537D01*
X15369979Y10400212D01*
X15362053Y10399963D01*
X15362052Y10399963D01*
X15301902Y10398072D01*
X15297943Y10398010D01*
X15270032Y10398010D01*
X15266098Y10397513D01*
X15266097Y10397513D01*
X15266032Y10397505D01*
X15254195Y10396572D01*
X15222378Y10395572D01*
X15217917Y10395432D01*
X15209998Y10395183D01*
X15192342Y10390054D01*
X15190546Y10389532D01*
X15171194Y10385524D01*
X15165021Y10384744D01*
X15151091Y10382984D01*
X15143722Y10380067D01*
X15143720Y10380066D01*
X15109985Y10366710D01*
X15098757Y10362865D01*
X15056295Y10350528D01*
X15049473Y10346494D01*
X15049467Y10346491D01*
X15038856Y10340216D01*
X15021106Y10331520D01*
X15009644Y10326982D01*
X15009639Y10326979D01*
X15002271Y10324062D01*
X14995856Y10319401D01*
X14966513Y10298083D01*
X14956595Y10291567D01*
X14941376Y10282566D01*
X14918525Y10269052D01*
X14904201Y10254728D01*
X14889169Y10241889D01*
X14872781Y10229982D01*
X14845854Y10197433D01*
X14844600Y10195917D01*
X14836610Y10187137D01*
X14348087Y9698614D01*
X14285775Y9664588D01*
X14214960Y9669653D01*
X14158124Y9712200D01*
X14139159Y9748772D01*
X14132894Y9768053D01*
X14127727Y9783956D01*
X14112053Y9811105D01*
X14053873Y9911874D01*
X14032240Y9949344D01*
X13974523Y10013446D01*
X13908875Y10086355D01*
X13908874Y10086356D01*
X13904453Y10091266D01*
X13805357Y10163264D01*
X13755294Y10199637D01*
X13755293Y10199638D01*
X13749952Y10203518D01*
X13743924Y10206202D01*
X13743922Y10206203D01*
X13581519Y10278509D01*
X13581518Y10278509D01*
X13575488Y10281194D01*
X13460423Y10305652D01*
X13395144Y10319528D01*
X13395139Y10319528D01*
X13388687Y10320900D01*
X13197713Y10320900D01*
X13191261Y10319528D01*
X13191256Y10319528D01*
X13125977Y10305652D01*
X13010912Y10281194D01*
X13004882Y10278509D01*
X13004881Y10278509D01*
X12842478Y10206203D01*
X12842476Y10206202D01*
X12836448Y10203518D01*
X12831107Y10199638D01*
X12831106Y10199637D01*
X12768701Y10154297D01*
X12701833Y10130438D01*
X12632682Y10146519D01*
X12583201Y10197433D01*
X12568640Y10256233D01*
X12568640Y10867094D01*
X12561885Y10929276D01*
X12510755Y11065665D01*
X12494992Y11086698D01*
X12452500Y11143395D01*
X12427652Y11209902D01*
X12442705Y11279284D01*
X12452500Y11294525D01*
X12505369Y11365068D01*
X12505370Y11365070D01*
X12510755Y11372255D01*
X12561885Y11508644D01*
X12568640Y11570826D01*
X12568640Y11609460D01*
X12588642Y11677581D01*
X12642298Y11724074D01*
X12694640Y11735460D01*
X15725640Y11735460D01*
X15793761Y11715458D01*
G37*
%TD.AperFunction*%
%TA.AperFunction,Conductor*%
G36*
X18506361Y15213498D02*
G01*
X18552854Y15159842D01*
X18564240Y15107500D01*
X18564240Y15020774D01*
X18544238Y14952653D01*
X18527335Y14931679D01*
X18410021Y14814365D01*
X18347709Y14780339D01*
X18320926Y14777460D01*
X16312006Y14777460D01*
X16249824Y14770705D01*
X16113435Y14719575D01*
X15996879Y14632221D01*
X15909525Y14515665D01*
X15858395Y14379276D01*
X15851640Y14317094D01*
X15851640Y13128460D01*
X15831638Y13060339D01*
X15777982Y13013846D01*
X15725640Y13002460D01*
X12694640Y13002460D01*
X12626519Y13022462D01*
X12580026Y13076118D01*
X12568640Y13128460D01*
X12568640Y13167094D01*
X12561885Y13229276D01*
X12510755Y13365665D01*
X12452187Y13443812D01*
X12427339Y13510318D01*
X12442392Y13579701D01*
X12452187Y13594942D01*
X12504926Y13665312D01*
X12513464Y13680906D01*
X12558618Y13801354D01*
X12562245Y13816609D01*
X12567771Y13867474D01*
X12568140Y13874288D01*
X12568140Y14396845D01*
X12563665Y14412084D01*
X12562275Y14413289D01*
X12554592Y14414960D01*
X10932140Y14414960D01*
X10864019Y14434962D01*
X10817526Y14488618D01*
X10806140Y14540960D01*
X10806140Y14796960D01*
X10826142Y14865081D01*
X10879798Y14911574D01*
X10932140Y14922960D01*
X12550024Y14922960D01*
X12565263Y14927435D01*
X12566468Y14928825D01*
X12568139Y14936508D01*
X12568139Y15107500D01*
X12588141Y15175621D01*
X12641797Y15222114D01*
X12694139Y15233500D01*
X18438240Y15233500D01*
X18506361Y15213498D01*
G37*
%TD.AperFunction*%
%TD*%
M02*
