%FSLAX45Y45*%
G04 Gerber Fmt 4.5, Leading zero omitted, Abs format (unit mm)*
G04 Created by KiCad (PCBNEW (6.0.1)) date 2022-11-28 18:30:30*
%MOMM*%
%LPD*%
G01*
G04 APERTURE LIST*
%TA.AperFunction,Profile*%
%ADD10C,0.050000*%
%TD*%
%ADD11C,0.200000*%
%ADD12C,0.025000*%
%ADD13C,0.040000*%
%ADD14C,0.080000*%
%ADD15C,0.100000*%
%ADD16C,0.110000*%
%ADD17C,0.150000*%
G04 APERTURE END LIST*
D10*
X-2474076Y-1607028D02*
G75*
G03*
X-2274076Y-1807028I200000J0D01*
G01*
X2266000Y-1807028D02*
G75*
G03*
X2466000Y-1607028I0J200000D01*
G01*
X2466000Y1570296D02*
G75*
G03*
X2266000Y1770296I-200000J0D01*
G01*
X1694826Y637148D02*
X1694826Y-931302D01*
X2466000Y637148D02*
X2466000Y1570296D01*
X2266000Y1770296D02*
X-2274076Y1770296D01*
X2466000Y-1607028D02*
X2466000Y-931405D01*
X-2474076Y1570296D02*
X-2474076Y-1607028D01*
X1694826Y-931302D02*
X2466000Y-931405D01*
X-2274076Y-1807028D02*
X2266000Y-1807028D01*
X2466000Y637148D02*
X1694826Y637148D01*
X-2274076Y1770296D02*
G75*
G03*
X-2474076Y1570296I0J-200000D01*
G01*
D11*
D12*
X595500Y339500D02*
X620500Y314500D01*
X620500Y339500D02*
X595500Y314500D01*
X918500Y-86500D02*
X943500Y-111500D01*
X943500Y-86500D02*
X918500Y-111500D01*
X1126500Y-1108500D02*
X1151500Y-1133500D01*
X1151500Y-1108500D02*
X1126500Y-1133500D01*
X1359500Y245500D02*
X1384500Y220500D01*
X1384500Y245500D02*
X1359500Y220500D01*
X1373500Y-522500D02*
X1398500Y-547500D01*
X1398500Y-522500D02*
X1373500Y-547500D01*
X1442500Y1108500D02*
X1467500Y1083500D01*
X1467500Y1108500D02*
X1442500Y1083500D01*
X2253500Y879500D02*
X2278500Y854500D01*
X2278500Y879500D02*
X2253500Y854500D01*
X2285500Y1567500D02*
X2310500Y1542500D01*
X2310500Y1567500D02*
X2285500Y1542500D01*
D13*
X109800Y-1090638D02*
G75*
G03*
X109800Y-1090638I-20000J0D01*
G01*
X211400Y1261280D02*
G75*
G03*
X211400Y1261280I-20000J0D01*
G01*
X246960Y824400D02*
G75*
G03*
X246960Y824400I-20000J0D01*
G01*
X318080Y1403520D02*
G75*
G03*
X318080Y1403520I-20000J0D01*
G01*
X663520Y941240D02*
G75*
G03*
X663520Y941240I-20000J0D01*
G01*
X678760Y1149520D02*
G75*
G03*
X678760Y1149520I-20000J0D01*
G01*
X678760Y-1172040D02*
G75*
G03*
X678760Y-1172040I-20000J0D01*
G01*
X678760Y-1172040D02*
G75*
G03*
X678760Y-1172040I-20000J0D01*
G01*
X1349320Y941240D02*
G75*
G03*
X1349320Y941240I-20000J0D01*
G01*
X1618560Y824400D02*
G75*
G03*
X1618560Y824400I-20000J0D01*
G01*
D14*
X-1302000Y1489735D02*
X-1302000Y1409735D01*
X-1342000Y1449735D02*
X-1262000Y1449735D01*
X-1302000Y1139735D02*
X-1302000Y1059735D01*
X-1342000Y1099735D02*
X-1262000Y1099735D01*
D15*
X558988Y-1494002D02*
X558988Y-1423290D01*
X488276Y-1423290D01*
X488276Y-1494002D01*
X558988Y-1494002D01*
X812988Y-1494002D02*
X812988Y-1423290D01*
X742276Y-1423290D01*
X742276Y-1494002D01*
X812988Y-1494002D01*
X1066988Y-1494002D02*
X1066988Y-1423290D01*
X996276Y-1423290D01*
X996276Y-1494002D01*
X1066988Y-1494002D01*
X1320988Y-1494002D02*
X1320988Y-1423290D01*
X1250276Y-1423290D01*
X1250276Y-1494002D01*
X1320988Y-1494002D01*
X1574988Y-1494002D02*
X1574988Y-1423290D01*
X1504276Y-1423290D01*
X1504276Y-1494002D01*
X1574988Y-1494002D01*
D16*
X-1967600Y352840D02*
X-1912600Y407840D01*
X-1967600Y462840D01*
X-2022600Y407840D01*
X-1967600Y352840D01*
X-1967600Y98840D02*
X-1912600Y153840D01*
X-1967600Y208840D01*
X-2022600Y153840D01*
X-1967600Y98840D01*
X-1967600Y-155160D02*
X-1912600Y-100160D01*
X-1967600Y-45160D01*
X-2022600Y-100160D01*
X-1967600Y-155160D01*
X-1967600Y-586960D02*
X-1912600Y-531960D01*
X-1967600Y-476960D01*
X-2022600Y-531960D01*
X-1967600Y-586960D01*
X-1967600Y-840960D02*
X-1912600Y-785960D01*
X-1967600Y-730960D01*
X-2022600Y-785960D01*
X-1967600Y-840960D01*
X-1967600Y-1094960D02*
X-1912600Y-1039960D01*
X-1967600Y-984960D01*
X-2022600Y-1039960D01*
X-1967600Y-1094960D01*
X-1967600Y-1348960D02*
X-1912600Y-1293960D01*
X-1967600Y-1238960D01*
X-2022600Y-1293960D01*
X-1967600Y-1348960D01*
D17*
X-1170000Y729200D02*
X-1020000Y579200D01*
X-1020000Y729200D02*
X-1170000Y579200D01*
X-1020000Y654200D02*
G75*
G03*
X-1020000Y654200I-75000J0D01*
G01*
X-1170000Y-1530800D02*
X-1020000Y-1680800D01*
X-1020000Y-1530800D02*
X-1170000Y-1680800D01*
X-1020000Y-1605800D02*
G75*
G03*
X-1020000Y-1605800I-75000J0D01*
G01*
D11*
X-2218957Y-2120004D02*
X-2218957Y-1920004D01*
X-2171338Y-1920004D01*
X-2142767Y-1929528D01*
X-2123719Y-1948576D01*
X-2114195Y-1967623D01*
X-2104671Y-2005718D01*
X-2104671Y-2034290D01*
X-2114195Y-2072385D01*
X-2123719Y-2091433D01*
X-2142767Y-2110480D01*
X-2171338Y-2120004D01*
X-2218957Y-2120004D01*
X-2018957Y-2120004D02*
X-2018957Y-1986671D01*
X-2018957Y-2024766D02*
X-2009433Y-2005718D01*
X-1999909Y-1996195D01*
X-1980862Y-1986671D01*
X-1961814Y-1986671D01*
X-1895147Y-2120004D02*
X-1895147Y-1986671D01*
X-1895147Y-1920004D02*
X-1904671Y-1929528D01*
X-1895147Y-1939052D01*
X-1885624Y-1929528D01*
X-1895147Y-1920004D01*
X-1895147Y-1939052D01*
X-1771338Y-2120004D02*
X-1790386Y-2110480D01*
X-1799909Y-2091433D01*
X-1799909Y-1920004D01*
X-1666576Y-2120004D02*
X-1685624Y-2110480D01*
X-1695147Y-2091433D01*
X-1695147Y-1920004D01*
X-1438005Y-2120004D02*
X-1438005Y-1920004D01*
X-1371338Y-2062861D01*
X-1304671Y-1920004D01*
X-1304671Y-2120004D01*
X-1123719Y-2120004D02*
X-1123719Y-2015242D01*
X-1133243Y-1996195D01*
X-1152290Y-1986671D01*
X-1190386Y-1986671D01*
X-1209433Y-1996195D01*
X-1123719Y-2110480D02*
X-1142767Y-2120004D01*
X-1190386Y-2120004D01*
X-1209433Y-2110480D01*
X-1218957Y-2091433D01*
X-1218957Y-2072385D01*
X-1209433Y-2053337D01*
X-1190386Y-2043814D01*
X-1142767Y-2043814D01*
X-1123719Y-2034290D01*
X-1028481Y-1986671D02*
X-1028481Y-2186671D01*
X-1028481Y-1996195D02*
X-1009433Y-1986671D01*
X-971338Y-1986671D01*
X-952290Y-1996195D01*
X-942766Y-2005718D01*
X-933243Y-2024766D01*
X-933243Y-2081909D01*
X-942766Y-2100957D01*
X-952290Y-2110480D01*
X-971338Y-2120004D01*
X-1009433Y-2120004D01*
X-1028481Y-2110480D01*
X-847528Y-2100957D02*
X-838005Y-2110480D01*
X-847528Y-2120004D01*
X-857052Y-2110480D01*
X-847528Y-2100957D01*
X-847528Y-2120004D01*
X-847528Y-1996195D02*
X-838005Y-2005718D01*
X-847528Y-2015242D01*
X-857052Y-2005718D01*
X-847528Y-1996195D01*
X-847528Y-2015242D01*
D12*
X-2501576Y-2437028D02*
X-2476576Y-2462028D01*
X-2476576Y-2437028D02*
X-2501576Y-2462028D01*
D11*
X-2180862Y-2340004D02*
X-2161814Y-2340004D01*
X-2142767Y-2349528D01*
X-2133243Y-2359052D01*
X-2123719Y-2378099D01*
X-2114195Y-2416195D01*
X-2114195Y-2463814D01*
X-2123719Y-2501909D01*
X-2133243Y-2520957D01*
X-2142767Y-2530480D01*
X-2161814Y-2540004D01*
X-2180862Y-2540004D01*
X-2199909Y-2530480D01*
X-2209433Y-2520957D01*
X-2218957Y-2501909D01*
X-2228481Y-2463814D01*
X-2228481Y-2416195D01*
X-2218957Y-2378099D01*
X-2209433Y-2359052D01*
X-2199909Y-2349528D01*
X-2180862Y-2340004D01*
X-2028481Y-2520957D02*
X-2018957Y-2530480D01*
X-2028481Y-2540004D01*
X-2038005Y-2530480D01*
X-2028481Y-2520957D01*
X-2028481Y-2540004D01*
X-1942766Y-2359052D02*
X-1933243Y-2349528D01*
X-1914195Y-2340004D01*
X-1866576Y-2340004D01*
X-1847528Y-2349528D01*
X-1838005Y-2359052D01*
X-1828481Y-2378099D01*
X-1828481Y-2397147D01*
X-1838005Y-2425718D01*
X-1952290Y-2540004D01*
X-1828481Y-2540004D01*
X-1647528Y-2340004D02*
X-1742766Y-2340004D01*
X-1752290Y-2435242D01*
X-1742766Y-2425718D01*
X-1723719Y-2416195D01*
X-1676100Y-2416195D01*
X-1657052Y-2425718D01*
X-1647528Y-2435242D01*
X-1638005Y-2454290D01*
X-1638005Y-2501909D01*
X-1647528Y-2520957D01*
X-1657052Y-2530480D01*
X-1676100Y-2540004D01*
X-1723719Y-2540004D01*
X-1742766Y-2530480D01*
X-1752290Y-2520957D01*
X-1514195Y-2340004D02*
X-1495147Y-2340004D01*
X-1476100Y-2349528D01*
X-1466576Y-2359052D01*
X-1457052Y-2378099D01*
X-1447528Y-2416195D01*
X-1447528Y-2463814D01*
X-1457052Y-2501909D01*
X-1466576Y-2520957D01*
X-1476100Y-2530480D01*
X-1495147Y-2540004D01*
X-1514195Y-2540004D01*
X-1533243Y-2530480D01*
X-1542766Y-2520957D01*
X-1552290Y-2501909D01*
X-1561814Y-2463814D01*
X-1561814Y-2416195D01*
X-1552290Y-2378099D01*
X-1542766Y-2359052D01*
X-1533243Y-2349528D01*
X-1514195Y-2340004D01*
X-1361814Y-2540004D02*
X-1361814Y-2406671D01*
X-1361814Y-2425718D02*
X-1352290Y-2416195D01*
X-1333243Y-2406671D01*
X-1304671Y-2406671D01*
X-1285624Y-2416195D01*
X-1276100Y-2435242D01*
X-1276100Y-2540004D01*
X-1276100Y-2435242D02*
X-1266576Y-2416195D01*
X-1247528Y-2406671D01*
X-1218957Y-2406671D01*
X-1199909Y-2416195D01*
X-1190386Y-2435242D01*
X-1190386Y-2540004D01*
X-1095148Y-2540004D02*
X-1095148Y-2406671D01*
X-1095148Y-2425718D02*
X-1085624Y-2416195D01*
X-1066576Y-2406671D01*
X-1038005Y-2406671D01*
X-1018957Y-2416195D01*
X-1009433Y-2435242D01*
X-1009433Y-2540004D01*
X-1009433Y-2435242D02*
X-999909Y-2416195D01*
X-980862Y-2406671D01*
X-952290Y-2406671D01*
X-933243Y-2416195D01*
X-923719Y-2435242D01*
X-923719Y-2540004D01*
X-533243Y-2330480D02*
X-704671Y-2587623D01*
X-276100Y-2340004D02*
X-257052Y-2340004D01*
X-238005Y-2349528D01*
X-228481Y-2359052D01*
X-218957Y-2378099D01*
X-209433Y-2416195D01*
X-209433Y-2463814D01*
X-218957Y-2501909D01*
X-228481Y-2520957D01*
X-238005Y-2530480D01*
X-257052Y-2540004D01*
X-276100Y-2540004D01*
X-295148Y-2530480D01*
X-304671Y-2520957D01*
X-314195Y-2501909D01*
X-323719Y-2463814D01*
X-323719Y-2416195D01*
X-314195Y-2378099D01*
X-304671Y-2359052D01*
X-295148Y-2349528D01*
X-276100Y-2340004D01*
X-123719Y-2520957D02*
X-114195Y-2530480D01*
X-123719Y-2540004D01*
X-133243Y-2530480D01*
X-123719Y-2520957D01*
X-123719Y-2540004D01*
X9614Y-2340004D02*
X28662Y-2340004D01*
X47710Y-2349528D01*
X57233Y-2359052D01*
X66757Y-2378099D01*
X76281Y-2416195D01*
X76281Y-2463814D01*
X66757Y-2501909D01*
X57233Y-2520957D01*
X47710Y-2530480D01*
X28662Y-2540004D01*
X9614Y-2540004D01*
X-9433Y-2530480D01*
X-18957Y-2520957D01*
X-28481Y-2501909D01*
X-38005Y-2463814D01*
X-38005Y-2416195D01*
X-28481Y-2378099D01*
X-18957Y-2359052D01*
X-9433Y-2349528D01*
X9614Y-2340004D01*
X200091Y-2340004D02*
X219138Y-2340004D01*
X238186Y-2349528D01*
X247710Y-2359052D01*
X257233Y-2378099D01*
X266757Y-2416195D01*
X266757Y-2463814D01*
X257233Y-2501909D01*
X247710Y-2520957D01*
X238186Y-2530480D01*
X219138Y-2540004D01*
X200091Y-2540004D01*
X181043Y-2530480D01*
X171519Y-2520957D01*
X161995Y-2501909D01*
X152472Y-2463814D01*
X152472Y-2416195D01*
X161995Y-2378099D01*
X171519Y-2359052D01*
X181043Y-2349528D01*
X200091Y-2340004D01*
X361995Y-2540004D02*
X400091Y-2540004D01*
X419138Y-2530480D01*
X428662Y-2520957D01*
X447710Y-2492385D01*
X457233Y-2454290D01*
X457233Y-2378099D01*
X447710Y-2359052D01*
X438186Y-2349528D01*
X419138Y-2340004D01*
X381043Y-2340004D01*
X361995Y-2349528D01*
X352472Y-2359052D01*
X342948Y-2378099D01*
X342948Y-2425718D01*
X352472Y-2444766D01*
X361995Y-2454290D01*
X381043Y-2463814D01*
X419138Y-2463814D01*
X438186Y-2454290D01*
X447710Y-2444766D01*
X457233Y-2425718D01*
X571519Y-2425718D02*
X552472Y-2416195D01*
X542948Y-2406671D01*
X533424Y-2387623D01*
X533424Y-2378099D01*
X542948Y-2359052D01*
X552472Y-2349528D01*
X571519Y-2340004D01*
X609614Y-2340004D01*
X628662Y-2349528D01*
X638186Y-2359052D01*
X647710Y-2378099D01*
X647710Y-2387623D01*
X638186Y-2406671D01*
X628662Y-2416195D01*
X609614Y-2425718D01*
X571519Y-2425718D01*
X552472Y-2435242D01*
X542948Y-2444766D01*
X533424Y-2463814D01*
X533424Y-2501909D01*
X542948Y-2520957D01*
X552472Y-2530480D01*
X571519Y-2540004D01*
X609614Y-2540004D01*
X628662Y-2530480D01*
X638186Y-2520957D01*
X647710Y-2501909D01*
X647710Y-2463814D01*
X638186Y-2444766D01*
X628662Y-2435242D01*
X609614Y-2425718D01*
X723900Y-2340004D02*
X723900Y-2378099D01*
X800091Y-2340004D02*
X800091Y-2378099D01*
X1095329Y-2616195D02*
X1085805Y-2606671D01*
X1066757Y-2578099D01*
X1057234Y-2559052D01*
X1047710Y-2530480D01*
X1038186Y-2482861D01*
X1038186Y-2444766D01*
X1047710Y-2397147D01*
X1057234Y-2368576D01*
X1066757Y-2349528D01*
X1085805Y-2320957D01*
X1095329Y-2311433D01*
X1200091Y-2425718D02*
X1181043Y-2416195D01*
X1171519Y-2406671D01*
X1161995Y-2387623D01*
X1161995Y-2378099D01*
X1171519Y-2359052D01*
X1181043Y-2349528D01*
X1200091Y-2340004D01*
X1238186Y-2340004D01*
X1257234Y-2349528D01*
X1266757Y-2359052D01*
X1276281Y-2378099D01*
X1276281Y-2387623D01*
X1266757Y-2406671D01*
X1257234Y-2416195D01*
X1238186Y-2425718D01*
X1200091Y-2425718D01*
X1181043Y-2435242D01*
X1171519Y-2444766D01*
X1161995Y-2463814D01*
X1161995Y-2501909D01*
X1171519Y-2520957D01*
X1181043Y-2530480D01*
X1200091Y-2540004D01*
X1238186Y-2540004D01*
X1257234Y-2530480D01*
X1266757Y-2520957D01*
X1276281Y-2501909D01*
X1276281Y-2463814D01*
X1266757Y-2444766D01*
X1257234Y-2435242D01*
X1238186Y-2425718D01*
X1514376Y-2540004D02*
X1514376Y-2340004D01*
X1600091Y-2540004D02*
X1600091Y-2435242D01*
X1590567Y-2416195D01*
X1571519Y-2406671D01*
X1542948Y-2406671D01*
X1523900Y-2416195D01*
X1514376Y-2425718D01*
X1723900Y-2540004D02*
X1704852Y-2530480D01*
X1695329Y-2520957D01*
X1685805Y-2501909D01*
X1685805Y-2444766D01*
X1695329Y-2425718D01*
X1704852Y-2416195D01*
X1723900Y-2406671D01*
X1752472Y-2406671D01*
X1771519Y-2416195D01*
X1781043Y-2425718D01*
X1790567Y-2444766D01*
X1790567Y-2501909D01*
X1781043Y-2520957D01*
X1771519Y-2530480D01*
X1752472Y-2540004D01*
X1723900Y-2540004D01*
X1904852Y-2540004D02*
X1885805Y-2530480D01*
X1876281Y-2511433D01*
X1876281Y-2340004D01*
X2057233Y-2530480D02*
X2038186Y-2540004D01*
X2000091Y-2540004D01*
X1981043Y-2530480D01*
X1971519Y-2511433D01*
X1971519Y-2435242D01*
X1981043Y-2416195D01*
X2000091Y-2406671D01*
X2038186Y-2406671D01*
X2057233Y-2416195D01*
X2066757Y-2435242D01*
X2066757Y-2454290D01*
X1971519Y-2473338D01*
X2142948Y-2530480D02*
X2161995Y-2540004D01*
X2200091Y-2540004D01*
X2219138Y-2530480D01*
X2228662Y-2511433D01*
X2228662Y-2501909D01*
X2219138Y-2482861D01*
X2200091Y-2473338D01*
X2171519Y-2473338D01*
X2152472Y-2463814D01*
X2142948Y-2444766D01*
X2142948Y-2435242D01*
X2152472Y-2416195D01*
X2171519Y-2406671D01*
X2200091Y-2406671D01*
X2219138Y-2416195D01*
X2295329Y-2616195D02*
X2304853Y-2606671D01*
X2323900Y-2578099D01*
X2333424Y-2559052D01*
X2342948Y-2530480D01*
X2352472Y-2482861D01*
X2352472Y-2444766D01*
X2342948Y-2397147D01*
X2333424Y-2368576D01*
X2323900Y-2349528D01*
X2304853Y-2320957D01*
X2295329Y-2311433D01*
D13*
X-2476576Y-2713528D02*
G75*
G03*
X-2476576Y-2713528I-20000J0D01*
G01*
D11*
X-2180862Y-2604004D02*
X-2161814Y-2604004D01*
X-2142767Y-2613528D01*
X-2133243Y-2623052D01*
X-2123719Y-2642099D01*
X-2114195Y-2680195D01*
X-2114195Y-2727814D01*
X-2123719Y-2765909D01*
X-2133243Y-2784957D01*
X-2142767Y-2794480D01*
X-2161814Y-2804004D01*
X-2180862Y-2804004D01*
X-2199909Y-2794480D01*
X-2209433Y-2784957D01*
X-2218957Y-2765909D01*
X-2228481Y-2727814D01*
X-2228481Y-2680195D01*
X-2218957Y-2642099D01*
X-2209433Y-2623052D01*
X-2199909Y-2613528D01*
X-2180862Y-2604004D01*
X-2028481Y-2784957D02*
X-2018957Y-2794480D01*
X-2028481Y-2804004D01*
X-2038005Y-2794480D01*
X-2028481Y-2784957D01*
X-2028481Y-2804004D01*
X-1847528Y-2670671D02*
X-1847528Y-2804004D01*
X-1895147Y-2594480D02*
X-1942766Y-2737338D01*
X-1818957Y-2737338D01*
X-1704671Y-2604004D02*
X-1685624Y-2604004D01*
X-1666576Y-2613528D01*
X-1657052Y-2623052D01*
X-1647528Y-2642099D01*
X-1638005Y-2680195D01*
X-1638005Y-2727814D01*
X-1647528Y-2765909D01*
X-1657052Y-2784957D01*
X-1666576Y-2794480D01*
X-1685624Y-2804004D01*
X-1704671Y-2804004D01*
X-1723719Y-2794480D01*
X-1733243Y-2784957D01*
X-1742766Y-2765909D01*
X-1752290Y-2727814D01*
X-1752290Y-2680195D01*
X-1742766Y-2642099D01*
X-1733243Y-2623052D01*
X-1723719Y-2613528D01*
X-1704671Y-2604004D01*
X-1514195Y-2604004D02*
X-1495147Y-2604004D01*
X-1476100Y-2613528D01*
X-1466576Y-2623052D01*
X-1457052Y-2642099D01*
X-1447528Y-2680195D01*
X-1447528Y-2727814D01*
X-1457052Y-2765909D01*
X-1466576Y-2784957D01*
X-1476100Y-2794480D01*
X-1495147Y-2804004D01*
X-1514195Y-2804004D01*
X-1533243Y-2794480D01*
X-1542766Y-2784957D01*
X-1552290Y-2765909D01*
X-1561814Y-2727814D01*
X-1561814Y-2680195D01*
X-1552290Y-2642099D01*
X-1542766Y-2623052D01*
X-1533243Y-2613528D01*
X-1514195Y-2604004D01*
X-1361814Y-2804004D02*
X-1361814Y-2670671D01*
X-1361814Y-2689718D02*
X-1352290Y-2680195D01*
X-1333243Y-2670671D01*
X-1304671Y-2670671D01*
X-1285624Y-2680195D01*
X-1276100Y-2699242D01*
X-1276100Y-2804004D01*
X-1276100Y-2699242D02*
X-1266576Y-2680195D01*
X-1247528Y-2670671D01*
X-1218957Y-2670671D01*
X-1199909Y-2680195D01*
X-1190386Y-2699242D01*
X-1190386Y-2804004D01*
X-1095148Y-2804004D02*
X-1095148Y-2670671D01*
X-1095148Y-2689718D02*
X-1085624Y-2680195D01*
X-1066576Y-2670671D01*
X-1038005Y-2670671D01*
X-1018957Y-2680195D01*
X-1009433Y-2699242D01*
X-1009433Y-2804004D01*
X-1009433Y-2699242D02*
X-999909Y-2680195D01*
X-980862Y-2670671D01*
X-952290Y-2670671D01*
X-933243Y-2680195D01*
X-923719Y-2699242D01*
X-923719Y-2804004D01*
X-533243Y-2594480D02*
X-704671Y-2851623D01*
X-276100Y-2604004D02*
X-257052Y-2604004D01*
X-238005Y-2613528D01*
X-228481Y-2623052D01*
X-218957Y-2642099D01*
X-209433Y-2680195D01*
X-209433Y-2727814D01*
X-218957Y-2765909D01*
X-228481Y-2784957D01*
X-238005Y-2794480D01*
X-257052Y-2804004D01*
X-276100Y-2804004D01*
X-295148Y-2794480D01*
X-304671Y-2784957D01*
X-314195Y-2765909D01*
X-323719Y-2727814D01*
X-323719Y-2680195D01*
X-314195Y-2642099D01*
X-304671Y-2623052D01*
X-295148Y-2613528D01*
X-276100Y-2604004D01*
X-123719Y-2784957D02*
X-114195Y-2794480D01*
X-123719Y-2804004D01*
X-133243Y-2794480D01*
X-123719Y-2784957D01*
X-123719Y-2804004D01*
X9614Y-2604004D02*
X28662Y-2604004D01*
X47710Y-2613528D01*
X57233Y-2623052D01*
X66757Y-2642099D01*
X76281Y-2680195D01*
X76281Y-2727814D01*
X66757Y-2765909D01*
X57233Y-2784957D01*
X47710Y-2794480D01*
X28662Y-2804004D01*
X9614Y-2804004D01*
X-9433Y-2794480D01*
X-18957Y-2784957D01*
X-28481Y-2765909D01*
X-38005Y-2727814D01*
X-38005Y-2680195D01*
X-28481Y-2642099D01*
X-18957Y-2623052D01*
X-9433Y-2613528D01*
X9614Y-2604004D01*
X266757Y-2804004D02*
X152472Y-2804004D01*
X209614Y-2804004D02*
X209614Y-2604004D01*
X190567Y-2632576D01*
X171519Y-2651623D01*
X152472Y-2661147D01*
X447710Y-2604004D02*
X352472Y-2604004D01*
X342948Y-2699242D01*
X352472Y-2689718D01*
X371519Y-2680195D01*
X419138Y-2680195D01*
X438186Y-2689718D01*
X447710Y-2699242D01*
X457233Y-2718290D01*
X457233Y-2765909D01*
X447710Y-2784957D01*
X438186Y-2794480D01*
X419138Y-2804004D01*
X371519Y-2804004D01*
X352472Y-2794480D01*
X342948Y-2784957D01*
X523900Y-2604004D02*
X657234Y-2604004D01*
X571519Y-2804004D01*
X723900Y-2604004D02*
X723900Y-2642099D01*
X800091Y-2604004D02*
X800091Y-2642099D01*
X1095329Y-2880195D02*
X1085805Y-2870671D01*
X1066757Y-2842099D01*
X1057234Y-2823052D01*
X1047710Y-2794480D01*
X1038186Y-2746861D01*
X1038186Y-2708766D01*
X1047710Y-2661147D01*
X1057234Y-2632576D01*
X1066757Y-2613528D01*
X1085805Y-2584957D01*
X1095329Y-2575433D01*
X1276281Y-2804004D02*
X1161995Y-2804004D01*
X1219138Y-2804004D02*
X1219138Y-2604004D01*
X1200091Y-2632576D01*
X1181043Y-2651623D01*
X1161995Y-2661147D01*
X1400091Y-2604004D02*
X1419138Y-2604004D01*
X1438186Y-2613528D01*
X1447710Y-2623052D01*
X1457233Y-2642099D01*
X1466757Y-2680195D01*
X1466757Y-2727814D01*
X1457233Y-2765909D01*
X1447710Y-2784957D01*
X1438186Y-2794480D01*
X1419138Y-2804004D01*
X1400091Y-2804004D01*
X1381043Y-2794480D01*
X1371519Y-2784957D01*
X1361995Y-2765909D01*
X1352472Y-2727814D01*
X1352472Y-2680195D01*
X1361995Y-2642099D01*
X1371519Y-2623052D01*
X1381043Y-2613528D01*
X1400091Y-2604004D01*
X1704852Y-2804004D02*
X1704852Y-2604004D01*
X1790567Y-2804004D02*
X1790567Y-2699242D01*
X1781043Y-2680195D01*
X1761995Y-2670671D01*
X1733424Y-2670671D01*
X1714376Y-2680195D01*
X1704852Y-2689718D01*
X1914376Y-2804004D02*
X1895329Y-2794480D01*
X1885805Y-2784957D01*
X1876281Y-2765909D01*
X1876281Y-2708766D01*
X1885805Y-2689718D01*
X1895329Y-2680195D01*
X1914376Y-2670671D01*
X1942948Y-2670671D01*
X1961995Y-2680195D01*
X1971519Y-2689718D01*
X1981043Y-2708766D01*
X1981043Y-2765909D01*
X1971519Y-2784957D01*
X1961995Y-2794480D01*
X1942948Y-2804004D01*
X1914376Y-2804004D01*
X2095329Y-2804004D02*
X2076281Y-2794480D01*
X2066757Y-2775433D01*
X2066757Y-2604004D01*
X2247710Y-2794480D02*
X2228662Y-2804004D01*
X2190567Y-2804004D01*
X2171519Y-2794480D01*
X2161995Y-2775433D01*
X2161995Y-2699242D01*
X2171519Y-2680195D01*
X2190567Y-2670671D01*
X2228662Y-2670671D01*
X2247710Y-2680195D01*
X2257234Y-2699242D01*
X2257234Y-2718290D01*
X2161995Y-2737338D01*
X2333424Y-2794480D02*
X2352472Y-2804004D01*
X2390567Y-2804004D01*
X2409614Y-2794480D01*
X2419138Y-2775433D01*
X2419138Y-2765909D01*
X2409614Y-2746861D01*
X2390567Y-2737338D01*
X2361995Y-2737338D01*
X2342948Y-2727814D01*
X2333424Y-2708766D01*
X2333424Y-2699242D01*
X2342948Y-2680195D01*
X2361995Y-2670671D01*
X2390567Y-2670671D01*
X2409614Y-2680195D01*
X2485805Y-2880195D02*
X2495329Y-2870671D01*
X2514376Y-2842099D01*
X2523900Y-2823052D01*
X2533424Y-2794480D01*
X2542948Y-2746861D01*
X2542948Y-2708766D01*
X2533424Y-2661147D01*
X2523900Y-2632576D01*
X2514376Y-2613528D01*
X2495329Y-2584957D01*
X2485805Y-2575433D01*
D14*
X-2516576Y-2937528D02*
X-2516576Y-3017528D01*
X-2556576Y-2977528D02*
X-2476576Y-2977528D01*
D11*
X-2180862Y-2868004D02*
X-2161814Y-2868004D01*
X-2142767Y-2877528D01*
X-2133243Y-2887052D01*
X-2123719Y-2906099D01*
X-2114195Y-2944195D01*
X-2114195Y-2991814D01*
X-2123719Y-3029909D01*
X-2133243Y-3048956D01*
X-2142767Y-3058480D01*
X-2161814Y-3068004D01*
X-2180862Y-3068004D01*
X-2199909Y-3058480D01*
X-2209433Y-3048956D01*
X-2218957Y-3029909D01*
X-2228481Y-2991814D01*
X-2228481Y-2944195D01*
X-2218957Y-2906099D01*
X-2209433Y-2887052D01*
X-2199909Y-2877528D01*
X-2180862Y-2868004D01*
X-2028481Y-3048956D02*
X-2018957Y-3058480D01*
X-2028481Y-3068004D01*
X-2038005Y-3058480D01*
X-2028481Y-3048956D01*
X-2028481Y-3068004D01*
X-1904671Y-2953718D02*
X-1923719Y-2944195D01*
X-1933243Y-2934671D01*
X-1942766Y-2915623D01*
X-1942766Y-2906099D01*
X-1933243Y-2887052D01*
X-1923719Y-2877528D01*
X-1904671Y-2868004D01*
X-1866576Y-2868004D01*
X-1847528Y-2877528D01*
X-1838005Y-2887052D01*
X-1828481Y-2906099D01*
X-1828481Y-2915623D01*
X-1838005Y-2934671D01*
X-1847528Y-2944195D01*
X-1866576Y-2953718D01*
X-1904671Y-2953718D01*
X-1923719Y-2963242D01*
X-1933243Y-2972766D01*
X-1942766Y-2991814D01*
X-1942766Y-3029909D01*
X-1933243Y-3048956D01*
X-1923719Y-3058480D01*
X-1904671Y-3068004D01*
X-1866576Y-3068004D01*
X-1847528Y-3058480D01*
X-1838005Y-3048956D01*
X-1828481Y-3029909D01*
X-1828481Y-2991814D01*
X-1838005Y-2972766D01*
X-1847528Y-2963242D01*
X-1866576Y-2953718D01*
X-1704671Y-2868004D02*
X-1685624Y-2868004D01*
X-1666576Y-2877528D01*
X-1657052Y-2887052D01*
X-1647528Y-2906099D01*
X-1638005Y-2944195D01*
X-1638005Y-2991814D01*
X-1647528Y-3029909D01*
X-1657052Y-3048956D01*
X-1666576Y-3058480D01*
X-1685624Y-3068004D01*
X-1704671Y-3068004D01*
X-1723719Y-3058480D01*
X-1733243Y-3048956D01*
X-1742766Y-3029909D01*
X-1752290Y-2991814D01*
X-1752290Y-2944195D01*
X-1742766Y-2906099D01*
X-1733243Y-2887052D01*
X-1723719Y-2877528D01*
X-1704671Y-2868004D01*
X-1514195Y-2868004D02*
X-1495147Y-2868004D01*
X-1476100Y-2877528D01*
X-1466576Y-2887052D01*
X-1457052Y-2906099D01*
X-1447528Y-2944195D01*
X-1447528Y-2991814D01*
X-1457052Y-3029909D01*
X-1466576Y-3048956D01*
X-1476100Y-3058480D01*
X-1495147Y-3068004D01*
X-1514195Y-3068004D01*
X-1533243Y-3058480D01*
X-1542766Y-3048956D01*
X-1552290Y-3029909D01*
X-1561814Y-2991814D01*
X-1561814Y-2944195D01*
X-1552290Y-2906099D01*
X-1542766Y-2887052D01*
X-1533243Y-2877528D01*
X-1514195Y-2868004D01*
X-1361814Y-3068004D02*
X-1361814Y-2934671D01*
X-1361814Y-2953718D02*
X-1352290Y-2944195D01*
X-1333243Y-2934671D01*
X-1304671Y-2934671D01*
X-1285624Y-2944195D01*
X-1276100Y-2963242D01*
X-1276100Y-3068004D01*
X-1276100Y-2963242D02*
X-1266576Y-2944195D01*
X-1247528Y-2934671D01*
X-1218957Y-2934671D01*
X-1199909Y-2944195D01*
X-1190386Y-2963242D01*
X-1190386Y-3068004D01*
X-1095148Y-3068004D02*
X-1095148Y-2934671D01*
X-1095148Y-2953718D02*
X-1085624Y-2944195D01*
X-1066576Y-2934671D01*
X-1038005Y-2934671D01*
X-1018957Y-2944195D01*
X-1009433Y-2963242D01*
X-1009433Y-3068004D01*
X-1009433Y-2963242D02*
X-999909Y-2944195D01*
X-980862Y-2934671D01*
X-952290Y-2934671D01*
X-933243Y-2944195D01*
X-923719Y-2963242D01*
X-923719Y-3068004D01*
X-533243Y-2858480D02*
X-704671Y-3115623D01*
X-276100Y-2868004D02*
X-257052Y-2868004D01*
X-238005Y-2877528D01*
X-228481Y-2887052D01*
X-218957Y-2906099D01*
X-209433Y-2944195D01*
X-209433Y-2991814D01*
X-218957Y-3029909D01*
X-228481Y-3048956D01*
X-238005Y-3058480D01*
X-257052Y-3068004D01*
X-276100Y-3068004D01*
X-295148Y-3058480D01*
X-304671Y-3048956D01*
X-314195Y-3029909D01*
X-323719Y-2991814D01*
X-323719Y-2944195D01*
X-314195Y-2906099D01*
X-304671Y-2887052D01*
X-295148Y-2877528D01*
X-276100Y-2868004D01*
X-123719Y-3048956D02*
X-114195Y-3058480D01*
X-123719Y-3068004D01*
X-133243Y-3058480D01*
X-123719Y-3048956D01*
X-123719Y-3068004D01*
X9614Y-2868004D02*
X28662Y-2868004D01*
X47710Y-2877528D01*
X57233Y-2887052D01*
X66757Y-2906099D01*
X76281Y-2944195D01*
X76281Y-2991814D01*
X66757Y-3029909D01*
X57233Y-3048956D01*
X47710Y-3058480D01*
X28662Y-3068004D01*
X9614Y-3068004D01*
X-9433Y-3058480D01*
X-18957Y-3048956D01*
X-28481Y-3029909D01*
X-38005Y-2991814D01*
X-38005Y-2944195D01*
X-28481Y-2906099D01*
X-18957Y-2887052D01*
X-9433Y-2877528D01*
X9614Y-2868004D01*
X142948Y-2868004D02*
X266757Y-2868004D01*
X200091Y-2944195D01*
X228662Y-2944195D01*
X247710Y-2953718D01*
X257233Y-2963242D01*
X266757Y-2982290D01*
X266757Y-3029909D01*
X257233Y-3048956D01*
X247710Y-3058480D01*
X228662Y-3068004D01*
X171519Y-3068004D01*
X152472Y-3058480D01*
X142948Y-3048956D01*
X457233Y-3068004D02*
X342948Y-3068004D01*
X400091Y-3068004D02*
X400091Y-2868004D01*
X381043Y-2896576D01*
X361995Y-2915623D01*
X342948Y-2925147D01*
X638186Y-2868004D02*
X542948Y-2868004D01*
X533424Y-2963242D01*
X542948Y-2953718D01*
X561995Y-2944195D01*
X609614Y-2944195D01*
X628662Y-2953718D01*
X638186Y-2963242D01*
X647710Y-2982290D01*
X647710Y-3029909D01*
X638186Y-3048956D01*
X628662Y-3058480D01*
X609614Y-3068004D01*
X561995Y-3068004D01*
X542948Y-3058480D01*
X533424Y-3048956D01*
X723900Y-2868004D02*
X723900Y-2906099D01*
X800091Y-2868004D02*
X800091Y-2906099D01*
X1095329Y-3144195D02*
X1085805Y-3134671D01*
X1066757Y-3106099D01*
X1057234Y-3087052D01*
X1047710Y-3058480D01*
X1038186Y-3010861D01*
X1038186Y-2972766D01*
X1047710Y-2925147D01*
X1057234Y-2896576D01*
X1066757Y-2877528D01*
X1085805Y-2848956D01*
X1095329Y-2839433D01*
X1161995Y-2887052D02*
X1171519Y-2877528D01*
X1190567Y-2868004D01*
X1238186Y-2868004D01*
X1257234Y-2877528D01*
X1266757Y-2887052D01*
X1276281Y-2906099D01*
X1276281Y-2925147D01*
X1266757Y-2953718D01*
X1152472Y-3068004D01*
X1276281Y-3068004D01*
X1514376Y-3068004D02*
X1514376Y-2868004D01*
X1600091Y-3068004D02*
X1600091Y-2963242D01*
X1590567Y-2944195D01*
X1571519Y-2934671D01*
X1542948Y-2934671D01*
X1523900Y-2944195D01*
X1514376Y-2953718D01*
X1723900Y-3068004D02*
X1704852Y-3058480D01*
X1695329Y-3048956D01*
X1685805Y-3029909D01*
X1685805Y-2972766D01*
X1695329Y-2953718D01*
X1704852Y-2944195D01*
X1723900Y-2934671D01*
X1752472Y-2934671D01*
X1771519Y-2944195D01*
X1781043Y-2953718D01*
X1790567Y-2972766D01*
X1790567Y-3029909D01*
X1781043Y-3048956D01*
X1771519Y-3058480D01*
X1752472Y-3068004D01*
X1723900Y-3068004D01*
X1904852Y-3068004D02*
X1885805Y-3058480D01*
X1876281Y-3039433D01*
X1876281Y-2868004D01*
X2057233Y-3058480D02*
X2038186Y-3068004D01*
X2000091Y-3068004D01*
X1981043Y-3058480D01*
X1971519Y-3039433D01*
X1971519Y-2963242D01*
X1981043Y-2944195D01*
X2000091Y-2934671D01*
X2038186Y-2934671D01*
X2057233Y-2944195D01*
X2066757Y-2963242D01*
X2066757Y-2982290D01*
X1971519Y-3001337D01*
X2142948Y-3058480D02*
X2161995Y-3068004D01*
X2200091Y-3068004D01*
X2219138Y-3058480D01*
X2228662Y-3039433D01*
X2228662Y-3029909D01*
X2219138Y-3010861D01*
X2200091Y-3001337D01*
X2171519Y-3001337D01*
X2152472Y-2991814D01*
X2142948Y-2972766D01*
X2142948Y-2963242D01*
X2152472Y-2944195D01*
X2171519Y-2934671D01*
X2200091Y-2934671D01*
X2219138Y-2944195D01*
X2295329Y-3144195D02*
X2304853Y-3134671D01*
X2323900Y-3106099D01*
X2333424Y-3087052D01*
X2342948Y-3058480D01*
X2352472Y-3010861D01*
X2352472Y-2972766D01*
X2342948Y-2925147D01*
X2333424Y-2896576D01*
X2323900Y-2877528D01*
X2304853Y-2848956D01*
X2295329Y-2839433D01*
D15*
X-2491220Y-3276884D02*
X-2491220Y-3206172D01*
X-2561932Y-3206172D01*
X-2561932Y-3276884D01*
X-2491220Y-3276884D01*
D11*
X-2114195Y-3332004D02*
X-2228481Y-3332004D01*
X-2171338Y-3332004D02*
X-2171338Y-3132004D01*
X-2190386Y-3160576D01*
X-2209433Y-3179623D01*
X-2228481Y-3189147D01*
X-2028481Y-3312956D02*
X-2018957Y-3322480D01*
X-2028481Y-3332004D01*
X-2038005Y-3322480D01*
X-2028481Y-3312956D01*
X-2028481Y-3332004D01*
X-1895147Y-3132004D02*
X-1876100Y-3132004D01*
X-1857052Y-3141528D01*
X-1847528Y-3151052D01*
X-1838005Y-3170099D01*
X-1828481Y-3208195D01*
X-1828481Y-3255814D01*
X-1838005Y-3293909D01*
X-1847528Y-3312956D01*
X-1857052Y-3322480D01*
X-1876100Y-3332004D01*
X-1895147Y-3332004D01*
X-1914195Y-3322480D01*
X-1923719Y-3312956D01*
X-1933243Y-3293909D01*
X-1942766Y-3255814D01*
X-1942766Y-3208195D01*
X-1933243Y-3170099D01*
X-1923719Y-3151052D01*
X-1914195Y-3141528D01*
X-1895147Y-3132004D01*
X-1704671Y-3132004D02*
X-1685624Y-3132004D01*
X-1666576Y-3141528D01*
X-1657052Y-3151052D01*
X-1647528Y-3170099D01*
X-1638005Y-3208195D01*
X-1638005Y-3255814D01*
X-1647528Y-3293909D01*
X-1657052Y-3312956D01*
X-1666576Y-3322480D01*
X-1685624Y-3332004D01*
X-1704671Y-3332004D01*
X-1723719Y-3322480D01*
X-1733243Y-3312956D01*
X-1742766Y-3293909D01*
X-1752290Y-3255814D01*
X-1752290Y-3208195D01*
X-1742766Y-3170099D01*
X-1733243Y-3151052D01*
X-1723719Y-3141528D01*
X-1704671Y-3132004D01*
X-1514195Y-3132004D02*
X-1495147Y-3132004D01*
X-1476100Y-3141528D01*
X-1466576Y-3151052D01*
X-1457052Y-3170099D01*
X-1447528Y-3208195D01*
X-1447528Y-3255814D01*
X-1457052Y-3293909D01*
X-1466576Y-3312956D01*
X-1476100Y-3322480D01*
X-1495147Y-3332004D01*
X-1514195Y-3332004D01*
X-1533243Y-3322480D01*
X-1542766Y-3312956D01*
X-1552290Y-3293909D01*
X-1561814Y-3255814D01*
X-1561814Y-3208195D01*
X-1552290Y-3170099D01*
X-1542766Y-3151052D01*
X-1533243Y-3141528D01*
X-1514195Y-3132004D01*
X-1361814Y-3332004D02*
X-1361814Y-3198671D01*
X-1361814Y-3217718D02*
X-1352290Y-3208195D01*
X-1333243Y-3198671D01*
X-1304671Y-3198671D01*
X-1285624Y-3208195D01*
X-1276100Y-3227242D01*
X-1276100Y-3332004D01*
X-1276100Y-3227242D02*
X-1266576Y-3208195D01*
X-1247528Y-3198671D01*
X-1218957Y-3198671D01*
X-1199909Y-3208195D01*
X-1190386Y-3227242D01*
X-1190386Y-3332004D01*
X-1095148Y-3332004D02*
X-1095148Y-3198671D01*
X-1095148Y-3217718D02*
X-1085624Y-3208195D01*
X-1066576Y-3198671D01*
X-1038005Y-3198671D01*
X-1018957Y-3208195D01*
X-1009433Y-3227242D01*
X-1009433Y-3332004D01*
X-1009433Y-3227242D02*
X-999909Y-3208195D01*
X-980862Y-3198671D01*
X-952290Y-3198671D01*
X-933243Y-3208195D01*
X-923719Y-3227242D01*
X-923719Y-3332004D01*
X-533243Y-3122480D02*
X-704671Y-3379623D01*
X-276100Y-3132004D02*
X-257052Y-3132004D01*
X-238005Y-3141528D01*
X-228481Y-3151052D01*
X-218957Y-3170099D01*
X-209433Y-3208195D01*
X-209433Y-3255814D01*
X-218957Y-3293909D01*
X-228481Y-3312956D01*
X-238005Y-3322480D01*
X-257052Y-3332004D01*
X-276100Y-3332004D01*
X-295148Y-3322480D01*
X-304671Y-3312956D01*
X-314195Y-3293909D01*
X-323719Y-3255814D01*
X-323719Y-3208195D01*
X-314195Y-3170099D01*
X-304671Y-3151052D01*
X-295148Y-3141528D01*
X-276100Y-3132004D01*
X-123719Y-3312956D02*
X-114195Y-3322480D01*
X-123719Y-3332004D01*
X-133243Y-3322480D01*
X-123719Y-3312956D01*
X-123719Y-3332004D01*
X9614Y-3132004D02*
X28662Y-3132004D01*
X47710Y-3141528D01*
X57233Y-3151052D01*
X66757Y-3170099D01*
X76281Y-3208195D01*
X76281Y-3255814D01*
X66757Y-3293909D01*
X57233Y-3312956D01*
X47710Y-3322480D01*
X28662Y-3332004D01*
X9614Y-3332004D01*
X-9433Y-3322480D01*
X-18957Y-3312956D01*
X-28481Y-3293909D01*
X-38005Y-3255814D01*
X-38005Y-3208195D01*
X-28481Y-3170099D01*
X-18957Y-3151052D01*
X-9433Y-3141528D01*
X9614Y-3132004D01*
X142948Y-3132004D02*
X266757Y-3132004D01*
X200091Y-3208195D01*
X228662Y-3208195D01*
X247710Y-3217718D01*
X257233Y-3227242D01*
X266757Y-3246290D01*
X266757Y-3293909D01*
X257233Y-3312956D01*
X247710Y-3322480D01*
X228662Y-3332004D01*
X171519Y-3332004D01*
X152472Y-3322480D01*
X142948Y-3312956D01*
X361995Y-3332004D02*
X400091Y-3332004D01*
X419138Y-3322480D01*
X428662Y-3312956D01*
X447710Y-3284385D01*
X457233Y-3246290D01*
X457233Y-3170099D01*
X447710Y-3151052D01*
X438186Y-3141528D01*
X419138Y-3132004D01*
X381043Y-3132004D01*
X361995Y-3141528D01*
X352472Y-3151052D01*
X342948Y-3170099D01*
X342948Y-3217718D01*
X352472Y-3236766D01*
X361995Y-3246290D01*
X381043Y-3255814D01*
X419138Y-3255814D01*
X438186Y-3246290D01*
X447710Y-3236766D01*
X457233Y-3217718D01*
X628662Y-3198671D02*
X628662Y-3332004D01*
X581043Y-3122480D02*
X533424Y-3265337D01*
X657234Y-3265337D01*
X723900Y-3132004D02*
X723900Y-3170099D01*
X800091Y-3132004D02*
X800091Y-3170099D01*
X1095329Y-3408195D02*
X1085805Y-3398671D01*
X1066757Y-3370099D01*
X1057234Y-3351052D01*
X1047710Y-3322480D01*
X1038186Y-3274861D01*
X1038186Y-3236766D01*
X1047710Y-3189147D01*
X1057234Y-3160576D01*
X1066757Y-3141528D01*
X1085805Y-3112956D01*
X1095329Y-3103433D01*
X1266757Y-3132004D02*
X1171519Y-3132004D01*
X1161995Y-3227242D01*
X1171519Y-3217718D01*
X1190567Y-3208195D01*
X1238186Y-3208195D01*
X1257234Y-3217718D01*
X1266757Y-3227242D01*
X1276281Y-3246290D01*
X1276281Y-3293909D01*
X1266757Y-3312956D01*
X1257234Y-3322480D01*
X1238186Y-3332004D01*
X1190567Y-3332004D01*
X1171519Y-3322480D01*
X1161995Y-3312956D01*
X1514376Y-3332004D02*
X1514376Y-3132004D01*
X1600091Y-3332004D02*
X1600091Y-3227242D01*
X1590567Y-3208195D01*
X1571519Y-3198671D01*
X1542948Y-3198671D01*
X1523900Y-3208195D01*
X1514376Y-3217718D01*
X1723900Y-3332004D02*
X1704852Y-3322480D01*
X1695329Y-3312956D01*
X1685805Y-3293909D01*
X1685805Y-3236766D01*
X1695329Y-3217718D01*
X1704852Y-3208195D01*
X1723900Y-3198671D01*
X1752472Y-3198671D01*
X1771519Y-3208195D01*
X1781043Y-3217718D01*
X1790567Y-3236766D01*
X1790567Y-3293909D01*
X1781043Y-3312956D01*
X1771519Y-3322480D01*
X1752472Y-3332004D01*
X1723900Y-3332004D01*
X1904852Y-3332004D02*
X1885805Y-3322480D01*
X1876281Y-3303433D01*
X1876281Y-3132004D01*
X2057233Y-3322480D02*
X2038186Y-3332004D01*
X2000091Y-3332004D01*
X1981043Y-3322480D01*
X1971519Y-3303433D01*
X1971519Y-3227242D01*
X1981043Y-3208195D01*
X2000091Y-3198671D01*
X2038186Y-3198671D01*
X2057233Y-3208195D01*
X2066757Y-3227242D01*
X2066757Y-3246290D01*
X1971519Y-3265337D01*
X2142948Y-3322480D02*
X2161995Y-3332004D01*
X2200091Y-3332004D01*
X2219138Y-3322480D01*
X2228662Y-3303433D01*
X2228662Y-3293909D01*
X2219138Y-3274861D01*
X2200091Y-3265337D01*
X2171519Y-3265337D01*
X2152472Y-3255814D01*
X2142948Y-3236766D01*
X2142948Y-3227242D01*
X2152472Y-3208195D01*
X2171519Y-3198671D01*
X2200091Y-3198671D01*
X2219138Y-3208195D01*
X2295329Y-3408195D02*
X2304853Y-3398671D01*
X2323900Y-3370099D01*
X2333424Y-3351052D01*
X2342948Y-3322480D01*
X2352472Y-3274861D01*
X2352472Y-3236766D01*
X2342948Y-3189147D01*
X2333424Y-3160576D01*
X2323900Y-3141528D01*
X2304853Y-3112956D01*
X2295329Y-3103433D01*
D16*
X-2531576Y-3560528D02*
X-2476576Y-3505528D01*
X-2531576Y-3450528D01*
X-2586576Y-3505528D01*
X-2531576Y-3560528D01*
D11*
X-2114195Y-3596004D02*
X-2228481Y-3596004D01*
X-2171338Y-3596004D02*
X-2171338Y-3396004D01*
X-2190386Y-3424576D01*
X-2209433Y-3443623D01*
X-2228481Y-3453147D01*
X-2028481Y-3576956D02*
X-2018957Y-3586480D01*
X-2028481Y-3596004D01*
X-2038005Y-3586480D01*
X-2028481Y-3576956D01*
X-2028481Y-3596004D01*
X-1828481Y-3596004D02*
X-1942766Y-3596004D01*
X-1885624Y-3596004D02*
X-1885624Y-3396004D01*
X-1904671Y-3424576D01*
X-1923719Y-3443623D01*
X-1942766Y-3453147D01*
X-1704671Y-3396004D02*
X-1685624Y-3396004D01*
X-1666576Y-3405528D01*
X-1657052Y-3415052D01*
X-1647528Y-3434099D01*
X-1638005Y-3472195D01*
X-1638005Y-3519814D01*
X-1647528Y-3557909D01*
X-1657052Y-3576956D01*
X-1666576Y-3586480D01*
X-1685624Y-3596004D01*
X-1704671Y-3596004D01*
X-1723719Y-3586480D01*
X-1733243Y-3576956D01*
X-1742766Y-3557909D01*
X-1752290Y-3519814D01*
X-1752290Y-3472195D01*
X-1742766Y-3434099D01*
X-1733243Y-3415052D01*
X-1723719Y-3405528D01*
X-1704671Y-3396004D01*
X-1514195Y-3396004D02*
X-1495147Y-3396004D01*
X-1476100Y-3405528D01*
X-1466576Y-3415052D01*
X-1457052Y-3434099D01*
X-1447528Y-3472195D01*
X-1447528Y-3519814D01*
X-1457052Y-3557909D01*
X-1466576Y-3576956D01*
X-1476100Y-3586480D01*
X-1495147Y-3596004D01*
X-1514195Y-3596004D01*
X-1533243Y-3586480D01*
X-1542766Y-3576956D01*
X-1552290Y-3557909D01*
X-1561814Y-3519814D01*
X-1561814Y-3472195D01*
X-1552290Y-3434099D01*
X-1542766Y-3415052D01*
X-1533243Y-3405528D01*
X-1514195Y-3396004D01*
X-1361814Y-3596004D02*
X-1361814Y-3462671D01*
X-1361814Y-3481718D02*
X-1352290Y-3472195D01*
X-1333243Y-3462671D01*
X-1304671Y-3462671D01*
X-1285624Y-3472195D01*
X-1276100Y-3491242D01*
X-1276100Y-3596004D01*
X-1276100Y-3491242D02*
X-1266576Y-3472195D01*
X-1247528Y-3462671D01*
X-1218957Y-3462671D01*
X-1199909Y-3472195D01*
X-1190386Y-3491242D01*
X-1190386Y-3596004D01*
X-1095148Y-3596004D02*
X-1095148Y-3462671D01*
X-1095148Y-3481718D02*
X-1085624Y-3472195D01*
X-1066576Y-3462671D01*
X-1038005Y-3462671D01*
X-1018957Y-3472195D01*
X-1009433Y-3491242D01*
X-1009433Y-3596004D01*
X-1009433Y-3491242D02*
X-999909Y-3472195D01*
X-980862Y-3462671D01*
X-952290Y-3462671D01*
X-933243Y-3472195D01*
X-923719Y-3491242D01*
X-923719Y-3596004D01*
X-533243Y-3386480D02*
X-704671Y-3643623D01*
X-276100Y-3396004D02*
X-257052Y-3396004D01*
X-238005Y-3405528D01*
X-228481Y-3415052D01*
X-218957Y-3434099D01*
X-209433Y-3472195D01*
X-209433Y-3519814D01*
X-218957Y-3557909D01*
X-228481Y-3576956D01*
X-238005Y-3586480D01*
X-257052Y-3596004D01*
X-276100Y-3596004D01*
X-295148Y-3586480D01*
X-304671Y-3576956D01*
X-314195Y-3557909D01*
X-323719Y-3519814D01*
X-323719Y-3472195D01*
X-314195Y-3434099D01*
X-304671Y-3415052D01*
X-295148Y-3405528D01*
X-276100Y-3396004D01*
X-123719Y-3576956D02*
X-114195Y-3586480D01*
X-123719Y-3596004D01*
X-133243Y-3586480D01*
X-123719Y-3576956D01*
X-123719Y-3596004D01*
X9614Y-3396004D02*
X28662Y-3396004D01*
X47710Y-3405528D01*
X57233Y-3415052D01*
X66757Y-3434099D01*
X76281Y-3472195D01*
X76281Y-3519814D01*
X66757Y-3557909D01*
X57233Y-3576956D01*
X47710Y-3586480D01*
X28662Y-3596004D01*
X9614Y-3596004D01*
X-9433Y-3586480D01*
X-18957Y-3576956D01*
X-28481Y-3557909D01*
X-38005Y-3519814D01*
X-38005Y-3472195D01*
X-28481Y-3434099D01*
X-18957Y-3415052D01*
X-9433Y-3405528D01*
X9614Y-3396004D01*
X247710Y-3462671D02*
X247710Y-3596004D01*
X200091Y-3386480D02*
X152472Y-3529337D01*
X276281Y-3529337D01*
X333424Y-3396004D02*
X457233Y-3396004D01*
X390567Y-3472195D01*
X419138Y-3472195D01*
X438186Y-3481718D01*
X447710Y-3491242D01*
X457233Y-3510290D01*
X457233Y-3557909D01*
X447710Y-3576956D01*
X438186Y-3586480D01*
X419138Y-3596004D01*
X361995Y-3596004D01*
X342948Y-3586480D01*
X333424Y-3576956D01*
X523900Y-3396004D02*
X647710Y-3396004D01*
X581043Y-3472195D01*
X609614Y-3472195D01*
X628662Y-3481718D01*
X638186Y-3491242D01*
X647710Y-3510290D01*
X647710Y-3557909D01*
X638186Y-3576956D01*
X628662Y-3586480D01*
X609614Y-3596004D01*
X552472Y-3596004D01*
X533424Y-3586480D01*
X523900Y-3576956D01*
X723900Y-3396004D02*
X723900Y-3434099D01*
X800091Y-3396004D02*
X800091Y-3434099D01*
X1095329Y-3672195D02*
X1085805Y-3662671D01*
X1066757Y-3634099D01*
X1057234Y-3615052D01*
X1047710Y-3586480D01*
X1038186Y-3538861D01*
X1038186Y-3500766D01*
X1047710Y-3453147D01*
X1057234Y-3424576D01*
X1066757Y-3405528D01*
X1085805Y-3376956D01*
X1095329Y-3367433D01*
X1152472Y-3396004D02*
X1285805Y-3396004D01*
X1200091Y-3596004D01*
X1514376Y-3596004D02*
X1514376Y-3396004D01*
X1600091Y-3596004D02*
X1600091Y-3491242D01*
X1590567Y-3472195D01*
X1571519Y-3462671D01*
X1542948Y-3462671D01*
X1523900Y-3472195D01*
X1514376Y-3481718D01*
X1723900Y-3596004D02*
X1704852Y-3586480D01*
X1695329Y-3576956D01*
X1685805Y-3557909D01*
X1685805Y-3500766D01*
X1695329Y-3481718D01*
X1704852Y-3472195D01*
X1723900Y-3462671D01*
X1752472Y-3462671D01*
X1771519Y-3472195D01*
X1781043Y-3481718D01*
X1790567Y-3500766D01*
X1790567Y-3557909D01*
X1781043Y-3576956D01*
X1771519Y-3586480D01*
X1752472Y-3596004D01*
X1723900Y-3596004D01*
X1904852Y-3596004D02*
X1885805Y-3586480D01*
X1876281Y-3567433D01*
X1876281Y-3396004D01*
X2057233Y-3586480D02*
X2038186Y-3596004D01*
X2000091Y-3596004D01*
X1981043Y-3586480D01*
X1971519Y-3567433D01*
X1971519Y-3491242D01*
X1981043Y-3472195D01*
X2000091Y-3462671D01*
X2038186Y-3462671D01*
X2057233Y-3472195D01*
X2066757Y-3491242D01*
X2066757Y-3510290D01*
X1971519Y-3529337D01*
X2142948Y-3586480D02*
X2161995Y-3596004D01*
X2200091Y-3596004D01*
X2219138Y-3586480D01*
X2228662Y-3567433D01*
X2228662Y-3557909D01*
X2219138Y-3538861D01*
X2200091Y-3529337D01*
X2171519Y-3529337D01*
X2152472Y-3519814D01*
X2142948Y-3500766D01*
X2142948Y-3491242D01*
X2152472Y-3472195D01*
X2171519Y-3462671D01*
X2200091Y-3462671D01*
X2219138Y-3472195D01*
X2295329Y-3672195D02*
X2304853Y-3662671D01*
X2323900Y-3634099D01*
X2333424Y-3615052D01*
X2342948Y-3586480D01*
X2352472Y-3538861D01*
X2352472Y-3500766D01*
X2342948Y-3453147D01*
X2333424Y-3424576D01*
X2323900Y-3405528D01*
X2304853Y-3376956D01*
X2295329Y-3367433D01*
D17*
X-2626576Y-3694528D02*
X-2476576Y-3844528D01*
X-2476576Y-3694528D02*
X-2626576Y-3844528D01*
X-2476576Y-3769528D02*
G75*
G03*
X-2476576Y-3769528I-75000J0D01*
G01*
D11*
X-2114195Y-3860004D02*
X-2228481Y-3860004D01*
X-2171338Y-3860004D02*
X-2171338Y-3660004D01*
X-2190386Y-3688576D01*
X-2209433Y-3707623D01*
X-2228481Y-3717147D01*
X-2028481Y-3840956D02*
X-2018957Y-3850480D01*
X-2028481Y-3860004D01*
X-2038005Y-3850480D01*
X-2028481Y-3840956D01*
X-2028481Y-3860004D01*
X-1838005Y-3660004D02*
X-1933243Y-3660004D01*
X-1942766Y-3755242D01*
X-1933243Y-3745718D01*
X-1914195Y-3736195D01*
X-1866576Y-3736195D01*
X-1847528Y-3745718D01*
X-1838005Y-3755242D01*
X-1828481Y-3774290D01*
X-1828481Y-3821909D01*
X-1838005Y-3840956D01*
X-1847528Y-3850480D01*
X-1866576Y-3860004D01*
X-1914195Y-3860004D01*
X-1933243Y-3850480D01*
X-1942766Y-3840956D01*
X-1704671Y-3660004D02*
X-1685624Y-3660004D01*
X-1666576Y-3669528D01*
X-1657052Y-3679052D01*
X-1647528Y-3698099D01*
X-1638005Y-3736195D01*
X-1638005Y-3783814D01*
X-1647528Y-3821909D01*
X-1657052Y-3840956D01*
X-1666576Y-3850480D01*
X-1685624Y-3860004D01*
X-1704671Y-3860004D01*
X-1723719Y-3850480D01*
X-1733243Y-3840956D01*
X-1742766Y-3821909D01*
X-1752290Y-3783814D01*
X-1752290Y-3736195D01*
X-1742766Y-3698099D01*
X-1733243Y-3679052D01*
X-1723719Y-3669528D01*
X-1704671Y-3660004D01*
X-1514195Y-3660004D02*
X-1495147Y-3660004D01*
X-1476100Y-3669528D01*
X-1466576Y-3679052D01*
X-1457052Y-3698099D01*
X-1447528Y-3736195D01*
X-1447528Y-3783814D01*
X-1457052Y-3821909D01*
X-1466576Y-3840956D01*
X-1476100Y-3850480D01*
X-1495147Y-3860004D01*
X-1514195Y-3860004D01*
X-1533243Y-3850480D01*
X-1542766Y-3840956D01*
X-1552290Y-3821909D01*
X-1561814Y-3783814D01*
X-1561814Y-3736195D01*
X-1552290Y-3698099D01*
X-1542766Y-3679052D01*
X-1533243Y-3669528D01*
X-1514195Y-3660004D01*
X-1361814Y-3860004D02*
X-1361814Y-3726671D01*
X-1361814Y-3745718D02*
X-1352290Y-3736195D01*
X-1333243Y-3726671D01*
X-1304671Y-3726671D01*
X-1285624Y-3736195D01*
X-1276100Y-3755242D01*
X-1276100Y-3860004D01*
X-1276100Y-3755242D02*
X-1266576Y-3736195D01*
X-1247528Y-3726671D01*
X-1218957Y-3726671D01*
X-1199909Y-3736195D01*
X-1190386Y-3755242D01*
X-1190386Y-3860004D01*
X-1095148Y-3860004D02*
X-1095148Y-3726671D01*
X-1095148Y-3745718D02*
X-1085624Y-3736195D01*
X-1066576Y-3726671D01*
X-1038005Y-3726671D01*
X-1018957Y-3736195D01*
X-1009433Y-3755242D01*
X-1009433Y-3860004D01*
X-1009433Y-3755242D02*
X-999909Y-3736195D01*
X-980862Y-3726671D01*
X-952290Y-3726671D01*
X-933243Y-3736195D01*
X-923719Y-3755242D01*
X-923719Y-3860004D01*
X-533243Y-3650480D02*
X-704671Y-3907623D01*
X-276100Y-3660004D02*
X-257052Y-3660004D01*
X-238005Y-3669528D01*
X-228481Y-3679052D01*
X-218957Y-3698099D01*
X-209433Y-3736195D01*
X-209433Y-3783814D01*
X-218957Y-3821909D01*
X-228481Y-3840956D01*
X-238005Y-3850480D01*
X-257052Y-3860004D01*
X-276100Y-3860004D01*
X-295148Y-3850480D01*
X-304671Y-3840956D01*
X-314195Y-3821909D01*
X-323719Y-3783814D01*
X-323719Y-3736195D01*
X-314195Y-3698099D01*
X-304671Y-3679052D01*
X-295148Y-3669528D01*
X-276100Y-3660004D01*
X-123719Y-3840956D02*
X-114195Y-3850480D01*
X-123719Y-3860004D01*
X-133243Y-3850480D01*
X-123719Y-3840956D01*
X-123719Y-3860004D01*
X9614Y-3660004D02*
X28662Y-3660004D01*
X47710Y-3669528D01*
X57233Y-3679052D01*
X66757Y-3698099D01*
X76281Y-3736195D01*
X76281Y-3783814D01*
X66757Y-3821909D01*
X57233Y-3840956D01*
X47710Y-3850480D01*
X28662Y-3860004D01*
X9614Y-3860004D01*
X-9433Y-3850480D01*
X-18957Y-3840956D01*
X-28481Y-3821909D01*
X-38005Y-3783814D01*
X-38005Y-3736195D01*
X-28481Y-3698099D01*
X-18957Y-3679052D01*
X-9433Y-3669528D01*
X9614Y-3660004D01*
X257233Y-3660004D02*
X161995Y-3660004D01*
X152472Y-3755242D01*
X161995Y-3745718D01*
X181043Y-3736195D01*
X228662Y-3736195D01*
X247710Y-3745718D01*
X257233Y-3755242D01*
X266757Y-3774290D01*
X266757Y-3821909D01*
X257233Y-3840956D01*
X247710Y-3850480D01*
X228662Y-3860004D01*
X181043Y-3860004D01*
X161995Y-3850480D01*
X152472Y-3840956D01*
X361995Y-3860004D02*
X400091Y-3860004D01*
X419138Y-3850480D01*
X428662Y-3840956D01*
X447710Y-3812385D01*
X457233Y-3774290D01*
X457233Y-3698099D01*
X447710Y-3679052D01*
X438186Y-3669528D01*
X419138Y-3660004D01*
X381043Y-3660004D01*
X361995Y-3669528D01*
X352472Y-3679052D01*
X342948Y-3698099D01*
X342948Y-3745718D01*
X352472Y-3764766D01*
X361995Y-3774290D01*
X381043Y-3783814D01*
X419138Y-3783814D01*
X438186Y-3774290D01*
X447710Y-3764766D01*
X457233Y-3745718D01*
X647710Y-3860004D02*
X533424Y-3860004D01*
X590567Y-3860004D02*
X590567Y-3660004D01*
X571519Y-3688576D01*
X552472Y-3707623D01*
X533424Y-3717147D01*
X723900Y-3660004D02*
X723900Y-3698099D01*
X800091Y-3660004D02*
X800091Y-3698099D01*
X1095329Y-3936195D02*
X1085805Y-3926671D01*
X1066757Y-3898099D01*
X1057234Y-3879052D01*
X1047710Y-3850480D01*
X1038186Y-3802861D01*
X1038186Y-3764766D01*
X1047710Y-3717147D01*
X1057234Y-3688576D01*
X1066757Y-3669528D01*
X1085805Y-3640956D01*
X1095329Y-3631433D01*
X1161995Y-3679052D02*
X1171519Y-3669528D01*
X1190567Y-3660004D01*
X1238186Y-3660004D01*
X1257234Y-3669528D01*
X1266757Y-3679052D01*
X1276281Y-3698099D01*
X1276281Y-3717147D01*
X1266757Y-3745718D01*
X1152472Y-3860004D01*
X1276281Y-3860004D01*
X1514376Y-3860004D02*
X1514376Y-3660004D01*
X1600091Y-3860004D02*
X1600091Y-3755242D01*
X1590567Y-3736195D01*
X1571519Y-3726671D01*
X1542948Y-3726671D01*
X1523900Y-3736195D01*
X1514376Y-3745718D01*
X1723900Y-3860004D02*
X1704852Y-3850480D01*
X1695329Y-3840956D01*
X1685805Y-3821909D01*
X1685805Y-3764766D01*
X1695329Y-3745718D01*
X1704852Y-3736195D01*
X1723900Y-3726671D01*
X1752472Y-3726671D01*
X1771519Y-3736195D01*
X1781043Y-3745718D01*
X1790567Y-3764766D01*
X1790567Y-3821909D01*
X1781043Y-3840956D01*
X1771519Y-3850480D01*
X1752472Y-3860004D01*
X1723900Y-3860004D01*
X1904852Y-3860004D02*
X1885805Y-3850480D01*
X1876281Y-3831433D01*
X1876281Y-3660004D01*
X2057233Y-3850480D02*
X2038186Y-3860004D01*
X2000091Y-3860004D01*
X1981043Y-3850480D01*
X1971519Y-3831433D01*
X1971519Y-3755242D01*
X1981043Y-3736195D01*
X2000091Y-3726671D01*
X2038186Y-3726671D01*
X2057233Y-3736195D01*
X2066757Y-3755242D01*
X2066757Y-3774290D01*
X1971519Y-3793337D01*
X2142948Y-3850480D02*
X2161995Y-3860004D01*
X2200091Y-3860004D01*
X2219138Y-3850480D01*
X2228662Y-3831433D01*
X2228662Y-3821909D01*
X2219138Y-3802861D01*
X2200091Y-3793337D01*
X2171519Y-3793337D01*
X2152472Y-3783814D01*
X2142948Y-3764766D01*
X2142948Y-3755242D01*
X2152472Y-3736195D01*
X2171519Y-3726671D01*
X2200091Y-3726671D01*
X2219138Y-3736195D01*
X2295329Y-3936195D02*
X2304853Y-3926671D01*
X2323900Y-3898099D01*
X2333424Y-3879052D01*
X2342948Y-3850480D01*
X2352472Y-3802861D01*
X2352472Y-3764766D01*
X2342948Y-3717147D01*
X2333424Y-3688576D01*
X2323900Y-3669528D01*
X2304853Y-3640956D01*
X2295329Y-3631433D01*
M02*
